G04 #@! TF.GenerationSoftware,KiCad,Pcbnew,5.1.2+dfsg1-1*
G04 #@! TF.CreationDate,2019-07-23T12:53:29+03:00*
G04 #@! TF.ProjectId,cps1_adapter,63707331-5f61-4646-9170-7465722e6b69,rev?*
G04 #@! TF.SameCoordinates,Original*
G04 #@! TF.FileFunction,Copper,L2,Bot*
G04 #@! TF.FilePolarity,Positive*
%FSLAX46Y46*%
G04 Gerber Fmt 4.6, Leading zero omitted, Abs format (unit mm)*
G04 Created by KiCad (PCBNEW 5.1.2+dfsg1-1) date 2019-07-23 12:53:29*
%MOMM*%
%LPD*%
G04 APERTURE LIST*
%ADD10C,1.500000*%
%ADD11C,0.660000*%
%ADD12C,0.200000*%
%ADD13C,0.400000*%
%ADD14C,0.500000*%
%ADD15C,0.300000*%
%ADD16C,0.254000*%
G04 APERTURE END LIST*
D10*
X43445000Y-35500000D03*
X51065000Y-45660000D03*
X43445000Y-38040000D03*
X51065000Y-43120000D03*
X43445000Y-40580000D03*
X51065000Y-40580000D03*
X43445000Y-43120000D03*
X51065000Y-38040000D03*
X43445000Y-45660000D03*
X51065000Y-35500000D03*
X68845000Y-57140000D03*
X61225000Y-67300000D03*
X68845000Y-59680000D03*
X61225000Y-64760000D03*
X68845000Y-62220000D03*
X61225000Y-62220000D03*
X68845000Y-64760000D03*
X61225000Y-59680000D03*
X68845000Y-67300000D03*
X61225000Y-57140000D03*
X43445000Y-80000000D03*
X51065000Y-90160000D03*
X43445000Y-82540000D03*
X51065000Y-87620000D03*
X43445000Y-85080000D03*
X51065000Y-85080000D03*
X43445000Y-87620000D03*
X51065000Y-82540000D03*
X43445000Y-90160000D03*
X51065000Y-80000000D03*
X68845000Y-80000000D03*
X61225000Y-90160000D03*
X68845000Y-82540000D03*
X61225000Y-87620000D03*
X68845000Y-85080000D03*
X61225000Y-85080000D03*
X68845000Y-87620000D03*
X61225000Y-82540000D03*
X68845000Y-90160000D03*
X61225000Y-80000000D03*
X61225000Y-35500000D03*
X68845000Y-45660000D03*
X61225000Y-38040000D03*
X68845000Y-43120000D03*
X61225000Y-40580000D03*
X68845000Y-40580000D03*
X61225000Y-43120000D03*
X68845000Y-38040000D03*
X61225000Y-45660000D03*
X68845000Y-35500000D03*
D11*
X45300000Y-69540000D03*
X45300000Y-71540000D03*
X45300000Y-64010000D03*
X45840000Y-61460000D03*
X42680000Y-78210000D03*
X55440000Y-71730000D03*
X52940000Y-74130000D03*
X59330000Y-76980000D03*
X57900000Y-81210000D03*
X58790000Y-63400000D03*
X58330000Y-60110000D03*
X53900000Y-62910000D03*
X50990000Y-62370000D03*
X52980000Y-59500000D03*
X66580000Y-76380000D03*
X66580000Y-74240000D03*
X66580000Y-72360000D03*
X66580000Y-70690000D03*
X53330000Y-55320000D03*
X54790000Y-55320000D03*
X56380000Y-55320000D03*
X57800000Y-55320000D03*
X57910000Y-82280000D03*
X58860000Y-83220000D03*
X58840000Y-81760000D03*
X56350000Y-80760000D03*
X56500000Y-84620000D03*
X55590000Y-83740000D03*
X54700000Y-82840000D03*
X54680000Y-84630000D03*
X55550000Y-85480000D03*
X56340000Y-86200000D03*
X57400000Y-87230000D03*
X57400000Y-85520000D03*
X59570000Y-75490000D03*
X59540000Y-74320000D03*
X59540000Y-72970000D03*
X59580000Y-71820000D03*
X51800000Y-55310000D03*
X50330000Y-55320000D03*
X52990000Y-57230000D03*
X43610000Y-55300000D03*
X47470000Y-58730000D03*
X45440000Y-58360000D03*
X59170000Y-55320000D03*
X69740000Y-55380000D03*
X45800000Y-62530000D03*
X46160012Y-71500026D03*
X51350000Y-74130000D03*
X53060000Y-68380000D03*
X55610000Y-70700000D03*
X54190000Y-67910000D03*
X70980001Y-50510001D03*
X70989998Y-49420000D03*
X55270000Y-48130000D03*
X70990000Y-48310002D03*
X53942497Y-50402533D03*
X67620000Y-48360000D03*
X67750000Y-49640000D03*
X51238335Y-50578335D03*
X42190000Y-49500002D03*
X52490000Y-49740000D03*
X42050000Y-48430000D03*
X53440000Y-49109998D03*
X54310000Y-48130000D03*
X46810000Y-70220000D03*
X47500000Y-60300000D03*
D12*
X45300000Y-69540000D02*
X45300000Y-71540000D01*
D13*
X45300000Y-64476690D02*
X45300000Y-69540000D01*
X45300000Y-64010000D02*
X45300000Y-64476690D01*
D12*
X45300000Y-63543310D02*
X45110000Y-63353310D01*
X45300000Y-64010000D02*
X45300000Y-63543310D01*
X45110000Y-63353310D02*
X45110000Y-62287598D01*
X45840000Y-61557598D02*
X45840000Y-61460000D01*
X45110000Y-62287598D02*
X45840000Y-61557598D01*
D13*
X55440000Y-71730000D02*
X55340000Y-71730000D01*
X55340000Y-71730000D02*
X52940000Y-74130000D01*
X59000001Y-77309999D02*
X59000001Y-78079999D01*
X59330000Y-76980000D02*
X59000001Y-77309999D01*
X59000001Y-78079999D02*
X57900000Y-79180000D01*
X57900000Y-79180000D02*
X57900000Y-81210000D01*
D14*
X58790000Y-63400000D02*
X58790000Y-60570000D01*
X58790000Y-60570000D02*
X58330000Y-60110000D01*
X53900000Y-62910000D02*
X53510000Y-62520000D01*
X53510000Y-62520000D02*
X51140000Y-62520000D01*
X51140000Y-62520000D02*
X50990000Y-62370000D01*
D13*
X52980000Y-59500000D02*
X51830000Y-59500000D01*
X50990000Y-60340000D02*
X50990000Y-62370000D01*
X51830000Y-59500000D02*
X50990000Y-60340000D01*
X52980000Y-61990000D02*
X53900000Y-62910000D01*
X52980000Y-59500000D02*
X52980000Y-61990000D01*
X59796690Y-76980000D02*
X60066690Y-76710000D01*
X59330000Y-76980000D02*
X59796690Y-76980000D01*
X60066690Y-76710000D02*
X66250000Y-76710000D01*
X66250000Y-76710000D02*
X66580000Y-76380000D01*
X66580000Y-74240000D02*
X66580000Y-72360000D01*
D14*
X53330000Y-55320000D02*
X54790000Y-55320000D01*
X56380000Y-55320000D02*
X57800000Y-55320000D01*
X57900000Y-81210000D02*
X57900000Y-82270000D01*
X57900000Y-82270000D02*
X57910000Y-82280000D01*
X58860000Y-83220000D02*
X58860000Y-81780000D01*
X58860000Y-81780000D02*
X58840000Y-81760000D01*
X56500000Y-84620000D02*
X56470000Y-84620000D01*
X56470000Y-84620000D02*
X55590000Y-83740000D01*
X54700000Y-82840000D02*
X54700000Y-84610000D01*
X54700000Y-84610000D02*
X54680000Y-84630000D01*
X55550000Y-85480000D02*
X55620000Y-85480000D01*
X55620000Y-85480000D02*
X56340000Y-86200000D01*
D15*
X59570000Y-75490000D02*
X59570000Y-74350000D01*
X59570000Y-74350000D02*
X59540000Y-74320000D01*
X59540000Y-72970000D02*
X59540000Y-71860000D01*
X59540000Y-71860000D02*
X59580000Y-71820000D01*
D14*
X51780000Y-55330000D02*
X51800000Y-55310000D01*
X50170000Y-55330000D02*
X51780000Y-55330000D01*
X49350000Y-55320000D02*
X50330000Y-55320000D01*
D15*
X52990000Y-57230000D02*
X52990000Y-59490000D01*
X52990000Y-59490000D02*
X52980000Y-59500000D01*
D14*
X48420000Y-55320000D02*
X50330000Y-55320000D01*
X46290000Y-57450000D02*
X48420000Y-55320000D01*
X46020000Y-60813310D02*
X46020000Y-57710000D01*
X45840000Y-61460000D02*
X45840000Y-60993310D01*
X45840000Y-60993310D02*
X46020000Y-60813310D01*
X46020000Y-57710000D02*
X46270000Y-57460000D01*
D15*
X45769999Y-58030001D02*
X45440000Y-58360000D01*
X45859993Y-57940007D02*
X45769999Y-58030001D01*
D12*
X47100000Y-58360000D02*
X45906690Y-58360000D01*
X45906690Y-58360000D02*
X45440000Y-58360000D01*
X47470000Y-58730000D02*
X47100000Y-58360000D01*
D14*
X59170000Y-55320000D02*
X59870000Y-54620000D01*
X59870000Y-54620000D02*
X68980000Y-54620000D01*
X68980000Y-54620000D02*
X69740000Y-55380000D01*
D12*
X46080000Y-71420014D02*
X46160012Y-71500026D01*
X45800000Y-62530000D02*
X46080000Y-62810000D01*
X46080000Y-62810000D02*
X46080000Y-71420014D01*
D15*
X52620000Y-68820000D02*
X53060000Y-68380000D01*
X51350000Y-74130000D02*
X52620000Y-72860000D01*
X52620000Y-72860000D02*
X52620000Y-68820000D01*
D12*
X55610000Y-70700000D02*
X54190000Y-69280000D01*
X54190000Y-69280000D02*
X54190000Y-67910000D01*
X68845000Y-48375000D02*
X70650002Y-50180002D01*
X70650002Y-50180002D02*
X70980001Y-50510001D01*
X68845000Y-45660000D02*
X68845000Y-48375000D01*
X58680000Y-39560000D02*
X60200000Y-38040000D01*
X58680000Y-46520000D02*
X58680000Y-39560000D01*
X60330000Y-48170000D02*
X58680000Y-46520000D01*
X60200000Y-38040000D02*
X61225000Y-38040000D01*
X70500000Y-53500000D02*
X65170000Y-48170000D01*
X59690000Y-81005000D02*
X59690000Y-79300000D01*
X61330000Y-77660000D02*
X68430000Y-77660000D01*
X70500000Y-75590000D02*
X70500000Y-53500000D01*
X61225000Y-82540000D02*
X59690000Y-81005000D01*
X65170000Y-48170000D02*
X60330000Y-48170000D01*
X59690000Y-79300000D02*
X61330000Y-77660000D01*
X68430000Y-77660000D02*
X70500000Y-75590000D01*
X70200000Y-48630002D02*
X70659999Y-49090001D01*
X70659999Y-49090001D02*
X70989998Y-49420000D01*
X68845000Y-43120000D02*
X70200000Y-44475000D01*
X70200000Y-44475000D02*
X70200000Y-48630002D01*
X44609941Y-58012859D02*
X50862800Y-51760000D01*
X55270000Y-48596690D02*
X55270000Y-48130000D01*
X44609941Y-74812841D02*
X44609941Y-58012859D01*
X45157089Y-75359989D02*
X44609941Y-74812841D01*
X50862800Y-51760000D02*
X54360000Y-51760000D01*
X54360011Y-80130011D02*
X54360011Y-77932914D01*
X61225000Y-85080000D02*
X59310000Y-85080000D01*
X55270000Y-50850000D02*
X55270000Y-48596690D01*
X59310000Y-85080000D02*
X54360011Y-80130011D01*
X51787086Y-75359989D02*
X45157089Y-75359989D01*
X54360011Y-77932914D02*
X51787086Y-75359989D01*
X54360000Y-51760000D02*
X55270000Y-50850000D01*
X68845000Y-40580000D02*
X70990000Y-42725000D01*
X70990000Y-42725000D02*
X70990000Y-47843312D01*
X70990000Y-47843312D02*
X70990000Y-48310002D01*
X44991400Y-75760000D02*
X44209930Y-74978530D01*
X44209930Y-74978530D02*
X44209930Y-57847170D01*
X44209930Y-57847170D02*
X50848763Y-51208337D01*
X50848763Y-51208337D02*
X53136693Y-51208337D01*
X53960000Y-78098603D02*
X51621397Y-75760000D01*
X53960000Y-80355000D02*
X53960000Y-78098603D01*
X53612498Y-50732532D02*
X53942497Y-50402533D01*
X61225000Y-87620000D02*
X53960000Y-80355000D01*
X51621397Y-75760000D02*
X44991400Y-75760000D01*
X53136693Y-51208337D02*
X53612498Y-50732532D01*
X69100000Y-38040000D02*
X68845000Y-38040000D01*
X67740000Y-48360000D02*
X67620000Y-48360000D01*
X71314990Y-51934990D02*
X67740000Y-48360000D01*
X68845000Y-82540000D02*
X71314990Y-80070010D01*
X71314990Y-80070010D02*
X71314990Y-51934990D01*
X70910000Y-52800000D02*
X68079999Y-49969999D01*
X68079999Y-49969999D02*
X67750000Y-49640000D01*
X68845000Y-80000000D02*
X70910000Y-77935000D01*
X70910000Y-77935000D02*
X70910000Y-52800000D01*
X53550011Y-85700689D02*
X53550011Y-78254314D01*
X53550010Y-87674990D02*
X53550011Y-85700689D01*
X43809919Y-57681481D02*
X50913065Y-50578335D01*
X53550011Y-78254314D02*
X51475686Y-76179989D01*
X51475686Y-76179989D02*
X44845689Y-76179989D01*
X50913065Y-50578335D02*
X51238335Y-50578335D01*
X44845689Y-76179989D02*
X43809919Y-75144219D01*
X43809919Y-75144219D02*
X43809919Y-57681481D01*
X51065000Y-90160000D02*
X53550010Y-87674990D01*
X43445000Y-82540000D02*
X41800000Y-80895000D01*
X41800000Y-80895000D02*
X41800000Y-49890002D01*
X41800000Y-49890002D02*
X41860001Y-49830001D01*
X41860001Y-49830001D02*
X42190000Y-49500002D01*
X43409908Y-57515792D02*
X51185700Y-49740000D01*
X52023310Y-49740000D02*
X52490000Y-49740000D01*
X43409908Y-75309908D02*
X43409908Y-57515792D01*
X44680000Y-76580000D02*
X43409908Y-75309908D01*
X51309997Y-76580000D02*
X44680000Y-76580000D01*
X53150000Y-78420003D02*
X51309997Y-76580000D01*
X53150000Y-85535000D02*
X53150000Y-78420003D01*
X51185700Y-49740000D02*
X52023310Y-49740000D01*
X51065000Y-87620000D02*
X53150000Y-85535000D01*
X41391021Y-49088979D02*
X41720001Y-48759999D01*
X41720001Y-48759999D02*
X42050000Y-48430000D01*
X41391021Y-83026021D02*
X41391021Y-49088979D01*
X43445000Y-85080000D02*
X41391021Y-83026021D01*
X52973310Y-49109998D02*
X53440000Y-49109998D01*
X51250002Y-49109998D02*
X52973310Y-49109998D01*
X43000000Y-75590000D02*
X43000000Y-57360000D01*
X52740000Y-83405000D02*
X52740000Y-78750000D01*
X51065000Y-85080000D02*
X52740000Y-83405000D01*
X52740000Y-78750000D02*
X50980000Y-76990000D01*
X44400000Y-76990000D02*
X43000000Y-75590000D01*
X43000000Y-57360000D02*
X51250002Y-49109998D01*
X50980000Y-76990000D02*
X44400000Y-76990000D01*
X42695001Y-43869999D02*
X43445000Y-43120000D01*
X43445000Y-87620000D02*
X40991010Y-85166010D01*
X40991010Y-45573990D02*
X42695001Y-43869999D01*
X40991010Y-85166010D02*
X40991010Y-45573990D01*
X53980001Y-48459999D02*
X54310000Y-48130000D01*
X43630001Y-48459999D02*
X53980001Y-48459999D01*
X43370000Y-48720000D02*
X43630001Y-48459999D01*
X42600000Y-50680000D02*
X43370000Y-49910000D01*
X52330000Y-81275000D02*
X52330000Y-78990000D01*
X51065000Y-82540000D02*
X52330000Y-81275000D01*
X52330000Y-78990000D02*
X50730000Y-77390000D01*
X43370000Y-49910000D02*
X43370000Y-48720000D01*
X44140000Y-77390000D02*
X42600000Y-75850000D01*
X50730000Y-77390000D02*
X44140000Y-77390000D01*
X42600000Y-75850000D02*
X42600000Y-50680000D01*
X52800000Y-46450000D02*
X52800000Y-37235000D01*
X51220000Y-48030000D02*
X52800000Y-46450000D01*
X42910000Y-48550000D02*
X43430000Y-48030000D01*
X43430000Y-48030000D02*
X51220000Y-48030000D01*
X42910000Y-49781202D02*
X42910000Y-48550000D01*
X51065000Y-78355000D02*
X50520000Y-77810000D01*
X42200000Y-76320000D02*
X42200000Y-50491202D01*
X42200000Y-50491202D02*
X42910000Y-49781202D01*
X52800000Y-37235000D02*
X51065000Y-35500000D01*
X51065000Y-80000000D02*
X51065000Y-78355000D01*
X50520000Y-77810000D02*
X43690000Y-77810000D01*
X43690000Y-77810000D02*
X42200000Y-76320000D01*
X46810000Y-70220000D02*
X46810000Y-60990000D01*
X46810000Y-60990000D02*
X47500000Y-60300000D01*
D16*
G36*
X71234001Y-94144000D02*
G01*
X41072000Y-94144000D01*
X41072000Y-90232492D01*
X42055188Y-90232492D01*
X42096035Y-90502238D01*
X42188723Y-90758832D01*
X42249140Y-90871863D01*
X42488007Y-90937388D01*
X43265395Y-90160000D01*
X42488007Y-89382612D01*
X42249140Y-89448137D01*
X42133240Y-89695116D01*
X42067750Y-89959960D01*
X42055188Y-90232492D01*
X41072000Y-90232492D01*
X41072000Y-85927236D01*
X42380134Y-87235370D01*
X42357464Y-87290100D01*
X42314000Y-87508606D01*
X42314000Y-87731394D01*
X42357464Y-87949900D01*
X42442721Y-88155729D01*
X42566495Y-88340970D01*
X42724030Y-88498505D01*
X42909271Y-88622279D01*
X43115100Y-88707536D01*
X43333606Y-88751000D01*
X43556394Y-88751000D01*
X43774900Y-88707536D01*
X43929000Y-88643706D01*
X43929000Y-88857211D01*
X43909884Y-88848240D01*
X43645040Y-88782750D01*
X43372508Y-88770188D01*
X43102762Y-88811035D01*
X42846168Y-88903723D01*
X42733137Y-88964140D01*
X42667612Y-89203007D01*
X43445000Y-89980395D01*
X43459143Y-89966253D01*
X43638748Y-90145858D01*
X43624605Y-90160000D01*
X43638748Y-90174143D01*
X43459143Y-90353748D01*
X43445000Y-90339605D01*
X42667612Y-91116993D01*
X42733137Y-91355860D01*
X42980116Y-91471760D01*
X43244960Y-91537250D01*
X43517492Y-91549812D01*
X43787238Y-91508965D01*
X43929000Y-91457757D01*
X43929000Y-91958832D01*
X43926915Y-91980000D01*
X43935237Y-92064491D01*
X43959882Y-92145734D01*
X43999903Y-92220609D01*
X44053763Y-92286237D01*
X44119391Y-92340097D01*
X44194266Y-92380118D01*
X44275509Y-92404763D01*
X44360000Y-92413085D01*
X44381168Y-92411000D01*
X50128832Y-92411000D01*
X50150000Y-92413085D01*
X50171168Y-92411000D01*
X50234491Y-92404763D01*
X50315734Y-92380118D01*
X50390609Y-92340097D01*
X50456237Y-92286237D01*
X50510097Y-92220609D01*
X50550118Y-92145734D01*
X50574763Y-92064491D01*
X50583085Y-91980000D01*
X50581000Y-91958832D01*
X50581000Y-91183706D01*
X50735100Y-91247536D01*
X50953606Y-91291000D01*
X51176394Y-91291000D01*
X51394900Y-91247536D01*
X51600729Y-91162279D01*
X51785970Y-91038505D01*
X51943505Y-90880970D01*
X52067279Y-90695729D01*
X52152536Y-90489900D01*
X52196000Y-90271394D01*
X52196000Y-90232492D01*
X59835188Y-90232492D01*
X59876035Y-90502238D01*
X59968723Y-90758832D01*
X60029140Y-90871863D01*
X60268007Y-90937388D01*
X61045395Y-90160000D01*
X60268007Y-89382612D01*
X60029140Y-89448137D01*
X59913240Y-89695116D01*
X59847750Y-89959960D01*
X59835188Y-90232492D01*
X52196000Y-90232492D01*
X52196000Y-90048606D01*
X52152536Y-89830100D01*
X52129866Y-89775370D01*
X53873426Y-88031811D01*
X53891773Y-88016754D01*
X53906830Y-87998407D01*
X53906834Y-87998403D01*
X53951881Y-87943513D01*
X53996545Y-87859952D01*
X54024050Y-87769283D01*
X54033337Y-87674990D01*
X54031009Y-87651354D01*
X54031011Y-85677064D01*
X54031011Y-81106247D01*
X60160134Y-87235370D01*
X60137464Y-87290100D01*
X60094000Y-87508606D01*
X60094000Y-87731394D01*
X60137464Y-87949900D01*
X60222721Y-88155729D01*
X60346495Y-88340970D01*
X60504030Y-88498505D01*
X60689271Y-88622279D01*
X60895100Y-88707536D01*
X61113606Y-88751000D01*
X61336394Y-88751000D01*
X61554900Y-88707536D01*
X61709000Y-88643706D01*
X61709000Y-88857211D01*
X61689884Y-88848240D01*
X61425040Y-88782750D01*
X61152508Y-88770188D01*
X60882762Y-88811035D01*
X60626168Y-88903723D01*
X60513137Y-88964140D01*
X60447612Y-89203007D01*
X61225000Y-89980395D01*
X61239143Y-89966253D01*
X61418748Y-90145858D01*
X61404605Y-90160000D01*
X61418748Y-90174143D01*
X61239143Y-90353748D01*
X61225000Y-90339605D01*
X60447612Y-91116993D01*
X60513137Y-91355860D01*
X60760116Y-91471760D01*
X61024960Y-91537250D01*
X61297492Y-91549812D01*
X61567238Y-91508965D01*
X61709000Y-91457757D01*
X61709000Y-91958832D01*
X61706915Y-91980000D01*
X61715237Y-92064491D01*
X61739882Y-92145734D01*
X61779903Y-92220609D01*
X61833763Y-92286237D01*
X61899391Y-92340097D01*
X61974266Y-92380118D01*
X62055509Y-92404763D01*
X62140000Y-92413085D01*
X62161168Y-92411000D01*
X67918832Y-92411000D01*
X67940000Y-92413085D01*
X67961168Y-92411000D01*
X68024491Y-92404763D01*
X68105734Y-92380118D01*
X68180609Y-92340097D01*
X68246237Y-92286237D01*
X68300097Y-92220609D01*
X68340118Y-92145734D01*
X68364763Y-92064491D01*
X68373085Y-91980000D01*
X68371000Y-91958832D01*
X68371000Y-91187848D01*
X68515100Y-91247536D01*
X68733606Y-91291000D01*
X68956394Y-91291000D01*
X69174900Y-91247536D01*
X69380729Y-91162279D01*
X69565970Y-91038505D01*
X69723505Y-90880970D01*
X69847279Y-90695729D01*
X69932536Y-90489900D01*
X69976000Y-90271394D01*
X69976000Y-90048606D01*
X69932536Y-89830100D01*
X69847279Y-89624271D01*
X69723505Y-89439030D01*
X69565970Y-89281495D01*
X69380729Y-89157721D01*
X69174900Y-89072464D01*
X68956394Y-89029000D01*
X68733606Y-89029000D01*
X68515100Y-89072464D01*
X68371000Y-89132152D01*
X68371000Y-88647848D01*
X68515100Y-88707536D01*
X68733606Y-88751000D01*
X68956394Y-88751000D01*
X69174900Y-88707536D01*
X69380729Y-88622279D01*
X69565970Y-88498505D01*
X69723505Y-88340970D01*
X69847279Y-88155729D01*
X69932536Y-87949900D01*
X69976000Y-87731394D01*
X69976000Y-87508606D01*
X69932536Y-87290100D01*
X69847279Y-87084271D01*
X69723505Y-86899030D01*
X69565970Y-86741495D01*
X69380729Y-86617721D01*
X69174900Y-86532464D01*
X68956394Y-86489000D01*
X68733606Y-86489000D01*
X68515100Y-86532464D01*
X68371000Y-86592152D01*
X68371000Y-86107848D01*
X68515100Y-86167536D01*
X68733606Y-86211000D01*
X68956394Y-86211000D01*
X69174900Y-86167536D01*
X69380729Y-86082279D01*
X69565970Y-85958505D01*
X69723505Y-85800970D01*
X69847279Y-85615729D01*
X69932536Y-85409900D01*
X69976000Y-85191394D01*
X69976000Y-84968606D01*
X69932536Y-84750100D01*
X69847279Y-84544271D01*
X69723505Y-84359030D01*
X69565970Y-84201495D01*
X69380729Y-84077721D01*
X69174900Y-83992464D01*
X68956394Y-83949000D01*
X68733606Y-83949000D01*
X68515100Y-83992464D01*
X68371000Y-84052152D01*
X68371000Y-83567848D01*
X68515100Y-83627536D01*
X68733606Y-83671000D01*
X68956394Y-83671000D01*
X69174900Y-83627536D01*
X69380729Y-83542279D01*
X69565970Y-83418505D01*
X69723505Y-83260970D01*
X69847279Y-83075729D01*
X69932536Y-82869900D01*
X69976000Y-82651394D01*
X69976000Y-82428606D01*
X69932536Y-82210100D01*
X69909866Y-82155370D01*
X71234001Y-80831236D01*
X71234001Y-94144000D01*
X71234001Y-94144000D01*
G37*
X71234001Y-94144000D02*
X41072000Y-94144000D01*
X41072000Y-90232492D01*
X42055188Y-90232492D01*
X42096035Y-90502238D01*
X42188723Y-90758832D01*
X42249140Y-90871863D01*
X42488007Y-90937388D01*
X43265395Y-90160000D01*
X42488007Y-89382612D01*
X42249140Y-89448137D01*
X42133240Y-89695116D01*
X42067750Y-89959960D01*
X42055188Y-90232492D01*
X41072000Y-90232492D01*
X41072000Y-85927236D01*
X42380134Y-87235370D01*
X42357464Y-87290100D01*
X42314000Y-87508606D01*
X42314000Y-87731394D01*
X42357464Y-87949900D01*
X42442721Y-88155729D01*
X42566495Y-88340970D01*
X42724030Y-88498505D01*
X42909271Y-88622279D01*
X43115100Y-88707536D01*
X43333606Y-88751000D01*
X43556394Y-88751000D01*
X43774900Y-88707536D01*
X43929000Y-88643706D01*
X43929000Y-88857211D01*
X43909884Y-88848240D01*
X43645040Y-88782750D01*
X43372508Y-88770188D01*
X43102762Y-88811035D01*
X42846168Y-88903723D01*
X42733137Y-88964140D01*
X42667612Y-89203007D01*
X43445000Y-89980395D01*
X43459143Y-89966253D01*
X43638748Y-90145858D01*
X43624605Y-90160000D01*
X43638748Y-90174143D01*
X43459143Y-90353748D01*
X43445000Y-90339605D01*
X42667612Y-91116993D01*
X42733137Y-91355860D01*
X42980116Y-91471760D01*
X43244960Y-91537250D01*
X43517492Y-91549812D01*
X43787238Y-91508965D01*
X43929000Y-91457757D01*
X43929000Y-91958832D01*
X43926915Y-91980000D01*
X43935237Y-92064491D01*
X43959882Y-92145734D01*
X43999903Y-92220609D01*
X44053763Y-92286237D01*
X44119391Y-92340097D01*
X44194266Y-92380118D01*
X44275509Y-92404763D01*
X44360000Y-92413085D01*
X44381168Y-92411000D01*
X50128832Y-92411000D01*
X50150000Y-92413085D01*
X50171168Y-92411000D01*
X50234491Y-92404763D01*
X50315734Y-92380118D01*
X50390609Y-92340097D01*
X50456237Y-92286237D01*
X50510097Y-92220609D01*
X50550118Y-92145734D01*
X50574763Y-92064491D01*
X50583085Y-91980000D01*
X50581000Y-91958832D01*
X50581000Y-91183706D01*
X50735100Y-91247536D01*
X50953606Y-91291000D01*
X51176394Y-91291000D01*
X51394900Y-91247536D01*
X51600729Y-91162279D01*
X51785970Y-91038505D01*
X51943505Y-90880970D01*
X52067279Y-90695729D01*
X52152536Y-90489900D01*
X52196000Y-90271394D01*
X52196000Y-90232492D01*
X59835188Y-90232492D01*
X59876035Y-90502238D01*
X59968723Y-90758832D01*
X60029140Y-90871863D01*
X60268007Y-90937388D01*
X61045395Y-90160000D01*
X60268007Y-89382612D01*
X60029140Y-89448137D01*
X59913240Y-89695116D01*
X59847750Y-89959960D01*
X59835188Y-90232492D01*
X52196000Y-90232492D01*
X52196000Y-90048606D01*
X52152536Y-89830100D01*
X52129866Y-89775370D01*
X53873426Y-88031811D01*
X53891773Y-88016754D01*
X53906830Y-87998407D01*
X53906834Y-87998403D01*
X53951881Y-87943513D01*
X53996545Y-87859952D01*
X54024050Y-87769283D01*
X54033337Y-87674990D01*
X54031009Y-87651354D01*
X54031011Y-85677064D01*
X54031011Y-81106247D01*
X60160134Y-87235370D01*
X60137464Y-87290100D01*
X60094000Y-87508606D01*
X60094000Y-87731394D01*
X60137464Y-87949900D01*
X60222721Y-88155729D01*
X60346495Y-88340970D01*
X60504030Y-88498505D01*
X60689271Y-88622279D01*
X60895100Y-88707536D01*
X61113606Y-88751000D01*
X61336394Y-88751000D01*
X61554900Y-88707536D01*
X61709000Y-88643706D01*
X61709000Y-88857211D01*
X61689884Y-88848240D01*
X61425040Y-88782750D01*
X61152508Y-88770188D01*
X60882762Y-88811035D01*
X60626168Y-88903723D01*
X60513137Y-88964140D01*
X60447612Y-89203007D01*
X61225000Y-89980395D01*
X61239143Y-89966253D01*
X61418748Y-90145858D01*
X61404605Y-90160000D01*
X61418748Y-90174143D01*
X61239143Y-90353748D01*
X61225000Y-90339605D01*
X60447612Y-91116993D01*
X60513137Y-91355860D01*
X60760116Y-91471760D01*
X61024960Y-91537250D01*
X61297492Y-91549812D01*
X61567238Y-91508965D01*
X61709000Y-91457757D01*
X61709000Y-91958832D01*
X61706915Y-91980000D01*
X61715237Y-92064491D01*
X61739882Y-92145734D01*
X61779903Y-92220609D01*
X61833763Y-92286237D01*
X61899391Y-92340097D01*
X61974266Y-92380118D01*
X62055509Y-92404763D01*
X62140000Y-92413085D01*
X62161168Y-92411000D01*
X67918832Y-92411000D01*
X67940000Y-92413085D01*
X67961168Y-92411000D01*
X68024491Y-92404763D01*
X68105734Y-92380118D01*
X68180609Y-92340097D01*
X68246237Y-92286237D01*
X68300097Y-92220609D01*
X68340118Y-92145734D01*
X68364763Y-92064491D01*
X68373085Y-91980000D01*
X68371000Y-91958832D01*
X68371000Y-91187848D01*
X68515100Y-91247536D01*
X68733606Y-91291000D01*
X68956394Y-91291000D01*
X69174900Y-91247536D01*
X69380729Y-91162279D01*
X69565970Y-91038505D01*
X69723505Y-90880970D01*
X69847279Y-90695729D01*
X69932536Y-90489900D01*
X69976000Y-90271394D01*
X69976000Y-90048606D01*
X69932536Y-89830100D01*
X69847279Y-89624271D01*
X69723505Y-89439030D01*
X69565970Y-89281495D01*
X69380729Y-89157721D01*
X69174900Y-89072464D01*
X68956394Y-89029000D01*
X68733606Y-89029000D01*
X68515100Y-89072464D01*
X68371000Y-89132152D01*
X68371000Y-88647848D01*
X68515100Y-88707536D01*
X68733606Y-88751000D01*
X68956394Y-88751000D01*
X69174900Y-88707536D01*
X69380729Y-88622279D01*
X69565970Y-88498505D01*
X69723505Y-88340970D01*
X69847279Y-88155729D01*
X69932536Y-87949900D01*
X69976000Y-87731394D01*
X69976000Y-87508606D01*
X69932536Y-87290100D01*
X69847279Y-87084271D01*
X69723505Y-86899030D01*
X69565970Y-86741495D01*
X69380729Y-86617721D01*
X69174900Y-86532464D01*
X68956394Y-86489000D01*
X68733606Y-86489000D01*
X68515100Y-86532464D01*
X68371000Y-86592152D01*
X68371000Y-86107848D01*
X68515100Y-86167536D01*
X68733606Y-86211000D01*
X68956394Y-86211000D01*
X69174900Y-86167536D01*
X69380729Y-86082279D01*
X69565970Y-85958505D01*
X69723505Y-85800970D01*
X69847279Y-85615729D01*
X69932536Y-85409900D01*
X69976000Y-85191394D01*
X69976000Y-84968606D01*
X69932536Y-84750100D01*
X69847279Y-84544271D01*
X69723505Y-84359030D01*
X69565970Y-84201495D01*
X69380729Y-84077721D01*
X69174900Y-83992464D01*
X68956394Y-83949000D01*
X68733606Y-83949000D01*
X68515100Y-83992464D01*
X68371000Y-84052152D01*
X68371000Y-83567848D01*
X68515100Y-83627536D01*
X68733606Y-83671000D01*
X68956394Y-83671000D01*
X69174900Y-83627536D01*
X69380729Y-83542279D01*
X69565970Y-83418505D01*
X69723505Y-83260970D01*
X69847279Y-83075729D01*
X69932536Y-82869900D01*
X69976000Y-82651394D01*
X69976000Y-82428606D01*
X69932536Y-82210100D01*
X69909866Y-82155370D01*
X71234001Y-80831236D01*
X71234001Y-94144000D01*
G36*
X71234000Y-42288763D02*
G01*
X69909866Y-40964630D01*
X69932536Y-40909900D01*
X69976000Y-40691394D01*
X69976000Y-40468606D01*
X69932536Y-40250100D01*
X69847279Y-40044271D01*
X69723505Y-39859030D01*
X69565970Y-39701495D01*
X69380729Y-39577721D01*
X69174900Y-39492464D01*
X68956394Y-39449000D01*
X68733606Y-39449000D01*
X68515100Y-39492464D01*
X68309271Y-39577721D01*
X68124030Y-39701495D01*
X67966495Y-39859030D01*
X67842721Y-40044271D01*
X67757464Y-40250100D01*
X67714000Y-40468606D01*
X67714000Y-40691394D01*
X67757464Y-40909900D01*
X67842721Y-41115729D01*
X67966495Y-41300970D01*
X68124030Y-41458505D01*
X68309271Y-41582279D01*
X68515100Y-41667536D01*
X68733606Y-41711000D01*
X68956394Y-41711000D01*
X69174900Y-41667536D01*
X69229630Y-41644866D01*
X70509000Y-42924237D01*
X70509000Y-44103763D01*
X69909866Y-43504630D01*
X69932536Y-43449900D01*
X69976000Y-43231394D01*
X69976000Y-43008606D01*
X69932536Y-42790100D01*
X69847279Y-42584271D01*
X69723505Y-42399030D01*
X69565970Y-42241495D01*
X69380729Y-42117721D01*
X69174900Y-42032464D01*
X68956394Y-41989000D01*
X68733606Y-41989000D01*
X68515100Y-42032464D01*
X68309271Y-42117721D01*
X68124030Y-42241495D01*
X67966495Y-42399030D01*
X67842721Y-42584271D01*
X67757464Y-42790100D01*
X67714000Y-43008606D01*
X67714000Y-43231394D01*
X67757464Y-43449900D01*
X67842721Y-43655729D01*
X67966495Y-43840970D01*
X68124030Y-43998505D01*
X68309271Y-44122279D01*
X68515100Y-44207536D01*
X68733606Y-44251000D01*
X68956394Y-44251000D01*
X69174900Y-44207536D01*
X69229630Y-44184866D01*
X69719000Y-44674237D01*
X69719000Y-44934525D01*
X69565970Y-44781495D01*
X69380729Y-44657721D01*
X69174900Y-44572464D01*
X68956394Y-44529000D01*
X68733606Y-44529000D01*
X68515100Y-44572464D01*
X68309271Y-44657721D01*
X68124030Y-44781495D01*
X67966495Y-44939030D01*
X67842721Y-45124271D01*
X67757464Y-45330100D01*
X67714000Y-45548606D01*
X67714000Y-45771394D01*
X67757464Y-45989900D01*
X67842721Y-46195729D01*
X67966495Y-46380970D01*
X68124030Y-46538505D01*
X68309271Y-46662279D01*
X68364000Y-46684949D01*
X68364001Y-48303765D01*
X68326230Y-48265994D01*
X68303676Y-48152609D01*
X68250080Y-48023215D01*
X68172270Y-47906764D01*
X68073236Y-47807730D01*
X67956785Y-47729920D01*
X67827391Y-47676324D01*
X67690027Y-47649000D01*
X67549973Y-47649000D01*
X67412609Y-47676324D01*
X67283215Y-47729920D01*
X67166764Y-47807730D01*
X67067730Y-47906764D01*
X66989920Y-48023215D01*
X66936324Y-48152609D01*
X66909000Y-48289973D01*
X66909000Y-48430027D01*
X66936324Y-48567391D01*
X66989920Y-48696785D01*
X67067730Y-48813236D01*
X67166764Y-48912270D01*
X67283215Y-48990080D01*
X67381796Y-49030913D01*
X67296764Y-49087730D01*
X67197730Y-49186764D01*
X67119920Y-49303215D01*
X67079950Y-49399713D01*
X65526830Y-47846594D01*
X65511764Y-47828236D01*
X65438522Y-47768128D01*
X65354961Y-47723464D01*
X65264292Y-47695960D01*
X65193626Y-47689000D01*
X65170000Y-47686673D01*
X65146374Y-47689000D01*
X60529237Y-47689000D01*
X59457230Y-46616993D01*
X60447612Y-46616993D01*
X60513137Y-46855860D01*
X60760116Y-46971760D01*
X61024960Y-47037250D01*
X61297492Y-47049812D01*
X61567238Y-47008965D01*
X61823832Y-46916277D01*
X61936863Y-46855860D01*
X62002388Y-46616993D01*
X61225000Y-45839605D01*
X60447612Y-46616993D01*
X59457230Y-46616993D01*
X59161000Y-46320764D01*
X59161000Y-45732492D01*
X59835188Y-45732492D01*
X59876035Y-46002238D01*
X59968723Y-46258832D01*
X60029140Y-46371863D01*
X60268007Y-46437388D01*
X61045395Y-45660000D01*
X61404605Y-45660000D01*
X62181993Y-46437388D01*
X62420860Y-46371863D01*
X62536760Y-46124884D01*
X62602250Y-45860040D01*
X62614812Y-45587508D01*
X62573965Y-45317762D01*
X62481277Y-45061168D01*
X62420860Y-44948137D01*
X62181993Y-44882612D01*
X61404605Y-45660000D01*
X61045395Y-45660000D01*
X60268007Y-44882612D01*
X60029140Y-44948137D01*
X59913240Y-45195116D01*
X59847750Y-45459960D01*
X59835188Y-45732492D01*
X59161000Y-45732492D01*
X59161000Y-44703007D01*
X60447612Y-44703007D01*
X61225000Y-45480395D01*
X62002388Y-44703007D01*
X61936863Y-44464140D01*
X61689884Y-44348240D01*
X61425040Y-44282750D01*
X61152508Y-44270188D01*
X60882762Y-44311035D01*
X60626168Y-44403723D01*
X60513137Y-44464140D01*
X60447612Y-44703007D01*
X59161000Y-44703007D01*
X59161000Y-43008606D01*
X60094000Y-43008606D01*
X60094000Y-43231394D01*
X60137464Y-43449900D01*
X60222721Y-43655729D01*
X60346495Y-43840970D01*
X60504030Y-43998505D01*
X60689271Y-44122279D01*
X60895100Y-44207536D01*
X61113606Y-44251000D01*
X61336394Y-44251000D01*
X61554900Y-44207536D01*
X61760729Y-44122279D01*
X61945970Y-43998505D01*
X62103505Y-43840970D01*
X62227279Y-43655729D01*
X62312536Y-43449900D01*
X62356000Y-43231394D01*
X62356000Y-43008606D01*
X62312536Y-42790100D01*
X62227279Y-42584271D01*
X62103505Y-42399030D01*
X61945970Y-42241495D01*
X61760729Y-42117721D01*
X61554900Y-42032464D01*
X61336394Y-41989000D01*
X61113606Y-41989000D01*
X60895100Y-42032464D01*
X60689271Y-42117721D01*
X60504030Y-42241495D01*
X60346495Y-42399030D01*
X60222721Y-42584271D01*
X60137464Y-42790100D01*
X60094000Y-43008606D01*
X59161000Y-43008606D01*
X59161000Y-40468606D01*
X60094000Y-40468606D01*
X60094000Y-40691394D01*
X60137464Y-40909900D01*
X60222721Y-41115729D01*
X60346495Y-41300970D01*
X60504030Y-41458505D01*
X60689271Y-41582279D01*
X60895100Y-41667536D01*
X61113606Y-41711000D01*
X61336394Y-41711000D01*
X61554900Y-41667536D01*
X61760729Y-41582279D01*
X61945970Y-41458505D01*
X62103505Y-41300970D01*
X62227279Y-41115729D01*
X62312536Y-40909900D01*
X62356000Y-40691394D01*
X62356000Y-40468606D01*
X62312536Y-40250100D01*
X62227279Y-40044271D01*
X62103505Y-39859030D01*
X61945970Y-39701495D01*
X61760729Y-39577721D01*
X61554900Y-39492464D01*
X61336394Y-39449000D01*
X61113606Y-39449000D01*
X60895100Y-39492464D01*
X60689271Y-39577721D01*
X60504030Y-39701495D01*
X60346495Y-39859030D01*
X60222721Y-40044271D01*
X60137464Y-40250100D01*
X60094000Y-40468606D01*
X59161000Y-40468606D01*
X59161000Y-39759236D01*
X60271502Y-38648734D01*
X60346495Y-38760970D01*
X60504030Y-38918505D01*
X60689271Y-39042279D01*
X60895100Y-39127536D01*
X61113606Y-39171000D01*
X61336394Y-39171000D01*
X61554900Y-39127536D01*
X61760729Y-39042279D01*
X61945970Y-38918505D01*
X62103505Y-38760970D01*
X62227279Y-38575729D01*
X62312536Y-38369900D01*
X62356000Y-38151394D01*
X62356000Y-37928606D01*
X67714000Y-37928606D01*
X67714000Y-38151394D01*
X67757464Y-38369900D01*
X67842721Y-38575729D01*
X67966495Y-38760970D01*
X68124030Y-38918505D01*
X68309271Y-39042279D01*
X68515100Y-39127536D01*
X68733606Y-39171000D01*
X68956394Y-39171000D01*
X69174900Y-39127536D01*
X69380729Y-39042279D01*
X69565970Y-38918505D01*
X69723505Y-38760970D01*
X69847279Y-38575729D01*
X69932536Y-38369900D01*
X69976000Y-38151394D01*
X69976000Y-37928606D01*
X69932536Y-37710100D01*
X69847279Y-37504271D01*
X69723505Y-37319030D01*
X69565970Y-37161495D01*
X69380729Y-37037721D01*
X69174900Y-36952464D01*
X68956394Y-36909000D01*
X68733606Y-36909000D01*
X68515100Y-36952464D01*
X68309271Y-37037721D01*
X68124030Y-37161495D01*
X67966495Y-37319030D01*
X67842721Y-37504271D01*
X67757464Y-37710100D01*
X67714000Y-37928606D01*
X62356000Y-37928606D01*
X62312536Y-37710100D01*
X62227279Y-37504271D01*
X62103505Y-37319030D01*
X61945970Y-37161495D01*
X61760729Y-37037721D01*
X61554900Y-36952464D01*
X61336394Y-36909000D01*
X61113606Y-36909000D01*
X60895100Y-36952464D01*
X60689271Y-37037721D01*
X60504030Y-37161495D01*
X60346495Y-37319030D01*
X60222721Y-37504271D01*
X60200976Y-37556769D01*
X60200000Y-37556673D01*
X60105707Y-37565960D01*
X60015038Y-37593464D01*
X59970374Y-37617338D01*
X59931478Y-37638128D01*
X59858236Y-37698236D01*
X59843170Y-37716594D01*
X58356589Y-39203175D01*
X58338237Y-39218236D01*
X58323176Y-39236588D01*
X58278129Y-39291478D01*
X58233465Y-39375039D01*
X58205960Y-39465708D01*
X58196673Y-39560000D01*
X58199001Y-39583636D01*
X58199000Y-46496374D01*
X58196673Y-46520000D01*
X58205960Y-46614292D01*
X58212230Y-46634960D01*
X58233464Y-46704960D01*
X58278128Y-46788522D01*
X58338236Y-46861764D01*
X58356594Y-46876830D01*
X59973175Y-48493412D01*
X59988236Y-48511764D01*
X60061478Y-48571872D01*
X60145039Y-48616536D01*
X60235708Y-48644040D01*
X60306374Y-48651000D01*
X60306375Y-48651000D01*
X60329999Y-48653327D01*
X60353623Y-48651000D01*
X64970764Y-48651000D01*
X70019001Y-53699238D01*
X70019000Y-75390763D01*
X68230764Y-77179000D01*
X61353623Y-77179000D01*
X61329999Y-77176673D01*
X61306375Y-77179000D01*
X61306374Y-77179000D01*
X61235708Y-77185960D01*
X61145039Y-77213464D01*
X61061478Y-77258128D01*
X60988236Y-77318236D01*
X60973175Y-77336588D01*
X59366589Y-78943175D01*
X59348237Y-78958236D01*
X59333176Y-78976588D01*
X59288129Y-79031478D01*
X59243465Y-79115039D01*
X59215960Y-79205708D01*
X59206673Y-79300000D01*
X59209001Y-79323636D01*
X59209000Y-80981373D01*
X59206673Y-81005000D01*
X59209000Y-81028625D01*
X59215960Y-81099291D01*
X59243464Y-81189960D01*
X59288128Y-81273522D01*
X59348236Y-81346764D01*
X59366594Y-81361830D01*
X60160134Y-82155370D01*
X60137464Y-82210100D01*
X60094000Y-82428606D01*
X60094000Y-82651394D01*
X60137464Y-82869900D01*
X60222721Y-83075729D01*
X60346495Y-83260970D01*
X60504030Y-83418505D01*
X60689271Y-83542279D01*
X60895100Y-83627536D01*
X61113606Y-83671000D01*
X61336394Y-83671000D01*
X61554900Y-83627536D01*
X61709001Y-83563706D01*
X61709001Y-84056294D01*
X61554900Y-83992464D01*
X61336394Y-83949000D01*
X61113606Y-83949000D01*
X60895100Y-83992464D01*
X60689271Y-84077721D01*
X60504030Y-84201495D01*
X60346495Y-84359030D01*
X60222721Y-84544271D01*
X60200052Y-84599000D01*
X59509236Y-84599000D01*
X54841011Y-79930775D01*
X54841011Y-77956529D01*
X54843337Y-77932913D01*
X54841011Y-77909297D01*
X54841011Y-77909288D01*
X54834051Y-77838622D01*
X54806547Y-77747953D01*
X54761883Y-77664392D01*
X54701775Y-77591150D01*
X54683423Y-77576089D01*
X52143916Y-75036583D01*
X52128850Y-75018225D01*
X52055608Y-74958117D01*
X51972047Y-74913453D01*
X51881378Y-74885949D01*
X51810712Y-74878989D01*
X51787086Y-74876662D01*
X51763460Y-74878989D01*
X45356326Y-74878989D01*
X45090941Y-74613605D01*
X45090941Y-74059973D01*
X50639000Y-74059973D01*
X50639000Y-74200027D01*
X50666324Y-74337391D01*
X50719920Y-74466785D01*
X50797730Y-74583236D01*
X50896764Y-74682270D01*
X51013215Y-74760080D01*
X51142609Y-74813676D01*
X51279973Y-74841000D01*
X51420027Y-74841000D01*
X51557391Y-74813676D01*
X51686785Y-74760080D01*
X51803236Y-74682270D01*
X51902270Y-74583236D01*
X51980080Y-74466785D01*
X52033676Y-74337391D01*
X52061000Y-74200027D01*
X52061000Y-74169946D01*
X52977030Y-73253917D01*
X52997290Y-73237290D01*
X53013917Y-73217030D01*
X53063646Y-73156436D01*
X53080821Y-73124304D01*
X53112953Y-73064188D01*
X53143317Y-72964094D01*
X53151000Y-72886084D01*
X53151000Y-72886075D01*
X53153568Y-72860001D01*
X53151000Y-72833927D01*
X53151000Y-69086828D01*
X53267391Y-69063676D01*
X53396785Y-69010080D01*
X53513236Y-68932270D01*
X53612270Y-68833236D01*
X53690080Y-68716785D01*
X53709000Y-68671106D01*
X53709000Y-69256373D01*
X53706673Y-69280000D01*
X53709000Y-69303625D01*
X53715960Y-69374291D01*
X53743464Y-69464960D01*
X53788128Y-69548522D01*
X53848236Y-69621764D01*
X53866594Y-69636830D01*
X54899000Y-70669237D01*
X54899000Y-70770027D01*
X54926324Y-70907391D01*
X54979920Y-71036785D01*
X55057730Y-71153236D01*
X55156764Y-71252270D01*
X55273215Y-71330080D01*
X55402609Y-71383676D01*
X55539973Y-71411000D01*
X55680027Y-71411000D01*
X55817391Y-71383676D01*
X55946785Y-71330080D01*
X56063236Y-71252270D01*
X56162270Y-71153236D01*
X56240080Y-71036785D01*
X56293676Y-70907391D01*
X56321000Y-70770027D01*
X56321000Y-70629973D01*
X56293676Y-70492609D01*
X56240080Y-70363215D01*
X56162270Y-70246764D01*
X56063236Y-70147730D01*
X55946785Y-70069920D01*
X55817391Y-70016324D01*
X55680027Y-69989000D01*
X55579237Y-69989000D01*
X54671000Y-69080764D01*
X54671000Y-68434506D01*
X54742270Y-68363236D01*
X54820080Y-68246785D01*
X54873676Y-68117391D01*
X54901000Y-67980027D01*
X54901000Y-67839973D01*
X54873676Y-67702609D01*
X54820080Y-67573215D01*
X54742270Y-67456764D01*
X54643236Y-67357730D01*
X54526785Y-67279920D01*
X54397391Y-67226324D01*
X54260027Y-67199000D01*
X54119973Y-67199000D01*
X53982609Y-67226324D01*
X53853215Y-67279920D01*
X53736764Y-67357730D01*
X53637730Y-67456764D01*
X53559920Y-67573215D01*
X53506324Y-67702609D01*
X53485166Y-67808974D01*
X53396785Y-67749920D01*
X53267391Y-67696324D01*
X53130027Y-67669000D01*
X52989973Y-67669000D01*
X52852609Y-67696324D01*
X52723215Y-67749920D01*
X52606764Y-67827730D01*
X52507730Y-67926764D01*
X52429920Y-68043215D01*
X52376324Y-68172609D01*
X52349000Y-68309973D01*
X52349000Y-68340054D01*
X52262970Y-68426084D01*
X52242711Y-68442710D01*
X52226084Y-68462970D01*
X52226083Y-68462971D01*
X52176354Y-68523565D01*
X52127047Y-68615813D01*
X52125474Y-68621000D01*
X52096684Y-68715906D01*
X52094604Y-68737030D01*
X52086432Y-68820000D01*
X52089001Y-68846084D01*
X52089000Y-72640053D01*
X51310054Y-73419000D01*
X51279973Y-73419000D01*
X51142609Y-73446324D01*
X51013215Y-73499920D01*
X50896764Y-73577730D01*
X50797730Y-73676764D01*
X50719920Y-73793215D01*
X50666324Y-73922609D01*
X50639000Y-74059973D01*
X45090941Y-74059973D01*
X45090941Y-62609785D01*
X45116324Y-62737391D01*
X45169920Y-62866785D01*
X45247730Y-62983236D01*
X45346764Y-63082270D01*
X45463215Y-63160080D01*
X45592609Y-63213676D01*
X45599000Y-63214947D01*
X45599001Y-71059872D01*
X45529932Y-71163241D01*
X45476336Y-71292635D01*
X45449012Y-71429999D01*
X45449012Y-71570053D01*
X45476336Y-71707417D01*
X45529932Y-71836811D01*
X45607742Y-71953262D01*
X45706776Y-72052296D01*
X45823227Y-72130106D01*
X45952621Y-72183702D01*
X46089985Y-72211026D01*
X46230039Y-72211026D01*
X46367403Y-72183702D01*
X46496797Y-72130106D01*
X46613248Y-72052296D01*
X46712282Y-71953262D01*
X46790092Y-71836811D01*
X46843688Y-71707417D01*
X46871012Y-71570053D01*
X46871012Y-71429999D01*
X46843688Y-71292635D01*
X46790092Y-71163241D01*
X46712282Y-71046790D01*
X46613248Y-70947756D01*
X46561000Y-70912845D01*
X46561000Y-70886441D01*
X46602609Y-70903676D01*
X46739973Y-70931000D01*
X46880027Y-70931000D01*
X47017391Y-70903676D01*
X47146785Y-70850080D01*
X47263236Y-70772270D01*
X47362270Y-70673236D01*
X47440080Y-70556785D01*
X47493676Y-70427391D01*
X47521000Y-70290027D01*
X47521000Y-70149973D01*
X47493676Y-70012609D01*
X47440080Y-69883215D01*
X47362270Y-69766764D01*
X47291000Y-69695494D01*
X47291000Y-61189236D01*
X47469236Y-61011000D01*
X47570027Y-61011000D01*
X47707391Y-60983676D01*
X47836785Y-60930080D01*
X47953236Y-60852270D01*
X48052270Y-60753236D01*
X48130080Y-60636785D01*
X48183676Y-60507391D01*
X48211000Y-60370027D01*
X48211000Y-60229973D01*
X48183676Y-60092609D01*
X48130080Y-59963215D01*
X48052270Y-59846764D01*
X47953236Y-59747730D01*
X47836785Y-59669920D01*
X47707391Y-59616324D01*
X47570027Y-59589000D01*
X47429973Y-59589000D01*
X47292609Y-59616324D01*
X47163215Y-59669920D01*
X47046764Y-59747730D01*
X46947730Y-59846764D01*
X46869920Y-59963215D01*
X46816324Y-60092609D01*
X46789000Y-60229973D01*
X46789000Y-60330764D01*
X46486589Y-60633175D01*
X46468237Y-60648236D01*
X46453176Y-60666588D01*
X46408129Y-60721478D01*
X46363465Y-60805039D01*
X46335960Y-60895708D01*
X46326673Y-60990000D01*
X46329001Y-61013636D01*
X46329001Y-62053495D01*
X46253236Y-61977730D01*
X46136785Y-61899920D01*
X46007391Y-61846324D01*
X45870027Y-61819000D01*
X45729973Y-61819000D01*
X45592609Y-61846324D01*
X45463215Y-61899920D01*
X45346764Y-61977730D01*
X45247730Y-62076764D01*
X45169920Y-62193215D01*
X45116324Y-62322609D01*
X45090941Y-62450215D01*
X45090941Y-58212095D01*
X46274430Y-57028606D01*
X60094000Y-57028606D01*
X60094000Y-57251394D01*
X60137464Y-57469900D01*
X60222721Y-57675729D01*
X60346495Y-57860970D01*
X60504030Y-58018505D01*
X60689271Y-58142279D01*
X60895100Y-58227536D01*
X61113606Y-58271000D01*
X61336394Y-58271000D01*
X61554900Y-58227536D01*
X61709001Y-58163705D01*
X61709001Y-58656295D01*
X61554900Y-58592464D01*
X61336394Y-58549000D01*
X61113606Y-58549000D01*
X60895100Y-58592464D01*
X60689271Y-58677721D01*
X60504030Y-58801495D01*
X60346495Y-58959030D01*
X60222721Y-59144271D01*
X60137464Y-59350100D01*
X60094000Y-59568606D01*
X60094000Y-59791394D01*
X60137464Y-60009900D01*
X60222721Y-60215729D01*
X60346495Y-60400970D01*
X60504030Y-60558505D01*
X60689271Y-60682279D01*
X60895100Y-60767536D01*
X61113606Y-60811000D01*
X61336394Y-60811000D01*
X61554900Y-60767536D01*
X61709001Y-60703706D01*
X61709001Y-61196294D01*
X61554900Y-61132464D01*
X61336394Y-61089000D01*
X61113606Y-61089000D01*
X60895100Y-61132464D01*
X60689271Y-61217721D01*
X60504030Y-61341495D01*
X60346495Y-61499030D01*
X60222721Y-61684271D01*
X60137464Y-61890100D01*
X60094000Y-62108606D01*
X60094000Y-62331394D01*
X60137464Y-62549900D01*
X60222721Y-62755729D01*
X60346495Y-62940970D01*
X60504030Y-63098505D01*
X60689271Y-63222279D01*
X60895100Y-63307536D01*
X61113606Y-63351000D01*
X61336394Y-63351000D01*
X61554900Y-63307536D01*
X61709000Y-63243706D01*
X61709000Y-63736294D01*
X61554900Y-63672464D01*
X61336394Y-63629000D01*
X61113606Y-63629000D01*
X60895100Y-63672464D01*
X60689271Y-63757721D01*
X60504030Y-63881495D01*
X60346495Y-64039030D01*
X60222721Y-64224271D01*
X60137464Y-64430100D01*
X60094000Y-64648606D01*
X60094000Y-64871394D01*
X60137464Y-65089900D01*
X60222721Y-65295729D01*
X60346495Y-65480970D01*
X60504030Y-65638505D01*
X60689271Y-65762279D01*
X60895100Y-65847536D01*
X61113606Y-65891000D01*
X61336394Y-65891000D01*
X61554900Y-65847536D01*
X61709000Y-65783706D01*
X61709000Y-66276294D01*
X61554900Y-66212464D01*
X61336394Y-66169000D01*
X61113606Y-66169000D01*
X60895100Y-66212464D01*
X60689271Y-66297721D01*
X60504030Y-66421495D01*
X60346495Y-66579030D01*
X60222721Y-66764271D01*
X60137464Y-66970100D01*
X60094000Y-67188606D01*
X60094000Y-67411394D01*
X60137464Y-67629900D01*
X60222721Y-67835729D01*
X60346495Y-68020970D01*
X60504030Y-68178505D01*
X60689271Y-68302279D01*
X60895100Y-68387536D01*
X61113606Y-68431000D01*
X61336394Y-68431000D01*
X61554900Y-68387536D01*
X61709000Y-68323706D01*
X61709000Y-69098832D01*
X61706915Y-69120000D01*
X61715237Y-69204491D01*
X61739882Y-69285734D01*
X61779903Y-69360609D01*
X61833763Y-69426237D01*
X61899391Y-69480097D01*
X61974266Y-69520118D01*
X62055509Y-69544763D01*
X62140000Y-69553085D01*
X62161168Y-69551000D01*
X67908832Y-69551000D01*
X67930000Y-69553085D01*
X67951168Y-69551000D01*
X68014491Y-69544763D01*
X68095734Y-69520118D01*
X68170609Y-69480097D01*
X68236237Y-69426237D01*
X68290097Y-69360609D01*
X68330118Y-69285734D01*
X68354763Y-69204491D01*
X68363085Y-69120000D01*
X68361000Y-69098832D01*
X68361000Y-68323706D01*
X68515100Y-68387536D01*
X68733606Y-68431000D01*
X68956394Y-68431000D01*
X69174900Y-68387536D01*
X69380729Y-68302279D01*
X69565970Y-68178505D01*
X69723505Y-68020970D01*
X69847279Y-67835729D01*
X69932536Y-67629900D01*
X69976000Y-67411394D01*
X69976000Y-67188606D01*
X69932536Y-66970100D01*
X69847279Y-66764271D01*
X69723505Y-66579030D01*
X69565970Y-66421495D01*
X69380729Y-66297721D01*
X69174900Y-66212464D01*
X68956394Y-66169000D01*
X68733606Y-66169000D01*
X68515100Y-66212464D01*
X68361000Y-66276294D01*
X68361000Y-65783706D01*
X68515100Y-65847536D01*
X68733606Y-65891000D01*
X68956394Y-65891000D01*
X69174900Y-65847536D01*
X69380729Y-65762279D01*
X69565970Y-65638505D01*
X69723505Y-65480970D01*
X69847279Y-65295729D01*
X69932536Y-65089900D01*
X69976000Y-64871394D01*
X69976000Y-64648606D01*
X69932536Y-64430100D01*
X69847279Y-64224271D01*
X69723505Y-64039030D01*
X69565970Y-63881495D01*
X69380729Y-63757721D01*
X69174900Y-63672464D01*
X68956394Y-63629000D01*
X68733606Y-63629000D01*
X68515100Y-63672464D01*
X68361000Y-63736294D01*
X68361000Y-63243706D01*
X68515100Y-63307536D01*
X68733606Y-63351000D01*
X68956394Y-63351000D01*
X69174900Y-63307536D01*
X69380729Y-63222279D01*
X69565970Y-63098505D01*
X69723505Y-62940970D01*
X69847279Y-62755729D01*
X69932536Y-62549900D01*
X69976000Y-62331394D01*
X69976000Y-62108606D01*
X69932536Y-61890100D01*
X69847279Y-61684271D01*
X69723505Y-61499030D01*
X69565970Y-61341495D01*
X69380729Y-61217721D01*
X69174900Y-61132464D01*
X68956394Y-61089000D01*
X68733606Y-61089000D01*
X68515100Y-61132464D01*
X68361000Y-61196294D01*
X68361000Y-60703706D01*
X68515100Y-60767536D01*
X68733606Y-60811000D01*
X68956394Y-60811000D01*
X69174900Y-60767536D01*
X69380729Y-60682279D01*
X69565970Y-60558505D01*
X69723505Y-60400970D01*
X69847279Y-60215729D01*
X69932536Y-60009900D01*
X69976000Y-59791394D01*
X69976000Y-59568606D01*
X69932536Y-59350100D01*
X69847279Y-59144271D01*
X69723505Y-58959030D01*
X69565970Y-58801495D01*
X69380729Y-58677721D01*
X69174900Y-58592464D01*
X68956394Y-58549000D01*
X68733606Y-58549000D01*
X68515100Y-58592464D01*
X68361000Y-58656294D01*
X68361000Y-58163706D01*
X68515100Y-58227536D01*
X68733606Y-58271000D01*
X68956394Y-58271000D01*
X69174900Y-58227536D01*
X69380729Y-58142279D01*
X69565970Y-58018505D01*
X69723505Y-57860970D01*
X69847279Y-57675729D01*
X69932536Y-57469900D01*
X69976000Y-57251394D01*
X69976000Y-57028606D01*
X69932536Y-56810100D01*
X69847279Y-56604271D01*
X69723505Y-56419030D01*
X69565970Y-56261495D01*
X69380729Y-56137721D01*
X69174900Y-56052464D01*
X68956394Y-56009000D01*
X68733606Y-56009000D01*
X68515100Y-56052464D01*
X68361000Y-56116294D01*
X68361000Y-55341168D01*
X68363085Y-55320000D01*
X68354763Y-55235509D01*
X68330118Y-55154266D01*
X68290097Y-55079391D01*
X68236237Y-55013763D01*
X68170609Y-54959903D01*
X68095734Y-54919882D01*
X68014491Y-54895237D01*
X67951168Y-54889000D01*
X67930000Y-54886915D01*
X67908832Y-54889000D01*
X62161168Y-54889000D01*
X62140000Y-54886915D01*
X62118832Y-54889000D01*
X62055509Y-54895237D01*
X61974266Y-54919882D01*
X61899391Y-54959903D01*
X61833763Y-55013763D01*
X61779903Y-55079391D01*
X61739882Y-55154266D01*
X61715237Y-55235509D01*
X61706915Y-55320000D01*
X61709001Y-55341179D01*
X61709001Y-56116295D01*
X61554900Y-56052464D01*
X61336394Y-56009000D01*
X61113606Y-56009000D01*
X60895100Y-56052464D01*
X60689271Y-56137721D01*
X60504030Y-56261495D01*
X60346495Y-56419030D01*
X60222721Y-56604271D01*
X60137464Y-56810100D01*
X60094000Y-57028606D01*
X46274430Y-57028606D01*
X51062037Y-52241000D01*
X54336374Y-52241000D01*
X54360000Y-52243327D01*
X54383626Y-52241000D01*
X54454292Y-52234040D01*
X54544961Y-52206536D01*
X54628522Y-52161872D01*
X54701764Y-52101764D01*
X54716830Y-52083406D01*
X55593411Y-51206825D01*
X55611764Y-51191764D01*
X55671872Y-51118522D01*
X55716536Y-51034961D01*
X55744040Y-50944292D01*
X55751000Y-50873626D01*
X55751000Y-50873625D01*
X55753327Y-50850001D01*
X55751000Y-50826377D01*
X55751000Y-48654506D01*
X55822270Y-48583236D01*
X55900080Y-48466785D01*
X55953676Y-48337391D01*
X55981000Y-48200027D01*
X55981000Y-48059973D01*
X55953676Y-47922609D01*
X55900080Y-47793215D01*
X55822270Y-47676764D01*
X55723236Y-47577730D01*
X55606785Y-47499920D01*
X55477391Y-47446324D01*
X55340027Y-47419000D01*
X55199973Y-47419000D01*
X55062609Y-47446324D01*
X54933215Y-47499920D01*
X54816764Y-47577730D01*
X54790000Y-47604494D01*
X54763236Y-47577730D01*
X54646785Y-47499920D01*
X54517391Y-47446324D01*
X54380027Y-47419000D01*
X54239973Y-47419000D01*
X54102609Y-47446324D01*
X53973215Y-47499920D01*
X53856764Y-47577730D01*
X53757730Y-47676764D01*
X53679920Y-47793215D01*
X53626324Y-47922609D01*
X53615107Y-47978999D01*
X51951237Y-47978999D01*
X53123412Y-46806825D01*
X53141764Y-46791764D01*
X53201872Y-46718522D01*
X53246536Y-46634961D01*
X53274040Y-46544292D01*
X53281000Y-46473626D01*
X53281000Y-46473617D01*
X53283326Y-46450001D01*
X53281000Y-46426385D01*
X53281000Y-37258627D01*
X53283327Y-37235000D01*
X53274040Y-37140707D01*
X53246536Y-37050038D01*
X53201871Y-36966477D01*
X53190371Y-36952464D01*
X53141764Y-36893236D01*
X53123406Y-36878170D01*
X52129866Y-35884630D01*
X52152536Y-35829900D01*
X52196000Y-35611394D01*
X52196000Y-35388606D01*
X60094000Y-35388606D01*
X60094000Y-35611394D01*
X60137464Y-35829900D01*
X60222721Y-36035729D01*
X60346495Y-36220970D01*
X60504030Y-36378505D01*
X60689271Y-36502279D01*
X60895100Y-36587536D01*
X61113606Y-36631000D01*
X61336394Y-36631000D01*
X61554900Y-36587536D01*
X61760729Y-36502279D01*
X61945970Y-36378505D01*
X62103505Y-36220970D01*
X62227279Y-36035729D01*
X62312536Y-35829900D01*
X62356000Y-35611394D01*
X62356000Y-35388606D01*
X67714000Y-35388606D01*
X67714000Y-35611394D01*
X67757464Y-35829900D01*
X67842721Y-36035729D01*
X67966495Y-36220970D01*
X68124030Y-36378505D01*
X68309271Y-36502279D01*
X68515100Y-36587536D01*
X68733606Y-36631000D01*
X68956394Y-36631000D01*
X69174900Y-36587536D01*
X69380729Y-36502279D01*
X69565970Y-36378505D01*
X69723505Y-36220970D01*
X69847279Y-36035729D01*
X69932536Y-35829900D01*
X69976000Y-35611394D01*
X69976000Y-35388606D01*
X69932536Y-35170100D01*
X69847279Y-34964271D01*
X69723505Y-34779030D01*
X69565970Y-34621495D01*
X69380729Y-34497721D01*
X69174900Y-34412464D01*
X68956394Y-34369000D01*
X68733606Y-34369000D01*
X68515100Y-34412464D01*
X68309271Y-34497721D01*
X68124030Y-34621495D01*
X67966495Y-34779030D01*
X67842721Y-34964271D01*
X67757464Y-35170100D01*
X67714000Y-35388606D01*
X62356000Y-35388606D01*
X62312536Y-35170100D01*
X62227279Y-34964271D01*
X62103505Y-34779030D01*
X61945970Y-34621495D01*
X61760729Y-34497721D01*
X61554900Y-34412464D01*
X61336394Y-34369000D01*
X61113606Y-34369000D01*
X60895100Y-34412464D01*
X60689271Y-34497721D01*
X60504030Y-34621495D01*
X60346495Y-34779030D01*
X60222721Y-34964271D01*
X60137464Y-35170100D01*
X60094000Y-35388606D01*
X52196000Y-35388606D01*
X52152536Y-35170100D01*
X52067279Y-34964271D01*
X51943505Y-34779030D01*
X51785970Y-34621495D01*
X51600729Y-34497721D01*
X51394900Y-34412464D01*
X51176394Y-34369000D01*
X50953606Y-34369000D01*
X50735100Y-34412464D01*
X50529271Y-34497721D01*
X50344030Y-34621495D01*
X50186495Y-34779030D01*
X50062721Y-34964271D01*
X49977464Y-35170100D01*
X49934000Y-35388606D01*
X49934000Y-35611394D01*
X49977464Y-35829900D01*
X50062721Y-36035729D01*
X50186495Y-36220970D01*
X50344030Y-36378505D01*
X50529271Y-36502279D01*
X50735100Y-36587536D01*
X50953606Y-36631000D01*
X51176394Y-36631000D01*
X51394900Y-36587536D01*
X51449630Y-36564866D01*
X52319001Y-37434237D01*
X52319000Y-46250763D01*
X51020764Y-47549000D01*
X43453626Y-47549000D01*
X43429999Y-47546673D01*
X43335707Y-47555960D01*
X43308203Y-47564304D01*
X43245039Y-47583464D01*
X43161478Y-47628128D01*
X43088236Y-47688236D01*
X43073175Y-47706588D01*
X42681975Y-48097789D01*
X42680080Y-48093215D01*
X42602270Y-47976764D01*
X42503236Y-47877730D01*
X42386785Y-47799920D01*
X42257391Y-47746324D01*
X42120027Y-47719000D01*
X41979973Y-47719000D01*
X41842609Y-47746324D01*
X41713215Y-47799920D01*
X41596764Y-47877730D01*
X41497730Y-47976764D01*
X41472010Y-48015257D01*
X41472010Y-46616993D01*
X42667612Y-46616993D01*
X42733137Y-46855860D01*
X42980116Y-46971760D01*
X43244960Y-47037250D01*
X43517492Y-47049812D01*
X43787238Y-47008965D01*
X44043832Y-46916277D01*
X44156863Y-46855860D01*
X44222388Y-46616993D01*
X43445000Y-45839605D01*
X42667612Y-46616993D01*
X41472010Y-46616993D01*
X41472010Y-45773226D01*
X42206734Y-45038502D01*
X42133240Y-45195116D01*
X42067750Y-45459960D01*
X42055188Y-45732492D01*
X42096035Y-46002238D01*
X42188723Y-46258832D01*
X42249140Y-46371863D01*
X42488007Y-46437388D01*
X43265395Y-45660000D01*
X43624605Y-45660000D01*
X44401993Y-46437388D01*
X44640860Y-46371863D01*
X44756760Y-46124884D01*
X44822250Y-45860040D01*
X44834812Y-45587508D01*
X44828922Y-45548606D01*
X49934000Y-45548606D01*
X49934000Y-45771394D01*
X49977464Y-45989900D01*
X50062721Y-46195729D01*
X50186495Y-46380970D01*
X50344030Y-46538505D01*
X50529271Y-46662279D01*
X50735100Y-46747536D01*
X50953606Y-46791000D01*
X51176394Y-46791000D01*
X51394900Y-46747536D01*
X51600729Y-46662279D01*
X51785970Y-46538505D01*
X51943505Y-46380970D01*
X52067279Y-46195729D01*
X52152536Y-45989900D01*
X52196000Y-45771394D01*
X52196000Y-45548606D01*
X52152536Y-45330100D01*
X52067279Y-45124271D01*
X51943505Y-44939030D01*
X51785970Y-44781495D01*
X51600729Y-44657721D01*
X51394900Y-44572464D01*
X51176394Y-44529000D01*
X50953606Y-44529000D01*
X50735100Y-44572464D01*
X50529271Y-44657721D01*
X50344030Y-44781495D01*
X50186495Y-44939030D01*
X50062721Y-45124271D01*
X49977464Y-45330100D01*
X49934000Y-45548606D01*
X44828922Y-45548606D01*
X44793965Y-45317762D01*
X44701277Y-45061168D01*
X44640860Y-44948137D01*
X44401993Y-44882612D01*
X43624605Y-45660000D01*
X43265395Y-45660000D01*
X43251253Y-45645858D01*
X43430858Y-45466253D01*
X43445000Y-45480395D01*
X44222388Y-44703007D01*
X44156863Y-44464140D01*
X43909884Y-44348240D01*
X43645040Y-44282750D01*
X43372508Y-44270188D01*
X43102762Y-44311035D01*
X42846168Y-44403723D01*
X42836170Y-44409067D01*
X43051825Y-44193412D01*
X43051829Y-44193407D01*
X43060370Y-44184866D01*
X43115100Y-44207536D01*
X43333606Y-44251000D01*
X43556394Y-44251000D01*
X43774900Y-44207536D01*
X43980729Y-44122279D01*
X44165970Y-43998505D01*
X44323505Y-43840970D01*
X44447279Y-43655729D01*
X44532536Y-43449900D01*
X44576000Y-43231394D01*
X44576000Y-43008606D01*
X49934000Y-43008606D01*
X49934000Y-43231394D01*
X49977464Y-43449900D01*
X50062721Y-43655729D01*
X50186495Y-43840970D01*
X50344030Y-43998505D01*
X50529271Y-44122279D01*
X50735100Y-44207536D01*
X50953606Y-44251000D01*
X51176394Y-44251000D01*
X51394900Y-44207536D01*
X51600729Y-44122279D01*
X51785970Y-43998505D01*
X51943505Y-43840970D01*
X52067279Y-43655729D01*
X52152536Y-43449900D01*
X52196000Y-43231394D01*
X52196000Y-43008606D01*
X52152536Y-42790100D01*
X52067279Y-42584271D01*
X51943505Y-42399030D01*
X51785970Y-42241495D01*
X51600729Y-42117721D01*
X51394900Y-42032464D01*
X51176394Y-41989000D01*
X50953606Y-41989000D01*
X50735100Y-42032464D01*
X50529271Y-42117721D01*
X50344030Y-42241495D01*
X50186495Y-42399030D01*
X50062721Y-42584271D01*
X49977464Y-42790100D01*
X49934000Y-43008606D01*
X44576000Y-43008606D01*
X44532536Y-42790100D01*
X44447279Y-42584271D01*
X44323505Y-42399030D01*
X44165970Y-42241495D01*
X43980729Y-42117721D01*
X43774900Y-42032464D01*
X43556394Y-41989000D01*
X43333606Y-41989000D01*
X43115100Y-42032464D01*
X42909271Y-42117721D01*
X42724030Y-42241495D01*
X42566495Y-42399030D01*
X42442721Y-42584271D01*
X42357464Y-42790100D01*
X42314000Y-43008606D01*
X42314000Y-43231394D01*
X42357464Y-43449900D01*
X42380134Y-43504630D01*
X42371593Y-43513171D01*
X42371588Y-43513175D01*
X41072000Y-44812764D01*
X41072000Y-40468606D01*
X42314000Y-40468606D01*
X42314000Y-40691394D01*
X42357464Y-40909900D01*
X42442721Y-41115729D01*
X42566495Y-41300970D01*
X42724030Y-41458505D01*
X42909271Y-41582279D01*
X43115100Y-41667536D01*
X43333606Y-41711000D01*
X43556394Y-41711000D01*
X43774900Y-41667536D01*
X43980729Y-41582279D01*
X44165970Y-41458505D01*
X44323505Y-41300970D01*
X44447279Y-41115729D01*
X44532536Y-40909900D01*
X44576000Y-40691394D01*
X44576000Y-40468606D01*
X49934000Y-40468606D01*
X49934000Y-40691394D01*
X49977464Y-40909900D01*
X50062721Y-41115729D01*
X50186495Y-41300970D01*
X50344030Y-41458505D01*
X50529271Y-41582279D01*
X50735100Y-41667536D01*
X50953606Y-41711000D01*
X51176394Y-41711000D01*
X51394900Y-41667536D01*
X51600729Y-41582279D01*
X51785970Y-41458505D01*
X51943505Y-41300970D01*
X52067279Y-41115729D01*
X52152536Y-40909900D01*
X52196000Y-40691394D01*
X52196000Y-40468606D01*
X52152536Y-40250100D01*
X52067279Y-40044271D01*
X51943505Y-39859030D01*
X51785970Y-39701495D01*
X51600729Y-39577721D01*
X51394900Y-39492464D01*
X51176394Y-39449000D01*
X50953606Y-39449000D01*
X50735100Y-39492464D01*
X50529271Y-39577721D01*
X50344030Y-39701495D01*
X50186495Y-39859030D01*
X50062721Y-40044271D01*
X49977464Y-40250100D01*
X49934000Y-40468606D01*
X44576000Y-40468606D01*
X44532536Y-40250100D01*
X44447279Y-40044271D01*
X44323505Y-39859030D01*
X44165970Y-39701495D01*
X43980729Y-39577721D01*
X43774900Y-39492464D01*
X43556394Y-39449000D01*
X43333606Y-39449000D01*
X43115100Y-39492464D01*
X42909271Y-39577721D01*
X42724030Y-39701495D01*
X42566495Y-39859030D01*
X42442721Y-40044271D01*
X42357464Y-40250100D01*
X42314000Y-40468606D01*
X41072000Y-40468606D01*
X41072000Y-37928606D01*
X42314000Y-37928606D01*
X42314000Y-38151394D01*
X42357464Y-38369900D01*
X42442721Y-38575729D01*
X42566495Y-38760970D01*
X42724030Y-38918505D01*
X42909271Y-39042279D01*
X43115100Y-39127536D01*
X43333606Y-39171000D01*
X43556394Y-39171000D01*
X43774900Y-39127536D01*
X43980729Y-39042279D01*
X44165970Y-38918505D01*
X44323505Y-38760970D01*
X44447279Y-38575729D01*
X44532536Y-38369900D01*
X44576000Y-38151394D01*
X44576000Y-37928606D01*
X49934000Y-37928606D01*
X49934000Y-38151394D01*
X49977464Y-38369900D01*
X50062721Y-38575729D01*
X50186495Y-38760970D01*
X50344030Y-38918505D01*
X50529271Y-39042279D01*
X50735100Y-39127536D01*
X50953606Y-39171000D01*
X51176394Y-39171000D01*
X51394900Y-39127536D01*
X51600729Y-39042279D01*
X51785970Y-38918505D01*
X51943505Y-38760970D01*
X52067279Y-38575729D01*
X52152536Y-38369900D01*
X52196000Y-38151394D01*
X52196000Y-37928606D01*
X52152536Y-37710100D01*
X52067279Y-37504271D01*
X51943505Y-37319030D01*
X51785970Y-37161495D01*
X51600729Y-37037721D01*
X51394900Y-36952464D01*
X51176394Y-36909000D01*
X50953606Y-36909000D01*
X50735100Y-36952464D01*
X50529271Y-37037721D01*
X50344030Y-37161495D01*
X50186495Y-37319030D01*
X50062721Y-37504271D01*
X49977464Y-37710100D01*
X49934000Y-37928606D01*
X44576000Y-37928606D01*
X44532536Y-37710100D01*
X44447279Y-37504271D01*
X44323505Y-37319030D01*
X44165970Y-37161495D01*
X43980729Y-37037721D01*
X43774900Y-36952464D01*
X43556394Y-36909000D01*
X43333606Y-36909000D01*
X43115100Y-36952464D01*
X42909271Y-37037721D01*
X42724030Y-37161495D01*
X42566495Y-37319030D01*
X42442721Y-37504271D01*
X42357464Y-37710100D01*
X42314000Y-37928606D01*
X41072000Y-37928606D01*
X41072000Y-35388606D01*
X42314000Y-35388606D01*
X42314000Y-35611394D01*
X42357464Y-35829900D01*
X42442721Y-36035729D01*
X42566495Y-36220970D01*
X42724030Y-36378505D01*
X42909271Y-36502279D01*
X43115100Y-36587536D01*
X43333606Y-36631000D01*
X43556394Y-36631000D01*
X43774900Y-36587536D01*
X43980729Y-36502279D01*
X44165970Y-36378505D01*
X44323505Y-36220970D01*
X44447279Y-36035729D01*
X44532536Y-35829900D01*
X44576000Y-35611394D01*
X44576000Y-35388606D01*
X44532536Y-35170100D01*
X44447279Y-34964271D01*
X44323505Y-34779030D01*
X44165970Y-34621495D01*
X43980729Y-34497721D01*
X43774900Y-34412464D01*
X43556394Y-34369000D01*
X43333606Y-34369000D01*
X43115100Y-34412464D01*
X42909271Y-34497721D01*
X42724030Y-34621495D01*
X42566495Y-34779030D01*
X42442721Y-34964271D01*
X42357464Y-35170100D01*
X42314000Y-35388606D01*
X41072000Y-35388606D01*
X41072000Y-31516000D01*
X71234000Y-31516000D01*
X71234000Y-42288763D01*
X71234000Y-42288763D01*
G37*
X71234000Y-42288763D02*
X69909866Y-40964630D01*
X69932536Y-40909900D01*
X69976000Y-40691394D01*
X69976000Y-40468606D01*
X69932536Y-40250100D01*
X69847279Y-40044271D01*
X69723505Y-39859030D01*
X69565970Y-39701495D01*
X69380729Y-39577721D01*
X69174900Y-39492464D01*
X68956394Y-39449000D01*
X68733606Y-39449000D01*
X68515100Y-39492464D01*
X68309271Y-39577721D01*
X68124030Y-39701495D01*
X67966495Y-39859030D01*
X67842721Y-40044271D01*
X67757464Y-40250100D01*
X67714000Y-40468606D01*
X67714000Y-40691394D01*
X67757464Y-40909900D01*
X67842721Y-41115729D01*
X67966495Y-41300970D01*
X68124030Y-41458505D01*
X68309271Y-41582279D01*
X68515100Y-41667536D01*
X68733606Y-41711000D01*
X68956394Y-41711000D01*
X69174900Y-41667536D01*
X69229630Y-41644866D01*
X70509000Y-42924237D01*
X70509000Y-44103763D01*
X69909866Y-43504630D01*
X69932536Y-43449900D01*
X69976000Y-43231394D01*
X69976000Y-43008606D01*
X69932536Y-42790100D01*
X69847279Y-42584271D01*
X69723505Y-42399030D01*
X69565970Y-42241495D01*
X69380729Y-42117721D01*
X69174900Y-42032464D01*
X68956394Y-41989000D01*
X68733606Y-41989000D01*
X68515100Y-42032464D01*
X68309271Y-42117721D01*
X68124030Y-42241495D01*
X67966495Y-42399030D01*
X67842721Y-42584271D01*
X67757464Y-42790100D01*
X67714000Y-43008606D01*
X67714000Y-43231394D01*
X67757464Y-43449900D01*
X67842721Y-43655729D01*
X67966495Y-43840970D01*
X68124030Y-43998505D01*
X68309271Y-44122279D01*
X68515100Y-44207536D01*
X68733606Y-44251000D01*
X68956394Y-44251000D01*
X69174900Y-44207536D01*
X69229630Y-44184866D01*
X69719000Y-44674237D01*
X69719000Y-44934525D01*
X69565970Y-44781495D01*
X69380729Y-44657721D01*
X69174900Y-44572464D01*
X68956394Y-44529000D01*
X68733606Y-44529000D01*
X68515100Y-44572464D01*
X68309271Y-44657721D01*
X68124030Y-44781495D01*
X67966495Y-44939030D01*
X67842721Y-45124271D01*
X67757464Y-45330100D01*
X67714000Y-45548606D01*
X67714000Y-45771394D01*
X67757464Y-45989900D01*
X67842721Y-46195729D01*
X67966495Y-46380970D01*
X68124030Y-46538505D01*
X68309271Y-46662279D01*
X68364000Y-46684949D01*
X68364001Y-48303765D01*
X68326230Y-48265994D01*
X68303676Y-48152609D01*
X68250080Y-48023215D01*
X68172270Y-47906764D01*
X68073236Y-47807730D01*
X67956785Y-47729920D01*
X67827391Y-47676324D01*
X67690027Y-47649000D01*
X67549973Y-47649000D01*
X67412609Y-47676324D01*
X67283215Y-47729920D01*
X67166764Y-47807730D01*
X67067730Y-47906764D01*
X66989920Y-48023215D01*
X66936324Y-48152609D01*
X66909000Y-48289973D01*
X66909000Y-48430027D01*
X66936324Y-48567391D01*
X66989920Y-48696785D01*
X67067730Y-48813236D01*
X67166764Y-48912270D01*
X67283215Y-48990080D01*
X67381796Y-49030913D01*
X67296764Y-49087730D01*
X67197730Y-49186764D01*
X67119920Y-49303215D01*
X67079950Y-49399713D01*
X65526830Y-47846594D01*
X65511764Y-47828236D01*
X65438522Y-47768128D01*
X65354961Y-47723464D01*
X65264292Y-47695960D01*
X65193626Y-47689000D01*
X65170000Y-47686673D01*
X65146374Y-47689000D01*
X60529237Y-47689000D01*
X59457230Y-46616993D01*
X60447612Y-46616993D01*
X60513137Y-46855860D01*
X60760116Y-46971760D01*
X61024960Y-47037250D01*
X61297492Y-47049812D01*
X61567238Y-47008965D01*
X61823832Y-46916277D01*
X61936863Y-46855860D01*
X62002388Y-46616993D01*
X61225000Y-45839605D01*
X60447612Y-46616993D01*
X59457230Y-46616993D01*
X59161000Y-46320764D01*
X59161000Y-45732492D01*
X59835188Y-45732492D01*
X59876035Y-46002238D01*
X59968723Y-46258832D01*
X60029140Y-46371863D01*
X60268007Y-46437388D01*
X61045395Y-45660000D01*
X61404605Y-45660000D01*
X62181993Y-46437388D01*
X62420860Y-46371863D01*
X62536760Y-46124884D01*
X62602250Y-45860040D01*
X62614812Y-45587508D01*
X62573965Y-45317762D01*
X62481277Y-45061168D01*
X62420860Y-44948137D01*
X62181993Y-44882612D01*
X61404605Y-45660000D01*
X61045395Y-45660000D01*
X60268007Y-44882612D01*
X60029140Y-44948137D01*
X59913240Y-45195116D01*
X59847750Y-45459960D01*
X59835188Y-45732492D01*
X59161000Y-45732492D01*
X59161000Y-44703007D01*
X60447612Y-44703007D01*
X61225000Y-45480395D01*
X62002388Y-44703007D01*
X61936863Y-44464140D01*
X61689884Y-44348240D01*
X61425040Y-44282750D01*
X61152508Y-44270188D01*
X60882762Y-44311035D01*
X60626168Y-44403723D01*
X60513137Y-44464140D01*
X60447612Y-44703007D01*
X59161000Y-44703007D01*
X59161000Y-43008606D01*
X60094000Y-43008606D01*
X60094000Y-43231394D01*
X60137464Y-43449900D01*
X60222721Y-43655729D01*
X60346495Y-43840970D01*
X60504030Y-43998505D01*
X60689271Y-44122279D01*
X60895100Y-44207536D01*
X61113606Y-44251000D01*
X61336394Y-44251000D01*
X61554900Y-44207536D01*
X61760729Y-44122279D01*
X61945970Y-43998505D01*
X62103505Y-43840970D01*
X62227279Y-43655729D01*
X62312536Y-43449900D01*
X62356000Y-43231394D01*
X62356000Y-43008606D01*
X62312536Y-42790100D01*
X62227279Y-42584271D01*
X62103505Y-42399030D01*
X61945970Y-42241495D01*
X61760729Y-42117721D01*
X61554900Y-42032464D01*
X61336394Y-41989000D01*
X61113606Y-41989000D01*
X60895100Y-42032464D01*
X60689271Y-42117721D01*
X60504030Y-42241495D01*
X60346495Y-42399030D01*
X60222721Y-42584271D01*
X60137464Y-42790100D01*
X60094000Y-43008606D01*
X59161000Y-43008606D01*
X59161000Y-40468606D01*
X60094000Y-40468606D01*
X60094000Y-40691394D01*
X60137464Y-40909900D01*
X60222721Y-41115729D01*
X60346495Y-41300970D01*
X60504030Y-41458505D01*
X60689271Y-41582279D01*
X60895100Y-41667536D01*
X61113606Y-41711000D01*
X61336394Y-41711000D01*
X61554900Y-41667536D01*
X61760729Y-41582279D01*
X61945970Y-41458505D01*
X62103505Y-41300970D01*
X62227279Y-41115729D01*
X62312536Y-40909900D01*
X62356000Y-40691394D01*
X62356000Y-40468606D01*
X62312536Y-40250100D01*
X62227279Y-40044271D01*
X62103505Y-39859030D01*
X61945970Y-39701495D01*
X61760729Y-39577721D01*
X61554900Y-39492464D01*
X61336394Y-39449000D01*
X61113606Y-39449000D01*
X60895100Y-39492464D01*
X60689271Y-39577721D01*
X60504030Y-39701495D01*
X60346495Y-39859030D01*
X60222721Y-40044271D01*
X60137464Y-40250100D01*
X60094000Y-40468606D01*
X59161000Y-40468606D01*
X59161000Y-39759236D01*
X60271502Y-38648734D01*
X60346495Y-38760970D01*
X60504030Y-38918505D01*
X60689271Y-39042279D01*
X60895100Y-39127536D01*
X61113606Y-39171000D01*
X61336394Y-39171000D01*
X61554900Y-39127536D01*
X61760729Y-39042279D01*
X61945970Y-38918505D01*
X62103505Y-38760970D01*
X62227279Y-38575729D01*
X62312536Y-38369900D01*
X62356000Y-38151394D01*
X62356000Y-37928606D01*
X67714000Y-37928606D01*
X67714000Y-38151394D01*
X67757464Y-38369900D01*
X67842721Y-38575729D01*
X67966495Y-38760970D01*
X68124030Y-38918505D01*
X68309271Y-39042279D01*
X68515100Y-39127536D01*
X68733606Y-39171000D01*
X68956394Y-39171000D01*
X69174900Y-39127536D01*
X69380729Y-39042279D01*
X69565970Y-38918505D01*
X69723505Y-38760970D01*
X69847279Y-38575729D01*
X69932536Y-38369900D01*
X69976000Y-38151394D01*
X69976000Y-37928606D01*
X69932536Y-37710100D01*
X69847279Y-37504271D01*
X69723505Y-37319030D01*
X69565970Y-37161495D01*
X69380729Y-37037721D01*
X69174900Y-36952464D01*
X68956394Y-36909000D01*
X68733606Y-36909000D01*
X68515100Y-36952464D01*
X68309271Y-37037721D01*
X68124030Y-37161495D01*
X67966495Y-37319030D01*
X67842721Y-37504271D01*
X67757464Y-37710100D01*
X67714000Y-37928606D01*
X62356000Y-37928606D01*
X62312536Y-37710100D01*
X62227279Y-37504271D01*
X62103505Y-37319030D01*
X61945970Y-37161495D01*
X61760729Y-37037721D01*
X61554900Y-36952464D01*
X61336394Y-36909000D01*
X61113606Y-36909000D01*
X60895100Y-36952464D01*
X60689271Y-37037721D01*
X60504030Y-37161495D01*
X60346495Y-37319030D01*
X60222721Y-37504271D01*
X60200976Y-37556769D01*
X60200000Y-37556673D01*
X60105707Y-37565960D01*
X60015038Y-37593464D01*
X59970374Y-37617338D01*
X59931478Y-37638128D01*
X59858236Y-37698236D01*
X59843170Y-37716594D01*
X58356589Y-39203175D01*
X58338237Y-39218236D01*
X58323176Y-39236588D01*
X58278129Y-39291478D01*
X58233465Y-39375039D01*
X58205960Y-39465708D01*
X58196673Y-39560000D01*
X58199001Y-39583636D01*
X58199000Y-46496374D01*
X58196673Y-46520000D01*
X58205960Y-46614292D01*
X58212230Y-46634960D01*
X58233464Y-46704960D01*
X58278128Y-46788522D01*
X58338236Y-46861764D01*
X58356594Y-46876830D01*
X59973175Y-48493412D01*
X59988236Y-48511764D01*
X60061478Y-48571872D01*
X60145039Y-48616536D01*
X60235708Y-48644040D01*
X60306374Y-48651000D01*
X60306375Y-48651000D01*
X60329999Y-48653327D01*
X60353623Y-48651000D01*
X64970764Y-48651000D01*
X70019001Y-53699238D01*
X70019000Y-75390763D01*
X68230764Y-77179000D01*
X61353623Y-77179000D01*
X61329999Y-77176673D01*
X61306375Y-77179000D01*
X61306374Y-77179000D01*
X61235708Y-77185960D01*
X61145039Y-77213464D01*
X61061478Y-77258128D01*
X60988236Y-77318236D01*
X60973175Y-77336588D01*
X59366589Y-78943175D01*
X59348237Y-78958236D01*
X59333176Y-78976588D01*
X59288129Y-79031478D01*
X59243465Y-79115039D01*
X59215960Y-79205708D01*
X59206673Y-79300000D01*
X59209001Y-79323636D01*
X59209000Y-80981373D01*
X59206673Y-81005000D01*
X59209000Y-81028625D01*
X59215960Y-81099291D01*
X59243464Y-81189960D01*
X59288128Y-81273522D01*
X59348236Y-81346764D01*
X59366594Y-81361830D01*
X60160134Y-82155370D01*
X60137464Y-82210100D01*
X60094000Y-82428606D01*
X60094000Y-82651394D01*
X60137464Y-82869900D01*
X60222721Y-83075729D01*
X60346495Y-83260970D01*
X60504030Y-83418505D01*
X60689271Y-83542279D01*
X60895100Y-83627536D01*
X61113606Y-83671000D01*
X61336394Y-83671000D01*
X61554900Y-83627536D01*
X61709001Y-83563706D01*
X61709001Y-84056294D01*
X61554900Y-83992464D01*
X61336394Y-83949000D01*
X61113606Y-83949000D01*
X60895100Y-83992464D01*
X60689271Y-84077721D01*
X60504030Y-84201495D01*
X60346495Y-84359030D01*
X60222721Y-84544271D01*
X60200052Y-84599000D01*
X59509236Y-84599000D01*
X54841011Y-79930775D01*
X54841011Y-77956529D01*
X54843337Y-77932913D01*
X54841011Y-77909297D01*
X54841011Y-77909288D01*
X54834051Y-77838622D01*
X54806547Y-77747953D01*
X54761883Y-77664392D01*
X54701775Y-77591150D01*
X54683423Y-77576089D01*
X52143916Y-75036583D01*
X52128850Y-75018225D01*
X52055608Y-74958117D01*
X51972047Y-74913453D01*
X51881378Y-74885949D01*
X51810712Y-74878989D01*
X51787086Y-74876662D01*
X51763460Y-74878989D01*
X45356326Y-74878989D01*
X45090941Y-74613605D01*
X45090941Y-74059973D01*
X50639000Y-74059973D01*
X50639000Y-74200027D01*
X50666324Y-74337391D01*
X50719920Y-74466785D01*
X50797730Y-74583236D01*
X50896764Y-74682270D01*
X51013215Y-74760080D01*
X51142609Y-74813676D01*
X51279973Y-74841000D01*
X51420027Y-74841000D01*
X51557391Y-74813676D01*
X51686785Y-74760080D01*
X51803236Y-74682270D01*
X51902270Y-74583236D01*
X51980080Y-74466785D01*
X52033676Y-74337391D01*
X52061000Y-74200027D01*
X52061000Y-74169946D01*
X52977030Y-73253917D01*
X52997290Y-73237290D01*
X53013917Y-73217030D01*
X53063646Y-73156436D01*
X53080821Y-73124304D01*
X53112953Y-73064188D01*
X53143317Y-72964094D01*
X53151000Y-72886084D01*
X53151000Y-72886075D01*
X53153568Y-72860001D01*
X53151000Y-72833927D01*
X53151000Y-69086828D01*
X53267391Y-69063676D01*
X53396785Y-69010080D01*
X53513236Y-68932270D01*
X53612270Y-68833236D01*
X53690080Y-68716785D01*
X53709000Y-68671106D01*
X53709000Y-69256373D01*
X53706673Y-69280000D01*
X53709000Y-69303625D01*
X53715960Y-69374291D01*
X53743464Y-69464960D01*
X53788128Y-69548522D01*
X53848236Y-69621764D01*
X53866594Y-69636830D01*
X54899000Y-70669237D01*
X54899000Y-70770027D01*
X54926324Y-70907391D01*
X54979920Y-71036785D01*
X55057730Y-71153236D01*
X55156764Y-71252270D01*
X55273215Y-71330080D01*
X55402609Y-71383676D01*
X55539973Y-71411000D01*
X55680027Y-71411000D01*
X55817391Y-71383676D01*
X55946785Y-71330080D01*
X56063236Y-71252270D01*
X56162270Y-71153236D01*
X56240080Y-71036785D01*
X56293676Y-70907391D01*
X56321000Y-70770027D01*
X56321000Y-70629973D01*
X56293676Y-70492609D01*
X56240080Y-70363215D01*
X56162270Y-70246764D01*
X56063236Y-70147730D01*
X55946785Y-70069920D01*
X55817391Y-70016324D01*
X55680027Y-69989000D01*
X55579237Y-69989000D01*
X54671000Y-69080764D01*
X54671000Y-68434506D01*
X54742270Y-68363236D01*
X54820080Y-68246785D01*
X54873676Y-68117391D01*
X54901000Y-67980027D01*
X54901000Y-67839973D01*
X54873676Y-67702609D01*
X54820080Y-67573215D01*
X54742270Y-67456764D01*
X54643236Y-67357730D01*
X54526785Y-67279920D01*
X54397391Y-67226324D01*
X54260027Y-67199000D01*
X54119973Y-67199000D01*
X53982609Y-67226324D01*
X53853215Y-67279920D01*
X53736764Y-67357730D01*
X53637730Y-67456764D01*
X53559920Y-67573215D01*
X53506324Y-67702609D01*
X53485166Y-67808974D01*
X53396785Y-67749920D01*
X53267391Y-67696324D01*
X53130027Y-67669000D01*
X52989973Y-67669000D01*
X52852609Y-67696324D01*
X52723215Y-67749920D01*
X52606764Y-67827730D01*
X52507730Y-67926764D01*
X52429920Y-68043215D01*
X52376324Y-68172609D01*
X52349000Y-68309973D01*
X52349000Y-68340054D01*
X52262970Y-68426084D01*
X52242711Y-68442710D01*
X52226084Y-68462970D01*
X52226083Y-68462971D01*
X52176354Y-68523565D01*
X52127047Y-68615813D01*
X52125474Y-68621000D01*
X52096684Y-68715906D01*
X52094604Y-68737030D01*
X52086432Y-68820000D01*
X52089001Y-68846084D01*
X52089000Y-72640053D01*
X51310054Y-73419000D01*
X51279973Y-73419000D01*
X51142609Y-73446324D01*
X51013215Y-73499920D01*
X50896764Y-73577730D01*
X50797730Y-73676764D01*
X50719920Y-73793215D01*
X50666324Y-73922609D01*
X50639000Y-74059973D01*
X45090941Y-74059973D01*
X45090941Y-62609785D01*
X45116324Y-62737391D01*
X45169920Y-62866785D01*
X45247730Y-62983236D01*
X45346764Y-63082270D01*
X45463215Y-63160080D01*
X45592609Y-63213676D01*
X45599000Y-63214947D01*
X45599001Y-71059872D01*
X45529932Y-71163241D01*
X45476336Y-71292635D01*
X45449012Y-71429999D01*
X45449012Y-71570053D01*
X45476336Y-71707417D01*
X45529932Y-71836811D01*
X45607742Y-71953262D01*
X45706776Y-72052296D01*
X45823227Y-72130106D01*
X45952621Y-72183702D01*
X46089985Y-72211026D01*
X46230039Y-72211026D01*
X46367403Y-72183702D01*
X46496797Y-72130106D01*
X46613248Y-72052296D01*
X46712282Y-71953262D01*
X46790092Y-71836811D01*
X46843688Y-71707417D01*
X46871012Y-71570053D01*
X46871012Y-71429999D01*
X46843688Y-71292635D01*
X46790092Y-71163241D01*
X46712282Y-71046790D01*
X46613248Y-70947756D01*
X46561000Y-70912845D01*
X46561000Y-70886441D01*
X46602609Y-70903676D01*
X46739973Y-70931000D01*
X46880027Y-70931000D01*
X47017391Y-70903676D01*
X47146785Y-70850080D01*
X47263236Y-70772270D01*
X47362270Y-70673236D01*
X47440080Y-70556785D01*
X47493676Y-70427391D01*
X47521000Y-70290027D01*
X47521000Y-70149973D01*
X47493676Y-70012609D01*
X47440080Y-69883215D01*
X47362270Y-69766764D01*
X47291000Y-69695494D01*
X47291000Y-61189236D01*
X47469236Y-61011000D01*
X47570027Y-61011000D01*
X47707391Y-60983676D01*
X47836785Y-60930080D01*
X47953236Y-60852270D01*
X48052270Y-60753236D01*
X48130080Y-60636785D01*
X48183676Y-60507391D01*
X48211000Y-60370027D01*
X48211000Y-60229973D01*
X48183676Y-60092609D01*
X48130080Y-59963215D01*
X48052270Y-59846764D01*
X47953236Y-59747730D01*
X47836785Y-59669920D01*
X47707391Y-59616324D01*
X47570027Y-59589000D01*
X47429973Y-59589000D01*
X47292609Y-59616324D01*
X47163215Y-59669920D01*
X47046764Y-59747730D01*
X46947730Y-59846764D01*
X46869920Y-59963215D01*
X46816324Y-60092609D01*
X46789000Y-60229973D01*
X46789000Y-60330764D01*
X46486589Y-60633175D01*
X46468237Y-60648236D01*
X46453176Y-60666588D01*
X46408129Y-60721478D01*
X46363465Y-60805039D01*
X46335960Y-60895708D01*
X46326673Y-60990000D01*
X46329001Y-61013636D01*
X46329001Y-62053495D01*
X46253236Y-61977730D01*
X46136785Y-61899920D01*
X46007391Y-61846324D01*
X45870027Y-61819000D01*
X45729973Y-61819000D01*
X45592609Y-61846324D01*
X45463215Y-61899920D01*
X45346764Y-61977730D01*
X45247730Y-62076764D01*
X45169920Y-62193215D01*
X45116324Y-62322609D01*
X45090941Y-62450215D01*
X45090941Y-58212095D01*
X46274430Y-57028606D01*
X60094000Y-57028606D01*
X60094000Y-57251394D01*
X60137464Y-57469900D01*
X60222721Y-57675729D01*
X60346495Y-57860970D01*
X60504030Y-58018505D01*
X60689271Y-58142279D01*
X60895100Y-58227536D01*
X61113606Y-58271000D01*
X61336394Y-58271000D01*
X61554900Y-58227536D01*
X61709001Y-58163705D01*
X61709001Y-58656295D01*
X61554900Y-58592464D01*
X61336394Y-58549000D01*
X61113606Y-58549000D01*
X60895100Y-58592464D01*
X60689271Y-58677721D01*
X60504030Y-58801495D01*
X60346495Y-58959030D01*
X60222721Y-59144271D01*
X60137464Y-59350100D01*
X60094000Y-59568606D01*
X60094000Y-59791394D01*
X60137464Y-60009900D01*
X60222721Y-60215729D01*
X60346495Y-60400970D01*
X60504030Y-60558505D01*
X60689271Y-60682279D01*
X60895100Y-60767536D01*
X61113606Y-60811000D01*
X61336394Y-60811000D01*
X61554900Y-60767536D01*
X61709001Y-60703706D01*
X61709001Y-61196294D01*
X61554900Y-61132464D01*
X61336394Y-61089000D01*
X61113606Y-61089000D01*
X60895100Y-61132464D01*
X60689271Y-61217721D01*
X60504030Y-61341495D01*
X60346495Y-61499030D01*
X60222721Y-61684271D01*
X60137464Y-61890100D01*
X60094000Y-62108606D01*
X60094000Y-62331394D01*
X60137464Y-62549900D01*
X60222721Y-62755729D01*
X60346495Y-62940970D01*
X60504030Y-63098505D01*
X60689271Y-63222279D01*
X60895100Y-63307536D01*
X61113606Y-63351000D01*
X61336394Y-63351000D01*
X61554900Y-63307536D01*
X61709000Y-63243706D01*
X61709000Y-63736294D01*
X61554900Y-63672464D01*
X61336394Y-63629000D01*
X61113606Y-63629000D01*
X60895100Y-63672464D01*
X60689271Y-63757721D01*
X60504030Y-63881495D01*
X60346495Y-64039030D01*
X60222721Y-64224271D01*
X60137464Y-64430100D01*
X60094000Y-64648606D01*
X60094000Y-64871394D01*
X60137464Y-65089900D01*
X60222721Y-65295729D01*
X60346495Y-65480970D01*
X60504030Y-65638505D01*
X60689271Y-65762279D01*
X60895100Y-65847536D01*
X61113606Y-65891000D01*
X61336394Y-65891000D01*
X61554900Y-65847536D01*
X61709000Y-65783706D01*
X61709000Y-66276294D01*
X61554900Y-66212464D01*
X61336394Y-66169000D01*
X61113606Y-66169000D01*
X60895100Y-66212464D01*
X60689271Y-66297721D01*
X60504030Y-66421495D01*
X60346495Y-66579030D01*
X60222721Y-66764271D01*
X60137464Y-66970100D01*
X60094000Y-67188606D01*
X60094000Y-67411394D01*
X60137464Y-67629900D01*
X60222721Y-67835729D01*
X60346495Y-68020970D01*
X60504030Y-68178505D01*
X60689271Y-68302279D01*
X60895100Y-68387536D01*
X61113606Y-68431000D01*
X61336394Y-68431000D01*
X61554900Y-68387536D01*
X61709000Y-68323706D01*
X61709000Y-69098832D01*
X61706915Y-69120000D01*
X61715237Y-69204491D01*
X61739882Y-69285734D01*
X61779903Y-69360609D01*
X61833763Y-69426237D01*
X61899391Y-69480097D01*
X61974266Y-69520118D01*
X62055509Y-69544763D01*
X62140000Y-69553085D01*
X62161168Y-69551000D01*
X67908832Y-69551000D01*
X67930000Y-69553085D01*
X67951168Y-69551000D01*
X68014491Y-69544763D01*
X68095734Y-69520118D01*
X68170609Y-69480097D01*
X68236237Y-69426237D01*
X68290097Y-69360609D01*
X68330118Y-69285734D01*
X68354763Y-69204491D01*
X68363085Y-69120000D01*
X68361000Y-69098832D01*
X68361000Y-68323706D01*
X68515100Y-68387536D01*
X68733606Y-68431000D01*
X68956394Y-68431000D01*
X69174900Y-68387536D01*
X69380729Y-68302279D01*
X69565970Y-68178505D01*
X69723505Y-68020970D01*
X69847279Y-67835729D01*
X69932536Y-67629900D01*
X69976000Y-67411394D01*
X69976000Y-67188606D01*
X69932536Y-66970100D01*
X69847279Y-66764271D01*
X69723505Y-66579030D01*
X69565970Y-66421495D01*
X69380729Y-66297721D01*
X69174900Y-66212464D01*
X68956394Y-66169000D01*
X68733606Y-66169000D01*
X68515100Y-66212464D01*
X68361000Y-66276294D01*
X68361000Y-65783706D01*
X68515100Y-65847536D01*
X68733606Y-65891000D01*
X68956394Y-65891000D01*
X69174900Y-65847536D01*
X69380729Y-65762279D01*
X69565970Y-65638505D01*
X69723505Y-65480970D01*
X69847279Y-65295729D01*
X69932536Y-65089900D01*
X69976000Y-64871394D01*
X69976000Y-64648606D01*
X69932536Y-64430100D01*
X69847279Y-64224271D01*
X69723505Y-64039030D01*
X69565970Y-63881495D01*
X69380729Y-63757721D01*
X69174900Y-63672464D01*
X68956394Y-63629000D01*
X68733606Y-63629000D01*
X68515100Y-63672464D01*
X68361000Y-63736294D01*
X68361000Y-63243706D01*
X68515100Y-63307536D01*
X68733606Y-63351000D01*
X68956394Y-63351000D01*
X69174900Y-63307536D01*
X69380729Y-63222279D01*
X69565970Y-63098505D01*
X69723505Y-62940970D01*
X69847279Y-62755729D01*
X69932536Y-62549900D01*
X69976000Y-62331394D01*
X69976000Y-62108606D01*
X69932536Y-61890100D01*
X69847279Y-61684271D01*
X69723505Y-61499030D01*
X69565970Y-61341495D01*
X69380729Y-61217721D01*
X69174900Y-61132464D01*
X68956394Y-61089000D01*
X68733606Y-61089000D01*
X68515100Y-61132464D01*
X68361000Y-61196294D01*
X68361000Y-60703706D01*
X68515100Y-60767536D01*
X68733606Y-60811000D01*
X68956394Y-60811000D01*
X69174900Y-60767536D01*
X69380729Y-60682279D01*
X69565970Y-60558505D01*
X69723505Y-60400970D01*
X69847279Y-60215729D01*
X69932536Y-60009900D01*
X69976000Y-59791394D01*
X69976000Y-59568606D01*
X69932536Y-59350100D01*
X69847279Y-59144271D01*
X69723505Y-58959030D01*
X69565970Y-58801495D01*
X69380729Y-58677721D01*
X69174900Y-58592464D01*
X68956394Y-58549000D01*
X68733606Y-58549000D01*
X68515100Y-58592464D01*
X68361000Y-58656294D01*
X68361000Y-58163706D01*
X68515100Y-58227536D01*
X68733606Y-58271000D01*
X68956394Y-58271000D01*
X69174900Y-58227536D01*
X69380729Y-58142279D01*
X69565970Y-58018505D01*
X69723505Y-57860970D01*
X69847279Y-57675729D01*
X69932536Y-57469900D01*
X69976000Y-57251394D01*
X69976000Y-57028606D01*
X69932536Y-56810100D01*
X69847279Y-56604271D01*
X69723505Y-56419030D01*
X69565970Y-56261495D01*
X69380729Y-56137721D01*
X69174900Y-56052464D01*
X68956394Y-56009000D01*
X68733606Y-56009000D01*
X68515100Y-56052464D01*
X68361000Y-56116294D01*
X68361000Y-55341168D01*
X68363085Y-55320000D01*
X68354763Y-55235509D01*
X68330118Y-55154266D01*
X68290097Y-55079391D01*
X68236237Y-55013763D01*
X68170609Y-54959903D01*
X68095734Y-54919882D01*
X68014491Y-54895237D01*
X67951168Y-54889000D01*
X67930000Y-54886915D01*
X67908832Y-54889000D01*
X62161168Y-54889000D01*
X62140000Y-54886915D01*
X62118832Y-54889000D01*
X62055509Y-54895237D01*
X61974266Y-54919882D01*
X61899391Y-54959903D01*
X61833763Y-55013763D01*
X61779903Y-55079391D01*
X61739882Y-55154266D01*
X61715237Y-55235509D01*
X61706915Y-55320000D01*
X61709001Y-55341179D01*
X61709001Y-56116295D01*
X61554900Y-56052464D01*
X61336394Y-56009000D01*
X61113606Y-56009000D01*
X60895100Y-56052464D01*
X60689271Y-56137721D01*
X60504030Y-56261495D01*
X60346495Y-56419030D01*
X60222721Y-56604271D01*
X60137464Y-56810100D01*
X60094000Y-57028606D01*
X46274430Y-57028606D01*
X51062037Y-52241000D01*
X54336374Y-52241000D01*
X54360000Y-52243327D01*
X54383626Y-52241000D01*
X54454292Y-52234040D01*
X54544961Y-52206536D01*
X54628522Y-52161872D01*
X54701764Y-52101764D01*
X54716830Y-52083406D01*
X55593411Y-51206825D01*
X55611764Y-51191764D01*
X55671872Y-51118522D01*
X55716536Y-51034961D01*
X55744040Y-50944292D01*
X55751000Y-50873626D01*
X55751000Y-50873625D01*
X55753327Y-50850001D01*
X55751000Y-50826377D01*
X55751000Y-48654506D01*
X55822270Y-48583236D01*
X55900080Y-48466785D01*
X55953676Y-48337391D01*
X55981000Y-48200027D01*
X55981000Y-48059973D01*
X55953676Y-47922609D01*
X55900080Y-47793215D01*
X55822270Y-47676764D01*
X55723236Y-47577730D01*
X55606785Y-47499920D01*
X55477391Y-47446324D01*
X55340027Y-47419000D01*
X55199973Y-47419000D01*
X55062609Y-47446324D01*
X54933215Y-47499920D01*
X54816764Y-47577730D01*
X54790000Y-47604494D01*
X54763236Y-47577730D01*
X54646785Y-47499920D01*
X54517391Y-47446324D01*
X54380027Y-47419000D01*
X54239973Y-47419000D01*
X54102609Y-47446324D01*
X53973215Y-47499920D01*
X53856764Y-47577730D01*
X53757730Y-47676764D01*
X53679920Y-47793215D01*
X53626324Y-47922609D01*
X53615107Y-47978999D01*
X51951237Y-47978999D01*
X53123412Y-46806825D01*
X53141764Y-46791764D01*
X53201872Y-46718522D01*
X53246536Y-46634961D01*
X53274040Y-46544292D01*
X53281000Y-46473626D01*
X53281000Y-46473617D01*
X53283326Y-46450001D01*
X53281000Y-46426385D01*
X53281000Y-37258627D01*
X53283327Y-37235000D01*
X53274040Y-37140707D01*
X53246536Y-37050038D01*
X53201871Y-36966477D01*
X53190371Y-36952464D01*
X53141764Y-36893236D01*
X53123406Y-36878170D01*
X52129866Y-35884630D01*
X52152536Y-35829900D01*
X52196000Y-35611394D01*
X52196000Y-35388606D01*
X60094000Y-35388606D01*
X60094000Y-35611394D01*
X60137464Y-35829900D01*
X60222721Y-36035729D01*
X60346495Y-36220970D01*
X60504030Y-36378505D01*
X60689271Y-36502279D01*
X60895100Y-36587536D01*
X61113606Y-36631000D01*
X61336394Y-36631000D01*
X61554900Y-36587536D01*
X61760729Y-36502279D01*
X61945970Y-36378505D01*
X62103505Y-36220970D01*
X62227279Y-36035729D01*
X62312536Y-35829900D01*
X62356000Y-35611394D01*
X62356000Y-35388606D01*
X67714000Y-35388606D01*
X67714000Y-35611394D01*
X67757464Y-35829900D01*
X67842721Y-36035729D01*
X67966495Y-36220970D01*
X68124030Y-36378505D01*
X68309271Y-36502279D01*
X68515100Y-36587536D01*
X68733606Y-36631000D01*
X68956394Y-36631000D01*
X69174900Y-36587536D01*
X69380729Y-36502279D01*
X69565970Y-36378505D01*
X69723505Y-36220970D01*
X69847279Y-36035729D01*
X69932536Y-35829900D01*
X69976000Y-35611394D01*
X69976000Y-35388606D01*
X69932536Y-35170100D01*
X69847279Y-34964271D01*
X69723505Y-34779030D01*
X69565970Y-34621495D01*
X69380729Y-34497721D01*
X69174900Y-34412464D01*
X68956394Y-34369000D01*
X68733606Y-34369000D01*
X68515100Y-34412464D01*
X68309271Y-34497721D01*
X68124030Y-34621495D01*
X67966495Y-34779030D01*
X67842721Y-34964271D01*
X67757464Y-35170100D01*
X67714000Y-35388606D01*
X62356000Y-35388606D01*
X62312536Y-35170100D01*
X62227279Y-34964271D01*
X62103505Y-34779030D01*
X61945970Y-34621495D01*
X61760729Y-34497721D01*
X61554900Y-34412464D01*
X61336394Y-34369000D01*
X61113606Y-34369000D01*
X60895100Y-34412464D01*
X60689271Y-34497721D01*
X60504030Y-34621495D01*
X60346495Y-34779030D01*
X60222721Y-34964271D01*
X60137464Y-35170100D01*
X60094000Y-35388606D01*
X52196000Y-35388606D01*
X52152536Y-35170100D01*
X52067279Y-34964271D01*
X51943505Y-34779030D01*
X51785970Y-34621495D01*
X51600729Y-34497721D01*
X51394900Y-34412464D01*
X51176394Y-34369000D01*
X50953606Y-34369000D01*
X50735100Y-34412464D01*
X50529271Y-34497721D01*
X50344030Y-34621495D01*
X50186495Y-34779030D01*
X50062721Y-34964271D01*
X49977464Y-35170100D01*
X49934000Y-35388606D01*
X49934000Y-35611394D01*
X49977464Y-35829900D01*
X50062721Y-36035729D01*
X50186495Y-36220970D01*
X50344030Y-36378505D01*
X50529271Y-36502279D01*
X50735100Y-36587536D01*
X50953606Y-36631000D01*
X51176394Y-36631000D01*
X51394900Y-36587536D01*
X51449630Y-36564866D01*
X52319001Y-37434237D01*
X52319000Y-46250763D01*
X51020764Y-47549000D01*
X43453626Y-47549000D01*
X43429999Y-47546673D01*
X43335707Y-47555960D01*
X43308203Y-47564304D01*
X43245039Y-47583464D01*
X43161478Y-47628128D01*
X43088236Y-47688236D01*
X43073175Y-47706588D01*
X42681975Y-48097789D01*
X42680080Y-48093215D01*
X42602270Y-47976764D01*
X42503236Y-47877730D01*
X42386785Y-47799920D01*
X42257391Y-47746324D01*
X42120027Y-47719000D01*
X41979973Y-47719000D01*
X41842609Y-47746324D01*
X41713215Y-47799920D01*
X41596764Y-47877730D01*
X41497730Y-47976764D01*
X41472010Y-48015257D01*
X41472010Y-46616993D01*
X42667612Y-46616993D01*
X42733137Y-46855860D01*
X42980116Y-46971760D01*
X43244960Y-47037250D01*
X43517492Y-47049812D01*
X43787238Y-47008965D01*
X44043832Y-46916277D01*
X44156863Y-46855860D01*
X44222388Y-46616993D01*
X43445000Y-45839605D01*
X42667612Y-46616993D01*
X41472010Y-46616993D01*
X41472010Y-45773226D01*
X42206734Y-45038502D01*
X42133240Y-45195116D01*
X42067750Y-45459960D01*
X42055188Y-45732492D01*
X42096035Y-46002238D01*
X42188723Y-46258832D01*
X42249140Y-46371863D01*
X42488007Y-46437388D01*
X43265395Y-45660000D01*
X43624605Y-45660000D01*
X44401993Y-46437388D01*
X44640860Y-46371863D01*
X44756760Y-46124884D01*
X44822250Y-45860040D01*
X44834812Y-45587508D01*
X44828922Y-45548606D01*
X49934000Y-45548606D01*
X49934000Y-45771394D01*
X49977464Y-45989900D01*
X50062721Y-46195729D01*
X50186495Y-46380970D01*
X50344030Y-46538505D01*
X50529271Y-46662279D01*
X50735100Y-46747536D01*
X50953606Y-46791000D01*
X51176394Y-46791000D01*
X51394900Y-46747536D01*
X51600729Y-46662279D01*
X51785970Y-46538505D01*
X51943505Y-46380970D01*
X52067279Y-46195729D01*
X52152536Y-45989900D01*
X52196000Y-45771394D01*
X52196000Y-45548606D01*
X52152536Y-45330100D01*
X52067279Y-45124271D01*
X51943505Y-44939030D01*
X51785970Y-44781495D01*
X51600729Y-44657721D01*
X51394900Y-44572464D01*
X51176394Y-44529000D01*
X50953606Y-44529000D01*
X50735100Y-44572464D01*
X50529271Y-44657721D01*
X50344030Y-44781495D01*
X50186495Y-44939030D01*
X50062721Y-45124271D01*
X49977464Y-45330100D01*
X49934000Y-45548606D01*
X44828922Y-45548606D01*
X44793965Y-45317762D01*
X44701277Y-45061168D01*
X44640860Y-44948137D01*
X44401993Y-44882612D01*
X43624605Y-45660000D01*
X43265395Y-45660000D01*
X43251253Y-45645858D01*
X43430858Y-45466253D01*
X43445000Y-45480395D01*
X44222388Y-44703007D01*
X44156863Y-44464140D01*
X43909884Y-44348240D01*
X43645040Y-44282750D01*
X43372508Y-44270188D01*
X43102762Y-44311035D01*
X42846168Y-44403723D01*
X42836170Y-44409067D01*
X43051825Y-44193412D01*
X43051829Y-44193407D01*
X43060370Y-44184866D01*
X43115100Y-44207536D01*
X43333606Y-44251000D01*
X43556394Y-44251000D01*
X43774900Y-44207536D01*
X43980729Y-44122279D01*
X44165970Y-43998505D01*
X44323505Y-43840970D01*
X44447279Y-43655729D01*
X44532536Y-43449900D01*
X44576000Y-43231394D01*
X44576000Y-43008606D01*
X49934000Y-43008606D01*
X49934000Y-43231394D01*
X49977464Y-43449900D01*
X50062721Y-43655729D01*
X50186495Y-43840970D01*
X50344030Y-43998505D01*
X50529271Y-44122279D01*
X50735100Y-44207536D01*
X50953606Y-44251000D01*
X51176394Y-44251000D01*
X51394900Y-44207536D01*
X51600729Y-44122279D01*
X51785970Y-43998505D01*
X51943505Y-43840970D01*
X52067279Y-43655729D01*
X52152536Y-43449900D01*
X52196000Y-43231394D01*
X52196000Y-43008606D01*
X52152536Y-42790100D01*
X52067279Y-42584271D01*
X51943505Y-42399030D01*
X51785970Y-42241495D01*
X51600729Y-42117721D01*
X51394900Y-42032464D01*
X51176394Y-41989000D01*
X50953606Y-41989000D01*
X50735100Y-42032464D01*
X50529271Y-42117721D01*
X50344030Y-42241495D01*
X50186495Y-42399030D01*
X50062721Y-42584271D01*
X49977464Y-42790100D01*
X49934000Y-43008606D01*
X44576000Y-43008606D01*
X44532536Y-42790100D01*
X44447279Y-42584271D01*
X44323505Y-42399030D01*
X44165970Y-42241495D01*
X43980729Y-42117721D01*
X43774900Y-42032464D01*
X43556394Y-41989000D01*
X43333606Y-41989000D01*
X43115100Y-42032464D01*
X42909271Y-42117721D01*
X42724030Y-42241495D01*
X42566495Y-42399030D01*
X42442721Y-42584271D01*
X42357464Y-42790100D01*
X42314000Y-43008606D01*
X42314000Y-43231394D01*
X42357464Y-43449900D01*
X42380134Y-43504630D01*
X42371593Y-43513171D01*
X42371588Y-43513175D01*
X41072000Y-44812764D01*
X41072000Y-40468606D01*
X42314000Y-40468606D01*
X42314000Y-40691394D01*
X42357464Y-40909900D01*
X42442721Y-41115729D01*
X42566495Y-41300970D01*
X42724030Y-41458505D01*
X42909271Y-41582279D01*
X43115100Y-41667536D01*
X43333606Y-41711000D01*
X43556394Y-41711000D01*
X43774900Y-41667536D01*
X43980729Y-41582279D01*
X44165970Y-41458505D01*
X44323505Y-41300970D01*
X44447279Y-41115729D01*
X44532536Y-40909900D01*
X44576000Y-40691394D01*
X44576000Y-40468606D01*
X49934000Y-40468606D01*
X49934000Y-40691394D01*
X49977464Y-40909900D01*
X50062721Y-41115729D01*
X50186495Y-41300970D01*
X50344030Y-41458505D01*
X50529271Y-41582279D01*
X50735100Y-41667536D01*
X50953606Y-41711000D01*
X51176394Y-41711000D01*
X51394900Y-41667536D01*
X51600729Y-41582279D01*
X51785970Y-41458505D01*
X51943505Y-41300970D01*
X52067279Y-41115729D01*
X52152536Y-40909900D01*
X52196000Y-40691394D01*
X52196000Y-40468606D01*
X52152536Y-40250100D01*
X52067279Y-40044271D01*
X51943505Y-39859030D01*
X51785970Y-39701495D01*
X51600729Y-39577721D01*
X51394900Y-39492464D01*
X51176394Y-39449000D01*
X50953606Y-39449000D01*
X50735100Y-39492464D01*
X50529271Y-39577721D01*
X50344030Y-39701495D01*
X50186495Y-39859030D01*
X50062721Y-40044271D01*
X49977464Y-40250100D01*
X49934000Y-40468606D01*
X44576000Y-40468606D01*
X44532536Y-40250100D01*
X44447279Y-40044271D01*
X44323505Y-39859030D01*
X44165970Y-39701495D01*
X43980729Y-39577721D01*
X43774900Y-39492464D01*
X43556394Y-39449000D01*
X43333606Y-39449000D01*
X43115100Y-39492464D01*
X42909271Y-39577721D01*
X42724030Y-39701495D01*
X42566495Y-39859030D01*
X42442721Y-40044271D01*
X42357464Y-40250100D01*
X42314000Y-40468606D01*
X41072000Y-40468606D01*
X41072000Y-37928606D01*
X42314000Y-37928606D01*
X42314000Y-38151394D01*
X42357464Y-38369900D01*
X42442721Y-38575729D01*
X42566495Y-38760970D01*
X42724030Y-38918505D01*
X42909271Y-39042279D01*
X43115100Y-39127536D01*
X43333606Y-39171000D01*
X43556394Y-39171000D01*
X43774900Y-39127536D01*
X43980729Y-39042279D01*
X44165970Y-38918505D01*
X44323505Y-38760970D01*
X44447279Y-38575729D01*
X44532536Y-38369900D01*
X44576000Y-38151394D01*
X44576000Y-37928606D01*
X49934000Y-37928606D01*
X49934000Y-38151394D01*
X49977464Y-38369900D01*
X50062721Y-38575729D01*
X50186495Y-38760970D01*
X50344030Y-38918505D01*
X50529271Y-39042279D01*
X50735100Y-39127536D01*
X50953606Y-39171000D01*
X51176394Y-39171000D01*
X51394900Y-39127536D01*
X51600729Y-39042279D01*
X51785970Y-38918505D01*
X51943505Y-38760970D01*
X52067279Y-38575729D01*
X52152536Y-38369900D01*
X52196000Y-38151394D01*
X52196000Y-37928606D01*
X52152536Y-37710100D01*
X52067279Y-37504271D01*
X51943505Y-37319030D01*
X51785970Y-37161495D01*
X51600729Y-37037721D01*
X51394900Y-36952464D01*
X51176394Y-36909000D01*
X50953606Y-36909000D01*
X50735100Y-36952464D01*
X50529271Y-37037721D01*
X50344030Y-37161495D01*
X50186495Y-37319030D01*
X50062721Y-37504271D01*
X49977464Y-37710100D01*
X49934000Y-37928606D01*
X44576000Y-37928606D01*
X44532536Y-37710100D01*
X44447279Y-37504271D01*
X44323505Y-37319030D01*
X44165970Y-37161495D01*
X43980729Y-37037721D01*
X43774900Y-36952464D01*
X43556394Y-36909000D01*
X43333606Y-36909000D01*
X43115100Y-36952464D01*
X42909271Y-37037721D01*
X42724030Y-37161495D01*
X42566495Y-37319030D01*
X42442721Y-37504271D01*
X42357464Y-37710100D01*
X42314000Y-37928606D01*
X41072000Y-37928606D01*
X41072000Y-35388606D01*
X42314000Y-35388606D01*
X42314000Y-35611394D01*
X42357464Y-35829900D01*
X42442721Y-36035729D01*
X42566495Y-36220970D01*
X42724030Y-36378505D01*
X42909271Y-36502279D01*
X43115100Y-36587536D01*
X43333606Y-36631000D01*
X43556394Y-36631000D01*
X43774900Y-36587536D01*
X43980729Y-36502279D01*
X44165970Y-36378505D01*
X44323505Y-36220970D01*
X44447279Y-36035729D01*
X44532536Y-35829900D01*
X44576000Y-35611394D01*
X44576000Y-35388606D01*
X44532536Y-35170100D01*
X44447279Y-34964271D01*
X44323505Y-34779030D01*
X44165970Y-34621495D01*
X43980729Y-34497721D01*
X43774900Y-34412464D01*
X43556394Y-34369000D01*
X43333606Y-34369000D01*
X43115100Y-34412464D01*
X42909271Y-34497721D01*
X42724030Y-34621495D01*
X42566495Y-34779030D01*
X42442721Y-34964271D01*
X42357464Y-35170100D01*
X42314000Y-35388606D01*
X41072000Y-35388606D01*
X41072000Y-31516000D01*
X71234000Y-31516000D01*
X71234000Y-42288763D01*
G36*
X43333175Y-78133412D02*
G01*
X43348236Y-78151764D01*
X43421478Y-78211872D01*
X43505039Y-78256536D01*
X43595708Y-78284040D01*
X43666374Y-78291000D01*
X43666375Y-78291000D01*
X43689999Y-78293327D01*
X43713623Y-78291000D01*
X43929001Y-78291000D01*
X43929001Y-78976295D01*
X43774900Y-78912464D01*
X43556394Y-78869000D01*
X43333606Y-78869000D01*
X43115100Y-78912464D01*
X42909271Y-78997721D01*
X42724030Y-79121495D01*
X42566495Y-79279030D01*
X42442721Y-79464271D01*
X42357464Y-79670100D01*
X42314000Y-79888606D01*
X42314000Y-80111394D01*
X42357464Y-80329900D01*
X42442721Y-80535729D01*
X42566495Y-80720970D01*
X42724030Y-80878505D01*
X42909271Y-81002279D01*
X43115100Y-81087536D01*
X43333606Y-81131000D01*
X43556394Y-81131000D01*
X43774900Y-81087536D01*
X43929001Y-81023705D01*
X43929001Y-81516295D01*
X43774900Y-81452464D01*
X43556394Y-81409000D01*
X43333606Y-81409000D01*
X43115100Y-81452464D01*
X43060370Y-81475134D01*
X42281000Y-80695764D01*
X42281000Y-77081236D01*
X43333175Y-78133412D01*
X43333175Y-78133412D01*
G37*
X43333175Y-78133412D02*
X43348236Y-78151764D01*
X43421478Y-78211872D01*
X43505039Y-78256536D01*
X43595708Y-78284040D01*
X43666374Y-78291000D01*
X43666375Y-78291000D01*
X43689999Y-78293327D01*
X43713623Y-78291000D01*
X43929001Y-78291000D01*
X43929001Y-78976295D01*
X43774900Y-78912464D01*
X43556394Y-78869000D01*
X43333606Y-78869000D01*
X43115100Y-78912464D01*
X42909271Y-78997721D01*
X42724030Y-79121495D01*
X42566495Y-79279030D01*
X42442721Y-79464271D01*
X42357464Y-79670100D01*
X42314000Y-79888606D01*
X42314000Y-80111394D01*
X42357464Y-80329900D01*
X42442721Y-80535729D01*
X42566495Y-80720970D01*
X42724030Y-80878505D01*
X42909271Y-81002279D01*
X43115100Y-81087536D01*
X43333606Y-81131000D01*
X43556394Y-81131000D01*
X43774900Y-81087536D01*
X43929001Y-81023705D01*
X43929001Y-81516295D01*
X43774900Y-81452464D01*
X43556394Y-81409000D01*
X43333606Y-81409000D01*
X43115100Y-81452464D01*
X43060370Y-81475134D01*
X42281000Y-80695764D01*
X42281000Y-77081236D01*
X43333175Y-78133412D01*
G36*
X43334000Y-51977601D02*
G01*
X43331794Y-52000000D01*
X43340598Y-52089392D01*
X43366673Y-52175348D01*
X43409016Y-52254566D01*
X43459985Y-52316673D01*
X43465999Y-52324001D01*
X43535434Y-52380984D01*
X43614652Y-52423327D01*
X43700608Y-52449402D01*
X43790000Y-52458206D01*
X43812399Y-52456000D01*
X47223763Y-52456000D01*
X43081000Y-56598764D01*
X43081000Y-50879236D01*
X43334000Y-50626236D01*
X43334000Y-51977601D01*
X43334000Y-51977601D01*
G37*
X43334000Y-51977601D02*
X43331794Y-52000000D01*
X43340598Y-52089392D01*
X43366673Y-52175348D01*
X43409016Y-52254566D01*
X43459985Y-52316673D01*
X43465999Y-52324001D01*
X43535434Y-52380984D01*
X43614652Y-52423327D01*
X43700608Y-52449402D01*
X43790000Y-52458206D01*
X43812399Y-52456000D01*
X47223763Y-52456000D01*
X43081000Y-56598764D01*
X43081000Y-50879236D01*
X43334000Y-50626236D01*
X43334000Y-51977601D01*
M02*
