M48
;DRILL file {KiCad 5.0.2+dfsg1-1} date 2019-05-06T01:44:40 EEST
;FORMAT={-:-/ absolute / inch / decimal}
FMAT,2
INCH,TZ
T1C0.0130
T2C0.0315
%
G90
G05
T1
X1.6555Y-1.9067
X1.6626Y-1.9626
X1.6803Y-3.0791
X1.7063Y-1.9583
X1.7811Y-2.276
X1.7835Y-2.5201
X1.7835Y-2.7378
X1.7835Y-2.8165
X1.8031Y-2.4618
X1.8047Y-2.4197
X1.8173Y-2.815
X1.8303Y-2.1165
X1.8429Y-2.7646
X1.8701Y-2.374
X1.8925Y-2.1268
X1.963Y-2.1272
X2.0075Y-2.4555
X2.0091Y-1.9831
X2.0217Y-2.9185
X2.0335Y-2.1272
X2.0681Y-1.9406
X2.0843Y-2.9185
X2.0858Y-2.3425
X2.0862Y-2.2531
X2.089Y-2.6921
X2.1028Y-2.1276
X2.1079Y-1.876
X2.122Y-2.4768
X2.1228Y-1.5024
X2.1335Y-2.6736
X2.1528Y-3.3319
X2.1535Y-3.2614
X2.1602Y-2.1276
X2.1764Y-1.8917
X2.1827Y-2.824
X2.187Y-3.3654
X2.1886Y-3.2969
X2.1894Y-2.7835
X2.2087Y-1.8047
X2.2181Y-3.3937
X2.2185Y-3.1795
X2.2228Y-2.1276
X2.2244Y-3.3315
X2.2598Y-3.3669
X2.2598Y-3.4343
X2.2787Y-2.1276
X2.2795Y-3.1972
X2.2799Y-3.2394
X2.2965Y-2.3665
X2.3146Y-2.4961
X2.3165Y-3.2189
X2.3173Y-3.2764
X2.3358Y-3.0307
X2.3445Y-2.0953
X2.3969Y-2.0949
X2.4496Y-2.0953
X2.5016Y-2.0957
X2.5583Y-2.0953
X2.6157Y-2.0957
X2.6213Y-2.7831
X2.6213Y-2.8488
X2.6213Y-2.9228
X2.6213Y-3.0071
X2.6693Y-2.0957
X2.6776Y-1.922
X2.7224Y-1.9213
X2.7224Y-2.0961
X2.7969Y-1.8646
X2.7972Y-1.5744
X2.7976Y-1.911
X2.7986Y-1.9555
T2
X1.7104Y-1.3976
X1.7104Y-1.4976
X1.7104Y-1.5976
X1.7104Y-1.6976
X1.7104Y-1.7976
X2.0104Y-1.3976
X2.0104Y-1.4976
X2.0104Y-1.5976
X2.0104Y-1.6976
X2.0104Y-1.7976
X2.4104Y-3.1496
X2.4104Y-3.2496
X2.4104Y-3.3496
X2.4104Y-3.4496
X2.4104Y-3.5496
X2.7104Y-3.1496
X2.7104Y-3.2496
X2.7104Y-3.3496
X2.7104Y-3.4496
X2.7104Y-3.5496
X1.7104Y-3.1496
X1.7104Y-3.2496
X1.7104Y-3.3496
X1.7104Y-3.4496
X1.7104Y-3.5496
X2.0104Y-3.1496
X2.0104Y-3.2496
X2.0104Y-3.3496
X2.0104Y-3.4496
X2.0104Y-3.5496
X2.4104Y-1.3976
X2.4104Y-1.4976
X2.4104Y-1.5976
X2.4104Y-1.6976
X2.4104Y-1.7976
X2.7104Y-1.3976
X2.7104Y-1.4976
X2.7104Y-1.5976
X2.7104Y-1.6976
X2.7104Y-1.7976
X2.4104Y-2.2496
X2.4104Y-2.3496
X2.4104Y-2.4496
X2.4104Y-2.5496
X2.4104Y-2.6496
X2.7104Y-2.2496
X2.7104Y-2.3496
X2.7104Y-2.4496
X2.7104Y-2.5496
X2.7104Y-2.6496
T0
M30
