G04 #@! TF.GenerationSoftware,KiCad,Pcbnew,5.1.2+dfsg1-1*
G04 #@! TF.CreationDate,2019-07-23T12:53:29+03:00*
G04 #@! TF.ProjectId,cps1_adapter,63707331-5f61-4646-9170-7465722e6b69,rev?*
G04 #@! TF.SameCoordinates,Original*
G04 #@! TF.FileFunction,Profile,NP*
%FSLAX46Y46*%
G04 Gerber Fmt 4.6, Leading zero omitted, Abs format (unit mm)*
G04 Created by KiCad (PCBNEW 5.1.2+dfsg1-1) date 2019-07-23 12:53:29*
%MOMM*%
%LPD*%
G04 APERTURE LIST*
%ADD10C,0.150000*%
%ADD11C,0.100000*%
G04 APERTURE END LIST*
D10*
X43790000Y-52000000D02*
X43790000Y-49040000D01*
X47590000Y-52000000D02*
X43790000Y-52000000D01*
X47590000Y-49040000D02*
X47590000Y-52000000D01*
X43790000Y-49040000D02*
X47590000Y-49040000D01*
D11*
X62140000Y-69120000D02*
X62140000Y-55320000D01*
X67930000Y-69120000D02*
X62140000Y-69120000D01*
X67930000Y-55320000D02*
X67930000Y-69120000D01*
X62140000Y-55320000D02*
X67930000Y-55320000D01*
X62140000Y-91980000D02*
X62140000Y-78180000D01*
X67940000Y-91980000D02*
X62140000Y-91980000D01*
X67940000Y-78180000D02*
X67940000Y-91980000D01*
X62140000Y-78180000D02*
X67940000Y-78180000D01*
X44360000Y-91980000D02*
X44360000Y-78180000D01*
X50150000Y-91980000D02*
X44360000Y-91980000D01*
X50150000Y-78180000D02*
X50150000Y-91980000D01*
X44360000Y-78180000D02*
X50150000Y-78180000D01*
D10*
X40616000Y-31060000D02*
X71690000Y-31060000D01*
X40616000Y-94600000D02*
X40616000Y-31060000D01*
X71690000Y-94600000D02*
X40616000Y-94600000D01*
X71690000Y-31060000D02*
X71690000Y-94600000D01*
M02*
