G04 #@! TF.GenerationSoftware,KiCad,Pcbnew,5.0.2+dfsg1-1*
G04 #@! TF.CreationDate,2019-05-06T01:44:38+03:00*
G04 #@! TF.ProjectId,cps1_adapter,63707331-5f61-4646-9170-7465722e6b69,rev?*
G04 #@! TF.SameCoordinates,Original*
G04 #@! TF.FileFunction,Copper,L1,Top*
G04 #@! TF.FilePolarity,Positive*
%FSLAX46Y46*%
G04 Gerber Fmt 4.6, Leading zero omitted, Abs format (unit mm)*
G04 Created by KiCad (PCBNEW 5.0.2+dfsg1-1) date 2019-05-06T01:44:38 EEST*
%MOMM*%
%LPD*%
G01*
G04 APERTURE LIST*
G04 #@! TA.AperFunction,SMDPad,CuDef*
%ADD10R,1.143000X0.635000*%
G04 #@! TD*
G04 #@! TA.AperFunction,SMDPad,CuDef*
%ADD11R,1.750000X0.450000*%
G04 #@! TD*
G04 #@! TA.AperFunction,SMDPad,CuDef*
%ADD12R,1.500000X0.450000*%
G04 #@! TD*
G04 #@! TA.AperFunction,ComponentPad*
%ADD13C,1.500000*%
G04 #@! TD*
G04 #@! TA.AperFunction,SMDPad,CuDef*
%ADD14R,0.635000X1.143000*%
G04 #@! TD*
G04 #@! TA.AperFunction,SMDPad,CuDef*
%ADD15R,3.000000X1.500000*%
G04 #@! TD*
G04 #@! TA.AperFunction,ViaPad*
%ADD16C,0.660000*%
G04 #@! TD*
G04 #@! TA.AperFunction,Conductor*
%ADD17C,0.400000*%
G04 #@! TD*
G04 #@! TA.AperFunction,Conductor*
%ADD18C,0.500000*%
G04 #@! TD*
G04 #@! TA.AperFunction,Conductor*
%ADD19C,0.200000*%
G04 #@! TD*
G04 #@! TA.AperFunction,Conductor*
%ADD20C,0.300000*%
G04 #@! TD*
G04 #@! TA.AperFunction,Conductor*
%ADD21C,0.254000*%
G04 #@! TD*
G04 APERTURE END LIST*
D10*
G04 #@! TO.P,R7,1*
G04 #@! TO.N,Net-(C9-Pad2)*
X61970000Y-74982000D03*
G04 #@! TO.P,R7,2*
G04 #@! TO.N,Net-(R5-Pad1)*
X61970000Y-73458000D03*
G04 #@! TD*
D11*
G04 #@! TO.P,U2,1*
G04 #@! TO.N,Net-(R1-Pad2)*
X49750000Y-68755000D03*
G04 #@! TO.P,U2,2*
G04 #@! TO.N,/SO*
X49750000Y-69405000D03*
G04 #@! TO.P,U2,3*
G04 #@! TO.N,/LRCLK*
X49750000Y-70055000D03*
G04 #@! TO.P,U2,4*
G04 #@! TO.N,GND*
X49750000Y-70705000D03*
G04 #@! TO.P,U2,5*
G04 #@! TO.N,/DVDD3V3*
X49750000Y-71355000D03*
G04 #@! TO.P,U2,6*
G04 #@! TO.N,/oC1*
X49750000Y-72005000D03*
G04 #@! TO.P,U2,7*
G04 #@! TO.N,Net-(U2-Pad7)*
X49750000Y-72655000D03*
G04 #@! TO.P,U2,8*
G04 #@! TO.N,GND*
X49750000Y-73305000D03*
G04 #@! TO.P,U2,9*
G04 #@! TO.N,Net-(U2-Pad9)*
X49750000Y-73955000D03*
G04 #@! TO.P,U2,10*
G04 #@! TO.N,/VMID*
X49750000Y-74605000D03*
G04 #@! TO.P,U2,11*
G04 #@! TO.N,GND*
X56950000Y-74605000D03*
G04 #@! TO.P,U2,12*
G04 #@! TO.N,Net-(C5-Pad1)*
X56950000Y-73955000D03*
G04 #@! TO.P,U2,13*
G04 #@! TO.N,/DVDD5V*
X56950000Y-73305000D03*
G04 #@! TO.P,U2,14*
G04 #@! TO.N,GND*
X56950000Y-72655000D03*
G04 #@! TO.P,U2,15*
G04 #@! TO.N,Net-(R5-Pad2)*
X56950000Y-72005000D03*
G04 #@! TO.P,U2,16*
G04 #@! TO.N,Net-(R5-Pad1)*
X56950000Y-71355000D03*
G04 #@! TO.P,U2,17*
G04 #@! TO.N,Net-(R4-Pad2)*
X56950000Y-70705000D03*
G04 #@! TO.P,U2,18*
G04 #@! TO.N,Net-(R3-Pad2)*
X56950000Y-70055000D03*
G04 #@! TO.P,U2,19*
G04 #@! TO.N,Net-(R3-Pad1)*
X56950000Y-69405000D03*
G04 #@! TO.P,U2,20*
G04 #@! TO.N,GND*
X56950000Y-68755000D03*
G04 #@! TD*
D12*
G04 #@! TO.P,U1,1*
G04 #@! TO.N,/SH1*
X49440000Y-57005000D03*
G04 #@! TO.P,U1,2*
G04 #@! TO.N,/DVDD3V3*
X49440000Y-57655000D03*
G04 #@! TO.P,U1,3*
X49440000Y-58305000D03*
G04 #@! TO.P,U1,4*
X49440000Y-58955000D03*
G04 #@! TO.P,U1,5*
G04 #@! TO.N,/LRCLK*
X49440000Y-59605000D03*
G04 #@! TO.P,U1,6*
G04 #@! TO.N,Net-(U1-Pad6)*
X49440000Y-60255000D03*
G04 #@! TO.P,U1,7*
G04 #@! TO.N,Net-(U1-Pad7)*
X49440000Y-60905000D03*
G04 #@! TO.P,U1,8*
G04 #@! TO.N,GND*
X49440000Y-61555000D03*
G04 #@! TO.P,U1,9*
G04 #@! TO.N,Net-(U1-Pad9)*
X55340000Y-61555000D03*
G04 #@! TO.P,U1,10*
G04 #@! TO.N,/DVDD3V3*
X55340000Y-60905000D03*
G04 #@! TO.P,U1,11*
G04 #@! TO.N,GND*
X55340000Y-60255000D03*
G04 #@! TO.P,U1,12*
X55340000Y-59605000D03*
G04 #@! TO.P,U1,13*
X55340000Y-58955000D03*
G04 #@! TO.P,U1,14*
X55340000Y-58305000D03*
G04 #@! TO.P,U1,15*
G04 #@! TO.N,/DVDD3V3*
X55340000Y-57655000D03*
G04 #@! TO.P,U1,16*
X55340000Y-57005000D03*
G04 #@! TD*
D13*
G04 #@! TO.P,J5,1*
G04 #@! TO.N,Net-(J5-Pad1)*
X43445000Y-35500000D03*
G04 #@! TO.P,J5,6*
G04 #@! TO.N,/R3*
X51065000Y-45660000D03*
G04 #@! TO.P,J5,2*
G04 #@! TO.N,/R0*
X43445000Y-38040000D03*
G04 #@! TO.P,J5,7*
G04 #@! TO.N,/F0*
X51065000Y-43120000D03*
G04 #@! TO.P,J5,3*
G04 #@! TO.N,/R1*
X43445000Y-40580000D03*
G04 #@! TO.P,J5,8*
G04 #@! TO.N,/F1*
X51065000Y-40580000D03*
G04 #@! TO.P,J5,4*
G04 #@! TO.N,/R2*
X43445000Y-43120000D03*
G04 #@! TO.P,J5,9*
G04 #@! TO.N,/F2*
X51065000Y-38040000D03*
G04 #@! TO.P,J5,5*
G04 #@! TO.N,GND*
X43445000Y-45660000D03*
G04 #@! TO.P,J5,10*
G04 #@! TO.N,/F3*
X51065000Y-35500000D03*
G04 #@! TD*
G04 #@! TO.P,J3,10*
G04 #@! TO.N,/DVDD5V*
X68845000Y-57140000D03*
G04 #@! TO.P,J3,5*
G04 #@! TO.N,Net-(J3-Pad5)*
X61225000Y-67300000D03*
G04 #@! TO.P,J3,9*
G04 #@! TO.N,Net-(J3-Pad9)*
X68845000Y-59680000D03*
G04 #@! TO.P,J3,4*
G04 #@! TO.N,Net-(J3-Pad4)*
X61225000Y-64760000D03*
G04 #@! TO.P,J3,8*
G04 #@! TO.N,Net-(J3-Pad8)*
X68845000Y-62220000D03*
G04 #@! TO.P,J3,3*
G04 #@! TO.N,Net-(J3-Pad3)*
X61225000Y-62220000D03*
G04 #@! TO.P,J3,7*
G04 #@! TO.N,Net-(J3-Pad7)*
X68845000Y-64760000D03*
G04 #@! TO.P,J3,2*
G04 #@! TO.N,Net-(J3-Pad2)*
X61225000Y-59680000D03*
G04 #@! TO.P,J3,6*
G04 #@! TO.N,Net-(J3-Pad6)*
X68845000Y-67300000D03*
G04 #@! TO.P,J3,1*
G04 #@! TO.N,Net-(J3-Pad1)*
X61225000Y-57140000D03*
G04 #@! TD*
G04 #@! TO.P,J2,1*
G04 #@! TO.N,Net-(J2-Pad1)*
X43445000Y-80000000D03*
G04 #@! TO.P,J2,6*
G04 #@! TO.N,/R3*
X51065000Y-90160000D03*
G04 #@! TO.P,J2,2*
G04 #@! TO.N,/R0*
X43445000Y-82540000D03*
G04 #@! TO.P,J2,7*
G04 #@! TO.N,/F0*
X51065000Y-87620000D03*
G04 #@! TO.P,J2,3*
G04 #@! TO.N,/R1*
X43445000Y-85080000D03*
G04 #@! TO.P,J2,8*
G04 #@! TO.N,/F1*
X51065000Y-85080000D03*
G04 #@! TO.P,J2,4*
G04 #@! TO.N,/R2*
X43445000Y-87620000D03*
G04 #@! TO.P,J2,9*
G04 #@! TO.N,/F2*
X51065000Y-82540000D03*
G04 #@! TO.P,J2,5*
G04 #@! TO.N,GND*
X43445000Y-90160000D03*
G04 #@! TO.P,J2,10*
G04 #@! TO.N,/F3*
X51065000Y-80000000D03*
G04 #@! TD*
G04 #@! TO.P,J1,10*
G04 #@! TO.N,/G3*
X68845000Y-80000000D03*
G04 #@! TO.P,J1,5*
G04 #@! TO.N,GND*
X61225000Y-90160000D03*
G04 #@! TO.P,J1,9*
G04 #@! TO.N,/G2*
X68845000Y-82540000D03*
G04 #@! TO.P,J1,4*
G04 #@! TO.N,/B2*
X61225000Y-87620000D03*
G04 #@! TO.P,J1,8*
G04 #@! TO.N,/G1*
X68845000Y-85080000D03*
G04 #@! TO.P,J1,3*
G04 #@! TO.N,/B1*
X61225000Y-85080000D03*
G04 #@! TO.P,J1,7*
G04 #@! TO.N,/G0*
X68845000Y-87620000D03*
G04 #@! TO.P,J1,2*
G04 #@! TO.N,/B0*
X61225000Y-82540000D03*
G04 #@! TO.P,J1,6*
G04 #@! TO.N,/B3*
X68845000Y-90160000D03*
G04 #@! TO.P,J1,1*
G04 #@! TO.N,Net-(J1-Pad1)*
X61225000Y-80000000D03*
G04 #@! TD*
G04 #@! TO.P,J4,1*
G04 #@! TO.N,Net-(J4-Pad1)*
X61225000Y-35500000D03*
G04 #@! TO.P,J4,6*
G04 #@! TO.N,/B3*
X68845000Y-45660000D03*
G04 #@! TO.P,J4,2*
G04 #@! TO.N,/B0*
X61225000Y-38040000D03*
G04 #@! TO.P,J4,7*
G04 #@! TO.N,/G0*
X68845000Y-43120000D03*
G04 #@! TO.P,J4,3*
G04 #@! TO.N,/B1*
X61225000Y-40580000D03*
G04 #@! TO.P,J4,8*
G04 #@! TO.N,/G1*
X68845000Y-40580000D03*
G04 #@! TO.P,J4,4*
G04 #@! TO.N,/B2*
X61225000Y-43120000D03*
G04 #@! TO.P,J4,9*
G04 #@! TO.N,/G2*
X68845000Y-38040000D03*
G04 #@! TO.P,J4,5*
G04 #@! TO.N,GND*
X61225000Y-45660000D03*
G04 #@! TO.P,J4,10*
G04 #@! TO.N,/G3*
X68845000Y-35500000D03*
G04 #@! TD*
D14*
G04 #@! TO.P,C2,1*
G04 #@! TO.N,/DVDD3V3*
X51852000Y-64900000D03*
G04 #@! TO.P,C2,2*
G04 #@! TO.N,GND*
X50328000Y-64900000D03*
G04 #@! TD*
G04 #@! TO.P,C3,2*
G04 #@! TO.N,GND*
X45588000Y-74610000D03*
G04 #@! TO.P,C3,1*
G04 #@! TO.N,/VMID*
X47112000Y-74610000D03*
G04 #@! TD*
G04 #@! TO.P,C4,1*
G04 #@! TO.N,/VMID*
X47122000Y-72980000D03*
G04 #@! TO.P,C4,2*
G04 #@! TO.N,GND*
X45598000Y-72980000D03*
G04 #@! TD*
D10*
G04 #@! TO.P,C5,1*
G04 #@! TO.N,Net-(C5-Pad1)*
X57410000Y-76748000D03*
G04 #@! TO.P,C5,2*
G04 #@! TO.N,GND*
X57410000Y-78272000D03*
G04 #@! TD*
D14*
G04 #@! TO.P,C11,1*
G04 #@! TO.N,/DVDD5V*
X55938000Y-66530000D03*
G04 #@! TO.P,C11,2*
G04 #@! TO.N,GND*
X57462000Y-66530000D03*
G04 #@! TD*
G04 #@! TO.P,C10,2*
G04 #@! TO.N,GND*
X57452000Y-64900000D03*
G04 #@! TO.P,C10,1*
G04 #@! TO.N,/DVDD5V*
X55928000Y-64900000D03*
G04 #@! TD*
D10*
G04 #@! TO.P,C9,1*
G04 #@! TO.N,/DAO*
X63610000Y-73458000D03*
G04 #@! TO.P,C9,2*
G04 #@! TO.N,Net-(C9-Pad2)*
X63610000Y-74982000D03*
G04 #@! TD*
G04 #@! TO.P,C8,2*
G04 #@! TO.N,Net-(C8-Pad2)*
X63600000Y-72142000D03*
G04 #@! TO.P,C8,1*
G04 #@! TO.N,/DAO*
X63600000Y-70618000D03*
G04 #@! TD*
G04 #@! TO.P,C7,1*
G04 #@! TO.N,Net-(C5-Pad1)*
X55780000Y-76748000D03*
G04 #@! TO.P,C7,2*
G04 #@! TO.N,GND*
X55780000Y-78272000D03*
G04 #@! TD*
G04 #@! TO.P,C6,2*
G04 #@! TO.N,GND*
X58230000Y-58652000D03*
G04 #@! TO.P,C6,1*
G04 #@! TO.N,/DVDD3V3*
X58230000Y-57128000D03*
G04 #@! TD*
D14*
G04 #@! TO.P,C1,1*
G04 #@! TO.N,/DVDD3V3*
X51852000Y-66530000D03*
G04 #@! TO.P,C1,2*
G04 #@! TO.N,GND*
X50328000Y-66530000D03*
G04 #@! TD*
D10*
G04 #@! TO.P,R6,2*
G04 #@! TO.N,Net-(R3-Pad1)*
X61970000Y-70618000D03*
G04 #@! TO.P,R6,1*
G04 #@! TO.N,Net-(C8-Pad2)*
X61970000Y-72142000D03*
G04 #@! TD*
D14*
G04 #@! TO.P,R4,1*
G04 #@! TO.N,/VMID*
X53138000Y-66540000D03*
G04 #@! TO.P,R4,2*
G04 #@! TO.N,Net-(R4-Pad2)*
X54662000Y-66540000D03*
G04 #@! TD*
D10*
G04 #@! TO.P,R3,2*
G04 #@! TO.N,Net-(R3-Pad2)*
X60320000Y-72142000D03*
G04 #@! TO.P,R3,1*
G04 #@! TO.N,Net-(R3-Pad1)*
X60320000Y-70618000D03*
G04 #@! TD*
G04 #@! TO.P,R2,1*
G04 #@! TO.N,Net-(R1-Pad2)*
X47310000Y-68242000D03*
G04 #@! TO.P,R2,2*
G04 #@! TO.N,GND*
X47310000Y-66718000D03*
G04 #@! TD*
G04 #@! TO.P,R1,2*
G04 #@! TO.N,Net-(R1-Pad2)*
X45690000Y-68242000D03*
G04 #@! TO.P,R1,1*
G04 #@! TO.N,/oCM*
X45690000Y-66718000D03*
G04 #@! TD*
G04 #@! TO.P,R5,1*
G04 #@! TO.N,Net-(R5-Pad1)*
X60330000Y-73458000D03*
G04 #@! TO.P,R5,2*
G04 #@! TO.N,Net-(R5-Pad2)*
X60330000Y-74982000D03*
G04 #@! TD*
D15*
G04 #@! TO.P,TP9,1*
G04 #@! TO.N,/oCM*
X42200000Y-66780000D03*
G04 #@! TD*
G04 #@! TO.P,TP8,1*
G04 #@! TO.N,GND*
X42200000Y-68790000D03*
G04 #@! TD*
G04 #@! TO.P,TP7,1*
G04 #@! TO.N,/SH1*
X42200000Y-59910000D03*
G04 #@! TD*
G04 #@! TO.P,TP6,1*
G04 #@! TO.N,/oC1*
X42200000Y-61970000D03*
G04 #@! TD*
G04 #@! TO.P,TP5,1*
G04 #@! TO.N,GND*
X42200000Y-64020000D03*
G04 #@! TD*
G04 #@! TO.P,TP4,1*
G04 #@! TO.N,/SO*
X42200000Y-71560000D03*
G04 #@! TD*
G04 #@! TO.P,TP3,1*
G04 #@! TO.N,/DVDD3V3*
X42200000Y-56990000D03*
G04 #@! TD*
G04 #@! TO.P,TP2,1*
G04 #@! TO.N,/DAO*
X42200000Y-76310000D03*
G04 #@! TD*
G04 #@! TO.P,TP1,1*
G04 #@! TO.N,GND*
X42200000Y-74310000D03*
G04 #@! TD*
D16*
G04 #@! TO.N,GND*
X45300000Y-69540000D03*
X45300000Y-71540000D03*
X45300000Y-64010000D03*
X45840000Y-61460000D03*
X42680000Y-78210000D03*
X55440000Y-71730000D03*
X52940000Y-74130000D03*
X59330000Y-76980000D03*
X57900000Y-81210000D03*
X43340000Y-49740000D03*
X58790000Y-63400000D03*
X58330000Y-60110000D03*
X46490000Y-53760000D03*
X53900000Y-62910000D03*
X50990000Y-62370000D03*
X52980000Y-59500000D03*
X66580000Y-76380000D03*
X66580000Y-74240000D03*
X66580000Y-72360000D03*
X66580000Y-70690000D03*
X45240030Y-57810000D03*
X52990000Y-57230000D03*
X48070000Y-54020000D03*
X49860000Y-54030000D03*
X51650000Y-54030000D03*
X53410000Y-54040000D03*
X54870000Y-54040000D03*
X56460000Y-54040000D03*
X57880000Y-54040000D03*
X59550000Y-53220000D03*
X60880000Y-53210000D03*
X62220000Y-53220000D03*
X63540000Y-53230000D03*
X64980000Y-53220000D03*
X66440000Y-53230000D03*
X67800000Y-53230000D03*
X69150000Y-53240000D03*
X57910000Y-82280000D03*
X58860000Y-83220000D03*
X58840000Y-81760000D03*
X56350000Y-80760000D03*
X56500000Y-84620000D03*
X55590000Y-83740000D03*
X54700000Y-82840000D03*
X54680000Y-84630000D03*
X55550000Y-85480000D03*
X56340000Y-86200000D03*
X57400000Y-87230000D03*
X57400000Y-85520000D03*
G04 #@! TO.N,/oC1*
X45800000Y-62530000D03*
X46160012Y-71500026D03*
G04 #@! TO.N,/VMID*
X51350000Y-74130000D03*
X53060000Y-68380000D03*
G04 #@! TO.N,Net-(R4-Pad2)*
X55610000Y-70700000D03*
X54190000Y-67910000D03*
G04 #@! TO.N,/B3*
X71085000Y-49670000D03*
G04 #@! TO.N,/G0*
X71060000Y-48540000D03*
G04 #@! TO.N,/B1*
X56100000Y-45840000D03*
G04 #@! TO.N,/G1*
X71040000Y-47360000D03*
G04 #@! TO.N,/B2*
X55280000Y-48050000D03*
G04 #@! TO.N,/G2*
X69150000Y-48800000D03*
X71050000Y-39990000D03*
G04 #@! TO.N,/G3*
X68010000Y-48820000D03*
G04 #@! TO.N,/R3*
X51030000Y-50370000D03*
G04 #@! TO.N,/R0*
X42230000Y-49850000D03*
G04 #@! TO.N,/F0*
X52530000Y-49290000D03*
G04 #@! TO.N,/R1*
X42050000Y-48430000D03*
G04 #@! TO.N,/F1*
X53540000Y-47650000D03*
G04 #@! TO.N,/F2*
X53920000Y-38160000D03*
G04 #@! TO.N,/LRCLK*
X46810000Y-70220000D03*
X47500000Y-60300000D03*
G04 #@! TD*
D17*
G04 #@! TO.N,Net-(C9-Pad2)*
X61970000Y-74982000D02*
X63610000Y-74982000D01*
D18*
G04 #@! TO.N,GND*
X45288000Y-74310000D02*
X45588000Y-74610000D01*
X42200000Y-74310000D02*
X45288000Y-74310000D01*
X45588000Y-72990000D02*
X45598000Y-72980000D01*
X45588000Y-74610000D02*
X45588000Y-72990000D01*
X45588000Y-74864000D02*
X45590000Y-74866000D01*
X45588000Y-74610000D02*
X45588000Y-74864000D01*
D19*
X42200000Y-68790000D02*
X44550000Y-68790000D01*
X44550000Y-68790000D02*
X45300000Y-69540000D01*
X45300000Y-72682000D02*
X45598000Y-72980000D01*
X45300000Y-71540000D02*
X45300000Y-72682000D01*
X45857611Y-70870025D02*
X46830025Y-70870025D01*
X45300000Y-71540000D02*
X45300000Y-71427636D01*
X45300000Y-71427636D02*
X45857611Y-70870025D01*
X46830025Y-70870025D02*
X47100000Y-71140000D01*
X47100000Y-71140000D02*
X48190000Y-71140000D01*
X48625000Y-70705000D02*
X49750000Y-70705000D01*
X48190000Y-71140000D02*
X48625000Y-70705000D01*
D17*
X51025000Y-70705000D02*
X51410000Y-70320000D01*
X49750000Y-70705000D02*
X51025000Y-70705000D01*
X51410000Y-70320000D02*
X51410000Y-68440000D01*
X49688000Y-66718000D02*
X47310000Y-66718000D01*
X51410000Y-68440000D02*
X49688000Y-66718000D01*
X57141500Y-58305000D02*
X55340000Y-58305000D01*
X58460000Y-58652000D02*
X57488500Y-58652000D01*
X57488500Y-58652000D02*
X57141500Y-58305000D01*
X58157000Y-58955000D02*
X58460000Y-58652000D01*
X57160000Y-59605000D02*
X57810000Y-58955000D01*
X55340000Y-59605000D02*
X57160000Y-59605000D01*
X55340000Y-58955000D02*
X57810000Y-58955000D01*
X57810000Y-58955000D02*
X58157000Y-58955000D01*
X55340000Y-60255000D02*
X57165000Y-60255000D01*
X58206000Y-58652000D02*
X58460000Y-58652000D01*
X57165000Y-59693000D02*
X58206000Y-58652000D01*
X57165000Y-60255000D02*
X57165000Y-59693000D01*
X51645000Y-73305000D02*
X49750000Y-73305000D01*
X45588000Y-75581500D02*
X46076500Y-76070000D01*
X46076500Y-76070000D02*
X51630000Y-76070000D01*
X51630000Y-76070000D02*
X52160000Y-75540000D01*
X45588000Y-74610000D02*
X45588000Y-75581500D01*
X52160000Y-73820000D02*
X51645000Y-73305000D01*
X49876000Y-66530000D02*
X49688000Y-66718000D01*
X50328000Y-66530000D02*
X49876000Y-66530000D01*
X50328000Y-66530000D02*
X50328000Y-64900000D01*
X42200000Y-64020000D02*
X45290000Y-64020000D01*
X45290000Y-64020000D02*
X45300000Y-64010000D01*
X45300000Y-64010000D02*
X47380000Y-66090000D01*
X47380000Y-66648000D02*
X47310000Y-66718000D01*
X47380000Y-66090000D02*
X47380000Y-66648000D01*
D19*
X45840000Y-61460000D02*
X47360000Y-61460000D01*
X47455000Y-61555000D02*
X49440000Y-61555000D01*
X47360000Y-61460000D02*
X47455000Y-61555000D01*
D17*
X41470000Y-88185000D02*
X41470000Y-84860000D01*
X43445000Y-90160000D02*
X41470000Y-88185000D01*
X41470000Y-84860000D02*
X41470000Y-79420000D01*
X41470000Y-79420000D02*
X42680000Y-78210000D01*
X59760000Y-90160000D02*
X61225000Y-90160000D01*
X59660000Y-90260000D02*
X59760000Y-90160000D01*
X57400000Y-88000000D02*
X59660000Y-90260000D01*
X43009999Y-77880001D02*
X44009999Y-77880001D01*
X42680000Y-78210000D02*
X43009999Y-77880001D01*
X44270000Y-77620000D02*
X51220000Y-77620000D01*
X44009999Y-77880001D02*
X44270000Y-77620000D01*
X55675000Y-72655000D02*
X54880000Y-71860000D01*
X56950000Y-72655000D02*
X55675000Y-72655000D01*
X54880000Y-71860000D02*
X54880000Y-69370000D01*
X55495000Y-68755000D02*
X56950000Y-68755000D01*
X54880000Y-69370000D02*
X55495000Y-68755000D01*
X56950000Y-68130000D02*
X57480000Y-67600000D01*
X56950000Y-68755000D02*
X56950000Y-68130000D01*
X57462000Y-67582000D02*
X57462000Y-66530000D01*
X57480000Y-67600000D02*
X57462000Y-67582000D01*
X54880000Y-71860000D02*
X55310000Y-71860000D01*
X55310000Y-71860000D02*
X55440000Y-71730000D01*
X52160000Y-74150000D02*
X52160000Y-73820000D01*
X52180000Y-74130000D02*
X52940000Y-74130000D01*
X52160000Y-74150000D02*
X52180000Y-74130000D01*
X55780000Y-78272000D02*
X57410000Y-78272000D01*
X57600000Y-74605000D02*
X56950000Y-74605000D01*
X58660000Y-75665000D02*
X57600000Y-74605000D01*
X57410000Y-78272000D02*
X58381500Y-78272000D01*
X58381500Y-78272000D02*
X58660000Y-77993500D01*
D18*
X54708500Y-78272000D02*
X52160000Y-75723500D01*
X55780000Y-78272000D02*
X54708500Y-78272000D01*
X52160000Y-75723500D02*
X52160000Y-75310000D01*
D17*
X52160000Y-75540000D02*
X52160000Y-75310000D01*
X52160000Y-75310000D02*
X52160000Y-74150000D01*
X59210000Y-76860000D02*
X59330000Y-76980000D01*
X58660000Y-76860000D02*
X59210000Y-76860000D01*
X58660000Y-76860000D02*
X58660000Y-75665000D01*
X58660000Y-77993500D02*
X58660000Y-76860000D01*
X56903310Y-81740000D02*
X55340000Y-81740000D01*
X57900000Y-81210000D02*
X57433310Y-81210000D01*
X57433310Y-81210000D02*
X56903310Y-81740000D01*
X51220000Y-77620000D02*
X55340000Y-81740000D01*
X55340000Y-81740000D02*
X57400000Y-83800000D01*
D18*
X61225000Y-48275000D02*
X61225000Y-45660000D01*
X57320000Y-52180000D02*
X61225000Y-48275000D01*
X43445000Y-45660000D02*
X43445000Y-48735000D01*
X46890000Y-52180000D02*
X57320000Y-52180000D01*
X43445000Y-48735000D02*
X46890000Y-52180000D01*
X43445000Y-48735000D02*
X43445000Y-49635000D01*
X43445000Y-49635000D02*
X43340000Y-49740000D01*
X57462000Y-64910000D02*
X57452000Y-64900000D01*
X57462000Y-66530000D02*
X57462000Y-64910000D01*
X57452000Y-64900000D02*
X57452000Y-64738000D01*
X57452000Y-64738000D02*
X58790000Y-63400000D01*
X58330000Y-58752000D02*
X58230000Y-58652000D01*
X58330000Y-60110000D02*
X58330000Y-58752000D01*
X46890000Y-52893310D02*
X46890000Y-52180000D01*
X46490000Y-53293310D02*
X46890000Y-52893310D01*
X46490000Y-53760000D02*
X46490000Y-53293310D01*
X58000001Y-60680001D02*
X55810002Y-62870000D01*
X58330000Y-60110000D02*
X58000001Y-60439999D01*
X58000001Y-60439999D02*
X58000001Y-60680001D01*
X55810002Y-62870000D02*
X53940000Y-62870000D01*
X53940000Y-62870000D02*
X53900000Y-62910000D01*
X46169999Y-61789999D02*
X45840000Y-61460000D01*
X50990000Y-62370000D02*
X50660001Y-62040001D01*
X49925001Y-62040001D02*
X49465001Y-61580001D01*
X50660001Y-62040001D02*
X49925001Y-62040001D01*
X49465001Y-61580001D02*
X49414999Y-61580001D01*
X49414999Y-61580001D02*
X49205001Y-61789999D01*
X49205001Y-61789999D02*
X46169999Y-61789999D01*
D17*
X54190000Y-58955000D02*
X53625000Y-59520000D01*
X55340000Y-58955000D02*
X54190000Y-58955000D01*
X53625000Y-59520000D02*
X53000000Y-59520000D01*
X53000000Y-59520000D02*
X52980000Y-59500000D01*
X66580000Y-76380000D02*
X66580000Y-74240000D01*
X66580000Y-72360000D02*
X66580000Y-70690000D01*
X66580000Y-70690000D02*
X65700000Y-69810000D01*
X65700000Y-69810000D02*
X61470000Y-69810000D01*
X58190000Y-66530000D02*
X57462000Y-66530000D01*
X61470000Y-69810000D02*
X58190000Y-66530000D01*
D20*
X46163590Y-57810000D02*
X47603590Y-56370000D01*
X45240030Y-57810000D02*
X46163590Y-57810000D01*
X47603590Y-56370000D02*
X52130000Y-56370000D01*
X52130000Y-56370000D02*
X52990000Y-57230000D01*
D18*
X48070000Y-54020000D02*
X49850000Y-54020000D01*
X49850000Y-54020000D02*
X49860000Y-54030000D01*
X51650000Y-54030000D02*
X53400000Y-54030000D01*
X53400000Y-54030000D02*
X53410000Y-54040000D01*
X54870000Y-54040000D02*
X56460000Y-54040000D01*
X57880000Y-54040000D02*
X58730000Y-54040000D01*
X58730000Y-54040000D02*
X59550000Y-53220000D01*
X60880000Y-53210000D02*
X62210000Y-53210000D01*
X62210000Y-53210000D02*
X62220000Y-53220000D01*
X63540000Y-53230000D02*
X64970000Y-53230000D01*
X64970000Y-53230000D02*
X64980000Y-53220000D01*
X66440000Y-53230000D02*
X67800000Y-53230000D01*
X67800000Y-53230000D02*
X69140000Y-53230000D01*
X69140000Y-53230000D02*
X69150000Y-53240000D01*
X57910000Y-82280000D02*
X57920000Y-82280000D01*
X57920000Y-82280000D02*
X58860000Y-83220000D01*
X57910000Y-82280000D02*
X57870000Y-82280000D01*
X57870000Y-82280000D02*
X56350000Y-80760000D01*
X57400000Y-85640000D02*
X57400000Y-85520000D01*
D17*
X57400000Y-83800000D02*
X57400000Y-85640000D01*
D18*
X55590000Y-83740000D02*
X55590000Y-83730000D01*
X55590000Y-83730000D02*
X54700000Y-82840000D01*
X54680000Y-84630000D02*
X54700000Y-84630000D01*
X54700000Y-84630000D02*
X55550000Y-85480000D01*
X56370000Y-86200000D02*
X57400000Y-87230000D01*
X56340000Y-86200000D02*
X56370000Y-86200000D01*
D17*
X57400000Y-85640000D02*
X57400000Y-87230000D01*
X57400000Y-87230000D02*
X57400000Y-88000000D01*
D18*
X56500000Y-84620000D02*
X57400000Y-85520000D01*
G04 #@! TO.N,/DAO*
X64671500Y-70618000D02*
X63600000Y-70618000D01*
X65130000Y-71076500D02*
X64671500Y-70618000D01*
X64681500Y-73458000D02*
X65130000Y-73906500D01*
X65130000Y-73906500D02*
X65130000Y-74170000D01*
X63610000Y-73458000D02*
X64681500Y-73458000D01*
X65130000Y-74170000D02*
X65130000Y-71076500D01*
X65130000Y-75930000D02*
X65130000Y-74170000D01*
X42200000Y-76310000D02*
X44200000Y-76310000D01*
X64330000Y-76730000D02*
X65130000Y-75930000D01*
X44200000Y-76310000D02*
X44620000Y-76730000D01*
X44620000Y-76730000D02*
X51930000Y-76730000D01*
X51930000Y-76730000D02*
X54790000Y-79590000D01*
X54790000Y-79590000D02*
X58540000Y-79590000D01*
X61400000Y-76730000D02*
X64330000Y-76730000D01*
X58540000Y-79590000D02*
X61400000Y-76730000D01*
D17*
G04 #@! TO.N,/DVDD3V3*
X58337000Y-57005000D02*
X58460000Y-57128000D01*
X55340000Y-57655000D02*
X56720000Y-57655000D01*
X55340000Y-57005000D02*
X57370000Y-57005000D01*
X56720000Y-57655000D02*
X57370000Y-57005000D01*
X57370000Y-57005000D02*
X58337000Y-57005000D01*
X54190000Y-57655000D02*
X53860000Y-57985000D01*
X55340000Y-57655000D02*
X54190000Y-57655000D01*
X50590000Y-57655000D02*
X50920000Y-57985000D01*
X49440000Y-57655000D02*
X50590000Y-57655000D01*
X50590000Y-58305000D02*
X50910000Y-57985000D01*
X49440000Y-58305000D02*
X50590000Y-58305000D01*
X50920000Y-57985000D02*
X51530000Y-57985000D01*
X50910000Y-57985000D02*
X51530000Y-57985000D01*
X50910000Y-58635000D02*
X50910000Y-57985000D01*
X50590000Y-58955000D02*
X50910000Y-58635000D01*
X49440000Y-58955000D02*
X50590000Y-58955000D01*
D18*
X44200000Y-56990000D02*
X45450000Y-55740000D01*
X42200000Y-56990000D02*
X44200000Y-56990000D01*
X57388500Y-57128000D02*
X58460000Y-57128000D01*
X56000500Y-55740000D02*
X57388500Y-57128000D01*
X45450000Y-55740000D02*
X56000500Y-55740000D01*
D17*
X51852000Y-66530000D02*
X51852000Y-64900000D01*
X53965000Y-60905000D02*
X55340000Y-60905000D01*
X53950000Y-60890000D02*
X53965000Y-60905000D01*
X52010010Y-70568532D02*
X52010010Y-62829990D01*
X52010010Y-62829990D02*
X53950000Y-60890000D01*
X49750000Y-71355000D02*
X51223542Y-71355000D01*
X51223542Y-71355000D02*
X52010010Y-70568532D01*
X52010010Y-62829990D02*
X52010010Y-58404990D01*
X52010010Y-58404990D02*
X52430000Y-57985000D01*
X51530000Y-57985000D02*
X52430000Y-57985000D01*
X52430000Y-57985000D02*
X53860000Y-57985000D01*
D19*
G04 #@! TO.N,/SO*
X44290000Y-71560000D02*
X42200000Y-71560000D01*
X49750000Y-69405000D02*
X46445000Y-69405000D01*
X46445000Y-69405000D02*
X44290000Y-71560000D01*
G04 #@! TO.N,/oC1*
X45240000Y-61970000D02*
X42200000Y-61970000D01*
X45800000Y-62530000D02*
X45240000Y-61970000D01*
X46664986Y-72005000D02*
X46490011Y-71830025D01*
X46490011Y-71830025D02*
X46160012Y-71500026D01*
X49750000Y-72005000D02*
X46664986Y-72005000D01*
G04 #@! TO.N,/SH1*
X47605000Y-57005000D02*
X48490000Y-57005000D01*
X48490000Y-57005000D02*
X49440000Y-57005000D01*
X42200000Y-59910000D02*
X44700000Y-59910000D01*
X44700000Y-59910000D02*
X47605000Y-57005000D01*
G04 #@! TO.N,/oCM*
X42262000Y-66718000D02*
X42200000Y-66780000D01*
X45690000Y-66718000D02*
X42262000Y-66718000D01*
D17*
G04 #@! TO.N,Net-(R5-Pad1)*
X60330000Y-73458000D02*
X61970000Y-73458000D01*
D20*
X59458500Y-73458000D02*
X60330000Y-73458000D01*
X59110000Y-73109500D02*
X59458500Y-73458000D01*
X59110000Y-72090000D02*
X59110000Y-73109500D01*
X56950000Y-71355000D02*
X58375000Y-71355000D01*
X58375000Y-71355000D02*
X59110000Y-72090000D01*
G04 #@! TO.N,Net-(R5-Pad2)*
X58030002Y-72005000D02*
X58470000Y-72444998D01*
X56950000Y-72005000D02*
X58030002Y-72005000D01*
X58470000Y-72444998D02*
X58470000Y-74030000D01*
X59422000Y-74982000D02*
X60330000Y-74982000D01*
X58470000Y-74030000D02*
X59422000Y-74982000D01*
D19*
G04 #@! TO.N,Net-(R1-Pad2)*
X45690000Y-68242000D02*
X47310000Y-68242000D01*
X47823000Y-68755000D02*
X47310000Y-68242000D01*
X49750000Y-68755000D02*
X47823000Y-68755000D01*
D20*
G04 #@! TO.N,Net-(R3-Pad2)*
X60212000Y-72142000D02*
X60320000Y-72142000D01*
X56950000Y-70055000D02*
X58125000Y-70055000D01*
X58125000Y-70055000D02*
X60212000Y-72142000D01*
D17*
G04 #@! TO.N,Net-(R3-Pad1)*
X60320000Y-70618000D02*
X61970000Y-70618000D01*
D20*
X56950000Y-69405000D02*
X59724500Y-69405000D01*
X60320000Y-70000500D02*
X60320000Y-70618000D01*
X59724500Y-69405000D02*
X60320000Y-70000500D01*
D17*
G04 #@! TO.N,/VMID*
X47112000Y-72990000D02*
X47122000Y-72980000D01*
X47112000Y-74610000D02*
X47112000Y-72990000D01*
X47117000Y-74605000D02*
X47112000Y-74610000D01*
X49750000Y-74605000D02*
X47117000Y-74605000D01*
D20*
X49750000Y-74605000D02*
X50875000Y-74605000D01*
X50875000Y-74605000D02*
X51350000Y-74130000D01*
X53060000Y-66618000D02*
X53138000Y-66540000D01*
X53060000Y-68380000D02*
X53060000Y-66618000D01*
D19*
G04 #@! TO.N,Net-(R4-Pad2)*
X56950000Y-70705000D02*
X55615000Y-70705000D01*
X55615000Y-70705000D02*
X55610000Y-70700000D01*
X54662000Y-67342000D02*
X54662000Y-66540000D01*
X54190000Y-67910000D02*
X54662000Y-67438000D01*
X54662000Y-67438000D02*
X54662000Y-67342000D01*
D17*
G04 #@! TO.N,Net-(C8-Pad2)*
X61970000Y-72142000D02*
X63600000Y-72142000D01*
G04 #@! TO.N,Net-(C5-Pad1)*
X57410000Y-76748000D02*
X55780000Y-76748000D01*
X55675000Y-73955000D02*
X55370000Y-74260000D01*
X56950000Y-73955000D02*
X55675000Y-73955000D01*
X55370000Y-74260000D02*
X55370000Y-76180000D01*
X55780000Y-76590000D02*
X55780000Y-76748000D01*
X55370000Y-76180000D02*
X55780000Y-76590000D01*
D18*
G04 #@! TO.N,/DVDD5V*
X55938000Y-64910000D02*
X55928000Y-64900000D01*
X55938000Y-66530000D02*
X55938000Y-64910000D01*
X68845000Y-55135000D02*
X68845000Y-57140000D01*
X55928000Y-64212000D02*
X59481501Y-60658499D01*
X55928000Y-64900000D02*
X55928000Y-64212000D01*
X59481501Y-60658499D02*
X59481501Y-56708499D01*
X61580000Y-54610000D02*
X68320000Y-54610000D01*
X59481501Y-56708499D02*
X61580000Y-54610000D01*
X68320000Y-54610000D02*
X68845000Y-55135000D01*
D17*
X55938000Y-66530000D02*
X55938000Y-67372000D01*
X55938000Y-67372000D02*
X54220000Y-69090000D01*
X55675000Y-73305000D02*
X56950000Y-73305000D01*
X55476458Y-73305000D02*
X55675000Y-73305000D01*
X54220000Y-72048542D02*
X55476458Y-73305000D01*
X54220000Y-69090000D02*
X54220000Y-72048542D01*
D19*
G04 #@! TO.N,/B3*
X69580000Y-90160000D02*
X71310000Y-88430000D01*
X68845000Y-90160000D02*
X69580000Y-90160000D01*
X71310000Y-88430000D02*
X71310000Y-50219485D01*
X71310000Y-50219485D02*
X71310000Y-49895000D01*
X71310000Y-49895000D02*
X71085000Y-49670000D01*
G04 #@! TO.N,/G0*
X68845000Y-87620000D02*
X70890506Y-85574494D01*
X70890506Y-85574494D02*
X70890506Y-50588627D01*
X70890506Y-50588627D02*
X70330000Y-50028121D01*
X70330000Y-50028121D02*
X70330000Y-49330000D01*
X70330000Y-49330000D02*
X71060000Y-48600000D01*
X71060000Y-48600000D02*
X71060000Y-48540000D01*
G04 #@! TO.N,/B1*
X60660000Y-40580000D02*
X61225000Y-40580000D01*
X56100000Y-45840000D02*
X56100000Y-45140000D01*
X56100000Y-45140000D02*
X60660000Y-40580000D01*
G04 #@! TO.N,/G1*
X71040000Y-47500000D02*
X71040000Y-47360000D01*
X68845000Y-85080000D02*
X69500000Y-85080000D01*
X70480000Y-84100000D02*
X70480000Y-50749090D01*
X70480000Y-50749090D02*
X69929990Y-50199080D01*
X69500000Y-85080000D02*
X70480000Y-84100000D01*
X69929990Y-50199080D02*
X69929990Y-48610010D01*
X69929990Y-48610010D02*
X71040000Y-47500000D01*
G04 #@! TO.N,/B2*
X60210000Y-43120000D02*
X61225000Y-43120000D01*
X55280000Y-48050000D02*
X60210000Y-43120000D01*
G04 #@! TO.N,/G2*
X69150000Y-48333310D02*
X70840000Y-46643310D01*
X69150000Y-48800000D02*
X69150000Y-48333310D01*
X70840000Y-46643310D02*
X70846690Y-46643310D01*
X70846690Y-46643310D02*
X71250000Y-46240000D01*
X71250000Y-46240000D02*
X71250000Y-41920000D01*
X71250000Y-41920000D02*
X71250000Y-40190000D01*
X71250000Y-40190000D02*
X71050000Y-39990000D01*
G04 #@! TO.N,/G3*
X68339999Y-48490001D02*
X68339999Y-48220001D01*
X68010000Y-48820000D02*
X68339999Y-48490001D01*
X68339999Y-48220001D02*
X70310000Y-46250000D01*
X70310000Y-36965000D02*
X68845000Y-35500000D01*
X70310000Y-46250000D02*
X70310000Y-36965000D01*
G04 #@! TO.N,/R3*
X51030000Y-45695000D02*
X51065000Y-45660000D01*
X51030000Y-50370000D02*
X51030000Y-45695000D01*
G04 #@! TO.N,/R0*
X41420000Y-40065000D02*
X41420000Y-49040000D01*
X41900001Y-49520001D02*
X42230000Y-49850000D01*
X41420000Y-49040000D02*
X41900001Y-49520001D01*
X43445000Y-38040000D02*
X41420000Y-40065000D01*
G04 #@! TO.N,/F0*
X52530000Y-48823310D02*
X52530000Y-49290000D01*
X52530000Y-44585000D02*
X52530000Y-48823310D01*
X51065000Y-43120000D02*
X52530000Y-44585000D01*
G04 #@! TO.N,/R1*
X43445000Y-40580000D02*
X42050000Y-41975000D01*
X42050000Y-47963310D02*
X42050000Y-48430000D01*
X42050000Y-41975000D02*
X42050000Y-47963310D01*
G04 #@! TO.N,/F1*
X52600000Y-40580000D02*
X51065000Y-40580000D01*
X53530000Y-41510000D02*
X52600000Y-40580000D01*
X53530000Y-42150000D02*
X53530000Y-41510000D01*
X53540000Y-47650000D02*
X53540000Y-42150000D01*
X53540000Y-42150000D02*
X53530000Y-42150000D01*
G04 #@! TO.N,/F2*
X51185000Y-38160000D02*
X51065000Y-38040000D01*
X53920000Y-38160000D02*
X51185000Y-38160000D01*
G04 #@! TO.N,/LRCLK*
X49750000Y-70055000D02*
X46975000Y-70055000D01*
X46975000Y-70055000D02*
X46810000Y-70220000D01*
X48195000Y-59605000D02*
X49440000Y-59605000D01*
X47500000Y-60300000D02*
X48195000Y-59605000D01*
G04 #@! TD*
D21*
G04 #@! TO.N,GND*
G36*
X71234000Y-39296635D02*
X71191427Y-39279000D01*
X70908573Y-39279000D01*
X70791000Y-39327701D01*
X70791000Y-37012369D01*
X70800422Y-36965000D01*
X70791000Y-36917631D01*
X70791000Y-36917627D01*
X70763092Y-36777323D01*
X70683616Y-36658379D01*
X70683614Y-36658377D01*
X70656781Y-36618219D01*
X70616623Y-36591386D01*
X69909867Y-35884630D01*
X69976000Y-35724970D01*
X69976000Y-35275030D01*
X69803816Y-34859340D01*
X69485660Y-34541184D01*
X69069970Y-34369000D01*
X68620030Y-34369000D01*
X68204340Y-34541184D01*
X67886184Y-34859340D01*
X67714000Y-35275030D01*
X67714000Y-35724970D01*
X67886184Y-36140660D01*
X68204340Y-36458816D01*
X68620030Y-36631000D01*
X69069970Y-36631000D01*
X69229630Y-36564867D01*
X69829001Y-37164238D01*
X69829001Y-37460142D01*
X69803816Y-37399340D01*
X69485660Y-37081184D01*
X69069970Y-36909000D01*
X68620030Y-36909000D01*
X68204340Y-37081184D01*
X67886184Y-37399340D01*
X67714000Y-37815030D01*
X67714000Y-38264970D01*
X67886184Y-38680660D01*
X68204340Y-38998816D01*
X68620030Y-39171000D01*
X69069970Y-39171000D01*
X69485660Y-38998816D01*
X69803816Y-38680660D01*
X69829001Y-38619858D01*
X69829001Y-40000141D01*
X69803816Y-39939340D01*
X69485660Y-39621184D01*
X69069970Y-39449000D01*
X68620030Y-39449000D01*
X68204340Y-39621184D01*
X67886184Y-39939340D01*
X67714000Y-40355030D01*
X67714000Y-40804970D01*
X67886184Y-41220660D01*
X68204340Y-41538816D01*
X68620030Y-41711000D01*
X69069970Y-41711000D01*
X69485660Y-41538816D01*
X69803816Y-41220660D01*
X69829001Y-41159859D01*
X69829000Y-42540141D01*
X69803816Y-42479340D01*
X69485660Y-42161184D01*
X69069970Y-41989000D01*
X68620030Y-41989000D01*
X68204340Y-42161184D01*
X67886184Y-42479340D01*
X67714000Y-42895030D01*
X67714000Y-43344970D01*
X67886184Y-43760660D01*
X68204340Y-44078816D01*
X68620030Y-44251000D01*
X69069970Y-44251000D01*
X69485660Y-44078816D01*
X69803816Y-43760660D01*
X69829000Y-43699860D01*
X69829000Y-45080140D01*
X69803816Y-45019340D01*
X69485660Y-44701184D01*
X69069970Y-44529000D01*
X68620030Y-44529000D01*
X68204340Y-44701184D01*
X67886184Y-45019340D01*
X67714000Y-45435030D01*
X67714000Y-45884970D01*
X67886184Y-46300660D01*
X68204340Y-46618816D01*
X68620030Y-46791000D01*
X69069970Y-46791000D01*
X69102052Y-46777711D01*
X68033377Y-47846387D01*
X67993219Y-47873220D01*
X67966385Y-47913379D01*
X67966383Y-47913381D01*
X67939849Y-47953092D01*
X67886907Y-48032324D01*
X67871655Y-48109000D01*
X67868573Y-48109000D01*
X67607251Y-48217244D01*
X67407244Y-48417251D01*
X67299000Y-48678573D01*
X67299000Y-48961427D01*
X67407244Y-49222749D01*
X67607251Y-49422756D01*
X67868573Y-49531000D01*
X68151427Y-49531000D01*
X68412749Y-49422756D01*
X68590000Y-49245505D01*
X68747251Y-49402756D01*
X69008573Y-49511000D01*
X69291427Y-49511000D01*
X69448990Y-49445735D01*
X69448990Y-50151711D01*
X69439568Y-50199080D01*
X69448990Y-50246449D01*
X69448990Y-50246452D01*
X69476898Y-50386756D01*
X69583209Y-50545861D01*
X69623370Y-50572696D01*
X69999001Y-50948328D01*
X69999000Y-83900764D01*
X69632120Y-84267644D01*
X69485660Y-84121184D01*
X69069970Y-83949000D01*
X68620030Y-83949000D01*
X68371000Y-84052151D01*
X68371000Y-83567849D01*
X68620030Y-83671000D01*
X69069970Y-83671000D01*
X69485660Y-83498816D01*
X69803816Y-83180660D01*
X69976000Y-82764970D01*
X69976000Y-82315030D01*
X69803816Y-81899340D01*
X69485660Y-81581184D01*
X69069970Y-81409000D01*
X68620030Y-81409000D01*
X68371000Y-81512151D01*
X68371000Y-81027849D01*
X68620030Y-81131000D01*
X69069970Y-81131000D01*
X69485660Y-80958816D01*
X69803816Y-80640660D01*
X69976000Y-80224970D01*
X69976000Y-79775030D01*
X69803816Y-79359340D01*
X69485660Y-79041184D01*
X69069970Y-78869000D01*
X68620030Y-78869000D01*
X68371000Y-78972151D01*
X68371000Y-78222445D01*
X68379443Y-78180000D01*
X68345992Y-78011832D01*
X68250733Y-77869267D01*
X68108168Y-77774008D01*
X67982445Y-77749000D01*
X67940000Y-77740557D01*
X67897555Y-77749000D01*
X62097555Y-77749000D01*
X61971832Y-77774008D01*
X61829267Y-77869267D01*
X61734008Y-78011832D01*
X61700557Y-78180000D01*
X61709001Y-78222450D01*
X61709001Y-78976294D01*
X61449970Y-78869000D01*
X61000030Y-78869000D01*
X60584340Y-79041184D01*
X60266184Y-79359340D01*
X60094000Y-79775030D01*
X60094000Y-80224970D01*
X60266184Y-80640660D01*
X60584340Y-80958816D01*
X61000030Y-81131000D01*
X61449970Y-81131000D01*
X61709001Y-81023706D01*
X61709001Y-81516294D01*
X61449970Y-81409000D01*
X61000030Y-81409000D01*
X60584340Y-81581184D01*
X60266184Y-81899340D01*
X60094000Y-82315030D01*
X60094000Y-82764970D01*
X60266184Y-83180660D01*
X60584340Y-83498816D01*
X61000030Y-83671000D01*
X61449970Y-83671000D01*
X61709001Y-83563706D01*
X61709001Y-84056294D01*
X61449970Y-83949000D01*
X61000030Y-83949000D01*
X60584340Y-84121184D01*
X60266184Y-84439340D01*
X60094000Y-84855030D01*
X60094000Y-85304970D01*
X60266184Y-85720660D01*
X60584340Y-86038816D01*
X61000030Y-86211000D01*
X61449970Y-86211000D01*
X61709000Y-86103706D01*
X61709000Y-86596294D01*
X61449970Y-86489000D01*
X61000030Y-86489000D01*
X60584340Y-86661184D01*
X60266184Y-86979340D01*
X60094000Y-87395030D01*
X60094000Y-87844970D01*
X60266184Y-88260660D01*
X60584340Y-88578816D01*
X61000030Y-88751000D01*
X61449970Y-88751000D01*
X61709000Y-88643706D01*
X61709000Y-88862154D01*
X61429829Y-88762799D01*
X60879552Y-88790770D01*
X60501077Y-88947540D01*
X60433088Y-89188483D01*
X61225000Y-89980395D01*
X61239143Y-89966253D01*
X61418748Y-90145858D01*
X61404605Y-90160000D01*
X61418748Y-90174143D01*
X61239143Y-90353748D01*
X61225000Y-90339605D01*
X60433088Y-91131517D01*
X60501077Y-91372460D01*
X61020171Y-91557201D01*
X61570448Y-91529230D01*
X61709000Y-91471840D01*
X61709000Y-91937555D01*
X61700557Y-91980000D01*
X61734008Y-92148168D01*
X61829267Y-92290733D01*
X61971832Y-92385992D01*
X62140000Y-92419443D01*
X62182445Y-92411000D01*
X67897555Y-92411000D01*
X67940000Y-92419443D01*
X67982445Y-92411000D01*
X68108168Y-92385992D01*
X68250733Y-92290733D01*
X68345992Y-92148168D01*
X68379443Y-91980000D01*
X68371000Y-91937555D01*
X68371000Y-91187849D01*
X68620030Y-91291000D01*
X69069970Y-91291000D01*
X69485660Y-91118816D01*
X69803816Y-90800660D01*
X69925071Y-90507924D01*
X69926781Y-90506781D01*
X69953616Y-90466620D01*
X71234001Y-89186235D01*
X71234001Y-94144000D01*
X41072000Y-94144000D01*
X41072000Y-89955171D01*
X42047799Y-89955171D01*
X42075770Y-90505448D01*
X42232540Y-90883923D01*
X42473483Y-90951912D01*
X43265395Y-90160000D01*
X42473483Y-89368088D01*
X42232540Y-89436077D01*
X42047799Y-89955171D01*
X41072000Y-89955171D01*
X41072000Y-79775030D01*
X42314000Y-79775030D01*
X42314000Y-80224970D01*
X42486184Y-80640660D01*
X42804340Y-80958816D01*
X43220030Y-81131000D01*
X43669970Y-81131000D01*
X43929001Y-81023706D01*
X43929001Y-81516294D01*
X43669970Y-81409000D01*
X43220030Y-81409000D01*
X42804340Y-81581184D01*
X42486184Y-81899340D01*
X42314000Y-82315030D01*
X42314000Y-82764970D01*
X42486184Y-83180660D01*
X42804340Y-83498816D01*
X43220030Y-83671000D01*
X43669970Y-83671000D01*
X43929001Y-83563706D01*
X43929001Y-84056294D01*
X43669970Y-83949000D01*
X43220030Y-83949000D01*
X42804340Y-84121184D01*
X42486184Y-84439340D01*
X42314000Y-84855030D01*
X42314000Y-85304970D01*
X42486184Y-85720660D01*
X42804340Y-86038816D01*
X43220030Y-86211000D01*
X43669970Y-86211000D01*
X43929000Y-86103706D01*
X43929000Y-86596294D01*
X43669970Y-86489000D01*
X43220030Y-86489000D01*
X42804340Y-86661184D01*
X42486184Y-86979340D01*
X42314000Y-87395030D01*
X42314000Y-87844970D01*
X42486184Y-88260660D01*
X42804340Y-88578816D01*
X43220030Y-88751000D01*
X43669970Y-88751000D01*
X43929000Y-88643706D01*
X43929000Y-88862154D01*
X43649829Y-88762799D01*
X43099552Y-88790770D01*
X42721077Y-88947540D01*
X42653088Y-89188483D01*
X43445000Y-89980395D01*
X43459143Y-89966253D01*
X43638748Y-90145858D01*
X43624605Y-90160000D01*
X43638748Y-90174143D01*
X43459143Y-90353748D01*
X43445000Y-90339605D01*
X42653088Y-91131517D01*
X42721077Y-91372460D01*
X43240171Y-91557201D01*
X43790448Y-91529230D01*
X43929000Y-91471840D01*
X43929000Y-91937555D01*
X43920557Y-91980000D01*
X43954008Y-92148168D01*
X44049267Y-92290733D01*
X44191832Y-92385992D01*
X44360000Y-92419443D01*
X44402445Y-92411000D01*
X50107555Y-92411000D01*
X50150000Y-92419443D01*
X50192445Y-92411000D01*
X50318168Y-92385992D01*
X50460733Y-92290733D01*
X50555992Y-92148168D01*
X50589443Y-91980000D01*
X50581000Y-91937555D01*
X50581000Y-91183707D01*
X50840030Y-91291000D01*
X51289970Y-91291000D01*
X51705660Y-91118816D01*
X52023816Y-90800660D01*
X52196000Y-90384970D01*
X52196000Y-89955171D01*
X59827799Y-89955171D01*
X59855770Y-90505448D01*
X60012540Y-90883923D01*
X60253483Y-90951912D01*
X61045395Y-90160000D01*
X60253483Y-89368088D01*
X60012540Y-89436077D01*
X59827799Y-89955171D01*
X52196000Y-89955171D01*
X52196000Y-89935030D01*
X52023816Y-89519340D01*
X51705660Y-89201184D01*
X51289970Y-89029000D01*
X50840030Y-89029000D01*
X50581000Y-89136293D01*
X50581000Y-88643707D01*
X50840030Y-88751000D01*
X51289970Y-88751000D01*
X51705660Y-88578816D01*
X52023816Y-88260660D01*
X52196000Y-87844970D01*
X52196000Y-87395030D01*
X52023816Y-86979340D01*
X51705660Y-86661184D01*
X51289970Y-86489000D01*
X50840030Y-86489000D01*
X50581000Y-86596293D01*
X50581000Y-86103707D01*
X50840030Y-86211000D01*
X51289970Y-86211000D01*
X51705660Y-86038816D01*
X52023816Y-85720660D01*
X52196000Y-85304970D01*
X52196000Y-84855030D01*
X52023816Y-84439340D01*
X51705660Y-84121184D01*
X51289970Y-83949000D01*
X50840030Y-83949000D01*
X50581000Y-84056293D01*
X50581000Y-83563707D01*
X50840030Y-83671000D01*
X51289970Y-83671000D01*
X51705660Y-83498816D01*
X52023816Y-83180660D01*
X52196000Y-82764970D01*
X52196000Y-82315030D01*
X52023816Y-81899340D01*
X51705660Y-81581184D01*
X51289970Y-81409000D01*
X50840030Y-81409000D01*
X50581000Y-81516293D01*
X50581000Y-81023707D01*
X50840030Y-81131000D01*
X51289970Y-81131000D01*
X51705660Y-80958816D01*
X52023816Y-80640660D01*
X52196000Y-80224970D01*
X52196000Y-79775030D01*
X52023816Y-79359340D01*
X51705660Y-79041184D01*
X51289970Y-78869000D01*
X50840030Y-78869000D01*
X50581000Y-78976293D01*
X50581000Y-78222445D01*
X50589443Y-78180000D01*
X50555992Y-78011832D01*
X50460733Y-77869267D01*
X50318168Y-77774008D01*
X50192445Y-77749000D01*
X50150000Y-77740557D01*
X50107555Y-77749000D01*
X44402445Y-77749000D01*
X44360000Y-77740557D01*
X44317555Y-77749000D01*
X44191832Y-77774008D01*
X44049267Y-77869267D01*
X43954008Y-78011832D01*
X43920557Y-78180000D01*
X43929001Y-78222450D01*
X43929001Y-78976294D01*
X43669970Y-78869000D01*
X43220030Y-78869000D01*
X42804340Y-79041184D01*
X42486184Y-79359340D01*
X42314000Y-79775030D01*
X41072000Y-79775030D01*
X41072000Y-77448464D01*
X43700000Y-77448464D01*
X43848659Y-77418894D01*
X43974686Y-77334686D01*
X44058894Y-77208659D01*
X44083349Y-77085717D01*
X44129867Y-77132235D01*
X44165074Y-77184926D01*
X44366479Y-77319500D01*
X44373796Y-77324389D01*
X44620000Y-77373362D01*
X44682148Y-77361000D01*
X51668632Y-77361000D01*
X54299867Y-79992235D01*
X54335074Y-80044926D01*
X54543796Y-80184389D01*
X54790000Y-80233362D01*
X54852148Y-80221000D01*
X58477852Y-80221000D01*
X58540000Y-80233362D01*
X58602148Y-80221000D01*
X58786204Y-80184389D01*
X58994926Y-80044926D01*
X59030133Y-79992235D01*
X61661368Y-77361000D01*
X64267852Y-77361000D01*
X64330000Y-77373362D01*
X64392148Y-77361000D01*
X64576204Y-77324389D01*
X64784926Y-77184926D01*
X64820132Y-77132236D01*
X65532239Y-76420130D01*
X65584926Y-76384926D01*
X65724389Y-76176204D01*
X65761000Y-75992148D01*
X65761000Y-75992147D01*
X65773362Y-75930000D01*
X65761000Y-75867852D01*
X65761000Y-73968648D01*
X65773362Y-73906500D01*
X65761000Y-73844352D01*
X65761000Y-71138648D01*
X65773362Y-71076500D01*
X65724389Y-70830296D01*
X65686773Y-70774000D01*
X65584926Y-70621574D01*
X65532238Y-70586369D01*
X65161632Y-70215764D01*
X65126426Y-70163074D01*
X64917704Y-70023611D01*
X64733648Y-69987000D01*
X64671500Y-69974638D01*
X64609352Y-69987000D01*
X64388096Y-69987000D01*
X64320159Y-69941606D01*
X64171500Y-69912036D01*
X63028500Y-69912036D01*
X62879841Y-69941606D01*
X62785000Y-70004976D01*
X62690159Y-69941606D01*
X62541500Y-69912036D01*
X61398500Y-69912036D01*
X61249841Y-69941606D01*
X61145000Y-70011658D01*
X61040159Y-69941606D01*
X60891500Y-69912036D01*
X60843805Y-69912036D01*
X60820190Y-69793314D01*
X60786903Y-69743496D01*
X60732451Y-69662003D01*
X60732450Y-69662002D01*
X60702829Y-69617671D01*
X60658498Y-69588050D01*
X60136952Y-69066505D01*
X60107329Y-69022171D01*
X59931686Y-68904810D01*
X59776794Y-68874000D01*
X59776790Y-68874000D01*
X59724500Y-68863599D01*
X59672210Y-68874000D01*
X58307750Y-68874000D01*
X58301250Y-68867500D01*
X58043093Y-68867500D01*
X57973659Y-68821106D01*
X57825000Y-68791536D01*
X56075000Y-68791536D01*
X55926341Y-68821106D01*
X55856907Y-68867500D01*
X55598750Y-68867500D01*
X55440000Y-69026250D01*
X55440000Y-69106310D01*
X55536673Y-69339699D01*
X55686536Y-69489561D01*
X55686536Y-69630000D01*
X55706427Y-69730000D01*
X55686536Y-69830000D01*
X55686536Y-69989000D01*
X55468573Y-69989000D01*
X55207251Y-70097244D01*
X55007244Y-70297251D01*
X54899000Y-70558573D01*
X54899000Y-70841427D01*
X55007244Y-71102749D01*
X55207251Y-71302756D01*
X55468573Y-71411000D01*
X55686536Y-71411000D01*
X55686536Y-71580000D01*
X55706427Y-71680000D01*
X55686536Y-71780000D01*
X55686536Y-71920439D01*
X55536673Y-72070301D01*
X55440000Y-72303690D01*
X55440000Y-72383750D01*
X55584248Y-72527998D01*
X55521114Y-72527998D01*
X54801000Y-71807885D01*
X54801000Y-69330657D01*
X55543954Y-68587704D01*
X55598750Y-68642500D01*
X56823000Y-68642500D01*
X56823000Y-68053750D01*
X57077000Y-68053750D01*
X57077000Y-68642500D01*
X58301250Y-68642500D01*
X58460000Y-68483750D01*
X58460000Y-68403690D01*
X58363327Y-68170301D01*
X58184698Y-67991673D01*
X57951309Y-67895000D01*
X57235750Y-67895000D01*
X57077000Y-68053750D01*
X56823000Y-68053750D01*
X56664250Y-67895000D01*
X56236658Y-67895000D01*
X56308368Y-67823290D01*
X56356877Y-67790877D01*
X56431860Y-67678659D01*
X56485290Y-67598695D01*
X56489456Y-67577750D01*
X56519000Y-67429222D01*
X56519000Y-67429218D01*
X56529451Y-67376677D01*
X56530186Y-67376186D01*
X56555356Y-67338516D01*
X56606173Y-67461199D01*
X56784802Y-67639827D01*
X57018191Y-67736500D01*
X57176250Y-67736500D01*
X57335000Y-67577750D01*
X57335000Y-66657000D01*
X57589000Y-66657000D01*
X57589000Y-67577750D01*
X57747750Y-67736500D01*
X57905809Y-67736500D01*
X58139198Y-67639827D01*
X58317827Y-67461199D01*
X58414500Y-67227810D01*
X58414500Y-66815750D01*
X58255750Y-66657000D01*
X57589000Y-66657000D01*
X57335000Y-66657000D01*
X57315000Y-66657000D01*
X57315000Y-66403000D01*
X57335000Y-66403000D01*
X57335000Y-65482250D01*
X57325000Y-65472250D01*
X57325000Y-65027000D01*
X57579000Y-65027000D01*
X57579000Y-65947750D01*
X57589000Y-65957750D01*
X57589000Y-66403000D01*
X58255750Y-66403000D01*
X58414500Y-66244250D01*
X58414500Y-65832190D01*
X58360958Y-65702929D01*
X58404500Y-65597810D01*
X58404500Y-65185750D01*
X58245750Y-65027000D01*
X57579000Y-65027000D01*
X57325000Y-65027000D01*
X57305000Y-65027000D01*
X57305000Y-64773000D01*
X57325000Y-64773000D01*
X57325000Y-63852250D01*
X57579000Y-63852250D01*
X57579000Y-64773000D01*
X58245750Y-64773000D01*
X58404500Y-64614250D01*
X58404500Y-64202190D01*
X58307827Y-63968801D01*
X58129198Y-63790173D01*
X57895809Y-63693500D01*
X57737750Y-63693500D01*
X57579000Y-63852250D01*
X57325000Y-63852250D01*
X57252559Y-63779809D01*
X59883740Y-61148629D01*
X59936427Y-61113425D01*
X60075890Y-60904703D01*
X60112501Y-60720647D01*
X60112501Y-60720646D01*
X60124863Y-60658500D01*
X60112501Y-60596353D01*
X60112501Y-59949635D01*
X60266184Y-60320660D01*
X60584340Y-60638816D01*
X61000030Y-60811000D01*
X61449970Y-60811000D01*
X61709001Y-60703706D01*
X61709001Y-61196294D01*
X61449970Y-61089000D01*
X61000030Y-61089000D01*
X60584340Y-61261184D01*
X60266184Y-61579340D01*
X60094000Y-61995030D01*
X60094000Y-62444970D01*
X60266184Y-62860660D01*
X60584340Y-63178816D01*
X61000030Y-63351000D01*
X61449970Y-63351000D01*
X61709000Y-63243706D01*
X61709000Y-63736294D01*
X61449970Y-63629000D01*
X61000030Y-63629000D01*
X60584340Y-63801184D01*
X60266184Y-64119340D01*
X60094000Y-64535030D01*
X60094000Y-64984970D01*
X60266184Y-65400660D01*
X60584340Y-65718816D01*
X61000030Y-65891000D01*
X61449970Y-65891000D01*
X61709000Y-65783706D01*
X61709000Y-66276294D01*
X61449970Y-66169000D01*
X61000030Y-66169000D01*
X60584340Y-66341184D01*
X60266184Y-66659340D01*
X60094000Y-67075030D01*
X60094000Y-67524970D01*
X60266184Y-67940660D01*
X60584340Y-68258816D01*
X61000030Y-68431000D01*
X61449970Y-68431000D01*
X61709000Y-68323707D01*
X61709000Y-69077555D01*
X61700557Y-69120000D01*
X61734008Y-69288168D01*
X61829267Y-69430733D01*
X61971832Y-69525992D01*
X62140000Y-69559443D01*
X62182445Y-69551000D01*
X67887555Y-69551000D01*
X67930000Y-69559443D01*
X67972445Y-69551000D01*
X68098168Y-69525992D01*
X68240733Y-69430733D01*
X68335992Y-69288168D01*
X68369443Y-69120000D01*
X68361000Y-69077555D01*
X68361000Y-68323707D01*
X68620030Y-68431000D01*
X69069970Y-68431000D01*
X69485660Y-68258816D01*
X69803816Y-67940660D01*
X69976000Y-67524970D01*
X69976000Y-67075030D01*
X69803816Y-66659340D01*
X69485660Y-66341184D01*
X69069970Y-66169000D01*
X68620030Y-66169000D01*
X68361000Y-66276293D01*
X68361000Y-65783707D01*
X68620030Y-65891000D01*
X69069970Y-65891000D01*
X69485660Y-65718816D01*
X69803816Y-65400660D01*
X69976000Y-64984970D01*
X69976000Y-64535030D01*
X69803816Y-64119340D01*
X69485660Y-63801184D01*
X69069970Y-63629000D01*
X68620030Y-63629000D01*
X68361000Y-63736293D01*
X68361000Y-63243707D01*
X68620030Y-63351000D01*
X69069970Y-63351000D01*
X69485660Y-63178816D01*
X69803816Y-62860660D01*
X69976000Y-62444970D01*
X69976000Y-61995030D01*
X69803816Y-61579340D01*
X69485660Y-61261184D01*
X69069970Y-61089000D01*
X68620030Y-61089000D01*
X68361000Y-61196293D01*
X68361000Y-60703707D01*
X68620030Y-60811000D01*
X69069970Y-60811000D01*
X69485660Y-60638816D01*
X69803816Y-60320660D01*
X69976000Y-59904970D01*
X69976000Y-59455030D01*
X69803816Y-59039340D01*
X69485660Y-58721184D01*
X69069970Y-58549000D01*
X68620030Y-58549000D01*
X68361000Y-58656293D01*
X68361000Y-58163707D01*
X68620030Y-58271000D01*
X69069970Y-58271000D01*
X69485660Y-58098816D01*
X69803816Y-57780660D01*
X69976000Y-57364970D01*
X69976000Y-56915030D01*
X69803816Y-56499340D01*
X69485660Y-56181184D01*
X69476000Y-56177183D01*
X69476000Y-55197146D01*
X69488362Y-55134999D01*
X69463352Y-55009267D01*
X69439389Y-54888796D01*
X69299926Y-54680074D01*
X69247239Y-54644870D01*
X68810132Y-54207764D01*
X68774926Y-54155074D01*
X68566204Y-54015611D01*
X68382148Y-53979000D01*
X68320000Y-53966638D01*
X68257852Y-53979000D01*
X61642148Y-53979000D01*
X61580000Y-53966638D01*
X61517852Y-53979000D01*
X61333796Y-54015611D01*
X61125074Y-54155074D01*
X61089867Y-54207765D01*
X59079264Y-56218368D01*
X59026576Y-56253573D01*
X58991372Y-56306260D01*
X58900813Y-56441791D01*
X58801500Y-56422036D01*
X58384344Y-56422036D01*
X58337000Y-56412619D01*
X58289656Y-56422036D01*
X57658500Y-56422036D01*
X57648626Y-56424000D01*
X57576869Y-56424000D01*
X56490632Y-55337764D01*
X56455426Y-55285074D01*
X56246704Y-55145611D01*
X56062648Y-55109000D01*
X56000500Y-55096638D01*
X55938352Y-55109000D01*
X45512148Y-55109000D01*
X45450000Y-55096638D01*
X45387852Y-55109000D01*
X45203796Y-55145611D01*
X44995074Y-55285074D01*
X44959869Y-55337762D01*
X44083349Y-56214283D01*
X44058894Y-56091341D01*
X43974686Y-55965314D01*
X43848659Y-55881106D01*
X43700000Y-55851536D01*
X41072000Y-55851536D01*
X41072000Y-49384955D01*
X41073220Y-49386781D01*
X41113378Y-49413614D01*
X41519000Y-49819237D01*
X41519000Y-49991427D01*
X41627244Y-50252749D01*
X41827251Y-50452756D01*
X42088573Y-50561000D01*
X42371427Y-50561000D01*
X42632749Y-50452756D01*
X42832756Y-50252749D01*
X42941000Y-49991427D01*
X42941000Y-49708573D01*
X42832756Y-49447251D01*
X42632749Y-49247244D01*
X42371427Y-49139000D01*
X42199237Y-49139000D01*
X42198364Y-49138127D01*
X42452749Y-49032756D01*
X42652756Y-48832749D01*
X42761000Y-48571427D01*
X42761000Y-48288573D01*
X42652756Y-48027251D01*
X42531000Y-47905495D01*
X42531000Y-46739540D01*
X42538034Y-46746574D01*
X42653089Y-46631519D01*
X42721077Y-46872460D01*
X43240171Y-47057201D01*
X43790448Y-47029230D01*
X44168923Y-46872460D01*
X44236912Y-46631517D01*
X43445000Y-45839605D01*
X43430858Y-45853748D01*
X43251253Y-45674143D01*
X43265395Y-45660000D01*
X43624605Y-45660000D01*
X44416517Y-46451912D01*
X44657460Y-46383923D01*
X44842201Y-45864829D01*
X44814230Y-45314552D01*
X44657460Y-44936077D01*
X44416517Y-44868088D01*
X43624605Y-45660000D01*
X43265395Y-45660000D01*
X43251253Y-45645858D01*
X43430858Y-45466253D01*
X43445000Y-45480395D01*
X44236912Y-44688483D01*
X44168923Y-44447540D01*
X43649829Y-44262799D01*
X43099552Y-44290770D01*
X42721077Y-44447540D01*
X42653089Y-44688481D01*
X42538034Y-44573426D01*
X42531000Y-44580460D01*
X42531000Y-43805476D01*
X42804340Y-44078816D01*
X43220030Y-44251000D01*
X43669970Y-44251000D01*
X44085660Y-44078816D01*
X44403816Y-43760660D01*
X44576000Y-43344970D01*
X44576000Y-42895030D01*
X44403816Y-42479340D01*
X44085660Y-42161184D01*
X43669970Y-41989000D01*
X43220030Y-41989000D01*
X42804340Y-42161184D01*
X42531000Y-42434524D01*
X42531000Y-42174236D01*
X43060370Y-41644867D01*
X43220030Y-41711000D01*
X43669970Y-41711000D01*
X44085660Y-41538816D01*
X44403816Y-41220660D01*
X44576000Y-40804970D01*
X44576000Y-40355030D01*
X49934000Y-40355030D01*
X49934000Y-40804970D01*
X50106184Y-41220660D01*
X50424340Y-41538816D01*
X50840030Y-41711000D01*
X51289970Y-41711000D01*
X51705660Y-41538816D01*
X52023816Y-41220660D01*
X52089949Y-41061000D01*
X52400764Y-41061000D01*
X53049001Y-41709237D01*
X53049000Y-42102626D01*
X53039577Y-42150000D01*
X53059001Y-42247652D01*
X53059000Y-47125495D01*
X53011000Y-47173495D01*
X53011000Y-44632369D01*
X53020422Y-44585000D01*
X53011000Y-44537631D01*
X53011000Y-44537627D01*
X52983092Y-44397323D01*
X52911895Y-44290770D01*
X52903616Y-44278379D01*
X52903614Y-44278377D01*
X52876781Y-44238219D01*
X52836623Y-44211386D01*
X52129867Y-43504630D01*
X52196000Y-43344970D01*
X52196000Y-42895030D01*
X52023816Y-42479340D01*
X51705660Y-42161184D01*
X51289970Y-41989000D01*
X50840030Y-41989000D01*
X50424340Y-42161184D01*
X50106184Y-42479340D01*
X49934000Y-42895030D01*
X49934000Y-43344970D01*
X50106184Y-43760660D01*
X50424340Y-44078816D01*
X50840030Y-44251000D01*
X51289970Y-44251000D01*
X51449630Y-44184867D01*
X52049000Y-44784237D01*
X52049000Y-45080140D01*
X52023816Y-45019340D01*
X51705660Y-44701184D01*
X51289970Y-44529000D01*
X50840030Y-44529000D01*
X50424340Y-44701184D01*
X50106184Y-45019340D01*
X49934000Y-45435030D01*
X49934000Y-45884970D01*
X50106184Y-46300660D01*
X50424340Y-46618816D01*
X50549001Y-46670452D01*
X50549000Y-49845495D01*
X50427244Y-49967251D01*
X50319000Y-50228573D01*
X50319000Y-50511427D01*
X50427244Y-50772749D01*
X50627251Y-50972756D01*
X50888573Y-51081000D01*
X51171427Y-51081000D01*
X51432749Y-50972756D01*
X51632756Y-50772749D01*
X51741000Y-50511427D01*
X51741000Y-50228573D01*
X51632756Y-49967251D01*
X51511000Y-49845495D01*
X51511000Y-46699447D01*
X51705660Y-46618816D01*
X52023816Y-46300660D01*
X52049000Y-46239859D01*
X52049001Y-48765494D01*
X51927244Y-48887251D01*
X51819000Y-49148573D01*
X51819000Y-49431427D01*
X51927244Y-49692749D01*
X52127251Y-49892756D01*
X52388573Y-50001000D01*
X52671427Y-50001000D01*
X52932749Y-49892756D01*
X53132756Y-49692749D01*
X53241000Y-49431427D01*
X53241000Y-49148573D01*
X53132756Y-48887251D01*
X53011000Y-48765495D01*
X53011000Y-48126505D01*
X53137251Y-48252756D01*
X53398573Y-48361000D01*
X53681427Y-48361000D01*
X53942749Y-48252756D01*
X54142756Y-48052749D01*
X54202476Y-47908573D01*
X54569000Y-47908573D01*
X54569000Y-48191427D01*
X54677244Y-48452749D01*
X54877251Y-48652756D01*
X55138573Y-48761000D01*
X55421427Y-48761000D01*
X55682749Y-48652756D01*
X55882756Y-48452749D01*
X55991000Y-48191427D01*
X55991000Y-48019236D01*
X57378719Y-46631517D01*
X60433088Y-46631517D01*
X60501077Y-46872460D01*
X61020171Y-47057201D01*
X61570448Y-47029230D01*
X61948923Y-46872460D01*
X62016912Y-46631517D01*
X61225000Y-45839605D01*
X60433088Y-46631517D01*
X57378719Y-46631517D01*
X58555065Y-45455171D01*
X59827799Y-45455171D01*
X59855770Y-46005448D01*
X60012540Y-46383923D01*
X60253483Y-46451912D01*
X61045395Y-45660000D01*
X61404605Y-45660000D01*
X62196517Y-46451912D01*
X62437460Y-46383923D01*
X62622201Y-45864829D01*
X62594230Y-45314552D01*
X62437460Y-44936077D01*
X62196517Y-44868088D01*
X61404605Y-45660000D01*
X61045395Y-45660000D01*
X60253483Y-44868088D01*
X60012540Y-44936077D01*
X59827799Y-45455171D01*
X58555065Y-45455171D01*
X59321753Y-44688483D01*
X60433088Y-44688483D01*
X61225000Y-45480395D01*
X62016912Y-44688483D01*
X61948923Y-44447540D01*
X61429829Y-44262799D01*
X60879552Y-44290770D01*
X60501077Y-44447540D01*
X60433088Y-44688483D01*
X59321753Y-44688483D01*
X60261320Y-43748917D01*
X60266184Y-43760660D01*
X60584340Y-44078816D01*
X61000030Y-44251000D01*
X61449970Y-44251000D01*
X61865660Y-44078816D01*
X62183816Y-43760660D01*
X62356000Y-43344970D01*
X62356000Y-42895030D01*
X62183816Y-42479340D01*
X61865660Y-42161184D01*
X61449970Y-41989000D01*
X61000030Y-41989000D01*
X60584340Y-42161184D01*
X60266184Y-42479340D01*
X60203411Y-42630889D01*
X60162631Y-42639000D01*
X60162627Y-42639000D01*
X60022323Y-42666908D01*
X59903379Y-42746384D01*
X59903377Y-42746386D01*
X59863219Y-42773219D01*
X59836386Y-42813377D01*
X56811000Y-45838764D01*
X56811000Y-45698573D01*
X56702756Y-45437251D01*
X56592871Y-45327366D01*
X60482880Y-41437356D01*
X60584340Y-41538816D01*
X61000030Y-41711000D01*
X61449970Y-41711000D01*
X61865660Y-41538816D01*
X62183816Y-41220660D01*
X62356000Y-40804970D01*
X62356000Y-40355030D01*
X62183816Y-39939340D01*
X61865660Y-39621184D01*
X61449970Y-39449000D01*
X61000030Y-39449000D01*
X60584340Y-39621184D01*
X60266184Y-39939340D01*
X60094000Y-40355030D01*
X60094000Y-40465763D01*
X55793378Y-44766386D01*
X55753220Y-44793219D01*
X55726387Y-44833377D01*
X55726384Y-44833380D01*
X55646908Y-44952324D01*
X55609578Y-45140000D01*
X55619001Y-45187373D01*
X55619001Y-45315494D01*
X55497244Y-45437251D01*
X55389000Y-45698573D01*
X55389000Y-45981427D01*
X55497244Y-46242749D01*
X55697251Y-46442756D01*
X55958573Y-46551000D01*
X56098764Y-46551000D01*
X55310764Y-47339000D01*
X55138573Y-47339000D01*
X54877251Y-47447244D01*
X54677244Y-47647251D01*
X54569000Y-47908573D01*
X54202476Y-47908573D01*
X54251000Y-47791427D01*
X54251000Y-47508573D01*
X54142756Y-47247251D01*
X54021000Y-47125495D01*
X54021000Y-42197372D01*
X54030423Y-42150000D01*
X54011000Y-42052353D01*
X54011000Y-41557369D01*
X54020422Y-41510000D01*
X54011000Y-41462631D01*
X54011000Y-41462627D01*
X53983092Y-41322323D01*
X53903616Y-41203379D01*
X53903614Y-41203377D01*
X53876781Y-41163219D01*
X53836623Y-41136386D01*
X52973616Y-40273380D01*
X52946781Y-40233219D01*
X52787677Y-40126908D01*
X52647373Y-40099000D01*
X52647369Y-40099000D01*
X52600000Y-40089578D01*
X52552631Y-40099000D01*
X52089949Y-40099000D01*
X52023816Y-39939340D01*
X51705660Y-39621184D01*
X51289970Y-39449000D01*
X50840030Y-39449000D01*
X50424340Y-39621184D01*
X50106184Y-39939340D01*
X49934000Y-40355030D01*
X44576000Y-40355030D01*
X44403816Y-39939340D01*
X44085660Y-39621184D01*
X43669970Y-39449000D01*
X43220030Y-39449000D01*
X42804340Y-39621184D01*
X42486184Y-39939340D01*
X42314000Y-40355030D01*
X42314000Y-40804970D01*
X42380133Y-40964630D01*
X41901000Y-41443764D01*
X41901000Y-40264236D01*
X43060369Y-39104867D01*
X43220030Y-39171000D01*
X43669970Y-39171000D01*
X44085660Y-38998816D01*
X44403816Y-38680660D01*
X44576000Y-38264970D01*
X44576000Y-37815030D01*
X49934000Y-37815030D01*
X49934000Y-38264970D01*
X50106184Y-38680660D01*
X50424340Y-38998816D01*
X50840030Y-39171000D01*
X51289970Y-39171000D01*
X51705660Y-38998816D01*
X52023816Y-38680660D01*
X52040244Y-38641000D01*
X53395495Y-38641000D01*
X53517251Y-38762756D01*
X53778573Y-38871000D01*
X54061427Y-38871000D01*
X54322749Y-38762756D01*
X54522756Y-38562749D01*
X54631000Y-38301427D01*
X54631000Y-38018573D01*
X54546690Y-37815030D01*
X60094000Y-37815030D01*
X60094000Y-38264970D01*
X60266184Y-38680660D01*
X60584340Y-38998816D01*
X61000030Y-39171000D01*
X61449970Y-39171000D01*
X61865660Y-38998816D01*
X62183816Y-38680660D01*
X62356000Y-38264970D01*
X62356000Y-37815030D01*
X62183816Y-37399340D01*
X61865660Y-37081184D01*
X61449970Y-36909000D01*
X61000030Y-36909000D01*
X60584340Y-37081184D01*
X60266184Y-37399340D01*
X60094000Y-37815030D01*
X54546690Y-37815030D01*
X54522756Y-37757251D01*
X54322749Y-37557244D01*
X54061427Y-37449000D01*
X53778573Y-37449000D01*
X53517251Y-37557244D01*
X53395495Y-37679000D01*
X52139655Y-37679000D01*
X52023816Y-37399340D01*
X51705660Y-37081184D01*
X51289970Y-36909000D01*
X50840030Y-36909000D01*
X50424340Y-37081184D01*
X50106184Y-37399340D01*
X49934000Y-37815030D01*
X44576000Y-37815030D01*
X44403816Y-37399340D01*
X44085660Y-37081184D01*
X43669970Y-36909000D01*
X43220030Y-36909000D01*
X42804340Y-37081184D01*
X42486184Y-37399340D01*
X42314000Y-37815030D01*
X42314000Y-38264970D01*
X42380133Y-38424631D01*
X41113380Y-39691384D01*
X41073219Y-39718219D01*
X41072000Y-39720043D01*
X41072000Y-35275030D01*
X42314000Y-35275030D01*
X42314000Y-35724970D01*
X42486184Y-36140660D01*
X42804340Y-36458816D01*
X43220030Y-36631000D01*
X43669970Y-36631000D01*
X44085660Y-36458816D01*
X44403816Y-36140660D01*
X44576000Y-35724970D01*
X44576000Y-35275030D01*
X49934000Y-35275030D01*
X49934000Y-35724970D01*
X50106184Y-36140660D01*
X50424340Y-36458816D01*
X50840030Y-36631000D01*
X51289970Y-36631000D01*
X51705660Y-36458816D01*
X52023816Y-36140660D01*
X52196000Y-35724970D01*
X52196000Y-35275030D01*
X60094000Y-35275030D01*
X60094000Y-35724970D01*
X60266184Y-36140660D01*
X60584340Y-36458816D01*
X61000030Y-36631000D01*
X61449970Y-36631000D01*
X61865660Y-36458816D01*
X62183816Y-36140660D01*
X62356000Y-35724970D01*
X62356000Y-35275030D01*
X62183816Y-34859340D01*
X61865660Y-34541184D01*
X61449970Y-34369000D01*
X61000030Y-34369000D01*
X60584340Y-34541184D01*
X60266184Y-34859340D01*
X60094000Y-35275030D01*
X52196000Y-35275030D01*
X52023816Y-34859340D01*
X51705660Y-34541184D01*
X51289970Y-34369000D01*
X50840030Y-34369000D01*
X50424340Y-34541184D01*
X50106184Y-34859340D01*
X49934000Y-35275030D01*
X44576000Y-35275030D01*
X44403816Y-34859340D01*
X44085660Y-34541184D01*
X43669970Y-34369000D01*
X43220030Y-34369000D01*
X42804340Y-34541184D01*
X42486184Y-34859340D01*
X42314000Y-35275030D01*
X41072000Y-35275030D01*
X41072000Y-31516000D01*
X71234000Y-31516000D01*
X71234000Y-39296635D01*
X71234000Y-39296635D01*
G37*
X71234000Y-39296635D02*
X71191427Y-39279000D01*
X70908573Y-39279000D01*
X70791000Y-39327701D01*
X70791000Y-37012369D01*
X70800422Y-36965000D01*
X70791000Y-36917631D01*
X70791000Y-36917627D01*
X70763092Y-36777323D01*
X70683616Y-36658379D01*
X70683614Y-36658377D01*
X70656781Y-36618219D01*
X70616623Y-36591386D01*
X69909867Y-35884630D01*
X69976000Y-35724970D01*
X69976000Y-35275030D01*
X69803816Y-34859340D01*
X69485660Y-34541184D01*
X69069970Y-34369000D01*
X68620030Y-34369000D01*
X68204340Y-34541184D01*
X67886184Y-34859340D01*
X67714000Y-35275030D01*
X67714000Y-35724970D01*
X67886184Y-36140660D01*
X68204340Y-36458816D01*
X68620030Y-36631000D01*
X69069970Y-36631000D01*
X69229630Y-36564867D01*
X69829001Y-37164238D01*
X69829001Y-37460142D01*
X69803816Y-37399340D01*
X69485660Y-37081184D01*
X69069970Y-36909000D01*
X68620030Y-36909000D01*
X68204340Y-37081184D01*
X67886184Y-37399340D01*
X67714000Y-37815030D01*
X67714000Y-38264970D01*
X67886184Y-38680660D01*
X68204340Y-38998816D01*
X68620030Y-39171000D01*
X69069970Y-39171000D01*
X69485660Y-38998816D01*
X69803816Y-38680660D01*
X69829001Y-38619858D01*
X69829001Y-40000141D01*
X69803816Y-39939340D01*
X69485660Y-39621184D01*
X69069970Y-39449000D01*
X68620030Y-39449000D01*
X68204340Y-39621184D01*
X67886184Y-39939340D01*
X67714000Y-40355030D01*
X67714000Y-40804970D01*
X67886184Y-41220660D01*
X68204340Y-41538816D01*
X68620030Y-41711000D01*
X69069970Y-41711000D01*
X69485660Y-41538816D01*
X69803816Y-41220660D01*
X69829001Y-41159859D01*
X69829000Y-42540141D01*
X69803816Y-42479340D01*
X69485660Y-42161184D01*
X69069970Y-41989000D01*
X68620030Y-41989000D01*
X68204340Y-42161184D01*
X67886184Y-42479340D01*
X67714000Y-42895030D01*
X67714000Y-43344970D01*
X67886184Y-43760660D01*
X68204340Y-44078816D01*
X68620030Y-44251000D01*
X69069970Y-44251000D01*
X69485660Y-44078816D01*
X69803816Y-43760660D01*
X69829000Y-43699860D01*
X69829000Y-45080140D01*
X69803816Y-45019340D01*
X69485660Y-44701184D01*
X69069970Y-44529000D01*
X68620030Y-44529000D01*
X68204340Y-44701184D01*
X67886184Y-45019340D01*
X67714000Y-45435030D01*
X67714000Y-45884970D01*
X67886184Y-46300660D01*
X68204340Y-46618816D01*
X68620030Y-46791000D01*
X69069970Y-46791000D01*
X69102052Y-46777711D01*
X68033377Y-47846387D01*
X67993219Y-47873220D01*
X67966385Y-47913379D01*
X67966383Y-47913381D01*
X67939849Y-47953092D01*
X67886907Y-48032324D01*
X67871655Y-48109000D01*
X67868573Y-48109000D01*
X67607251Y-48217244D01*
X67407244Y-48417251D01*
X67299000Y-48678573D01*
X67299000Y-48961427D01*
X67407244Y-49222749D01*
X67607251Y-49422756D01*
X67868573Y-49531000D01*
X68151427Y-49531000D01*
X68412749Y-49422756D01*
X68590000Y-49245505D01*
X68747251Y-49402756D01*
X69008573Y-49511000D01*
X69291427Y-49511000D01*
X69448990Y-49445735D01*
X69448990Y-50151711D01*
X69439568Y-50199080D01*
X69448990Y-50246449D01*
X69448990Y-50246452D01*
X69476898Y-50386756D01*
X69583209Y-50545861D01*
X69623370Y-50572696D01*
X69999001Y-50948328D01*
X69999000Y-83900764D01*
X69632120Y-84267644D01*
X69485660Y-84121184D01*
X69069970Y-83949000D01*
X68620030Y-83949000D01*
X68371000Y-84052151D01*
X68371000Y-83567849D01*
X68620030Y-83671000D01*
X69069970Y-83671000D01*
X69485660Y-83498816D01*
X69803816Y-83180660D01*
X69976000Y-82764970D01*
X69976000Y-82315030D01*
X69803816Y-81899340D01*
X69485660Y-81581184D01*
X69069970Y-81409000D01*
X68620030Y-81409000D01*
X68371000Y-81512151D01*
X68371000Y-81027849D01*
X68620030Y-81131000D01*
X69069970Y-81131000D01*
X69485660Y-80958816D01*
X69803816Y-80640660D01*
X69976000Y-80224970D01*
X69976000Y-79775030D01*
X69803816Y-79359340D01*
X69485660Y-79041184D01*
X69069970Y-78869000D01*
X68620030Y-78869000D01*
X68371000Y-78972151D01*
X68371000Y-78222445D01*
X68379443Y-78180000D01*
X68345992Y-78011832D01*
X68250733Y-77869267D01*
X68108168Y-77774008D01*
X67982445Y-77749000D01*
X67940000Y-77740557D01*
X67897555Y-77749000D01*
X62097555Y-77749000D01*
X61971832Y-77774008D01*
X61829267Y-77869267D01*
X61734008Y-78011832D01*
X61700557Y-78180000D01*
X61709001Y-78222450D01*
X61709001Y-78976294D01*
X61449970Y-78869000D01*
X61000030Y-78869000D01*
X60584340Y-79041184D01*
X60266184Y-79359340D01*
X60094000Y-79775030D01*
X60094000Y-80224970D01*
X60266184Y-80640660D01*
X60584340Y-80958816D01*
X61000030Y-81131000D01*
X61449970Y-81131000D01*
X61709001Y-81023706D01*
X61709001Y-81516294D01*
X61449970Y-81409000D01*
X61000030Y-81409000D01*
X60584340Y-81581184D01*
X60266184Y-81899340D01*
X60094000Y-82315030D01*
X60094000Y-82764970D01*
X60266184Y-83180660D01*
X60584340Y-83498816D01*
X61000030Y-83671000D01*
X61449970Y-83671000D01*
X61709001Y-83563706D01*
X61709001Y-84056294D01*
X61449970Y-83949000D01*
X61000030Y-83949000D01*
X60584340Y-84121184D01*
X60266184Y-84439340D01*
X60094000Y-84855030D01*
X60094000Y-85304970D01*
X60266184Y-85720660D01*
X60584340Y-86038816D01*
X61000030Y-86211000D01*
X61449970Y-86211000D01*
X61709000Y-86103706D01*
X61709000Y-86596294D01*
X61449970Y-86489000D01*
X61000030Y-86489000D01*
X60584340Y-86661184D01*
X60266184Y-86979340D01*
X60094000Y-87395030D01*
X60094000Y-87844970D01*
X60266184Y-88260660D01*
X60584340Y-88578816D01*
X61000030Y-88751000D01*
X61449970Y-88751000D01*
X61709000Y-88643706D01*
X61709000Y-88862154D01*
X61429829Y-88762799D01*
X60879552Y-88790770D01*
X60501077Y-88947540D01*
X60433088Y-89188483D01*
X61225000Y-89980395D01*
X61239143Y-89966253D01*
X61418748Y-90145858D01*
X61404605Y-90160000D01*
X61418748Y-90174143D01*
X61239143Y-90353748D01*
X61225000Y-90339605D01*
X60433088Y-91131517D01*
X60501077Y-91372460D01*
X61020171Y-91557201D01*
X61570448Y-91529230D01*
X61709000Y-91471840D01*
X61709000Y-91937555D01*
X61700557Y-91980000D01*
X61734008Y-92148168D01*
X61829267Y-92290733D01*
X61971832Y-92385992D01*
X62140000Y-92419443D01*
X62182445Y-92411000D01*
X67897555Y-92411000D01*
X67940000Y-92419443D01*
X67982445Y-92411000D01*
X68108168Y-92385992D01*
X68250733Y-92290733D01*
X68345992Y-92148168D01*
X68379443Y-91980000D01*
X68371000Y-91937555D01*
X68371000Y-91187849D01*
X68620030Y-91291000D01*
X69069970Y-91291000D01*
X69485660Y-91118816D01*
X69803816Y-90800660D01*
X69925071Y-90507924D01*
X69926781Y-90506781D01*
X69953616Y-90466620D01*
X71234001Y-89186235D01*
X71234001Y-94144000D01*
X41072000Y-94144000D01*
X41072000Y-89955171D01*
X42047799Y-89955171D01*
X42075770Y-90505448D01*
X42232540Y-90883923D01*
X42473483Y-90951912D01*
X43265395Y-90160000D01*
X42473483Y-89368088D01*
X42232540Y-89436077D01*
X42047799Y-89955171D01*
X41072000Y-89955171D01*
X41072000Y-79775030D01*
X42314000Y-79775030D01*
X42314000Y-80224970D01*
X42486184Y-80640660D01*
X42804340Y-80958816D01*
X43220030Y-81131000D01*
X43669970Y-81131000D01*
X43929001Y-81023706D01*
X43929001Y-81516294D01*
X43669970Y-81409000D01*
X43220030Y-81409000D01*
X42804340Y-81581184D01*
X42486184Y-81899340D01*
X42314000Y-82315030D01*
X42314000Y-82764970D01*
X42486184Y-83180660D01*
X42804340Y-83498816D01*
X43220030Y-83671000D01*
X43669970Y-83671000D01*
X43929001Y-83563706D01*
X43929001Y-84056294D01*
X43669970Y-83949000D01*
X43220030Y-83949000D01*
X42804340Y-84121184D01*
X42486184Y-84439340D01*
X42314000Y-84855030D01*
X42314000Y-85304970D01*
X42486184Y-85720660D01*
X42804340Y-86038816D01*
X43220030Y-86211000D01*
X43669970Y-86211000D01*
X43929000Y-86103706D01*
X43929000Y-86596294D01*
X43669970Y-86489000D01*
X43220030Y-86489000D01*
X42804340Y-86661184D01*
X42486184Y-86979340D01*
X42314000Y-87395030D01*
X42314000Y-87844970D01*
X42486184Y-88260660D01*
X42804340Y-88578816D01*
X43220030Y-88751000D01*
X43669970Y-88751000D01*
X43929000Y-88643706D01*
X43929000Y-88862154D01*
X43649829Y-88762799D01*
X43099552Y-88790770D01*
X42721077Y-88947540D01*
X42653088Y-89188483D01*
X43445000Y-89980395D01*
X43459143Y-89966253D01*
X43638748Y-90145858D01*
X43624605Y-90160000D01*
X43638748Y-90174143D01*
X43459143Y-90353748D01*
X43445000Y-90339605D01*
X42653088Y-91131517D01*
X42721077Y-91372460D01*
X43240171Y-91557201D01*
X43790448Y-91529230D01*
X43929000Y-91471840D01*
X43929000Y-91937555D01*
X43920557Y-91980000D01*
X43954008Y-92148168D01*
X44049267Y-92290733D01*
X44191832Y-92385992D01*
X44360000Y-92419443D01*
X44402445Y-92411000D01*
X50107555Y-92411000D01*
X50150000Y-92419443D01*
X50192445Y-92411000D01*
X50318168Y-92385992D01*
X50460733Y-92290733D01*
X50555992Y-92148168D01*
X50589443Y-91980000D01*
X50581000Y-91937555D01*
X50581000Y-91183707D01*
X50840030Y-91291000D01*
X51289970Y-91291000D01*
X51705660Y-91118816D01*
X52023816Y-90800660D01*
X52196000Y-90384970D01*
X52196000Y-89955171D01*
X59827799Y-89955171D01*
X59855770Y-90505448D01*
X60012540Y-90883923D01*
X60253483Y-90951912D01*
X61045395Y-90160000D01*
X60253483Y-89368088D01*
X60012540Y-89436077D01*
X59827799Y-89955171D01*
X52196000Y-89955171D01*
X52196000Y-89935030D01*
X52023816Y-89519340D01*
X51705660Y-89201184D01*
X51289970Y-89029000D01*
X50840030Y-89029000D01*
X50581000Y-89136293D01*
X50581000Y-88643707D01*
X50840030Y-88751000D01*
X51289970Y-88751000D01*
X51705660Y-88578816D01*
X52023816Y-88260660D01*
X52196000Y-87844970D01*
X52196000Y-87395030D01*
X52023816Y-86979340D01*
X51705660Y-86661184D01*
X51289970Y-86489000D01*
X50840030Y-86489000D01*
X50581000Y-86596293D01*
X50581000Y-86103707D01*
X50840030Y-86211000D01*
X51289970Y-86211000D01*
X51705660Y-86038816D01*
X52023816Y-85720660D01*
X52196000Y-85304970D01*
X52196000Y-84855030D01*
X52023816Y-84439340D01*
X51705660Y-84121184D01*
X51289970Y-83949000D01*
X50840030Y-83949000D01*
X50581000Y-84056293D01*
X50581000Y-83563707D01*
X50840030Y-83671000D01*
X51289970Y-83671000D01*
X51705660Y-83498816D01*
X52023816Y-83180660D01*
X52196000Y-82764970D01*
X52196000Y-82315030D01*
X52023816Y-81899340D01*
X51705660Y-81581184D01*
X51289970Y-81409000D01*
X50840030Y-81409000D01*
X50581000Y-81516293D01*
X50581000Y-81023707D01*
X50840030Y-81131000D01*
X51289970Y-81131000D01*
X51705660Y-80958816D01*
X52023816Y-80640660D01*
X52196000Y-80224970D01*
X52196000Y-79775030D01*
X52023816Y-79359340D01*
X51705660Y-79041184D01*
X51289970Y-78869000D01*
X50840030Y-78869000D01*
X50581000Y-78976293D01*
X50581000Y-78222445D01*
X50589443Y-78180000D01*
X50555992Y-78011832D01*
X50460733Y-77869267D01*
X50318168Y-77774008D01*
X50192445Y-77749000D01*
X50150000Y-77740557D01*
X50107555Y-77749000D01*
X44402445Y-77749000D01*
X44360000Y-77740557D01*
X44317555Y-77749000D01*
X44191832Y-77774008D01*
X44049267Y-77869267D01*
X43954008Y-78011832D01*
X43920557Y-78180000D01*
X43929001Y-78222450D01*
X43929001Y-78976294D01*
X43669970Y-78869000D01*
X43220030Y-78869000D01*
X42804340Y-79041184D01*
X42486184Y-79359340D01*
X42314000Y-79775030D01*
X41072000Y-79775030D01*
X41072000Y-77448464D01*
X43700000Y-77448464D01*
X43848659Y-77418894D01*
X43974686Y-77334686D01*
X44058894Y-77208659D01*
X44083349Y-77085717D01*
X44129867Y-77132235D01*
X44165074Y-77184926D01*
X44366479Y-77319500D01*
X44373796Y-77324389D01*
X44620000Y-77373362D01*
X44682148Y-77361000D01*
X51668632Y-77361000D01*
X54299867Y-79992235D01*
X54335074Y-80044926D01*
X54543796Y-80184389D01*
X54790000Y-80233362D01*
X54852148Y-80221000D01*
X58477852Y-80221000D01*
X58540000Y-80233362D01*
X58602148Y-80221000D01*
X58786204Y-80184389D01*
X58994926Y-80044926D01*
X59030133Y-79992235D01*
X61661368Y-77361000D01*
X64267852Y-77361000D01*
X64330000Y-77373362D01*
X64392148Y-77361000D01*
X64576204Y-77324389D01*
X64784926Y-77184926D01*
X64820132Y-77132236D01*
X65532239Y-76420130D01*
X65584926Y-76384926D01*
X65724389Y-76176204D01*
X65761000Y-75992148D01*
X65761000Y-75992147D01*
X65773362Y-75930000D01*
X65761000Y-75867852D01*
X65761000Y-73968648D01*
X65773362Y-73906500D01*
X65761000Y-73844352D01*
X65761000Y-71138648D01*
X65773362Y-71076500D01*
X65724389Y-70830296D01*
X65686773Y-70774000D01*
X65584926Y-70621574D01*
X65532238Y-70586369D01*
X65161632Y-70215764D01*
X65126426Y-70163074D01*
X64917704Y-70023611D01*
X64733648Y-69987000D01*
X64671500Y-69974638D01*
X64609352Y-69987000D01*
X64388096Y-69987000D01*
X64320159Y-69941606D01*
X64171500Y-69912036D01*
X63028500Y-69912036D01*
X62879841Y-69941606D01*
X62785000Y-70004976D01*
X62690159Y-69941606D01*
X62541500Y-69912036D01*
X61398500Y-69912036D01*
X61249841Y-69941606D01*
X61145000Y-70011658D01*
X61040159Y-69941606D01*
X60891500Y-69912036D01*
X60843805Y-69912036D01*
X60820190Y-69793314D01*
X60786903Y-69743496D01*
X60732451Y-69662003D01*
X60732450Y-69662002D01*
X60702829Y-69617671D01*
X60658498Y-69588050D01*
X60136952Y-69066505D01*
X60107329Y-69022171D01*
X59931686Y-68904810D01*
X59776794Y-68874000D01*
X59776790Y-68874000D01*
X59724500Y-68863599D01*
X59672210Y-68874000D01*
X58307750Y-68874000D01*
X58301250Y-68867500D01*
X58043093Y-68867500D01*
X57973659Y-68821106D01*
X57825000Y-68791536D01*
X56075000Y-68791536D01*
X55926341Y-68821106D01*
X55856907Y-68867500D01*
X55598750Y-68867500D01*
X55440000Y-69026250D01*
X55440000Y-69106310D01*
X55536673Y-69339699D01*
X55686536Y-69489561D01*
X55686536Y-69630000D01*
X55706427Y-69730000D01*
X55686536Y-69830000D01*
X55686536Y-69989000D01*
X55468573Y-69989000D01*
X55207251Y-70097244D01*
X55007244Y-70297251D01*
X54899000Y-70558573D01*
X54899000Y-70841427D01*
X55007244Y-71102749D01*
X55207251Y-71302756D01*
X55468573Y-71411000D01*
X55686536Y-71411000D01*
X55686536Y-71580000D01*
X55706427Y-71680000D01*
X55686536Y-71780000D01*
X55686536Y-71920439D01*
X55536673Y-72070301D01*
X55440000Y-72303690D01*
X55440000Y-72383750D01*
X55584248Y-72527998D01*
X55521114Y-72527998D01*
X54801000Y-71807885D01*
X54801000Y-69330657D01*
X55543954Y-68587704D01*
X55598750Y-68642500D01*
X56823000Y-68642500D01*
X56823000Y-68053750D01*
X57077000Y-68053750D01*
X57077000Y-68642500D01*
X58301250Y-68642500D01*
X58460000Y-68483750D01*
X58460000Y-68403690D01*
X58363327Y-68170301D01*
X58184698Y-67991673D01*
X57951309Y-67895000D01*
X57235750Y-67895000D01*
X57077000Y-68053750D01*
X56823000Y-68053750D01*
X56664250Y-67895000D01*
X56236658Y-67895000D01*
X56308368Y-67823290D01*
X56356877Y-67790877D01*
X56431860Y-67678659D01*
X56485290Y-67598695D01*
X56489456Y-67577750D01*
X56519000Y-67429222D01*
X56519000Y-67429218D01*
X56529451Y-67376677D01*
X56530186Y-67376186D01*
X56555356Y-67338516D01*
X56606173Y-67461199D01*
X56784802Y-67639827D01*
X57018191Y-67736500D01*
X57176250Y-67736500D01*
X57335000Y-67577750D01*
X57335000Y-66657000D01*
X57589000Y-66657000D01*
X57589000Y-67577750D01*
X57747750Y-67736500D01*
X57905809Y-67736500D01*
X58139198Y-67639827D01*
X58317827Y-67461199D01*
X58414500Y-67227810D01*
X58414500Y-66815750D01*
X58255750Y-66657000D01*
X57589000Y-66657000D01*
X57335000Y-66657000D01*
X57315000Y-66657000D01*
X57315000Y-66403000D01*
X57335000Y-66403000D01*
X57335000Y-65482250D01*
X57325000Y-65472250D01*
X57325000Y-65027000D01*
X57579000Y-65027000D01*
X57579000Y-65947750D01*
X57589000Y-65957750D01*
X57589000Y-66403000D01*
X58255750Y-66403000D01*
X58414500Y-66244250D01*
X58414500Y-65832190D01*
X58360958Y-65702929D01*
X58404500Y-65597810D01*
X58404500Y-65185750D01*
X58245750Y-65027000D01*
X57579000Y-65027000D01*
X57325000Y-65027000D01*
X57305000Y-65027000D01*
X57305000Y-64773000D01*
X57325000Y-64773000D01*
X57325000Y-63852250D01*
X57579000Y-63852250D01*
X57579000Y-64773000D01*
X58245750Y-64773000D01*
X58404500Y-64614250D01*
X58404500Y-64202190D01*
X58307827Y-63968801D01*
X58129198Y-63790173D01*
X57895809Y-63693500D01*
X57737750Y-63693500D01*
X57579000Y-63852250D01*
X57325000Y-63852250D01*
X57252559Y-63779809D01*
X59883740Y-61148629D01*
X59936427Y-61113425D01*
X60075890Y-60904703D01*
X60112501Y-60720647D01*
X60112501Y-60720646D01*
X60124863Y-60658500D01*
X60112501Y-60596353D01*
X60112501Y-59949635D01*
X60266184Y-60320660D01*
X60584340Y-60638816D01*
X61000030Y-60811000D01*
X61449970Y-60811000D01*
X61709001Y-60703706D01*
X61709001Y-61196294D01*
X61449970Y-61089000D01*
X61000030Y-61089000D01*
X60584340Y-61261184D01*
X60266184Y-61579340D01*
X60094000Y-61995030D01*
X60094000Y-62444970D01*
X60266184Y-62860660D01*
X60584340Y-63178816D01*
X61000030Y-63351000D01*
X61449970Y-63351000D01*
X61709000Y-63243706D01*
X61709000Y-63736294D01*
X61449970Y-63629000D01*
X61000030Y-63629000D01*
X60584340Y-63801184D01*
X60266184Y-64119340D01*
X60094000Y-64535030D01*
X60094000Y-64984970D01*
X60266184Y-65400660D01*
X60584340Y-65718816D01*
X61000030Y-65891000D01*
X61449970Y-65891000D01*
X61709000Y-65783706D01*
X61709000Y-66276294D01*
X61449970Y-66169000D01*
X61000030Y-66169000D01*
X60584340Y-66341184D01*
X60266184Y-66659340D01*
X60094000Y-67075030D01*
X60094000Y-67524970D01*
X60266184Y-67940660D01*
X60584340Y-68258816D01*
X61000030Y-68431000D01*
X61449970Y-68431000D01*
X61709000Y-68323707D01*
X61709000Y-69077555D01*
X61700557Y-69120000D01*
X61734008Y-69288168D01*
X61829267Y-69430733D01*
X61971832Y-69525992D01*
X62140000Y-69559443D01*
X62182445Y-69551000D01*
X67887555Y-69551000D01*
X67930000Y-69559443D01*
X67972445Y-69551000D01*
X68098168Y-69525992D01*
X68240733Y-69430733D01*
X68335992Y-69288168D01*
X68369443Y-69120000D01*
X68361000Y-69077555D01*
X68361000Y-68323707D01*
X68620030Y-68431000D01*
X69069970Y-68431000D01*
X69485660Y-68258816D01*
X69803816Y-67940660D01*
X69976000Y-67524970D01*
X69976000Y-67075030D01*
X69803816Y-66659340D01*
X69485660Y-66341184D01*
X69069970Y-66169000D01*
X68620030Y-66169000D01*
X68361000Y-66276293D01*
X68361000Y-65783707D01*
X68620030Y-65891000D01*
X69069970Y-65891000D01*
X69485660Y-65718816D01*
X69803816Y-65400660D01*
X69976000Y-64984970D01*
X69976000Y-64535030D01*
X69803816Y-64119340D01*
X69485660Y-63801184D01*
X69069970Y-63629000D01*
X68620030Y-63629000D01*
X68361000Y-63736293D01*
X68361000Y-63243707D01*
X68620030Y-63351000D01*
X69069970Y-63351000D01*
X69485660Y-63178816D01*
X69803816Y-62860660D01*
X69976000Y-62444970D01*
X69976000Y-61995030D01*
X69803816Y-61579340D01*
X69485660Y-61261184D01*
X69069970Y-61089000D01*
X68620030Y-61089000D01*
X68361000Y-61196293D01*
X68361000Y-60703707D01*
X68620030Y-60811000D01*
X69069970Y-60811000D01*
X69485660Y-60638816D01*
X69803816Y-60320660D01*
X69976000Y-59904970D01*
X69976000Y-59455030D01*
X69803816Y-59039340D01*
X69485660Y-58721184D01*
X69069970Y-58549000D01*
X68620030Y-58549000D01*
X68361000Y-58656293D01*
X68361000Y-58163707D01*
X68620030Y-58271000D01*
X69069970Y-58271000D01*
X69485660Y-58098816D01*
X69803816Y-57780660D01*
X69976000Y-57364970D01*
X69976000Y-56915030D01*
X69803816Y-56499340D01*
X69485660Y-56181184D01*
X69476000Y-56177183D01*
X69476000Y-55197146D01*
X69488362Y-55134999D01*
X69463352Y-55009267D01*
X69439389Y-54888796D01*
X69299926Y-54680074D01*
X69247239Y-54644870D01*
X68810132Y-54207764D01*
X68774926Y-54155074D01*
X68566204Y-54015611D01*
X68382148Y-53979000D01*
X68320000Y-53966638D01*
X68257852Y-53979000D01*
X61642148Y-53979000D01*
X61580000Y-53966638D01*
X61517852Y-53979000D01*
X61333796Y-54015611D01*
X61125074Y-54155074D01*
X61089867Y-54207765D01*
X59079264Y-56218368D01*
X59026576Y-56253573D01*
X58991372Y-56306260D01*
X58900813Y-56441791D01*
X58801500Y-56422036D01*
X58384344Y-56422036D01*
X58337000Y-56412619D01*
X58289656Y-56422036D01*
X57658500Y-56422036D01*
X57648626Y-56424000D01*
X57576869Y-56424000D01*
X56490632Y-55337764D01*
X56455426Y-55285074D01*
X56246704Y-55145611D01*
X56062648Y-55109000D01*
X56000500Y-55096638D01*
X55938352Y-55109000D01*
X45512148Y-55109000D01*
X45450000Y-55096638D01*
X45387852Y-55109000D01*
X45203796Y-55145611D01*
X44995074Y-55285074D01*
X44959869Y-55337762D01*
X44083349Y-56214283D01*
X44058894Y-56091341D01*
X43974686Y-55965314D01*
X43848659Y-55881106D01*
X43700000Y-55851536D01*
X41072000Y-55851536D01*
X41072000Y-49384955D01*
X41073220Y-49386781D01*
X41113378Y-49413614D01*
X41519000Y-49819237D01*
X41519000Y-49991427D01*
X41627244Y-50252749D01*
X41827251Y-50452756D01*
X42088573Y-50561000D01*
X42371427Y-50561000D01*
X42632749Y-50452756D01*
X42832756Y-50252749D01*
X42941000Y-49991427D01*
X42941000Y-49708573D01*
X42832756Y-49447251D01*
X42632749Y-49247244D01*
X42371427Y-49139000D01*
X42199237Y-49139000D01*
X42198364Y-49138127D01*
X42452749Y-49032756D01*
X42652756Y-48832749D01*
X42761000Y-48571427D01*
X42761000Y-48288573D01*
X42652756Y-48027251D01*
X42531000Y-47905495D01*
X42531000Y-46739540D01*
X42538034Y-46746574D01*
X42653089Y-46631519D01*
X42721077Y-46872460D01*
X43240171Y-47057201D01*
X43790448Y-47029230D01*
X44168923Y-46872460D01*
X44236912Y-46631517D01*
X43445000Y-45839605D01*
X43430858Y-45853748D01*
X43251253Y-45674143D01*
X43265395Y-45660000D01*
X43624605Y-45660000D01*
X44416517Y-46451912D01*
X44657460Y-46383923D01*
X44842201Y-45864829D01*
X44814230Y-45314552D01*
X44657460Y-44936077D01*
X44416517Y-44868088D01*
X43624605Y-45660000D01*
X43265395Y-45660000D01*
X43251253Y-45645858D01*
X43430858Y-45466253D01*
X43445000Y-45480395D01*
X44236912Y-44688483D01*
X44168923Y-44447540D01*
X43649829Y-44262799D01*
X43099552Y-44290770D01*
X42721077Y-44447540D01*
X42653089Y-44688481D01*
X42538034Y-44573426D01*
X42531000Y-44580460D01*
X42531000Y-43805476D01*
X42804340Y-44078816D01*
X43220030Y-44251000D01*
X43669970Y-44251000D01*
X44085660Y-44078816D01*
X44403816Y-43760660D01*
X44576000Y-43344970D01*
X44576000Y-42895030D01*
X44403816Y-42479340D01*
X44085660Y-42161184D01*
X43669970Y-41989000D01*
X43220030Y-41989000D01*
X42804340Y-42161184D01*
X42531000Y-42434524D01*
X42531000Y-42174236D01*
X43060370Y-41644867D01*
X43220030Y-41711000D01*
X43669970Y-41711000D01*
X44085660Y-41538816D01*
X44403816Y-41220660D01*
X44576000Y-40804970D01*
X44576000Y-40355030D01*
X49934000Y-40355030D01*
X49934000Y-40804970D01*
X50106184Y-41220660D01*
X50424340Y-41538816D01*
X50840030Y-41711000D01*
X51289970Y-41711000D01*
X51705660Y-41538816D01*
X52023816Y-41220660D01*
X52089949Y-41061000D01*
X52400764Y-41061000D01*
X53049001Y-41709237D01*
X53049000Y-42102626D01*
X53039577Y-42150000D01*
X53059001Y-42247652D01*
X53059000Y-47125495D01*
X53011000Y-47173495D01*
X53011000Y-44632369D01*
X53020422Y-44585000D01*
X53011000Y-44537631D01*
X53011000Y-44537627D01*
X52983092Y-44397323D01*
X52911895Y-44290770D01*
X52903616Y-44278379D01*
X52903614Y-44278377D01*
X52876781Y-44238219D01*
X52836623Y-44211386D01*
X52129867Y-43504630D01*
X52196000Y-43344970D01*
X52196000Y-42895030D01*
X52023816Y-42479340D01*
X51705660Y-42161184D01*
X51289970Y-41989000D01*
X50840030Y-41989000D01*
X50424340Y-42161184D01*
X50106184Y-42479340D01*
X49934000Y-42895030D01*
X49934000Y-43344970D01*
X50106184Y-43760660D01*
X50424340Y-44078816D01*
X50840030Y-44251000D01*
X51289970Y-44251000D01*
X51449630Y-44184867D01*
X52049000Y-44784237D01*
X52049000Y-45080140D01*
X52023816Y-45019340D01*
X51705660Y-44701184D01*
X51289970Y-44529000D01*
X50840030Y-44529000D01*
X50424340Y-44701184D01*
X50106184Y-45019340D01*
X49934000Y-45435030D01*
X49934000Y-45884970D01*
X50106184Y-46300660D01*
X50424340Y-46618816D01*
X50549001Y-46670452D01*
X50549000Y-49845495D01*
X50427244Y-49967251D01*
X50319000Y-50228573D01*
X50319000Y-50511427D01*
X50427244Y-50772749D01*
X50627251Y-50972756D01*
X50888573Y-51081000D01*
X51171427Y-51081000D01*
X51432749Y-50972756D01*
X51632756Y-50772749D01*
X51741000Y-50511427D01*
X51741000Y-50228573D01*
X51632756Y-49967251D01*
X51511000Y-49845495D01*
X51511000Y-46699447D01*
X51705660Y-46618816D01*
X52023816Y-46300660D01*
X52049000Y-46239859D01*
X52049001Y-48765494D01*
X51927244Y-48887251D01*
X51819000Y-49148573D01*
X51819000Y-49431427D01*
X51927244Y-49692749D01*
X52127251Y-49892756D01*
X52388573Y-50001000D01*
X52671427Y-50001000D01*
X52932749Y-49892756D01*
X53132756Y-49692749D01*
X53241000Y-49431427D01*
X53241000Y-49148573D01*
X53132756Y-48887251D01*
X53011000Y-48765495D01*
X53011000Y-48126505D01*
X53137251Y-48252756D01*
X53398573Y-48361000D01*
X53681427Y-48361000D01*
X53942749Y-48252756D01*
X54142756Y-48052749D01*
X54202476Y-47908573D01*
X54569000Y-47908573D01*
X54569000Y-48191427D01*
X54677244Y-48452749D01*
X54877251Y-48652756D01*
X55138573Y-48761000D01*
X55421427Y-48761000D01*
X55682749Y-48652756D01*
X55882756Y-48452749D01*
X55991000Y-48191427D01*
X55991000Y-48019236D01*
X57378719Y-46631517D01*
X60433088Y-46631517D01*
X60501077Y-46872460D01*
X61020171Y-47057201D01*
X61570448Y-47029230D01*
X61948923Y-46872460D01*
X62016912Y-46631517D01*
X61225000Y-45839605D01*
X60433088Y-46631517D01*
X57378719Y-46631517D01*
X58555065Y-45455171D01*
X59827799Y-45455171D01*
X59855770Y-46005448D01*
X60012540Y-46383923D01*
X60253483Y-46451912D01*
X61045395Y-45660000D01*
X61404605Y-45660000D01*
X62196517Y-46451912D01*
X62437460Y-46383923D01*
X62622201Y-45864829D01*
X62594230Y-45314552D01*
X62437460Y-44936077D01*
X62196517Y-44868088D01*
X61404605Y-45660000D01*
X61045395Y-45660000D01*
X60253483Y-44868088D01*
X60012540Y-44936077D01*
X59827799Y-45455171D01*
X58555065Y-45455171D01*
X59321753Y-44688483D01*
X60433088Y-44688483D01*
X61225000Y-45480395D01*
X62016912Y-44688483D01*
X61948923Y-44447540D01*
X61429829Y-44262799D01*
X60879552Y-44290770D01*
X60501077Y-44447540D01*
X60433088Y-44688483D01*
X59321753Y-44688483D01*
X60261320Y-43748917D01*
X60266184Y-43760660D01*
X60584340Y-44078816D01*
X61000030Y-44251000D01*
X61449970Y-44251000D01*
X61865660Y-44078816D01*
X62183816Y-43760660D01*
X62356000Y-43344970D01*
X62356000Y-42895030D01*
X62183816Y-42479340D01*
X61865660Y-42161184D01*
X61449970Y-41989000D01*
X61000030Y-41989000D01*
X60584340Y-42161184D01*
X60266184Y-42479340D01*
X60203411Y-42630889D01*
X60162631Y-42639000D01*
X60162627Y-42639000D01*
X60022323Y-42666908D01*
X59903379Y-42746384D01*
X59903377Y-42746386D01*
X59863219Y-42773219D01*
X59836386Y-42813377D01*
X56811000Y-45838764D01*
X56811000Y-45698573D01*
X56702756Y-45437251D01*
X56592871Y-45327366D01*
X60482880Y-41437356D01*
X60584340Y-41538816D01*
X61000030Y-41711000D01*
X61449970Y-41711000D01*
X61865660Y-41538816D01*
X62183816Y-41220660D01*
X62356000Y-40804970D01*
X62356000Y-40355030D01*
X62183816Y-39939340D01*
X61865660Y-39621184D01*
X61449970Y-39449000D01*
X61000030Y-39449000D01*
X60584340Y-39621184D01*
X60266184Y-39939340D01*
X60094000Y-40355030D01*
X60094000Y-40465763D01*
X55793378Y-44766386D01*
X55753220Y-44793219D01*
X55726387Y-44833377D01*
X55726384Y-44833380D01*
X55646908Y-44952324D01*
X55609578Y-45140000D01*
X55619001Y-45187373D01*
X55619001Y-45315494D01*
X55497244Y-45437251D01*
X55389000Y-45698573D01*
X55389000Y-45981427D01*
X55497244Y-46242749D01*
X55697251Y-46442756D01*
X55958573Y-46551000D01*
X56098764Y-46551000D01*
X55310764Y-47339000D01*
X55138573Y-47339000D01*
X54877251Y-47447244D01*
X54677244Y-47647251D01*
X54569000Y-47908573D01*
X54202476Y-47908573D01*
X54251000Y-47791427D01*
X54251000Y-47508573D01*
X54142756Y-47247251D01*
X54021000Y-47125495D01*
X54021000Y-42197372D01*
X54030423Y-42150000D01*
X54011000Y-42052353D01*
X54011000Y-41557369D01*
X54020422Y-41510000D01*
X54011000Y-41462631D01*
X54011000Y-41462627D01*
X53983092Y-41322323D01*
X53903616Y-41203379D01*
X53903614Y-41203377D01*
X53876781Y-41163219D01*
X53836623Y-41136386D01*
X52973616Y-40273380D01*
X52946781Y-40233219D01*
X52787677Y-40126908D01*
X52647373Y-40099000D01*
X52647369Y-40099000D01*
X52600000Y-40089578D01*
X52552631Y-40099000D01*
X52089949Y-40099000D01*
X52023816Y-39939340D01*
X51705660Y-39621184D01*
X51289970Y-39449000D01*
X50840030Y-39449000D01*
X50424340Y-39621184D01*
X50106184Y-39939340D01*
X49934000Y-40355030D01*
X44576000Y-40355030D01*
X44403816Y-39939340D01*
X44085660Y-39621184D01*
X43669970Y-39449000D01*
X43220030Y-39449000D01*
X42804340Y-39621184D01*
X42486184Y-39939340D01*
X42314000Y-40355030D01*
X42314000Y-40804970D01*
X42380133Y-40964630D01*
X41901000Y-41443764D01*
X41901000Y-40264236D01*
X43060369Y-39104867D01*
X43220030Y-39171000D01*
X43669970Y-39171000D01*
X44085660Y-38998816D01*
X44403816Y-38680660D01*
X44576000Y-38264970D01*
X44576000Y-37815030D01*
X49934000Y-37815030D01*
X49934000Y-38264970D01*
X50106184Y-38680660D01*
X50424340Y-38998816D01*
X50840030Y-39171000D01*
X51289970Y-39171000D01*
X51705660Y-38998816D01*
X52023816Y-38680660D01*
X52040244Y-38641000D01*
X53395495Y-38641000D01*
X53517251Y-38762756D01*
X53778573Y-38871000D01*
X54061427Y-38871000D01*
X54322749Y-38762756D01*
X54522756Y-38562749D01*
X54631000Y-38301427D01*
X54631000Y-38018573D01*
X54546690Y-37815030D01*
X60094000Y-37815030D01*
X60094000Y-38264970D01*
X60266184Y-38680660D01*
X60584340Y-38998816D01*
X61000030Y-39171000D01*
X61449970Y-39171000D01*
X61865660Y-38998816D01*
X62183816Y-38680660D01*
X62356000Y-38264970D01*
X62356000Y-37815030D01*
X62183816Y-37399340D01*
X61865660Y-37081184D01*
X61449970Y-36909000D01*
X61000030Y-36909000D01*
X60584340Y-37081184D01*
X60266184Y-37399340D01*
X60094000Y-37815030D01*
X54546690Y-37815030D01*
X54522756Y-37757251D01*
X54322749Y-37557244D01*
X54061427Y-37449000D01*
X53778573Y-37449000D01*
X53517251Y-37557244D01*
X53395495Y-37679000D01*
X52139655Y-37679000D01*
X52023816Y-37399340D01*
X51705660Y-37081184D01*
X51289970Y-36909000D01*
X50840030Y-36909000D01*
X50424340Y-37081184D01*
X50106184Y-37399340D01*
X49934000Y-37815030D01*
X44576000Y-37815030D01*
X44403816Y-37399340D01*
X44085660Y-37081184D01*
X43669970Y-36909000D01*
X43220030Y-36909000D01*
X42804340Y-37081184D01*
X42486184Y-37399340D01*
X42314000Y-37815030D01*
X42314000Y-38264970D01*
X42380133Y-38424631D01*
X41113380Y-39691384D01*
X41073219Y-39718219D01*
X41072000Y-39720043D01*
X41072000Y-35275030D01*
X42314000Y-35275030D01*
X42314000Y-35724970D01*
X42486184Y-36140660D01*
X42804340Y-36458816D01*
X43220030Y-36631000D01*
X43669970Y-36631000D01*
X44085660Y-36458816D01*
X44403816Y-36140660D01*
X44576000Y-35724970D01*
X44576000Y-35275030D01*
X49934000Y-35275030D01*
X49934000Y-35724970D01*
X50106184Y-36140660D01*
X50424340Y-36458816D01*
X50840030Y-36631000D01*
X51289970Y-36631000D01*
X51705660Y-36458816D01*
X52023816Y-36140660D01*
X52196000Y-35724970D01*
X52196000Y-35275030D01*
X60094000Y-35275030D01*
X60094000Y-35724970D01*
X60266184Y-36140660D01*
X60584340Y-36458816D01*
X61000030Y-36631000D01*
X61449970Y-36631000D01*
X61865660Y-36458816D01*
X62183816Y-36140660D01*
X62356000Y-35724970D01*
X62356000Y-35275030D01*
X62183816Y-34859340D01*
X61865660Y-34541184D01*
X61449970Y-34369000D01*
X61000030Y-34369000D01*
X60584340Y-34541184D01*
X60266184Y-34859340D01*
X60094000Y-35275030D01*
X52196000Y-35275030D01*
X52023816Y-34859340D01*
X51705660Y-34541184D01*
X51289970Y-34369000D01*
X50840030Y-34369000D01*
X50424340Y-34541184D01*
X50106184Y-34859340D01*
X49934000Y-35275030D01*
X44576000Y-35275030D01*
X44403816Y-34859340D01*
X44085660Y-34541184D01*
X43669970Y-34369000D01*
X43220030Y-34369000D01*
X42804340Y-34541184D01*
X42486184Y-34859340D01*
X42314000Y-35275030D01*
X41072000Y-35275030D01*
X41072000Y-31516000D01*
X71234000Y-31516000D01*
X71234000Y-39296635D01*
G36*
X53787251Y-68512756D02*
X53920424Y-68567919D01*
X53849635Y-68638708D01*
X53801123Y-68671123D01*
X53672710Y-68863306D01*
X53639000Y-69032779D01*
X53639000Y-69032782D01*
X53627619Y-69090000D01*
X53639000Y-69147218D01*
X53639001Y-71991319D01*
X53627619Y-72048542D01*
X53672710Y-72275236D01*
X53768709Y-72418908D01*
X53768711Y-72418910D01*
X53801124Y-72467419D01*
X53849633Y-72499832D01*
X55025168Y-73675368D01*
X55057581Y-73723877D01*
X55073697Y-73734646D01*
X54999634Y-73808709D01*
X54951123Y-73841123D01*
X54822710Y-74033306D01*
X54789000Y-74202779D01*
X54789000Y-74202782D01*
X54777619Y-74260000D01*
X54789000Y-74317218D01*
X54789001Y-76122778D01*
X54777619Y-76180000D01*
X54822710Y-76406694D01*
X54824298Y-76409071D01*
X54820036Y-76430500D01*
X54820036Y-77065500D01*
X54849606Y-77214159D01*
X54933814Y-77340186D01*
X54971484Y-77365356D01*
X54848801Y-77416173D01*
X54670173Y-77594802D01*
X54573500Y-77828191D01*
X54573500Y-77986250D01*
X54732250Y-78145000D01*
X55653000Y-78145000D01*
X55653000Y-78125000D01*
X55907000Y-78125000D01*
X55907000Y-78145000D01*
X57283000Y-78145000D01*
X57283000Y-78125000D01*
X57537000Y-78125000D01*
X57537000Y-78145000D01*
X58457750Y-78145000D01*
X58616500Y-77986250D01*
X58616500Y-77828191D01*
X58519827Y-77594802D01*
X58341199Y-77416173D01*
X58218516Y-77365356D01*
X58256186Y-77340186D01*
X58340394Y-77214159D01*
X58369964Y-77065500D01*
X58369964Y-76430500D01*
X58340394Y-76281841D01*
X58256186Y-76155814D01*
X58130159Y-76071606D01*
X57981500Y-76042036D01*
X56838500Y-76042036D01*
X56689841Y-76071606D01*
X56595000Y-76134976D01*
X56500159Y-76071606D01*
X56351500Y-76042036D01*
X56053694Y-76042036D01*
X55951000Y-75939343D01*
X55951000Y-75465000D01*
X56664250Y-75465000D01*
X56823000Y-75306250D01*
X56823000Y-74717500D01*
X56803000Y-74717500D01*
X56803000Y-74568464D01*
X57097000Y-74568464D01*
X57097000Y-74717500D01*
X57077000Y-74717500D01*
X57077000Y-75306250D01*
X57235750Y-75465000D01*
X57951309Y-75465000D01*
X58184698Y-75368327D01*
X58363327Y-75189699D01*
X58460000Y-74956310D01*
X58460000Y-74876250D01*
X58315752Y-74732002D01*
X58421055Y-74732002D01*
X59009548Y-75320495D01*
X59039171Y-75364829D01*
X59214814Y-75482190D01*
X59369706Y-75513000D01*
X59369709Y-75513000D01*
X59421999Y-75523401D01*
X59446610Y-75518506D01*
X59483814Y-75574186D01*
X59609841Y-75658394D01*
X59758500Y-75687964D01*
X60901500Y-75687964D01*
X61050159Y-75658394D01*
X61150000Y-75591683D01*
X61249841Y-75658394D01*
X61398500Y-75687964D01*
X62541500Y-75687964D01*
X62690159Y-75658394D01*
X62790000Y-75591683D01*
X62889841Y-75658394D01*
X63038500Y-75687964D01*
X64181500Y-75687964D01*
X64330159Y-75658394D01*
X64456186Y-75574186D01*
X64499000Y-75510110D01*
X64499000Y-75668631D01*
X64068632Y-76099000D01*
X61462148Y-76099000D01*
X61400000Y-76086638D01*
X61337852Y-76099000D01*
X61153796Y-76135611D01*
X60945074Y-76275074D01*
X60909867Y-76327765D01*
X58616500Y-78621132D01*
X58616500Y-78557750D01*
X58457750Y-78399000D01*
X57537000Y-78399000D01*
X57537000Y-78419000D01*
X57283000Y-78419000D01*
X57283000Y-78399000D01*
X55907000Y-78399000D01*
X55907000Y-78419000D01*
X55653000Y-78419000D01*
X55653000Y-78399000D01*
X54732250Y-78399000D01*
X54611809Y-78519441D01*
X52420133Y-76327765D01*
X52384926Y-76275074D01*
X52176204Y-76135611D01*
X51992148Y-76099000D01*
X51930000Y-76086638D01*
X51867852Y-76099000D01*
X44881368Y-76099000D01*
X44690133Y-75907765D01*
X44654926Y-75855074D01*
X44446204Y-75715611D01*
X44262148Y-75679000D01*
X44200000Y-75666638D01*
X44137852Y-75679000D01*
X44088464Y-75679000D01*
X44088464Y-75569561D01*
X44238327Y-75419699D01*
X44335000Y-75186310D01*
X44335000Y-74895750D01*
X44635500Y-74895750D01*
X44635500Y-75307810D01*
X44732173Y-75541199D01*
X44910802Y-75719827D01*
X45144191Y-75816500D01*
X45302250Y-75816500D01*
X45461000Y-75657750D01*
X45461000Y-74737000D01*
X44794250Y-74737000D01*
X44635500Y-74895750D01*
X44335000Y-74895750D01*
X44335000Y-74595750D01*
X44176250Y-74437000D01*
X42327000Y-74437000D01*
X42327000Y-74457000D01*
X42073000Y-74457000D01*
X42073000Y-74437000D01*
X42053000Y-74437000D01*
X42053000Y-74183000D01*
X42073000Y-74183000D01*
X42073000Y-73083750D01*
X42327000Y-73083750D01*
X42327000Y-74183000D01*
X44176250Y-74183000D01*
X44335000Y-74024250D01*
X44335000Y-73912190D01*
X44635500Y-73912190D01*
X44635500Y-74324250D01*
X44794250Y-74483000D01*
X45461000Y-74483000D01*
X45461000Y-74037750D01*
X45471000Y-74027750D01*
X45471000Y-73107000D01*
X44804250Y-73107000D01*
X44645500Y-73265750D01*
X44645500Y-73677810D01*
X44689042Y-73782929D01*
X44635500Y-73912190D01*
X44335000Y-73912190D01*
X44335000Y-73433690D01*
X44238327Y-73200301D01*
X44059698Y-73021673D01*
X43826309Y-72925000D01*
X42485750Y-72925000D01*
X42327000Y-73083750D01*
X42073000Y-73083750D01*
X41914250Y-72925000D01*
X41072000Y-72925000D01*
X41072000Y-72698464D01*
X43700000Y-72698464D01*
X43848659Y-72668894D01*
X43974686Y-72584686D01*
X44058894Y-72458659D01*
X44088464Y-72310000D01*
X44088464Y-72041000D01*
X44242631Y-72041000D01*
X44290000Y-72050422D01*
X44337369Y-72041000D01*
X44337373Y-72041000D01*
X44477677Y-72013092D01*
X44636781Y-71906781D01*
X44663616Y-71866620D01*
X46119447Y-70410789D01*
X46207244Y-70622749D01*
X46407251Y-70822756D01*
X46668573Y-70931000D01*
X46951427Y-70931000D01*
X47212749Y-70822756D01*
X47412756Y-70622749D01*
X47448689Y-70536000D01*
X48342250Y-70536000D01*
X48398750Y-70592500D01*
X48656907Y-70592500D01*
X48726341Y-70638894D01*
X48875000Y-70668464D01*
X49897000Y-70668464D01*
X49897000Y-70741536D01*
X48875000Y-70741536D01*
X48726341Y-70771106D01*
X48656907Y-70817500D01*
X48398750Y-70817500D01*
X48240000Y-70976250D01*
X48240000Y-71056310D01*
X48336673Y-71289699D01*
X48486536Y-71439561D01*
X48486536Y-71524000D01*
X46871012Y-71524000D01*
X46871012Y-71358599D01*
X46762768Y-71097277D01*
X46562761Y-70897270D01*
X46301439Y-70789026D01*
X46018585Y-70789026D01*
X45757263Y-70897270D01*
X45557256Y-71097277D01*
X45449012Y-71358599D01*
X45449012Y-71641453D01*
X45503708Y-71773500D01*
X45470998Y-71773500D01*
X45470998Y-71932248D01*
X45312250Y-71773500D01*
X45154191Y-71773500D01*
X44920802Y-71870173D01*
X44742173Y-72048801D01*
X44645500Y-72282190D01*
X44645500Y-72694250D01*
X44804250Y-72853000D01*
X45471000Y-72853000D01*
X45471000Y-72833000D01*
X45725000Y-72833000D01*
X45725000Y-72853000D01*
X45745000Y-72853000D01*
X45745000Y-73107000D01*
X45725000Y-73107000D01*
X45725000Y-73552250D01*
X45715000Y-73562250D01*
X45715000Y-74483000D01*
X45735000Y-74483000D01*
X45735000Y-74737000D01*
X45715000Y-74737000D01*
X45715000Y-75657750D01*
X45873750Y-75816500D01*
X46031809Y-75816500D01*
X46265198Y-75719827D01*
X46443827Y-75541199D01*
X46494644Y-75418516D01*
X46519814Y-75456186D01*
X46645841Y-75540394D01*
X46794500Y-75569964D01*
X47429500Y-75569964D01*
X47578159Y-75540394D01*
X47704186Y-75456186D01*
X47788394Y-75330159D01*
X47817069Y-75186000D01*
X48722010Y-75186000D01*
X48726341Y-75188894D01*
X48875000Y-75218464D01*
X50625000Y-75218464D01*
X50773659Y-75188894D01*
X50845913Y-75140615D01*
X50875000Y-75146401D01*
X50927290Y-75136000D01*
X50927294Y-75136000D01*
X51082186Y-75105190D01*
X51257829Y-74987829D01*
X51287452Y-74943495D01*
X51389947Y-74841000D01*
X51491427Y-74841000D01*
X51752749Y-74732756D01*
X51952756Y-74532749D01*
X52061000Y-74271427D01*
X52061000Y-73988573D01*
X51952756Y-73727251D01*
X51752749Y-73527244D01*
X51491427Y-73419000D01*
X51208573Y-73419000D01*
X51133745Y-73449995D01*
X51101250Y-73417500D01*
X50843093Y-73417500D01*
X50773659Y-73371106D01*
X50625000Y-73341536D01*
X48875000Y-73341536D01*
X48726341Y-73371106D01*
X48656907Y-73417500D01*
X48398750Y-73417500D01*
X48240000Y-73576250D01*
X48240000Y-73656310D01*
X48336673Y-73889699D01*
X48470975Y-74024000D01*
X47815080Y-74024000D01*
X47788394Y-73889841D01*
X47730024Y-73802483D01*
X47798394Y-73700159D01*
X47827964Y-73551500D01*
X47827964Y-72486000D01*
X48486536Y-72486000D01*
X48486536Y-72570439D01*
X48336673Y-72720301D01*
X48240000Y-72953690D01*
X48240000Y-73033750D01*
X48398750Y-73192500D01*
X48656907Y-73192500D01*
X48726341Y-73238894D01*
X48875000Y-73268464D01*
X50625000Y-73268464D01*
X50773659Y-73238894D01*
X50843093Y-73192500D01*
X51101250Y-73192500D01*
X51260000Y-73033750D01*
X51260000Y-72953690D01*
X51163327Y-72720301D01*
X51013464Y-72570439D01*
X51013464Y-72430000D01*
X50993573Y-72330000D01*
X51013464Y-72230000D01*
X51013464Y-71936000D01*
X51166324Y-71936000D01*
X51223542Y-71947381D01*
X51280760Y-71936000D01*
X51280764Y-71936000D01*
X51450237Y-71902290D01*
X51642419Y-71773877D01*
X51674834Y-71725365D01*
X52380378Y-71019822D01*
X52428887Y-70987409D01*
X52489117Y-70897270D01*
X52557300Y-70795227D01*
X52562098Y-70771106D01*
X52591010Y-70625754D01*
X52591010Y-70625750D01*
X52602391Y-70568532D01*
X52591010Y-70511314D01*
X52591010Y-68916515D01*
X52657251Y-68982756D01*
X52918573Y-69091000D01*
X53201427Y-69091000D01*
X53462749Y-68982756D01*
X53662756Y-68782749D01*
X53771000Y-68521427D01*
X53771000Y-68496505D01*
X53787251Y-68512756D01*
X53787251Y-68512756D01*
G37*
X53787251Y-68512756D02*
X53920424Y-68567919D01*
X53849635Y-68638708D01*
X53801123Y-68671123D01*
X53672710Y-68863306D01*
X53639000Y-69032779D01*
X53639000Y-69032782D01*
X53627619Y-69090000D01*
X53639000Y-69147218D01*
X53639001Y-71991319D01*
X53627619Y-72048542D01*
X53672710Y-72275236D01*
X53768709Y-72418908D01*
X53768711Y-72418910D01*
X53801124Y-72467419D01*
X53849633Y-72499832D01*
X55025168Y-73675368D01*
X55057581Y-73723877D01*
X55073697Y-73734646D01*
X54999634Y-73808709D01*
X54951123Y-73841123D01*
X54822710Y-74033306D01*
X54789000Y-74202779D01*
X54789000Y-74202782D01*
X54777619Y-74260000D01*
X54789000Y-74317218D01*
X54789001Y-76122778D01*
X54777619Y-76180000D01*
X54822710Y-76406694D01*
X54824298Y-76409071D01*
X54820036Y-76430500D01*
X54820036Y-77065500D01*
X54849606Y-77214159D01*
X54933814Y-77340186D01*
X54971484Y-77365356D01*
X54848801Y-77416173D01*
X54670173Y-77594802D01*
X54573500Y-77828191D01*
X54573500Y-77986250D01*
X54732250Y-78145000D01*
X55653000Y-78145000D01*
X55653000Y-78125000D01*
X55907000Y-78125000D01*
X55907000Y-78145000D01*
X57283000Y-78145000D01*
X57283000Y-78125000D01*
X57537000Y-78125000D01*
X57537000Y-78145000D01*
X58457750Y-78145000D01*
X58616500Y-77986250D01*
X58616500Y-77828191D01*
X58519827Y-77594802D01*
X58341199Y-77416173D01*
X58218516Y-77365356D01*
X58256186Y-77340186D01*
X58340394Y-77214159D01*
X58369964Y-77065500D01*
X58369964Y-76430500D01*
X58340394Y-76281841D01*
X58256186Y-76155814D01*
X58130159Y-76071606D01*
X57981500Y-76042036D01*
X56838500Y-76042036D01*
X56689841Y-76071606D01*
X56595000Y-76134976D01*
X56500159Y-76071606D01*
X56351500Y-76042036D01*
X56053694Y-76042036D01*
X55951000Y-75939343D01*
X55951000Y-75465000D01*
X56664250Y-75465000D01*
X56823000Y-75306250D01*
X56823000Y-74717500D01*
X56803000Y-74717500D01*
X56803000Y-74568464D01*
X57097000Y-74568464D01*
X57097000Y-74717500D01*
X57077000Y-74717500D01*
X57077000Y-75306250D01*
X57235750Y-75465000D01*
X57951309Y-75465000D01*
X58184698Y-75368327D01*
X58363327Y-75189699D01*
X58460000Y-74956310D01*
X58460000Y-74876250D01*
X58315752Y-74732002D01*
X58421055Y-74732002D01*
X59009548Y-75320495D01*
X59039171Y-75364829D01*
X59214814Y-75482190D01*
X59369706Y-75513000D01*
X59369709Y-75513000D01*
X59421999Y-75523401D01*
X59446610Y-75518506D01*
X59483814Y-75574186D01*
X59609841Y-75658394D01*
X59758500Y-75687964D01*
X60901500Y-75687964D01*
X61050159Y-75658394D01*
X61150000Y-75591683D01*
X61249841Y-75658394D01*
X61398500Y-75687964D01*
X62541500Y-75687964D01*
X62690159Y-75658394D01*
X62790000Y-75591683D01*
X62889841Y-75658394D01*
X63038500Y-75687964D01*
X64181500Y-75687964D01*
X64330159Y-75658394D01*
X64456186Y-75574186D01*
X64499000Y-75510110D01*
X64499000Y-75668631D01*
X64068632Y-76099000D01*
X61462148Y-76099000D01*
X61400000Y-76086638D01*
X61337852Y-76099000D01*
X61153796Y-76135611D01*
X60945074Y-76275074D01*
X60909867Y-76327765D01*
X58616500Y-78621132D01*
X58616500Y-78557750D01*
X58457750Y-78399000D01*
X57537000Y-78399000D01*
X57537000Y-78419000D01*
X57283000Y-78419000D01*
X57283000Y-78399000D01*
X55907000Y-78399000D01*
X55907000Y-78419000D01*
X55653000Y-78419000D01*
X55653000Y-78399000D01*
X54732250Y-78399000D01*
X54611809Y-78519441D01*
X52420133Y-76327765D01*
X52384926Y-76275074D01*
X52176204Y-76135611D01*
X51992148Y-76099000D01*
X51930000Y-76086638D01*
X51867852Y-76099000D01*
X44881368Y-76099000D01*
X44690133Y-75907765D01*
X44654926Y-75855074D01*
X44446204Y-75715611D01*
X44262148Y-75679000D01*
X44200000Y-75666638D01*
X44137852Y-75679000D01*
X44088464Y-75679000D01*
X44088464Y-75569561D01*
X44238327Y-75419699D01*
X44335000Y-75186310D01*
X44335000Y-74895750D01*
X44635500Y-74895750D01*
X44635500Y-75307810D01*
X44732173Y-75541199D01*
X44910802Y-75719827D01*
X45144191Y-75816500D01*
X45302250Y-75816500D01*
X45461000Y-75657750D01*
X45461000Y-74737000D01*
X44794250Y-74737000D01*
X44635500Y-74895750D01*
X44335000Y-74895750D01*
X44335000Y-74595750D01*
X44176250Y-74437000D01*
X42327000Y-74437000D01*
X42327000Y-74457000D01*
X42073000Y-74457000D01*
X42073000Y-74437000D01*
X42053000Y-74437000D01*
X42053000Y-74183000D01*
X42073000Y-74183000D01*
X42073000Y-73083750D01*
X42327000Y-73083750D01*
X42327000Y-74183000D01*
X44176250Y-74183000D01*
X44335000Y-74024250D01*
X44335000Y-73912190D01*
X44635500Y-73912190D01*
X44635500Y-74324250D01*
X44794250Y-74483000D01*
X45461000Y-74483000D01*
X45461000Y-74037750D01*
X45471000Y-74027750D01*
X45471000Y-73107000D01*
X44804250Y-73107000D01*
X44645500Y-73265750D01*
X44645500Y-73677810D01*
X44689042Y-73782929D01*
X44635500Y-73912190D01*
X44335000Y-73912190D01*
X44335000Y-73433690D01*
X44238327Y-73200301D01*
X44059698Y-73021673D01*
X43826309Y-72925000D01*
X42485750Y-72925000D01*
X42327000Y-73083750D01*
X42073000Y-73083750D01*
X41914250Y-72925000D01*
X41072000Y-72925000D01*
X41072000Y-72698464D01*
X43700000Y-72698464D01*
X43848659Y-72668894D01*
X43974686Y-72584686D01*
X44058894Y-72458659D01*
X44088464Y-72310000D01*
X44088464Y-72041000D01*
X44242631Y-72041000D01*
X44290000Y-72050422D01*
X44337369Y-72041000D01*
X44337373Y-72041000D01*
X44477677Y-72013092D01*
X44636781Y-71906781D01*
X44663616Y-71866620D01*
X46119447Y-70410789D01*
X46207244Y-70622749D01*
X46407251Y-70822756D01*
X46668573Y-70931000D01*
X46951427Y-70931000D01*
X47212749Y-70822756D01*
X47412756Y-70622749D01*
X47448689Y-70536000D01*
X48342250Y-70536000D01*
X48398750Y-70592500D01*
X48656907Y-70592500D01*
X48726341Y-70638894D01*
X48875000Y-70668464D01*
X49897000Y-70668464D01*
X49897000Y-70741536D01*
X48875000Y-70741536D01*
X48726341Y-70771106D01*
X48656907Y-70817500D01*
X48398750Y-70817500D01*
X48240000Y-70976250D01*
X48240000Y-71056310D01*
X48336673Y-71289699D01*
X48486536Y-71439561D01*
X48486536Y-71524000D01*
X46871012Y-71524000D01*
X46871012Y-71358599D01*
X46762768Y-71097277D01*
X46562761Y-70897270D01*
X46301439Y-70789026D01*
X46018585Y-70789026D01*
X45757263Y-70897270D01*
X45557256Y-71097277D01*
X45449012Y-71358599D01*
X45449012Y-71641453D01*
X45503708Y-71773500D01*
X45470998Y-71773500D01*
X45470998Y-71932248D01*
X45312250Y-71773500D01*
X45154191Y-71773500D01*
X44920802Y-71870173D01*
X44742173Y-72048801D01*
X44645500Y-72282190D01*
X44645500Y-72694250D01*
X44804250Y-72853000D01*
X45471000Y-72853000D01*
X45471000Y-72833000D01*
X45725000Y-72833000D01*
X45725000Y-72853000D01*
X45745000Y-72853000D01*
X45745000Y-73107000D01*
X45725000Y-73107000D01*
X45725000Y-73552250D01*
X45715000Y-73562250D01*
X45715000Y-74483000D01*
X45735000Y-74483000D01*
X45735000Y-74737000D01*
X45715000Y-74737000D01*
X45715000Y-75657750D01*
X45873750Y-75816500D01*
X46031809Y-75816500D01*
X46265198Y-75719827D01*
X46443827Y-75541199D01*
X46494644Y-75418516D01*
X46519814Y-75456186D01*
X46645841Y-75540394D01*
X46794500Y-75569964D01*
X47429500Y-75569964D01*
X47578159Y-75540394D01*
X47704186Y-75456186D01*
X47788394Y-75330159D01*
X47817069Y-75186000D01*
X48722010Y-75186000D01*
X48726341Y-75188894D01*
X48875000Y-75218464D01*
X50625000Y-75218464D01*
X50773659Y-75188894D01*
X50845913Y-75140615D01*
X50875000Y-75146401D01*
X50927290Y-75136000D01*
X50927294Y-75136000D01*
X51082186Y-75105190D01*
X51257829Y-74987829D01*
X51287452Y-74943495D01*
X51389947Y-74841000D01*
X51491427Y-74841000D01*
X51752749Y-74732756D01*
X51952756Y-74532749D01*
X52061000Y-74271427D01*
X52061000Y-73988573D01*
X51952756Y-73727251D01*
X51752749Y-73527244D01*
X51491427Y-73419000D01*
X51208573Y-73419000D01*
X51133745Y-73449995D01*
X51101250Y-73417500D01*
X50843093Y-73417500D01*
X50773659Y-73371106D01*
X50625000Y-73341536D01*
X48875000Y-73341536D01*
X48726341Y-73371106D01*
X48656907Y-73417500D01*
X48398750Y-73417500D01*
X48240000Y-73576250D01*
X48240000Y-73656310D01*
X48336673Y-73889699D01*
X48470975Y-74024000D01*
X47815080Y-74024000D01*
X47788394Y-73889841D01*
X47730024Y-73802483D01*
X47798394Y-73700159D01*
X47827964Y-73551500D01*
X47827964Y-72486000D01*
X48486536Y-72486000D01*
X48486536Y-72570439D01*
X48336673Y-72720301D01*
X48240000Y-72953690D01*
X48240000Y-73033750D01*
X48398750Y-73192500D01*
X48656907Y-73192500D01*
X48726341Y-73238894D01*
X48875000Y-73268464D01*
X50625000Y-73268464D01*
X50773659Y-73238894D01*
X50843093Y-73192500D01*
X51101250Y-73192500D01*
X51260000Y-73033750D01*
X51260000Y-72953690D01*
X51163327Y-72720301D01*
X51013464Y-72570439D01*
X51013464Y-72430000D01*
X50993573Y-72330000D01*
X51013464Y-72230000D01*
X51013464Y-71936000D01*
X51166324Y-71936000D01*
X51223542Y-71947381D01*
X51280760Y-71936000D01*
X51280764Y-71936000D01*
X51450237Y-71902290D01*
X51642419Y-71773877D01*
X51674834Y-71725365D01*
X52380378Y-71019822D01*
X52428887Y-70987409D01*
X52489117Y-70897270D01*
X52557300Y-70795227D01*
X52562098Y-70771106D01*
X52591010Y-70625754D01*
X52591010Y-70625750D01*
X52602391Y-70568532D01*
X52591010Y-70511314D01*
X52591010Y-68916515D01*
X52657251Y-68982756D01*
X52918573Y-69091000D01*
X53201427Y-69091000D01*
X53462749Y-68982756D01*
X53662756Y-68782749D01*
X53771000Y-68521427D01*
X53771000Y-68496505D01*
X53787251Y-68512756D01*
G36*
X57097000Y-72691536D02*
X56803000Y-72691536D01*
X56803000Y-72618464D01*
X57097000Y-72618464D01*
X57097000Y-72691536D01*
X57097000Y-72691536D01*
G37*
X57097000Y-72691536D02*
X56803000Y-72691536D01*
X56803000Y-72618464D01*
X57097000Y-72618464D01*
X57097000Y-72691536D01*
G36*
X44843814Y-67310186D02*
X44969841Y-67394394D01*
X45118500Y-67423964D01*
X46228939Y-67423964D01*
X46360753Y-67555778D01*
X46261500Y-67536036D01*
X45118500Y-67536036D01*
X44969841Y-67565606D01*
X44843814Y-67649814D01*
X44759606Y-67775841D01*
X44730036Y-67924500D01*
X44730036Y-68559500D01*
X44759606Y-68708159D01*
X44843814Y-68834186D01*
X44969841Y-68918394D01*
X45118500Y-68947964D01*
X46261500Y-68947964D01*
X46410159Y-68918394D01*
X46500000Y-68858365D01*
X46589841Y-68918394D01*
X46618024Y-68924000D01*
X46492367Y-68924000D01*
X46444999Y-68914578D01*
X46397631Y-68924000D01*
X46397627Y-68924000D01*
X46257323Y-68951908D01*
X46098219Y-69058219D01*
X46071384Y-69098380D01*
X44090764Y-71079000D01*
X44088464Y-71079000D01*
X44088464Y-70810000D01*
X44058894Y-70661341D01*
X43974686Y-70535314D01*
X43848659Y-70451106D01*
X43700000Y-70421536D01*
X41072000Y-70421536D01*
X41072000Y-70175000D01*
X41914250Y-70175000D01*
X42073000Y-70016250D01*
X42073000Y-68917000D01*
X42327000Y-68917000D01*
X42327000Y-70016250D01*
X42485750Y-70175000D01*
X43826309Y-70175000D01*
X44059698Y-70078327D01*
X44238327Y-69899699D01*
X44335000Y-69666310D01*
X44335000Y-69075750D01*
X44176250Y-68917000D01*
X42327000Y-68917000D01*
X42073000Y-68917000D01*
X42053000Y-68917000D01*
X42053000Y-68663000D01*
X42073000Y-68663000D01*
X42073000Y-68643000D01*
X42327000Y-68643000D01*
X42327000Y-68663000D01*
X44176250Y-68663000D01*
X44335000Y-68504250D01*
X44335000Y-67913690D01*
X44238327Y-67680301D01*
X44088391Y-67530366D01*
X44088464Y-67530000D01*
X44088464Y-67199000D01*
X44769522Y-67199000D01*
X44843814Y-67310186D01*
X44843814Y-67310186D01*
G37*
X44843814Y-67310186D02*
X44969841Y-67394394D01*
X45118500Y-67423964D01*
X46228939Y-67423964D01*
X46360753Y-67555778D01*
X46261500Y-67536036D01*
X45118500Y-67536036D01*
X44969841Y-67565606D01*
X44843814Y-67649814D01*
X44759606Y-67775841D01*
X44730036Y-67924500D01*
X44730036Y-68559500D01*
X44759606Y-68708159D01*
X44843814Y-68834186D01*
X44969841Y-68918394D01*
X45118500Y-68947964D01*
X46261500Y-68947964D01*
X46410159Y-68918394D01*
X46500000Y-68858365D01*
X46589841Y-68918394D01*
X46618024Y-68924000D01*
X46492367Y-68924000D01*
X46444999Y-68914578D01*
X46397631Y-68924000D01*
X46397627Y-68924000D01*
X46257323Y-68951908D01*
X46098219Y-69058219D01*
X46071384Y-69098380D01*
X44090764Y-71079000D01*
X44088464Y-71079000D01*
X44088464Y-70810000D01*
X44058894Y-70661341D01*
X43974686Y-70535314D01*
X43848659Y-70451106D01*
X43700000Y-70421536D01*
X41072000Y-70421536D01*
X41072000Y-70175000D01*
X41914250Y-70175000D01*
X42073000Y-70016250D01*
X42073000Y-68917000D01*
X42327000Y-68917000D01*
X42327000Y-70016250D01*
X42485750Y-70175000D01*
X43826309Y-70175000D01*
X44059698Y-70078327D01*
X44238327Y-69899699D01*
X44335000Y-69666310D01*
X44335000Y-69075750D01*
X44176250Y-68917000D01*
X42327000Y-68917000D01*
X42073000Y-68917000D01*
X42053000Y-68917000D01*
X42053000Y-68663000D01*
X42073000Y-68663000D01*
X42073000Y-68643000D01*
X42327000Y-68643000D01*
X42327000Y-68663000D01*
X44176250Y-68663000D01*
X44335000Y-68504250D01*
X44335000Y-67913690D01*
X44238327Y-67680301D01*
X44088391Y-67530366D01*
X44088464Y-67530000D01*
X44088464Y-67199000D01*
X44769522Y-67199000D01*
X44843814Y-67310186D01*
G36*
X48301536Y-57880000D02*
X48321427Y-57980000D01*
X48301536Y-58080000D01*
X48301536Y-58530000D01*
X48321427Y-58630000D01*
X48301536Y-58730000D01*
X48301536Y-59124000D01*
X48242367Y-59124000D01*
X48194999Y-59114578D01*
X48147631Y-59124000D01*
X48147627Y-59124000D01*
X48007323Y-59151908D01*
X47848219Y-59258219D01*
X47821384Y-59298380D01*
X47530764Y-59589000D01*
X47358573Y-59589000D01*
X47097251Y-59697244D01*
X46897244Y-59897251D01*
X46789000Y-60158573D01*
X46789000Y-60441427D01*
X46897244Y-60702749D01*
X47097251Y-60902756D01*
X47358573Y-61011000D01*
X47641427Y-61011000D01*
X47902749Y-60902756D01*
X48102756Y-60702749D01*
X48211000Y-60441427D01*
X48211000Y-60269236D01*
X48301536Y-60178700D01*
X48301536Y-60480000D01*
X48321427Y-60580000D01*
X48301536Y-60680000D01*
X48301536Y-60820439D01*
X48151673Y-60970301D01*
X48055000Y-61203690D01*
X48055000Y-61283750D01*
X48213750Y-61442500D01*
X48471907Y-61442500D01*
X48541341Y-61488894D01*
X48690000Y-61518464D01*
X50190000Y-61518464D01*
X50338659Y-61488894D01*
X50408093Y-61442500D01*
X50666250Y-61442500D01*
X50825000Y-61283750D01*
X50825000Y-61203690D01*
X50728327Y-60970301D01*
X50578464Y-60820439D01*
X50578464Y-60680000D01*
X50558573Y-60580000D01*
X50578464Y-60480000D01*
X50578464Y-60030000D01*
X50558573Y-59930000D01*
X50578464Y-59830000D01*
X50578464Y-59545086D01*
X50590000Y-59547381D01*
X50647218Y-59536000D01*
X50647222Y-59536000D01*
X50816695Y-59502290D01*
X51008877Y-59373877D01*
X51041292Y-59325365D01*
X51280366Y-59086291D01*
X51328877Y-59053877D01*
X51429011Y-58904017D01*
X51429010Y-62772772D01*
X51417629Y-62829990D01*
X51429010Y-62887208D01*
X51429010Y-62887211D01*
X51429011Y-62887216D01*
X51429011Y-63961019D01*
X51385841Y-63969606D01*
X51259814Y-64053814D01*
X51234644Y-64091484D01*
X51183827Y-63968801D01*
X51005198Y-63790173D01*
X50771809Y-63693500D01*
X50613750Y-63693500D01*
X50455000Y-63852250D01*
X50455000Y-64773000D01*
X50475000Y-64773000D01*
X50475000Y-65027000D01*
X50455000Y-65027000D01*
X50455000Y-66403000D01*
X50475000Y-66403000D01*
X50475000Y-66657000D01*
X50455000Y-66657000D01*
X50455000Y-67577750D01*
X50613750Y-67736500D01*
X50771809Y-67736500D01*
X51005198Y-67639827D01*
X51183827Y-67461199D01*
X51234644Y-67338516D01*
X51259814Y-67376186D01*
X51385841Y-67460394D01*
X51429010Y-67468981D01*
X51429010Y-70327874D01*
X51178887Y-70577998D01*
X51115752Y-70577998D01*
X51260000Y-70433750D01*
X51260000Y-70353690D01*
X51163327Y-70120301D01*
X51013464Y-69970439D01*
X51013464Y-69830000D01*
X50993573Y-69730000D01*
X51013464Y-69630000D01*
X51013464Y-69180000D01*
X50993573Y-69080000D01*
X51013464Y-68980000D01*
X51013464Y-68530000D01*
X50983894Y-68381341D01*
X50899686Y-68255314D01*
X50773659Y-68171106D01*
X50625000Y-68141536D01*
X48875000Y-68141536D01*
X48726341Y-68171106D01*
X48600314Y-68255314D01*
X48587828Y-68274000D01*
X48269964Y-68274000D01*
X48269964Y-67924500D01*
X48240394Y-67775841D01*
X48156186Y-67649814D01*
X48118516Y-67624644D01*
X48241199Y-67573827D01*
X48419827Y-67395198D01*
X48516500Y-67161809D01*
X48516500Y-67003750D01*
X48357750Y-66845000D01*
X47437000Y-66845000D01*
X47437000Y-66865000D01*
X47183000Y-66865000D01*
X47183000Y-66845000D01*
X47163000Y-66845000D01*
X47163000Y-66815750D01*
X49375500Y-66815750D01*
X49375500Y-67227810D01*
X49472173Y-67461199D01*
X49650802Y-67639827D01*
X49884191Y-67736500D01*
X50042250Y-67736500D01*
X50201000Y-67577750D01*
X50201000Y-66657000D01*
X49534250Y-66657000D01*
X49375500Y-66815750D01*
X47163000Y-66815750D01*
X47163000Y-66591000D01*
X47183000Y-66591000D01*
X47183000Y-65924250D01*
X47437000Y-65924250D01*
X47437000Y-66591000D01*
X48357750Y-66591000D01*
X48516500Y-66432250D01*
X48516500Y-66274191D01*
X48419827Y-66040802D01*
X48241199Y-65862173D01*
X48007810Y-65765500D01*
X47595750Y-65765500D01*
X47437000Y-65924250D01*
X47183000Y-65924250D01*
X47024250Y-65765500D01*
X46612190Y-65765500D01*
X46378801Y-65862173D01*
X46228939Y-66012036D01*
X45118500Y-66012036D01*
X44969841Y-66041606D01*
X44843814Y-66125814D01*
X44769522Y-66237000D01*
X44088464Y-66237000D01*
X44088464Y-66030000D01*
X44058894Y-65881341D01*
X43974686Y-65755314D01*
X43848659Y-65671106D01*
X43700000Y-65641536D01*
X41072000Y-65641536D01*
X41072000Y-65405000D01*
X41914250Y-65405000D01*
X42073000Y-65246250D01*
X42073000Y-64147000D01*
X42327000Y-64147000D01*
X42327000Y-65246250D01*
X42485750Y-65405000D01*
X43826309Y-65405000D01*
X44059698Y-65308327D01*
X44182275Y-65185750D01*
X49375500Y-65185750D01*
X49375500Y-65597810D01*
X49424042Y-65715000D01*
X49375500Y-65832190D01*
X49375500Y-66244250D01*
X49534250Y-66403000D01*
X50201000Y-66403000D01*
X50201000Y-65027000D01*
X49534250Y-65027000D01*
X49375500Y-65185750D01*
X44182275Y-65185750D01*
X44238327Y-65129699D01*
X44335000Y-64896310D01*
X44335000Y-64305750D01*
X44231440Y-64202190D01*
X49375500Y-64202190D01*
X49375500Y-64614250D01*
X49534250Y-64773000D01*
X50201000Y-64773000D01*
X50201000Y-63852250D01*
X50042250Y-63693500D01*
X49884191Y-63693500D01*
X49650802Y-63790173D01*
X49472173Y-63968801D01*
X49375500Y-64202190D01*
X44231440Y-64202190D01*
X44176250Y-64147000D01*
X42327000Y-64147000D01*
X42073000Y-64147000D01*
X42053000Y-64147000D01*
X42053000Y-63893000D01*
X42073000Y-63893000D01*
X42073000Y-63873000D01*
X42327000Y-63873000D01*
X42327000Y-63893000D01*
X44176250Y-63893000D01*
X44335000Y-63734250D01*
X44335000Y-63143690D01*
X44238327Y-62910301D01*
X44081755Y-62753730D01*
X44088464Y-62720000D01*
X44088464Y-62451000D01*
X45040764Y-62451000D01*
X45089000Y-62499236D01*
X45089000Y-62671427D01*
X45197244Y-62932749D01*
X45397251Y-63132756D01*
X45658573Y-63241000D01*
X45941427Y-63241000D01*
X46202749Y-63132756D01*
X46402756Y-62932749D01*
X46511000Y-62671427D01*
X46511000Y-62388573D01*
X46402756Y-62127251D01*
X46202749Y-61927244D01*
X45958930Y-61826250D01*
X48055000Y-61826250D01*
X48055000Y-61906310D01*
X48151673Y-62139699D01*
X48330302Y-62318327D01*
X48563691Y-62415000D01*
X49154250Y-62415000D01*
X49313000Y-62256250D01*
X49313000Y-61667500D01*
X49567000Y-61667500D01*
X49567000Y-62256250D01*
X49725750Y-62415000D01*
X50316309Y-62415000D01*
X50549698Y-62318327D01*
X50728327Y-62139699D01*
X50825000Y-61906310D01*
X50825000Y-61826250D01*
X50666250Y-61667500D01*
X49567000Y-61667500D01*
X49313000Y-61667500D01*
X48213750Y-61667500D01*
X48055000Y-61826250D01*
X45958930Y-61826250D01*
X45941427Y-61819000D01*
X45769236Y-61819000D01*
X45613616Y-61663380D01*
X45586781Y-61623219D01*
X45427677Y-61516908D01*
X45287373Y-61489000D01*
X45287369Y-61489000D01*
X45240000Y-61479578D01*
X45192631Y-61489000D01*
X44088464Y-61489000D01*
X44088464Y-61220000D01*
X44058894Y-61071341D01*
X43974686Y-60945314D01*
X43966733Y-60940000D01*
X43974686Y-60934686D01*
X44058894Y-60808659D01*
X44088464Y-60660000D01*
X44088464Y-60391000D01*
X44652631Y-60391000D01*
X44700000Y-60400422D01*
X44747369Y-60391000D01*
X44747373Y-60391000D01*
X44887677Y-60363092D01*
X45046781Y-60256781D01*
X45073616Y-60216620D01*
X47804236Y-57486000D01*
X48301536Y-57486000D01*
X48301536Y-57880000D01*
X48301536Y-57880000D01*
G37*
X48301536Y-57880000D02*
X48321427Y-57980000D01*
X48301536Y-58080000D01*
X48301536Y-58530000D01*
X48321427Y-58630000D01*
X48301536Y-58730000D01*
X48301536Y-59124000D01*
X48242367Y-59124000D01*
X48194999Y-59114578D01*
X48147631Y-59124000D01*
X48147627Y-59124000D01*
X48007323Y-59151908D01*
X47848219Y-59258219D01*
X47821384Y-59298380D01*
X47530764Y-59589000D01*
X47358573Y-59589000D01*
X47097251Y-59697244D01*
X46897244Y-59897251D01*
X46789000Y-60158573D01*
X46789000Y-60441427D01*
X46897244Y-60702749D01*
X47097251Y-60902756D01*
X47358573Y-61011000D01*
X47641427Y-61011000D01*
X47902749Y-60902756D01*
X48102756Y-60702749D01*
X48211000Y-60441427D01*
X48211000Y-60269236D01*
X48301536Y-60178700D01*
X48301536Y-60480000D01*
X48321427Y-60580000D01*
X48301536Y-60680000D01*
X48301536Y-60820439D01*
X48151673Y-60970301D01*
X48055000Y-61203690D01*
X48055000Y-61283750D01*
X48213750Y-61442500D01*
X48471907Y-61442500D01*
X48541341Y-61488894D01*
X48690000Y-61518464D01*
X50190000Y-61518464D01*
X50338659Y-61488894D01*
X50408093Y-61442500D01*
X50666250Y-61442500D01*
X50825000Y-61283750D01*
X50825000Y-61203690D01*
X50728327Y-60970301D01*
X50578464Y-60820439D01*
X50578464Y-60680000D01*
X50558573Y-60580000D01*
X50578464Y-60480000D01*
X50578464Y-60030000D01*
X50558573Y-59930000D01*
X50578464Y-59830000D01*
X50578464Y-59545086D01*
X50590000Y-59547381D01*
X50647218Y-59536000D01*
X50647222Y-59536000D01*
X50816695Y-59502290D01*
X51008877Y-59373877D01*
X51041292Y-59325365D01*
X51280366Y-59086291D01*
X51328877Y-59053877D01*
X51429011Y-58904017D01*
X51429010Y-62772772D01*
X51417629Y-62829990D01*
X51429010Y-62887208D01*
X51429010Y-62887211D01*
X51429011Y-62887216D01*
X51429011Y-63961019D01*
X51385841Y-63969606D01*
X51259814Y-64053814D01*
X51234644Y-64091484D01*
X51183827Y-63968801D01*
X51005198Y-63790173D01*
X50771809Y-63693500D01*
X50613750Y-63693500D01*
X50455000Y-63852250D01*
X50455000Y-64773000D01*
X50475000Y-64773000D01*
X50475000Y-65027000D01*
X50455000Y-65027000D01*
X50455000Y-66403000D01*
X50475000Y-66403000D01*
X50475000Y-66657000D01*
X50455000Y-66657000D01*
X50455000Y-67577750D01*
X50613750Y-67736500D01*
X50771809Y-67736500D01*
X51005198Y-67639827D01*
X51183827Y-67461199D01*
X51234644Y-67338516D01*
X51259814Y-67376186D01*
X51385841Y-67460394D01*
X51429010Y-67468981D01*
X51429010Y-70327874D01*
X51178887Y-70577998D01*
X51115752Y-70577998D01*
X51260000Y-70433750D01*
X51260000Y-70353690D01*
X51163327Y-70120301D01*
X51013464Y-69970439D01*
X51013464Y-69830000D01*
X50993573Y-69730000D01*
X51013464Y-69630000D01*
X51013464Y-69180000D01*
X50993573Y-69080000D01*
X51013464Y-68980000D01*
X51013464Y-68530000D01*
X50983894Y-68381341D01*
X50899686Y-68255314D01*
X50773659Y-68171106D01*
X50625000Y-68141536D01*
X48875000Y-68141536D01*
X48726341Y-68171106D01*
X48600314Y-68255314D01*
X48587828Y-68274000D01*
X48269964Y-68274000D01*
X48269964Y-67924500D01*
X48240394Y-67775841D01*
X48156186Y-67649814D01*
X48118516Y-67624644D01*
X48241199Y-67573827D01*
X48419827Y-67395198D01*
X48516500Y-67161809D01*
X48516500Y-67003750D01*
X48357750Y-66845000D01*
X47437000Y-66845000D01*
X47437000Y-66865000D01*
X47183000Y-66865000D01*
X47183000Y-66845000D01*
X47163000Y-66845000D01*
X47163000Y-66815750D01*
X49375500Y-66815750D01*
X49375500Y-67227810D01*
X49472173Y-67461199D01*
X49650802Y-67639827D01*
X49884191Y-67736500D01*
X50042250Y-67736500D01*
X50201000Y-67577750D01*
X50201000Y-66657000D01*
X49534250Y-66657000D01*
X49375500Y-66815750D01*
X47163000Y-66815750D01*
X47163000Y-66591000D01*
X47183000Y-66591000D01*
X47183000Y-65924250D01*
X47437000Y-65924250D01*
X47437000Y-66591000D01*
X48357750Y-66591000D01*
X48516500Y-66432250D01*
X48516500Y-66274191D01*
X48419827Y-66040802D01*
X48241199Y-65862173D01*
X48007810Y-65765500D01*
X47595750Y-65765500D01*
X47437000Y-65924250D01*
X47183000Y-65924250D01*
X47024250Y-65765500D01*
X46612190Y-65765500D01*
X46378801Y-65862173D01*
X46228939Y-66012036D01*
X45118500Y-66012036D01*
X44969841Y-66041606D01*
X44843814Y-66125814D01*
X44769522Y-66237000D01*
X44088464Y-66237000D01*
X44088464Y-66030000D01*
X44058894Y-65881341D01*
X43974686Y-65755314D01*
X43848659Y-65671106D01*
X43700000Y-65641536D01*
X41072000Y-65641536D01*
X41072000Y-65405000D01*
X41914250Y-65405000D01*
X42073000Y-65246250D01*
X42073000Y-64147000D01*
X42327000Y-64147000D01*
X42327000Y-65246250D01*
X42485750Y-65405000D01*
X43826309Y-65405000D01*
X44059698Y-65308327D01*
X44182275Y-65185750D01*
X49375500Y-65185750D01*
X49375500Y-65597810D01*
X49424042Y-65715000D01*
X49375500Y-65832190D01*
X49375500Y-66244250D01*
X49534250Y-66403000D01*
X50201000Y-66403000D01*
X50201000Y-65027000D01*
X49534250Y-65027000D01*
X49375500Y-65185750D01*
X44182275Y-65185750D01*
X44238327Y-65129699D01*
X44335000Y-64896310D01*
X44335000Y-64305750D01*
X44231440Y-64202190D01*
X49375500Y-64202190D01*
X49375500Y-64614250D01*
X49534250Y-64773000D01*
X50201000Y-64773000D01*
X50201000Y-63852250D01*
X50042250Y-63693500D01*
X49884191Y-63693500D01*
X49650802Y-63790173D01*
X49472173Y-63968801D01*
X49375500Y-64202190D01*
X44231440Y-64202190D01*
X44176250Y-64147000D01*
X42327000Y-64147000D01*
X42073000Y-64147000D01*
X42053000Y-64147000D01*
X42053000Y-63893000D01*
X42073000Y-63893000D01*
X42073000Y-63873000D01*
X42327000Y-63873000D01*
X42327000Y-63893000D01*
X44176250Y-63893000D01*
X44335000Y-63734250D01*
X44335000Y-63143690D01*
X44238327Y-62910301D01*
X44081755Y-62753730D01*
X44088464Y-62720000D01*
X44088464Y-62451000D01*
X45040764Y-62451000D01*
X45089000Y-62499236D01*
X45089000Y-62671427D01*
X45197244Y-62932749D01*
X45397251Y-63132756D01*
X45658573Y-63241000D01*
X45941427Y-63241000D01*
X46202749Y-63132756D01*
X46402756Y-62932749D01*
X46511000Y-62671427D01*
X46511000Y-62388573D01*
X46402756Y-62127251D01*
X46202749Y-61927244D01*
X45958930Y-61826250D01*
X48055000Y-61826250D01*
X48055000Y-61906310D01*
X48151673Y-62139699D01*
X48330302Y-62318327D01*
X48563691Y-62415000D01*
X49154250Y-62415000D01*
X49313000Y-62256250D01*
X49313000Y-61667500D01*
X49567000Y-61667500D01*
X49567000Y-62256250D01*
X49725750Y-62415000D01*
X50316309Y-62415000D01*
X50549698Y-62318327D01*
X50728327Y-62139699D01*
X50825000Y-61906310D01*
X50825000Y-61826250D01*
X50666250Y-61667500D01*
X49567000Y-61667500D01*
X49313000Y-61667500D01*
X48213750Y-61667500D01*
X48055000Y-61826250D01*
X45958930Y-61826250D01*
X45941427Y-61819000D01*
X45769236Y-61819000D01*
X45613616Y-61663380D01*
X45586781Y-61623219D01*
X45427677Y-61516908D01*
X45287373Y-61489000D01*
X45287369Y-61489000D01*
X45240000Y-61479578D01*
X45192631Y-61489000D01*
X44088464Y-61489000D01*
X44088464Y-61220000D01*
X44058894Y-61071341D01*
X43974686Y-60945314D01*
X43966733Y-60940000D01*
X43974686Y-60934686D01*
X44058894Y-60808659D01*
X44088464Y-60660000D01*
X44088464Y-60391000D01*
X44652631Y-60391000D01*
X44700000Y-60400422D01*
X44747369Y-60391000D01*
X44747373Y-60391000D01*
X44887677Y-60363092D01*
X45046781Y-60256781D01*
X45073616Y-60216620D01*
X47804236Y-57486000D01*
X48301536Y-57486000D01*
X48301536Y-57880000D01*
G36*
X57023500Y-58208191D02*
X57023500Y-58366250D01*
X57182250Y-58525000D01*
X58103000Y-58525000D01*
X58103000Y-58505000D01*
X58357000Y-58505000D01*
X58357000Y-58525000D01*
X58377000Y-58525000D01*
X58377000Y-58779000D01*
X58357000Y-58779000D01*
X58357000Y-59445750D01*
X58515750Y-59604500D01*
X58850501Y-59604500D01*
X58850501Y-60397130D01*
X55525762Y-63721870D01*
X55473075Y-63757074D01*
X55333611Y-63965796D01*
X55333611Y-63965797D01*
X55307748Y-64095818D01*
X55251606Y-64179841D01*
X55222036Y-64328500D01*
X55222036Y-65471500D01*
X55251606Y-65620159D01*
X55307001Y-65703063D01*
X55307000Y-65741903D01*
X55296659Y-65757380D01*
X55254186Y-65693814D01*
X55128159Y-65609606D01*
X54979500Y-65580036D01*
X54344500Y-65580036D01*
X54195841Y-65609606D01*
X54069814Y-65693814D01*
X53985606Y-65819841D01*
X53956036Y-65968500D01*
X53956036Y-67111500D01*
X53979160Y-67227752D01*
X53787251Y-67307244D01*
X53774238Y-67320257D01*
X53814394Y-67260159D01*
X53843964Y-67111500D01*
X53843964Y-65968500D01*
X53814394Y-65819841D01*
X53730186Y-65693814D01*
X53604159Y-65609606D01*
X53455500Y-65580036D01*
X52820500Y-65580036D01*
X52671841Y-65609606D01*
X52591010Y-65663615D01*
X52591010Y-63070647D01*
X54175658Y-61486000D01*
X54201536Y-61486000D01*
X54201536Y-61780000D01*
X54231106Y-61928659D01*
X54315314Y-62054686D01*
X54441341Y-62138894D01*
X54590000Y-62168464D01*
X56090000Y-62168464D01*
X56238659Y-62138894D01*
X56364686Y-62054686D01*
X56448894Y-61928659D01*
X56478464Y-61780000D01*
X56478464Y-61330000D01*
X56458573Y-61230000D01*
X56478464Y-61130000D01*
X56478464Y-60989561D01*
X56628327Y-60839699D01*
X56725000Y-60606310D01*
X56725000Y-60526250D01*
X56566250Y-60367500D01*
X56450525Y-60367500D01*
X56628327Y-60189699D01*
X56705597Y-60003153D01*
X56725000Y-59983750D01*
X56725000Y-59876250D01*
X56705597Y-59856847D01*
X56628327Y-59670301D01*
X56563026Y-59605000D01*
X56628327Y-59539699D01*
X56705597Y-59353153D01*
X56725000Y-59333750D01*
X56725000Y-59226250D01*
X56705597Y-59206847D01*
X56628327Y-59020301D01*
X56563026Y-58955000D01*
X56580276Y-58937750D01*
X57023500Y-58937750D01*
X57023500Y-59095809D01*
X57120173Y-59329198D01*
X57298801Y-59507827D01*
X57532190Y-59604500D01*
X57944250Y-59604500D01*
X58103000Y-59445750D01*
X58103000Y-58779000D01*
X57182250Y-58779000D01*
X57023500Y-58937750D01*
X56580276Y-58937750D01*
X56628327Y-58889699D01*
X56705597Y-58703153D01*
X56725000Y-58683750D01*
X56725000Y-58576250D01*
X56705597Y-58556847D01*
X56628327Y-58370301D01*
X56494025Y-58236000D01*
X56662782Y-58236000D01*
X56720000Y-58247381D01*
X56777218Y-58236000D01*
X56777222Y-58236000D01*
X56946695Y-58202290D01*
X57056272Y-58129072D01*
X57023500Y-58208191D01*
X57023500Y-58208191D01*
G37*
X57023500Y-58208191D02*
X57023500Y-58366250D01*
X57182250Y-58525000D01*
X58103000Y-58525000D01*
X58103000Y-58505000D01*
X58357000Y-58505000D01*
X58357000Y-58525000D01*
X58377000Y-58525000D01*
X58377000Y-58779000D01*
X58357000Y-58779000D01*
X58357000Y-59445750D01*
X58515750Y-59604500D01*
X58850501Y-59604500D01*
X58850501Y-60397130D01*
X55525762Y-63721870D01*
X55473075Y-63757074D01*
X55333611Y-63965796D01*
X55333611Y-63965797D01*
X55307748Y-64095818D01*
X55251606Y-64179841D01*
X55222036Y-64328500D01*
X55222036Y-65471500D01*
X55251606Y-65620159D01*
X55307001Y-65703063D01*
X55307000Y-65741903D01*
X55296659Y-65757380D01*
X55254186Y-65693814D01*
X55128159Y-65609606D01*
X54979500Y-65580036D01*
X54344500Y-65580036D01*
X54195841Y-65609606D01*
X54069814Y-65693814D01*
X53985606Y-65819841D01*
X53956036Y-65968500D01*
X53956036Y-67111500D01*
X53979160Y-67227752D01*
X53787251Y-67307244D01*
X53774238Y-67320257D01*
X53814394Y-67260159D01*
X53843964Y-67111500D01*
X53843964Y-65968500D01*
X53814394Y-65819841D01*
X53730186Y-65693814D01*
X53604159Y-65609606D01*
X53455500Y-65580036D01*
X52820500Y-65580036D01*
X52671841Y-65609606D01*
X52591010Y-65663615D01*
X52591010Y-63070647D01*
X54175658Y-61486000D01*
X54201536Y-61486000D01*
X54201536Y-61780000D01*
X54231106Y-61928659D01*
X54315314Y-62054686D01*
X54441341Y-62138894D01*
X54590000Y-62168464D01*
X56090000Y-62168464D01*
X56238659Y-62138894D01*
X56364686Y-62054686D01*
X56448894Y-61928659D01*
X56478464Y-61780000D01*
X56478464Y-61330000D01*
X56458573Y-61230000D01*
X56478464Y-61130000D01*
X56478464Y-60989561D01*
X56628327Y-60839699D01*
X56725000Y-60606310D01*
X56725000Y-60526250D01*
X56566250Y-60367500D01*
X56450525Y-60367500D01*
X56628327Y-60189699D01*
X56705597Y-60003153D01*
X56725000Y-59983750D01*
X56725000Y-59876250D01*
X56705597Y-59856847D01*
X56628327Y-59670301D01*
X56563026Y-59605000D01*
X56628327Y-59539699D01*
X56705597Y-59353153D01*
X56725000Y-59333750D01*
X56725000Y-59226250D01*
X56705597Y-59206847D01*
X56628327Y-59020301D01*
X56563026Y-58955000D01*
X56580276Y-58937750D01*
X57023500Y-58937750D01*
X57023500Y-59095809D01*
X57120173Y-59329198D01*
X57298801Y-59507827D01*
X57532190Y-59604500D01*
X57944250Y-59604500D01*
X58103000Y-59445750D01*
X58103000Y-58779000D01*
X57182250Y-58779000D01*
X57023500Y-58937750D01*
X56580276Y-58937750D01*
X56628327Y-58889699D01*
X56705597Y-58703153D01*
X56725000Y-58683750D01*
X56725000Y-58576250D01*
X56705597Y-58556847D01*
X56628327Y-58370301D01*
X56494025Y-58236000D01*
X56662782Y-58236000D01*
X56720000Y-58247381D01*
X56777218Y-58236000D01*
X56777222Y-58236000D01*
X56946695Y-58202290D01*
X57056272Y-58129072D01*
X57023500Y-58208191D01*
G36*
X53974403Y-58556847D02*
X53955000Y-58576250D01*
X53955000Y-58683750D01*
X53974403Y-58703153D01*
X54051673Y-58889699D01*
X54116974Y-58955000D01*
X54051673Y-59020301D01*
X53974403Y-59206847D01*
X53955000Y-59226250D01*
X53955000Y-59333750D01*
X53974403Y-59353153D01*
X54051673Y-59539699D01*
X54116974Y-59605000D01*
X54051673Y-59670301D01*
X53974403Y-59856847D01*
X53955000Y-59876250D01*
X53955000Y-59983750D01*
X53974403Y-60003153D01*
X54051673Y-60189699D01*
X54185975Y-60324000D01*
X54082630Y-60324000D01*
X53950000Y-60297619D01*
X53949999Y-60297619D01*
X53906608Y-60306250D01*
X53723306Y-60342710D01*
X53723305Y-60342711D01*
X53723304Y-60342711D01*
X53579632Y-60438710D01*
X53531123Y-60471123D01*
X53498711Y-60519631D01*
X52591010Y-61427332D01*
X52591010Y-58645647D01*
X52670658Y-58566000D01*
X53802782Y-58566000D01*
X53860000Y-58577381D01*
X53917218Y-58566000D01*
X53917222Y-58566000D01*
X53975406Y-58554427D01*
X53974403Y-58556847D01*
X53974403Y-58556847D01*
G37*
X53974403Y-58556847D02*
X53955000Y-58576250D01*
X53955000Y-58683750D01*
X53974403Y-58703153D01*
X54051673Y-58889699D01*
X54116974Y-58955000D01*
X54051673Y-59020301D01*
X53974403Y-59206847D01*
X53955000Y-59226250D01*
X53955000Y-59333750D01*
X53974403Y-59353153D01*
X54051673Y-59539699D01*
X54116974Y-59605000D01*
X54051673Y-59670301D01*
X53974403Y-59856847D01*
X53955000Y-59876250D01*
X53955000Y-59983750D01*
X53974403Y-60003153D01*
X54051673Y-60189699D01*
X54185975Y-60324000D01*
X54082630Y-60324000D01*
X53950000Y-60297619D01*
X53949999Y-60297619D01*
X53906608Y-60306250D01*
X53723306Y-60342710D01*
X53723305Y-60342711D01*
X53723304Y-60342711D01*
X53579632Y-60438710D01*
X53531123Y-60471123D01*
X53498711Y-60519631D01*
X52591010Y-61427332D01*
X52591010Y-58645647D01*
X52670658Y-58566000D01*
X53802782Y-58566000D01*
X53860000Y-58577381D01*
X53917218Y-58566000D01*
X53917222Y-58566000D01*
X53975406Y-58554427D01*
X53974403Y-58556847D01*
G36*
X55467000Y-59752000D02*
X55213000Y-59752000D01*
X55213000Y-58808000D01*
X55467000Y-58808000D01*
X55467000Y-59752000D01*
X55467000Y-59752000D01*
G37*
X55467000Y-59752000D02*
X55213000Y-59752000D01*
X55213000Y-58808000D01*
X55467000Y-58808000D01*
X55467000Y-59752000D01*
G36*
X55759668Y-56391536D02*
X54590000Y-56391536D01*
X54441341Y-56421106D01*
X54315314Y-56505314D01*
X54231106Y-56631341D01*
X54201536Y-56780000D01*
X54201536Y-57064914D01*
X54189999Y-57062619D01*
X54132782Y-57074000D01*
X54132778Y-57074000D01*
X53963305Y-57107710D01*
X53771123Y-57236123D01*
X53738709Y-57284634D01*
X53619343Y-57404000D01*
X52487218Y-57404000D01*
X52430000Y-57392619D01*
X52372782Y-57404000D01*
X51160657Y-57404000D01*
X51041291Y-57284634D01*
X51008877Y-57236123D01*
X50816695Y-57107710D01*
X50647222Y-57074000D01*
X50647218Y-57074000D01*
X50590000Y-57062619D01*
X50578464Y-57064914D01*
X50578464Y-56780000D01*
X50548894Y-56631341D01*
X50464686Y-56505314D01*
X50338659Y-56421106D01*
X50190000Y-56391536D01*
X48690000Y-56391536D01*
X48541341Y-56421106D01*
X48415314Y-56505314D01*
X48402828Y-56524000D01*
X47652367Y-56524000D01*
X47604999Y-56514578D01*
X47557631Y-56524000D01*
X47557627Y-56524000D01*
X47417323Y-56551908D01*
X47258219Y-56658219D01*
X47231384Y-56698380D01*
X44500764Y-59429000D01*
X44088464Y-59429000D01*
X44088464Y-59160000D01*
X44058894Y-59011341D01*
X43974686Y-58885314D01*
X43848659Y-58801106D01*
X43700000Y-58771536D01*
X41072000Y-58771536D01*
X41072000Y-58128464D01*
X43700000Y-58128464D01*
X43848659Y-58098894D01*
X43974686Y-58014686D01*
X44058894Y-57888659D01*
X44088464Y-57740000D01*
X44088464Y-57621000D01*
X44137852Y-57621000D01*
X44200000Y-57633362D01*
X44262148Y-57621000D01*
X44446204Y-57584389D01*
X44654926Y-57444926D01*
X44690132Y-57392236D01*
X45711369Y-56371000D01*
X55739132Y-56371000D01*
X55759668Y-56391536D01*
X55759668Y-56391536D01*
G37*
X55759668Y-56391536D02*
X54590000Y-56391536D01*
X54441341Y-56421106D01*
X54315314Y-56505314D01*
X54231106Y-56631341D01*
X54201536Y-56780000D01*
X54201536Y-57064914D01*
X54189999Y-57062619D01*
X54132782Y-57074000D01*
X54132778Y-57074000D01*
X53963305Y-57107710D01*
X53771123Y-57236123D01*
X53738709Y-57284634D01*
X53619343Y-57404000D01*
X52487218Y-57404000D01*
X52430000Y-57392619D01*
X52372782Y-57404000D01*
X51160657Y-57404000D01*
X51041291Y-57284634D01*
X51008877Y-57236123D01*
X50816695Y-57107710D01*
X50647222Y-57074000D01*
X50647218Y-57074000D01*
X50590000Y-57062619D01*
X50578464Y-57064914D01*
X50578464Y-56780000D01*
X50548894Y-56631341D01*
X50464686Y-56505314D01*
X50338659Y-56421106D01*
X50190000Y-56391536D01*
X48690000Y-56391536D01*
X48541341Y-56421106D01*
X48415314Y-56505314D01*
X48402828Y-56524000D01*
X47652367Y-56524000D01*
X47604999Y-56514578D01*
X47557631Y-56524000D01*
X47557627Y-56524000D01*
X47417323Y-56551908D01*
X47258219Y-56658219D01*
X47231384Y-56698380D01*
X44500764Y-59429000D01*
X44088464Y-59429000D01*
X44088464Y-59160000D01*
X44058894Y-59011341D01*
X43974686Y-58885314D01*
X43848659Y-58801106D01*
X43700000Y-58771536D01*
X41072000Y-58771536D01*
X41072000Y-58128464D01*
X43700000Y-58128464D01*
X43848659Y-58098894D01*
X43974686Y-58014686D01*
X44058894Y-57888659D01*
X44088464Y-57740000D01*
X44088464Y-57621000D01*
X44137852Y-57621000D01*
X44200000Y-57633362D01*
X44262148Y-57621000D01*
X44446204Y-57584389D01*
X44654926Y-57444926D01*
X44690132Y-57392236D01*
X45711369Y-56371000D01*
X55739132Y-56371000D01*
X55759668Y-56391536D01*
G04 #@! TD*
M02*
