M48
; DRILL file {KiCad 5.1.2+dfsg1-1} date 2019-07-23T12:51:58 EEST
; FORMAT={-:-/ absolute / inch / decimal}
; #@! TF.CreationDate,2019-07-23T12:51:58+03:00
; #@! TF.GenerationSoftware,Kicad,Pcbnew,5.1.2+dfsg1-1
FMAT,2
INCH
T1C0.0130
T2C0.0315
%
G90
G05
T1
X1.6555Y-1.9067
X1.661Y-1.9488
X1.6803Y-3.0791
X1.7169Y-2.1772
X1.7835Y-2.5201
X1.7835Y-2.7378
X1.7835Y-2.8165
X1.789Y-2.2976
X1.8031Y-2.4618
X1.8047Y-2.4197
X1.8173Y-2.815
X1.8429Y-2.7646
X1.8689Y-2.3122
X1.8701Y-2.374
X1.9815Y-2.178
X2.0075Y-2.4555
X2.0173Y-1.9913
X2.0217Y-2.9185
X2.0394Y-2.1776
X2.0665Y-1.9583
X2.0843Y-2.9185
X2.0858Y-2.3425
X2.0862Y-2.2531
X2.089Y-2.6921
X2.0996Y-2.178
X2.1039Y-1.9335
X2.122Y-2.4768
X2.1237Y-1.9844
X2.1335Y-2.6736
X2.1382Y-1.8949
X2.1528Y-3.3319
X2.1535Y-3.2614
X2.1571Y-2.178
X2.176Y-1.8949
X2.1827Y-2.824
X2.187Y-3.3654
X2.1886Y-3.2969
X2.1894Y-2.7835
X2.2181Y-3.3937
X2.2185Y-3.1795
X2.2197Y-2.178
X2.2244Y-3.3315
X2.2598Y-3.3669
X2.2598Y-3.4343
X2.2756Y-2.178
X2.2795Y-3.1972
X2.2799Y-3.2394
X2.2965Y-2.3665
X2.3146Y-2.4961
X2.3165Y-3.2189
X2.3173Y-3.2764
X2.3295Y-2.178
X2.3358Y-3.0307
X2.3441Y-2.8728
X2.3441Y-2.926
X2.3453Y-2.972
X2.3457Y-2.8276
X2.6213Y-2.7831
X2.6213Y-2.8488
X2.6213Y-2.9228
X2.6213Y-3.0071
X2.6622Y-1.9039
X2.6673Y-1.9543
X2.7457Y-2.1803
X2.7945Y-1.9886
X2.7949Y-1.9457
X2.7949Y-1.902
T2
X2.4104Y-3.1496
X2.4104Y-3.2496
X2.4104Y-3.3496
X2.4104Y-3.4496
X2.4104Y-3.5496
X2.7104Y-3.1496
X2.7104Y-3.2496
X2.7104Y-3.3496
X2.7104Y-3.4496
X2.7104Y-3.5496
X1.7104Y-3.1496
X1.7104Y-3.2496
X1.7104Y-3.3496
X1.7104Y-3.4496
X1.7104Y-3.5496
X2.0104Y-3.1496
X2.0104Y-3.2496
X2.0104Y-3.3496
X2.0104Y-3.4496
X2.0104Y-3.5496
X1.7104Y-1.3976
X1.7104Y-1.4976
X1.7104Y-1.5976
X1.7104Y-1.6976
X1.7104Y-1.7976
X2.0104Y-1.3976
X2.0104Y-1.4976
X2.0104Y-1.5976
X2.0104Y-1.6976
X2.0104Y-1.7976
X2.4104Y-2.2496
X2.4104Y-2.3496
X2.4104Y-2.4496
X2.4104Y-2.5496
X2.4104Y-2.6496
X2.7104Y-2.2496
X2.7104Y-2.3496
X2.7104Y-2.4496
X2.7104Y-2.5496
X2.7104Y-2.6496
X2.4104Y-1.3976
X2.4104Y-1.4976
X2.4104Y-1.5976
X2.4104Y-1.6976
X2.4104Y-1.7976
X2.7104Y-1.3976
X2.7104Y-1.4976
X2.7104Y-1.5976
X2.7104Y-1.6976
X2.7104Y-1.7976
T0
M30
