G04 #@! TF.GenerationSoftware,KiCad,Pcbnew,5.1.2+dfsg1-1*
G04 #@! TF.CreationDate,2019-07-23T12:53:29+03:00*
G04 #@! TF.ProjectId,cps1_adapter,63707331-5f61-4646-9170-7465722e6b69,rev?*
G04 #@! TF.SameCoordinates,Original*
G04 #@! TF.FileFunction,Copper,L1,Top*
G04 #@! TF.FilePolarity,Positive*
%FSLAX46Y46*%
G04 Gerber Fmt 4.6, Leading zero omitted, Abs format (unit mm)*
G04 Created by KiCad (PCBNEW 5.1.2+dfsg1-1) date 2019-07-23 12:53:29*
%MOMM*%
%LPD*%
G04 APERTURE LIST*
%ADD10R,1.750000X0.450000*%
%ADD11R,1.500000X0.450000*%
%ADD12C,1.500000*%
%ADD13R,0.635000X1.143000*%
%ADD14R,1.143000X0.635000*%
%ADD15R,3.000000X1.500000*%
%ADD16C,0.660000*%
%ADD17C,0.500000*%
%ADD18C,0.200000*%
%ADD19C,0.400000*%
%ADD20C,0.300000*%
%ADD21C,0.254000*%
G04 APERTURE END LIST*
D10*
X49750000Y-68755000D03*
X49750000Y-69405000D03*
X49750000Y-70055000D03*
X49750000Y-70705000D03*
X49750000Y-71355000D03*
X49750000Y-72005000D03*
X49750000Y-72655000D03*
X49750000Y-73305000D03*
X49750000Y-73955000D03*
X49750000Y-74605000D03*
X56950000Y-74605000D03*
X56950000Y-73955000D03*
X56950000Y-73305000D03*
X56950000Y-72655000D03*
X56950000Y-72005000D03*
X56950000Y-71355000D03*
X56950000Y-70705000D03*
X56950000Y-70055000D03*
X56950000Y-69405000D03*
X56950000Y-68755000D03*
D11*
X49440000Y-57005000D03*
X49440000Y-57655000D03*
X49440000Y-58305000D03*
X49440000Y-58955000D03*
X49440000Y-59605000D03*
X49440000Y-60255000D03*
X49440000Y-60905000D03*
X49440000Y-61555000D03*
X55340000Y-61555000D03*
X55340000Y-60905000D03*
X55340000Y-60255000D03*
X55340000Y-59605000D03*
X55340000Y-58955000D03*
X55340000Y-58305000D03*
X55340000Y-57655000D03*
X55340000Y-57005000D03*
D12*
X43445000Y-35500000D03*
X51065000Y-45660000D03*
X43445000Y-38040000D03*
X51065000Y-43120000D03*
X43445000Y-40580000D03*
X51065000Y-40580000D03*
X43445000Y-43120000D03*
X51065000Y-38040000D03*
X43445000Y-45660000D03*
X51065000Y-35500000D03*
X68845000Y-57140000D03*
X61225000Y-67300000D03*
X68845000Y-59680000D03*
X61225000Y-64760000D03*
X68845000Y-62220000D03*
X61225000Y-62220000D03*
X68845000Y-64760000D03*
X61225000Y-59680000D03*
X68845000Y-67300000D03*
X61225000Y-57140000D03*
X43445000Y-80000000D03*
X51065000Y-90160000D03*
X43445000Y-82540000D03*
X51065000Y-87620000D03*
X43445000Y-85080000D03*
X51065000Y-85080000D03*
X43445000Y-87620000D03*
X51065000Y-82540000D03*
X43445000Y-90160000D03*
X51065000Y-80000000D03*
X68845000Y-80000000D03*
X61225000Y-90160000D03*
X68845000Y-82540000D03*
X61225000Y-87620000D03*
X68845000Y-85080000D03*
X61225000Y-85080000D03*
X68845000Y-87620000D03*
X61225000Y-82540000D03*
X68845000Y-90160000D03*
X61225000Y-80000000D03*
X61225000Y-35500000D03*
X68845000Y-45660000D03*
X61225000Y-38040000D03*
X68845000Y-43120000D03*
X61225000Y-40580000D03*
X68845000Y-40580000D03*
X61225000Y-43120000D03*
X68845000Y-38040000D03*
X61225000Y-45660000D03*
X68845000Y-35500000D03*
D13*
X51852000Y-64900000D03*
X50328000Y-64900000D03*
X45588000Y-74610000D03*
X47112000Y-74610000D03*
X47122000Y-72980000D03*
X45598000Y-72980000D03*
D14*
X57410000Y-76748000D03*
X57410000Y-78272000D03*
D13*
X55938000Y-66530000D03*
X57462000Y-66530000D03*
X57452000Y-64900000D03*
X55928000Y-64900000D03*
D14*
X61400000Y-72098000D03*
X61400000Y-73622000D03*
X55780000Y-76748000D03*
X55780000Y-78272000D03*
X58230000Y-58652000D03*
X58230000Y-57128000D03*
D13*
X51852000Y-66530000D03*
X50328000Y-66530000D03*
X53138000Y-66540000D03*
X54662000Y-66540000D03*
D14*
X47310000Y-68242000D03*
X47310000Y-66718000D03*
X45690000Y-68242000D03*
X45690000Y-66718000D03*
D15*
X42200000Y-66780000D03*
X42200000Y-68790000D03*
X42200000Y-59910000D03*
X42200000Y-61970000D03*
X42200000Y-64020000D03*
X42200000Y-71560000D03*
X42200000Y-56990000D03*
X42200000Y-76310000D03*
X42200000Y-74310000D03*
D16*
X45300000Y-69540000D03*
X45300000Y-71540000D03*
X45300000Y-64010000D03*
X45840000Y-61460000D03*
X42680000Y-78210000D03*
X55440000Y-71730000D03*
X52940000Y-74130000D03*
X59330000Y-76980000D03*
X57900000Y-81210000D03*
X58790000Y-63400000D03*
X58330000Y-60110000D03*
X53900000Y-62910000D03*
X50990000Y-62370000D03*
X52980000Y-59500000D03*
X66580000Y-76380000D03*
X66580000Y-74240000D03*
X66580000Y-72360000D03*
X66580000Y-70690000D03*
X53330000Y-55320000D03*
X54790000Y-55320000D03*
X56380000Y-55320000D03*
X57800000Y-55320000D03*
X57910000Y-82280000D03*
X58860000Y-83220000D03*
X58840000Y-81760000D03*
X56350000Y-80760000D03*
X56500000Y-84620000D03*
X55590000Y-83740000D03*
X54700000Y-82840000D03*
X54680000Y-84630000D03*
X55550000Y-85480000D03*
X56340000Y-86200000D03*
X57400000Y-87230000D03*
X57400000Y-85520000D03*
X59570000Y-75490000D03*
X59540000Y-74320000D03*
X59540000Y-72970000D03*
X59580000Y-71820000D03*
X51800000Y-55310000D03*
X50330000Y-55320000D03*
X52990000Y-57230000D03*
X43610000Y-55300000D03*
X47470000Y-58730000D03*
X45440000Y-58360000D03*
X59170000Y-55320000D03*
X69740000Y-55380000D03*
X45800000Y-62530000D03*
X46160012Y-71500026D03*
X51350000Y-74130000D03*
X53060000Y-68380000D03*
X55610000Y-70700000D03*
X54190000Y-67910000D03*
X70980001Y-50510001D03*
X70989998Y-49420000D03*
X55270000Y-48130000D03*
X70990000Y-48310002D03*
X53942497Y-50402533D03*
X67620000Y-48360000D03*
X67750000Y-49640000D03*
X51238335Y-50578335D03*
X42190000Y-49500002D03*
X52490000Y-49740000D03*
X42050000Y-48430000D03*
X53440000Y-49109998D03*
X54310000Y-48130000D03*
X46810000Y-70220000D03*
X47500000Y-60300000D03*
D17*
X45288000Y-74310000D02*
X45588000Y-74610000D01*
X42200000Y-74310000D02*
X45288000Y-74310000D01*
X45588000Y-72990000D02*
X45598000Y-72980000D01*
X45588000Y-74610000D02*
X45588000Y-72990000D01*
X45588000Y-74864000D02*
X45590000Y-74866000D01*
X45588000Y-74610000D02*
X45588000Y-74864000D01*
D18*
X42200000Y-68790000D02*
X44550000Y-68790000D01*
X44550000Y-68790000D02*
X45300000Y-69540000D01*
X45300000Y-72682000D02*
X45598000Y-72980000D01*
X45300000Y-71540000D02*
X45300000Y-72682000D01*
X45857611Y-70870025D02*
X46830025Y-70870025D01*
X45300000Y-71540000D02*
X45300000Y-71427636D01*
X45300000Y-71427636D02*
X45857611Y-70870025D01*
X46830025Y-70870025D02*
X47100000Y-71140000D01*
X47100000Y-71140000D02*
X48190000Y-71140000D01*
X48625000Y-70705000D02*
X49750000Y-70705000D01*
X48190000Y-71140000D02*
X48625000Y-70705000D01*
D19*
X51025000Y-70705000D02*
X51410000Y-70320000D01*
X49750000Y-70705000D02*
X51025000Y-70705000D01*
X51410000Y-70320000D02*
X51410000Y-68440000D01*
X49688000Y-66718000D02*
X47310000Y-66718000D01*
X51410000Y-68440000D02*
X49688000Y-66718000D01*
X57141500Y-58305000D02*
X55340000Y-58305000D01*
X58460000Y-58652000D02*
X57488500Y-58652000D01*
X57488500Y-58652000D02*
X57141500Y-58305000D01*
X58157000Y-58955000D02*
X58460000Y-58652000D01*
X57160000Y-59605000D02*
X57810000Y-58955000D01*
X55340000Y-59605000D02*
X57160000Y-59605000D01*
X55340000Y-58955000D02*
X57810000Y-58955000D01*
X57810000Y-58955000D02*
X58157000Y-58955000D01*
X55340000Y-60255000D02*
X57165000Y-60255000D01*
X58206000Y-58652000D02*
X58460000Y-58652000D01*
X57165000Y-59693000D02*
X58206000Y-58652000D01*
X57165000Y-60255000D02*
X57165000Y-59693000D01*
X51645000Y-73305000D02*
X49750000Y-73305000D01*
X45588000Y-75581500D02*
X46076500Y-76070000D01*
X46076500Y-76070000D02*
X51630000Y-76070000D01*
X51630000Y-76070000D02*
X52160000Y-75540000D01*
X45588000Y-74610000D02*
X45588000Y-75581500D01*
X52160000Y-73820000D02*
X51645000Y-73305000D01*
X49876000Y-66530000D02*
X49688000Y-66718000D01*
X50328000Y-66530000D02*
X49876000Y-66530000D01*
X50328000Y-66530000D02*
X50328000Y-64900000D01*
X42200000Y-64020000D02*
X45290000Y-64020000D01*
X45290000Y-64020000D02*
X45300000Y-64010000D01*
X45300000Y-64010000D02*
X47380000Y-66090000D01*
X47380000Y-66648000D02*
X47310000Y-66718000D01*
X47380000Y-66090000D02*
X47380000Y-66648000D01*
D18*
X45840000Y-61460000D02*
X47360000Y-61460000D01*
X47455000Y-61555000D02*
X49440000Y-61555000D01*
X47360000Y-61460000D02*
X47455000Y-61555000D01*
D19*
X41470000Y-88185000D02*
X41470000Y-84860000D01*
X43445000Y-90160000D02*
X41470000Y-88185000D01*
X41470000Y-84860000D02*
X41470000Y-79420000D01*
X41470000Y-79420000D02*
X42680000Y-78210000D01*
X59760000Y-90160000D02*
X61225000Y-90160000D01*
X59660000Y-90260000D02*
X59760000Y-90160000D01*
X57400000Y-88000000D02*
X59660000Y-90260000D01*
X43009999Y-77880001D02*
X44009999Y-77880001D01*
X42680000Y-78210000D02*
X43009999Y-77880001D01*
X44270000Y-77620000D02*
X51220000Y-77620000D01*
X44009999Y-77880001D02*
X44270000Y-77620000D01*
X55675000Y-72655000D02*
X54880000Y-71860000D01*
X56950000Y-72655000D02*
X55675000Y-72655000D01*
X54880000Y-71860000D02*
X54880000Y-69370000D01*
X55495000Y-68755000D02*
X56950000Y-68755000D01*
X54880000Y-69370000D02*
X55495000Y-68755000D01*
X56950000Y-68130000D02*
X57480000Y-67600000D01*
X56950000Y-68755000D02*
X56950000Y-68130000D01*
X57462000Y-67582000D02*
X57462000Y-66530000D01*
X57480000Y-67600000D02*
X57462000Y-67582000D01*
X54880000Y-71860000D02*
X55310000Y-71860000D01*
X55310000Y-71860000D02*
X55440000Y-71730000D01*
X52160000Y-74150000D02*
X52160000Y-73820000D01*
X52180000Y-74130000D02*
X52940000Y-74130000D01*
X52160000Y-74150000D02*
X52180000Y-74130000D01*
X55780000Y-78272000D02*
X57410000Y-78272000D01*
X57600000Y-74605000D02*
X56950000Y-74605000D01*
X58660000Y-75665000D02*
X57600000Y-74605000D01*
X57410000Y-78272000D02*
X58381500Y-78272000D01*
X58381500Y-78272000D02*
X58660000Y-77993500D01*
D17*
X54708500Y-78272000D02*
X52160000Y-75723500D01*
X55780000Y-78272000D02*
X54708500Y-78272000D01*
X52160000Y-75723500D02*
X52160000Y-75310000D01*
D19*
X52160000Y-75540000D02*
X52160000Y-75310000D01*
X52160000Y-75310000D02*
X52160000Y-74150000D01*
X59210000Y-76860000D02*
X59330000Y-76980000D01*
X58660000Y-76860000D02*
X59210000Y-76860000D01*
X58660000Y-76860000D02*
X58660000Y-75665000D01*
X58660000Y-77993500D02*
X58660000Y-76860000D01*
X56903310Y-81740000D02*
X55340000Y-81740000D01*
X57900000Y-81210000D02*
X57433310Y-81210000D01*
X57433310Y-81210000D02*
X56903310Y-81740000D01*
X51220000Y-77620000D02*
X55340000Y-81740000D01*
X55340000Y-81740000D02*
X57400000Y-83800000D01*
D17*
X57462000Y-64910000D02*
X57452000Y-64900000D01*
X57462000Y-66530000D02*
X57462000Y-64910000D01*
X57452000Y-64900000D02*
X57452000Y-64738000D01*
X57452000Y-64738000D02*
X58790000Y-63400000D01*
X58330000Y-58752000D02*
X58230000Y-58652000D01*
X58330000Y-60110000D02*
X58330000Y-58752000D01*
X58000001Y-60680001D02*
X55810002Y-62870000D01*
X58330000Y-60110000D02*
X58000001Y-60439999D01*
X58000001Y-60439999D02*
X58000001Y-60680001D01*
X55810002Y-62870000D02*
X53940000Y-62870000D01*
X53940000Y-62870000D02*
X53900000Y-62910000D01*
X46169999Y-61789999D02*
X45840000Y-61460000D01*
X50990000Y-62370000D02*
X50660001Y-62040001D01*
X49925001Y-62040001D02*
X49465001Y-61580001D01*
X50660001Y-62040001D02*
X49925001Y-62040001D01*
X49465001Y-61580001D02*
X49414999Y-61580001D01*
X49414999Y-61580001D02*
X49205001Y-61789999D01*
X49205001Y-61789999D02*
X46169999Y-61789999D01*
D19*
X54190000Y-58955000D02*
X53625000Y-59520000D01*
X55340000Y-58955000D02*
X54190000Y-58955000D01*
X53625000Y-59520000D02*
X53000000Y-59520000D01*
X53000000Y-59520000D02*
X52980000Y-59500000D01*
X66580000Y-76380000D02*
X66580000Y-74240000D01*
X66580000Y-72360000D02*
X66580000Y-70690000D01*
X66580000Y-70690000D02*
X65700000Y-69810000D01*
X65700000Y-69810000D02*
X61470000Y-69810000D01*
X58190000Y-66530000D02*
X57462000Y-66530000D01*
X61470000Y-69810000D02*
X58190000Y-66530000D01*
D17*
X54790000Y-55320000D02*
X56380000Y-55320000D01*
X57800000Y-55320000D02*
X58650000Y-55320000D01*
X57910000Y-82280000D02*
X57920000Y-82280000D01*
X57920000Y-82280000D02*
X58860000Y-83220000D01*
X57910000Y-82280000D02*
X57870000Y-82280000D01*
X57870000Y-82280000D02*
X56350000Y-80760000D01*
X57400000Y-85640000D02*
X57400000Y-85520000D01*
D19*
X57400000Y-83800000D02*
X57400000Y-85640000D01*
D17*
X55590000Y-83740000D02*
X55590000Y-83730000D01*
X55590000Y-83730000D02*
X54700000Y-82840000D01*
X54680000Y-84630000D02*
X54700000Y-84630000D01*
X54700000Y-84630000D02*
X55550000Y-85480000D01*
X56370000Y-86200000D02*
X57400000Y-87230000D01*
X56340000Y-86200000D02*
X56370000Y-86200000D01*
D19*
X57400000Y-85640000D02*
X57400000Y-87230000D01*
X57400000Y-87230000D02*
X57400000Y-88000000D01*
D17*
X56500000Y-84620000D02*
X57400000Y-85520000D01*
D20*
X59330000Y-76980000D02*
X59330000Y-75780000D01*
X59330000Y-75780000D02*
X59570000Y-75540000D01*
X59570000Y-75540000D02*
X59570000Y-75490000D01*
X59540000Y-74320000D02*
X59540000Y-72970000D01*
D17*
X51810000Y-55320000D02*
X51800000Y-55310000D01*
X53330000Y-55320000D02*
X51810000Y-55320000D01*
D20*
X43445000Y-46720660D02*
X43080000Y-47085660D01*
X43445000Y-45660000D02*
X43445000Y-46720660D01*
X43080000Y-47085660D02*
X43080000Y-53570000D01*
X43080000Y-53570000D02*
X43080000Y-54770000D01*
X43080000Y-54770000D02*
X43610000Y-55300000D01*
D17*
X58650000Y-55320000D02*
X59170000Y-55320000D01*
X61225000Y-53265000D02*
X59170000Y-55320000D01*
X61225000Y-45660000D02*
X61225000Y-53265000D01*
X42200000Y-76310000D02*
X44200000Y-76310000D01*
X58540000Y-79590000D02*
X61400000Y-76730000D01*
X54790000Y-79590000D02*
X58540000Y-79590000D01*
X51930000Y-76730000D02*
X54790000Y-79590000D01*
X44620000Y-76730000D02*
X51930000Y-76730000D01*
X44200000Y-76310000D02*
X44620000Y-76730000D01*
X61400000Y-76730000D02*
X61400000Y-73622000D01*
D19*
X58337000Y-57005000D02*
X58460000Y-57128000D01*
X55340000Y-57655000D02*
X56720000Y-57655000D01*
X55340000Y-57005000D02*
X57370000Y-57005000D01*
X56720000Y-57655000D02*
X57370000Y-57005000D01*
X57370000Y-57005000D02*
X58337000Y-57005000D01*
X54190000Y-57655000D02*
X53860000Y-57985000D01*
X55340000Y-57655000D02*
X54190000Y-57655000D01*
X50590000Y-57655000D02*
X50920000Y-57985000D01*
X49440000Y-57655000D02*
X50590000Y-57655000D01*
X50590000Y-58305000D02*
X50910000Y-57985000D01*
X49440000Y-58305000D02*
X50590000Y-58305000D01*
X50920000Y-57985000D02*
X51530000Y-57985000D01*
X50910000Y-57985000D02*
X51530000Y-57985000D01*
X50910000Y-58635000D02*
X50910000Y-57985000D01*
X50590000Y-58955000D02*
X50910000Y-58635000D01*
X49440000Y-58955000D02*
X50590000Y-58955000D01*
X51852000Y-66530000D02*
X51852000Y-64900000D01*
X53965000Y-60905000D02*
X55340000Y-60905000D01*
X53950000Y-60890000D02*
X53965000Y-60905000D01*
X52010010Y-70568532D02*
X52010010Y-62829990D01*
X52010010Y-62829990D02*
X53950000Y-60890000D01*
X49750000Y-71355000D02*
X51223542Y-71355000D01*
X51223542Y-71355000D02*
X52010010Y-70568532D01*
X52010010Y-62829990D02*
X52010010Y-58404990D01*
X52010010Y-58404990D02*
X52430000Y-57985000D01*
X51530000Y-57985000D02*
X52430000Y-57985000D01*
X52430000Y-57985000D02*
X53860000Y-57985000D01*
D17*
X57388500Y-57128000D02*
X58460000Y-57128000D01*
X56430500Y-56170000D02*
X57388500Y-57128000D01*
X45020000Y-56170000D02*
X56430500Y-56170000D01*
X42200000Y-56990000D02*
X44200000Y-56990000D01*
X44200000Y-56990000D02*
X45020000Y-56170000D01*
D18*
X44290000Y-71560000D02*
X42200000Y-71560000D01*
X49750000Y-69405000D02*
X46445000Y-69405000D01*
X46445000Y-69405000D02*
X44290000Y-71560000D01*
X45240000Y-61970000D02*
X42200000Y-61970000D01*
X45800000Y-62530000D02*
X45240000Y-61970000D01*
X46664986Y-72005000D02*
X46490011Y-71830025D01*
X46490011Y-71830025D02*
X46160012Y-71500026D01*
X49750000Y-72005000D02*
X46664986Y-72005000D01*
X48490000Y-57005000D02*
X49440000Y-57005000D01*
X47875000Y-57005000D02*
X48490000Y-57005000D01*
X42200000Y-59910000D02*
X44970000Y-59910000D01*
X44970000Y-59910000D02*
X47875000Y-57005000D01*
X42262000Y-66718000D02*
X42200000Y-66780000D01*
X45690000Y-66718000D02*
X42262000Y-66718000D01*
X45690000Y-68242000D02*
X47310000Y-68242000D01*
X47823000Y-68755000D02*
X47310000Y-68242000D01*
X49750000Y-68755000D02*
X47823000Y-68755000D01*
D19*
X47112000Y-72990000D02*
X47122000Y-72980000D01*
X47112000Y-74610000D02*
X47112000Y-72990000D01*
X47117000Y-74605000D02*
X47112000Y-74610000D01*
X49750000Y-74605000D02*
X47117000Y-74605000D01*
D20*
X49750000Y-74605000D02*
X50875000Y-74605000D01*
X50875000Y-74605000D02*
X51350000Y-74130000D01*
X53060000Y-66618000D02*
X53138000Y-66540000D01*
X53060000Y-68380000D02*
X53060000Y-66618000D01*
D18*
X56950000Y-70705000D02*
X55615000Y-70705000D01*
X55615000Y-70705000D02*
X55610000Y-70700000D01*
X54662000Y-67342000D02*
X54662000Y-66540000D01*
X54190000Y-67910000D02*
X54662000Y-67438000D01*
X54662000Y-67438000D02*
X54662000Y-67342000D01*
D20*
X61400000Y-71480500D02*
X61400000Y-72098000D01*
X60624500Y-70705000D02*
X61400000Y-71480500D01*
X56950000Y-70705000D02*
X60624500Y-70705000D01*
D19*
X57410000Y-76748000D02*
X55780000Y-76748000D01*
X55675000Y-73955000D02*
X55370000Y-74260000D01*
X56950000Y-73955000D02*
X55675000Y-73955000D01*
X55370000Y-74260000D02*
X55370000Y-76180000D01*
X55780000Y-76590000D02*
X55780000Y-76748000D01*
X55370000Y-76180000D02*
X55780000Y-76590000D01*
D17*
X55938000Y-64910000D02*
X55928000Y-64900000D01*
X55938000Y-66530000D02*
X55938000Y-64910000D01*
X68845000Y-55135000D02*
X68845000Y-57140000D01*
X55928000Y-64212000D02*
X59481501Y-60658499D01*
X55928000Y-64900000D02*
X55928000Y-64212000D01*
X59481501Y-60658499D02*
X59481501Y-56708499D01*
X61580000Y-54610000D02*
X68320000Y-54610000D01*
X59481501Y-56708499D02*
X61580000Y-54610000D01*
X68320000Y-54610000D02*
X68845000Y-55135000D01*
D19*
X55938000Y-66530000D02*
X55938000Y-67372000D01*
X55938000Y-67372000D02*
X54220000Y-69090000D01*
X55675000Y-73305000D02*
X56950000Y-73305000D01*
X55476458Y-73305000D02*
X55675000Y-73305000D01*
X54220000Y-72048542D02*
X55476458Y-73305000D01*
X54220000Y-69090000D02*
X54220000Y-72048542D01*
D18*
X71310000Y-87695000D02*
X71310000Y-50840000D01*
X71310000Y-50840000D02*
X70980001Y-50510001D01*
X68845000Y-90160000D02*
X71310000Y-87695000D01*
X70140000Y-50760000D02*
X70140000Y-50180000D01*
X70140000Y-50180000D02*
X70900000Y-49420000D01*
X68845000Y-87620000D02*
X70890506Y-85574494D01*
X70900000Y-49420000D02*
X70989998Y-49420000D01*
X70890506Y-51510506D02*
X70140000Y-50760000D01*
X70890506Y-85574494D02*
X70890506Y-51510506D01*
X61225000Y-40580000D02*
X55270000Y-46535000D01*
X55270000Y-46535000D02*
X55270000Y-47663310D01*
X55270000Y-47663310D02*
X55270000Y-48130000D01*
X69690000Y-49610002D02*
X70660001Y-48640001D01*
X69690000Y-51020000D02*
X69690000Y-49610002D01*
X70480000Y-51810000D02*
X69690000Y-51020000D01*
X70660001Y-48640001D02*
X70990000Y-48310002D01*
X68845000Y-85080000D02*
X70480000Y-83445000D01*
X70480000Y-83445000D02*
X70480000Y-51810000D01*
X61225000Y-43195000D02*
X54017467Y-50402533D01*
X61225000Y-43120000D02*
X61225000Y-43195000D01*
X54017467Y-50402533D02*
X53942497Y-50402533D01*
X70140000Y-39335000D02*
X68845000Y-38040000D01*
X70140000Y-46130000D02*
X70140000Y-39335000D01*
X67620000Y-48360000D02*
X67910000Y-48360000D01*
X67910000Y-48360000D02*
X70140000Y-46130000D01*
X70920000Y-46470000D02*
X68079999Y-49310001D01*
X68079999Y-49310001D02*
X67750000Y-49640000D01*
X70920000Y-37575000D02*
X70920000Y-46470000D01*
X68845000Y-35500000D02*
X70920000Y-37575000D01*
X51220000Y-50560000D02*
X51238335Y-50578335D01*
X51065000Y-45660000D02*
X51220000Y-45815000D01*
X51220000Y-45815000D02*
X51220000Y-50560000D01*
X41860001Y-49170003D02*
X42190000Y-49500002D01*
X41420000Y-48730002D02*
X41860001Y-49170003D01*
X43445000Y-38040000D02*
X41420000Y-40065000D01*
X41420000Y-40065000D02*
X41420000Y-48730002D01*
X51065000Y-43120000D02*
X52490000Y-44545000D01*
X52490000Y-44545000D02*
X52490000Y-49273310D01*
X52490000Y-49273310D02*
X52490000Y-49740000D01*
X43445000Y-40580000D02*
X42050000Y-41975000D01*
X42050000Y-47963310D02*
X42050000Y-48430000D01*
X42050000Y-41975000D02*
X42050000Y-47963310D01*
X53440000Y-42955000D02*
X53440000Y-48643308D01*
X51065000Y-40580000D02*
X53440000Y-42955000D01*
X53440000Y-48643308D02*
X53440000Y-49109998D01*
X51065000Y-38040000D02*
X54310000Y-41285000D01*
X54310000Y-41285000D02*
X54310000Y-47663310D01*
X54310000Y-47663310D02*
X54310000Y-48130000D01*
X49750000Y-70055000D02*
X46975000Y-70055000D01*
X46975000Y-70055000D02*
X46810000Y-70220000D01*
X48195000Y-59605000D02*
X49440000Y-59605000D01*
X47500000Y-60300000D02*
X48195000Y-59605000D01*
D19*
X58225000Y-71355000D02*
X58460000Y-71590000D01*
X56950000Y-71355000D02*
X58225000Y-71355000D01*
X58460000Y-71590000D02*
X58460000Y-71890000D01*
X58345000Y-72005000D02*
X56950000Y-72005000D01*
X58460000Y-71890000D02*
X58345000Y-72005000D01*
X56950000Y-69405000D02*
X58295000Y-69405000D01*
X58295000Y-69405000D02*
X58520000Y-69630000D01*
X58520000Y-69630000D02*
X58520000Y-69920000D01*
X58385000Y-70055000D02*
X56950000Y-70055000D01*
X58520000Y-69920000D02*
X58385000Y-70055000D01*
D21*
G36*
X71234000Y-37208763D02*
G01*
X69909866Y-35884630D01*
X69932536Y-35829900D01*
X69976000Y-35611394D01*
X69976000Y-35388606D01*
X69932536Y-35170100D01*
X69847279Y-34964271D01*
X69723505Y-34779030D01*
X69565970Y-34621495D01*
X69380729Y-34497721D01*
X69174900Y-34412464D01*
X68956394Y-34369000D01*
X68733606Y-34369000D01*
X68515100Y-34412464D01*
X68309271Y-34497721D01*
X68124030Y-34621495D01*
X67966495Y-34779030D01*
X67842721Y-34964271D01*
X67757464Y-35170100D01*
X67714000Y-35388606D01*
X67714000Y-35611394D01*
X67757464Y-35829900D01*
X67842721Y-36035729D01*
X67966495Y-36220970D01*
X68124030Y-36378505D01*
X68309271Y-36502279D01*
X68515100Y-36587536D01*
X68733606Y-36631000D01*
X68956394Y-36631000D01*
X69174900Y-36587536D01*
X69229630Y-36564866D01*
X70439000Y-37774237D01*
X70439000Y-38953764D01*
X69909866Y-38424630D01*
X69932536Y-38369900D01*
X69976000Y-38151394D01*
X69976000Y-37928606D01*
X69932536Y-37710100D01*
X69847279Y-37504271D01*
X69723505Y-37319030D01*
X69565970Y-37161495D01*
X69380729Y-37037721D01*
X69174900Y-36952464D01*
X68956394Y-36909000D01*
X68733606Y-36909000D01*
X68515100Y-36952464D01*
X68309271Y-37037721D01*
X68124030Y-37161495D01*
X67966495Y-37319030D01*
X67842721Y-37504271D01*
X67757464Y-37710100D01*
X67714000Y-37928606D01*
X67714000Y-38151394D01*
X67757464Y-38369900D01*
X67842721Y-38575729D01*
X67966495Y-38760970D01*
X68124030Y-38918505D01*
X68309271Y-39042279D01*
X68515100Y-39127536D01*
X68733606Y-39171000D01*
X68956394Y-39171000D01*
X69174900Y-39127536D01*
X69229630Y-39104866D01*
X69659001Y-39534237D01*
X69659001Y-39794526D01*
X69565970Y-39701495D01*
X69380729Y-39577721D01*
X69174900Y-39492464D01*
X68956394Y-39449000D01*
X68733606Y-39449000D01*
X68515100Y-39492464D01*
X68309271Y-39577721D01*
X68124030Y-39701495D01*
X67966495Y-39859030D01*
X67842721Y-40044271D01*
X67757464Y-40250100D01*
X67714000Y-40468606D01*
X67714000Y-40691394D01*
X67757464Y-40909900D01*
X67842721Y-41115729D01*
X67966495Y-41300970D01*
X68124030Y-41458505D01*
X68309271Y-41582279D01*
X68515100Y-41667536D01*
X68733606Y-41711000D01*
X68956394Y-41711000D01*
X69174900Y-41667536D01*
X69380729Y-41582279D01*
X69565970Y-41458505D01*
X69659001Y-41365474D01*
X69659001Y-42334526D01*
X69565970Y-42241495D01*
X69380729Y-42117721D01*
X69174900Y-42032464D01*
X68956394Y-41989000D01*
X68733606Y-41989000D01*
X68515100Y-42032464D01*
X68309271Y-42117721D01*
X68124030Y-42241495D01*
X67966495Y-42399030D01*
X67842721Y-42584271D01*
X67757464Y-42790100D01*
X67714000Y-43008606D01*
X67714000Y-43231394D01*
X67757464Y-43449900D01*
X67842721Y-43655729D01*
X67966495Y-43840970D01*
X68124030Y-43998505D01*
X68309271Y-44122279D01*
X68515100Y-44207536D01*
X68733606Y-44251000D01*
X68956394Y-44251000D01*
X69174900Y-44207536D01*
X69380729Y-44122279D01*
X69565970Y-43998505D01*
X69659000Y-43905475D01*
X69659000Y-44874525D01*
X69565970Y-44781495D01*
X69380729Y-44657721D01*
X69174900Y-44572464D01*
X68956394Y-44529000D01*
X68733606Y-44529000D01*
X68515100Y-44572464D01*
X68309271Y-44657721D01*
X68124030Y-44781495D01*
X67966495Y-44939030D01*
X67842721Y-45124271D01*
X67757464Y-45330100D01*
X67714000Y-45548606D01*
X67714000Y-45771394D01*
X67757464Y-45989900D01*
X67842721Y-46195729D01*
X67966495Y-46380970D01*
X68124030Y-46538505D01*
X68309271Y-46662279D01*
X68515100Y-46747536D01*
X68733606Y-46791000D01*
X68798763Y-46791000D01*
X67888237Y-47701527D01*
X67827391Y-47676324D01*
X67690027Y-47649000D01*
X67549973Y-47649000D01*
X67412609Y-47676324D01*
X67283215Y-47729920D01*
X67166764Y-47807730D01*
X67067730Y-47906764D01*
X66989920Y-48023215D01*
X66936324Y-48152609D01*
X66909000Y-48289973D01*
X66909000Y-48430027D01*
X66936324Y-48567391D01*
X66989920Y-48696785D01*
X67067730Y-48813236D01*
X67166764Y-48912270D01*
X67283215Y-48990080D01*
X67381796Y-49030913D01*
X67296764Y-49087730D01*
X67197730Y-49186764D01*
X67119920Y-49303215D01*
X67066324Y-49432609D01*
X67039000Y-49569973D01*
X67039000Y-49710027D01*
X67066324Y-49847391D01*
X67119920Y-49976785D01*
X67197730Y-50093236D01*
X67296764Y-50192270D01*
X67413215Y-50270080D01*
X67542609Y-50323676D01*
X67679973Y-50351000D01*
X67820027Y-50351000D01*
X67957391Y-50323676D01*
X68086785Y-50270080D01*
X68203236Y-50192270D01*
X68302270Y-50093236D01*
X68380080Y-49976785D01*
X68433676Y-49847391D01*
X68461000Y-49710027D01*
X68461000Y-49609236D01*
X71234000Y-46836237D01*
X71234000Y-47641490D01*
X71197391Y-47626326D01*
X71060027Y-47599002D01*
X70919973Y-47599002D01*
X70782609Y-47626326D01*
X70653215Y-47679922D01*
X70536764Y-47757732D01*
X70437730Y-47856766D01*
X70359920Y-47973217D01*
X70306324Y-48102611D01*
X70279000Y-48239975D01*
X70279000Y-48340766D01*
X69366589Y-49253177D01*
X69348237Y-49268238D01*
X69333176Y-49286590D01*
X69288129Y-49341480D01*
X69243465Y-49425041D01*
X69215960Y-49515710D01*
X69206673Y-49610002D01*
X69209001Y-49633638D01*
X69209000Y-50996373D01*
X69206673Y-51020000D01*
X69209000Y-51043625D01*
X69215960Y-51114291D01*
X69243464Y-51204960D01*
X69288128Y-51288522D01*
X69348236Y-51361764D01*
X69366594Y-51376830D01*
X69999001Y-52009238D01*
X69999000Y-83245763D01*
X69229630Y-84015134D01*
X69174900Y-83992464D01*
X68956394Y-83949000D01*
X68733606Y-83949000D01*
X68515100Y-83992464D01*
X68371000Y-84052152D01*
X68371000Y-83567848D01*
X68515100Y-83627536D01*
X68733606Y-83671000D01*
X68956394Y-83671000D01*
X69174900Y-83627536D01*
X69380729Y-83542279D01*
X69565970Y-83418505D01*
X69723505Y-83260970D01*
X69847279Y-83075729D01*
X69932536Y-82869900D01*
X69976000Y-82651394D01*
X69976000Y-82428606D01*
X69932536Y-82210100D01*
X69847279Y-82004271D01*
X69723505Y-81819030D01*
X69565970Y-81661495D01*
X69380729Y-81537721D01*
X69174900Y-81452464D01*
X68956394Y-81409000D01*
X68733606Y-81409000D01*
X68515100Y-81452464D01*
X68371000Y-81512152D01*
X68371000Y-81027848D01*
X68515100Y-81087536D01*
X68733606Y-81131000D01*
X68956394Y-81131000D01*
X69174900Y-81087536D01*
X69380729Y-81002279D01*
X69565970Y-80878505D01*
X69723505Y-80720970D01*
X69847279Y-80535729D01*
X69932536Y-80329900D01*
X69976000Y-80111394D01*
X69976000Y-79888606D01*
X69932536Y-79670100D01*
X69847279Y-79464271D01*
X69723505Y-79279030D01*
X69565970Y-79121495D01*
X69380729Y-78997721D01*
X69174900Y-78912464D01*
X68956394Y-78869000D01*
X68733606Y-78869000D01*
X68515100Y-78912464D01*
X68371000Y-78972152D01*
X68371000Y-78201168D01*
X68373085Y-78180000D01*
X68364763Y-78095509D01*
X68340118Y-78014266D01*
X68300097Y-77939391D01*
X68246237Y-77873763D01*
X68180609Y-77819903D01*
X68105734Y-77779882D01*
X68024491Y-77755237D01*
X67961168Y-77749000D01*
X67940000Y-77746915D01*
X67918832Y-77749000D01*
X62161168Y-77749000D01*
X62140000Y-77746915D01*
X62118832Y-77749000D01*
X62055509Y-77755237D01*
X61974266Y-77779882D01*
X61899391Y-77819903D01*
X61833763Y-77873763D01*
X61779903Y-77939391D01*
X61739882Y-78014266D01*
X61715237Y-78095509D01*
X61706915Y-78180000D01*
X61709001Y-78201179D01*
X61709001Y-78976295D01*
X61554900Y-78912464D01*
X61336394Y-78869000D01*
X61113606Y-78869000D01*
X60895100Y-78912464D01*
X60689271Y-78997721D01*
X60504030Y-79121495D01*
X60346495Y-79279030D01*
X60222721Y-79464271D01*
X60137464Y-79670100D01*
X60094000Y-79888606D01*
X60094000Y-80111394D01*
X60137464Y-80329900D01*
X60222721Y-80535729D01*
X60346495Y-80720970D01*
X60504030Y-80878505D01*
X60689271Y-81002279D01*
X60895100Y-81087536D01*
X61113606Y-81131000D01*
X61336394Y-81131000D01*
X61554900Y-81087536D01*
X61709001Y-81023705D01*
X61709001Y-81516295D01*
X61554900Y-81452464D01*
X61336394Y-81409000D01*
X61113606Y-81409000D01*
X60895100Y-81452464D01*
X60689271Y-81537721D01*
X60504030Y-81661495D01*
X60346495Y-81819030D01*
X60222721Y-82004271D01*
X60137464Y-82210100D01*
X60094000Y-82428606D01*
X60094000Y-82651394D01*
X60137464Y-82869900D01*
X60222721Y-83075729D01*
X60346495Y-83260970D01*
X60504030Y-83418505D01*
X60689271Y-83542279D01*
X60895100Y-83627536D01*
X61113606Y-83671000D01*
X61336394Y-83671000D01*
X61554900Y-83627536D01*
X61709001Y-83563706D01*
X61709001Y-84056294D01*
X61554900Y-83992464D01*
X61336394Y-83949000D01*
X61113606Y-83949000D01*
X60895100Y-83992464D01*
X60689271Y-84077721D01*
X60504030Y-84201495D01*
X60346495Y-84359030D01*
X60222721Y-84544271D01*
X60137464Y-84750100D01*
X60094000Y-84968606D01*
X60094000Y-85191394D01*
X60137464Y-85409900D01*
X60222721Y-85615729D01*
X60346495Y-85800970D01*
X60504030Y-85958505D01*
X60689271Y-86082279D01*
X60895100Y-86167536D01*
X61113606Y-86211000D01*
X61336394Y-86211000D01*
X61554900Y-86167536D01*
X61709000Y-86103706D01*
X61709000Y-86596294D01*
X61554900Y-86532464D01*
X61336394Y-86489000D01*
X61113606Y-86489000D01*
X60895100Y-86532464D01*
X60689271Y-86617721D01*
X60504030Y-86741495D01*
X60346495Y-86899030D01*
X60222721Y-87084271D01*
X60137464Y-87290100D01*
X60094000Y-87508606D01*
X60094000Y-87731394D01*
X60137464Y-87949900D01*
X60222721Y-88155729D01*
X60346495Y-88340970D01*
X60504030Y-88498505D01*
X60689271Y-88622279D01*
X60895100Y-88707536D01*
X61113606Y-88751000D01*
X61336394Y-88751000D01*
X61554900Y-88707536D01*
X61709000Y-88643706D01*
X61709000Y-88857211D01*
X61689884Y-88848240D01*
X61425040Y-88782750D01*
X61152508Y-88770188D01*
X60882762Y-88811035D01*
X60626168Y-88903723D01*
X60513137Y-88964140D01*
X60447612Y-89203007D01*
X61225000Y-89980395D01*
X61239143Y-89966253D01*
X61418748Y-90145858D01*
X61404605Y-90160000D01*
X61418748Y-90174143D01*
X61239143Y-90353748D01*
X61225000Y-90339605D01*
X60447612Y-91116993D01*
X60513137Y-91355860D01*
X60760116Y-91471760D01*
X61024960Y-91537250D01*
X61297492Y-91549812D01*
X61567238Y-91508965D01*
X61709000Y-91457757D01*
X61709000Y-91958832D01*
X61706915Y-91980000D01*
X61715237Y-92064491D01*
X61739882Y-92145734D01*
X61779903Y-92220609D01*
X61833763Y-92286237D01*
X61899391Y-92340097D01*
X61974266Y-92380118D01*
X62055509Y-92404763D01*
X62140000Y-92413085D01*
X62161168Y-92411000D01*
X67918832Y-92411000D01*
X67940000Y-92413085D01*
X67961168Y-92411000D01*
X68024491Y-92404763D01*
X68105734Y-92380118D01*
X68180609Y-92340097D01*
X68246237Y-92286237D01*
X68300097Y-92220609D01*
X68340118Y-92145734D01*
X68364763Y-92064491D01*
X68373085Y-91980000D01*
X68371000Y-91958832D01*
X68371000Y-91187848D01*
X68515100Y-91247536D01*
X68733606Y-91291000D01*
X68956394Y-91291000D01*
X69174900Y-91247536D01*
X69380729Y-91162279D01*
X69565970Y-91038505D01*
X69723505Y-90880970D01*
X69847279Y-90695729D01*
X69932536Y-90489900D01*
X69976000Y-90271394D01*
X69976000Y-90048606D01*
X69932536Y-89830100D01*
X69909866Y-89775370D01*
X71234001Y-88451236D01*
X71234001Y-94144000D01*
X41072000Y-94144000D01*
X41072000Y-90232492D01*
X42055188Y-90232492D01*
X42096035Y-90502238D01*
X42188723Y-90758832D01*
X42249140Y-90871863D01*
X42488007Y-90937388D01*
X43265395Y-90160000D01*
X42488007Y-89382612D01*
X42249140Y-89448137D01*
X42133240Y-89695116D01*
X42067750Y-89959960D01*
X42055188Y-90232492D01*
X41072000Y-90232492D01*
X41072000Y-79888606D01*
X42314000Y-79888606D01*
X42314000Y-80111394D01*
X42357464Y-80329900D01*
X42442721Y-80535729D01*
X42566495Y-80720970D01*
X42724030Y-80878505D01*
X42909271Y-81002279D01*
X43115100Y-81087536D01*
X43333606Y-81131000D01*
X43556394Y-81131000D01*
X43774900Y-81087536D01*
X43929001Y-81023705D01*
X43929001Y-81516295D01*
X43774900Y-81452464D01*
X43556394Y-81409000D01*
X43333606Y-81409000D01*
X43115100Y-81452464D01*
X42909271Y-81537721D01*
X42724030Y-81661495D01*
X42566495Y-81819030D01*
X42442721Y-82004271D01*
X42357464Y-82210100D01*
X42314000Y-82428606D01*
X42314000Y-82651394D01*
X42357464Y-82869900D01*
X42442721Y-83075729D01*
X42566495Y-83260970D01*
X42724030Y-83418505D01*
X42909271Y-83542279D01*
X43115100Y-83627536D01*
X43333606Y-83671000D01*
X43556394Y-83671000D01*
X43774900Y-83627536D01*
X43929001Y-83563706D01*
X43929001Y-84056294D01*
X43774900Y-83992464D01*
X43556394Y-83949000D01*
X43333606Y-83949000D01*
X43115100Y-83992464D01*
X42909271Y-84077721D01*
X42724030Y-84201495D01*
X42566495Y-84359030D01*
X42442721Y-84544271D01*
X42357464Y-84750100D01*
X42314000Y-84968606D01*
X42314000Y-85191394D01*
X42357464Y-85409900D01*
X42442721Y-85615729D01*
X42566495Y-85800970D01*
X42724030Y-85958505D01*
X42909271Y-86082279D01*
X43115100Y-86167536D01*
X43333606Y-86211000D01*
X43556394Y-86211000D01*
X43774900Y-86167536D01*
X43929000Y-86103706D01*
X43929000Y-86596294D01*
X43774900Y-86532464D01*
X43556394Y-86489000D01*
X43333606Y-86489000D01*
X43115100Y-86532464D01*
X42909271Y-86617721D01*
X42724030Y-86741495D01*
X42566495Y-86899030D01*
X42442721Y-87084271D01*
X42357464Y-87290100D01*
X42314000Y-87508606D01*
X42314000Y-87731394D01*
X42357464Y-87949900D01*
X42442721Y-88155729D01*
X42566495Y-88340970D01*
X42724030Y-88498505D01*
X42909271Y-88622279D01*
X43115100Y-88707536D01*
X43333606Y-88751000D01*
X43556394Y-88751000D01*
X43774900Y-88707536D01*
X43929000Y-88643706D01*
X43929000Y-88857211D01*
X43909884Y-88848240D01*
X43645040Y-88782750D01*
X43372508Y-88770188D01*
X43102762Y-88811035D01*
X42846168Y-88903723D01*
X42733137Y-88964140D01*
X42667612Y-89203007D01*
X43445000Y-89980395D01*
X43459143Y-89966253D01*
X43638748Y-90145858D01*
X43624605Y-90160000D01*
X43638748Y-90174143D01*
X43459143Y-90353748D01*
X43445000Y-90339605D01*
X42667612Y-91116993D01*
X42733137Y-91355860D01*
X42980116Y-91471760D01*
X43244960Y-91537250D01*
X43517492Y-91549812D01*
X43787238Y-91508965D01*
X43929000Y-91457757D01*
X43929000Y-91958832D01*
X43926915Y-91980000D01*
X43935237Y-92064491D01*
X43959882Y-92145734D01*
X43999903Y-92220609D01*
X44053763Y-92286237D01*
X44119391Y-92340097D01*
X44194266Y-92380118D01*
X44275509Y-92404763D01*
X44360000Y-92413085D01*
X44381168Y-92411000D01*
X50128832Y-92411000D01*
X50150000Y-92413085D01*
X50171168Y-92411000D01*
X50234491Y-92404763D01*
X50315734Y-92380118D01*
X50390609Y-92340097D01*
X50456237Y-92286237D01*
X50510097Y-92220609D01*
X50550118Y-92145734D01*
X50574763Y-92064491D01*
X50583085Y-91980000D01*
X50581000Y-91958832D01*
X50581000Y-91183706D01*
X50735100Y-91247536D01*
X50953606Y-91291000D01*
X51176394Y-91291000D01*
X51394900Y-91247536D01*
X51600729Y-91162279D01*
X51785970Y-91038505D01*
X51943505Y-90880970D01*
X52067279Y-90695729D01*
X52152536Y-90489900D01*
X52196000Y-90271394D01*
X52196000Y-90232492D01*
X59835188Y-90232492D01*
X59876035Y-90502238D01*
X59968723Y-90758832D01*
X60029140Y-90871863D01*
X60268007Y-90937388D01*
X61045395Y-90160000D01*
X60268007Y-89382612D01*
X60029140Y-89448137D01*
X59913240Y-89695116D01*
X59847750Y-89959960D01*
X59835188Y-90232492D01*
X52196000Y-90232492D01*
X52196000Y-90048606D01*
X52152536Y-89830100D01*
X52067279Y-89624271D01*
X51943505Y-89439030D01*
X51785970Y-89281495D01*
X51600729Y-89157721D01*
X51394900Y-89072464D01*
X51176394Y-89029000D01*
X50953606Y-89029000D01*
X50735100Y-89072464D01*
X50581000Y-89136294D01*
X50581000Y-88643706D01*
X50735100Y-88707536D01*
X50953606Y-88751000D01*
X51176394Y-88751000D01*
X51394900Y-88707536D01*
X51600729Y-88622279D01*
X51785970Y-88498505D01*
X51943505Y-88340970D01*
X52067279Y-88155729D01*
X52152536Y-87949900D01*
X52196000Y-87731394D01*
X52196000Y-87508606D01*
X52152536Y-87290100D01*
X52067279Y-87084271D01*
X51943505Y-86899030D01*
X51785970Y-86741495D01*
X51600729Y-86617721D01*
X51394900Y-86532464D01*
X51176394Y-86489000D01*
X50953606Y-86489000D01*
X50735100Y-86532464D01*
X50581000Y-86596294D01*
X50581000Y-86103706D01*
X50735100Y-86167536D01*
X50953606Y-86211000D01*
X51176394Y-86211000D01*
X51394900Y-86167536D01*
X51600729Y-86082279D01*
X51785970Y-85958505D01*
X51943505Y-85800970D01*
X52067279Y-85615729D01*
X52152536Y-85409900D01*
X52196000Y-85191394D01*
X52196000Y-84968606D01*
X52152536Y-84750100D01*
X52067279Y-84544271D01*
X51943505Y-84359030D01*
X51785970Y-84201495D01*
X51600729Y-84077721D01*
X51394900Y-83992464D01*
X51176394Y-83949000D01*
X50953606Y-83949000D01*
X50735100Y-83992464D01*
X50581000Y-84056294D01*
X50581000Y-83563706D01*
X50735100Y-83627536D01*
X50953606Y-83671000D01*
X51176394Y-83671000D01*
X51394900Y-83627536D01*
X51600729Y-83542279D01*
X51785970Y-83418505D01*
X51943505Y-83260970D01*
X52067279Y-83075729D01*
X52152536Y-82869900D01*
X52196000Y-82651394D01*
X52196000Y-82428606D01*
X52152536Y-82210100D01*
X52067279Y-82004271D01*
X51943505Y-81819030D01*
X51785970Y-81661495D01*
X51600729Y-81537721D01*
X51394900Y-81452464D01*
X51176394Y-81409000D01*
X50953606Y-81409000D01*
X50735100Y-81452464D01*
X50581000Y-81516294D01*
X50581000Y-81023706D01*
X50735100Y-81087536D01*
X50953606Y-81131000D01*
X51176394Y-81131000D01*
X51394900Y-81087536D01*
X51600729Y-81002279D01*
X51785970Y-80878505D01*
X51943505Y-80720970D01*
X52067279Y-80535729D01*
X52152536Y-80329900D01*
X52196000Y-80111394D01*
X52196000Y-79888606D01*
X52152536Y-79670100D01*
X52067279Y-79464271D01*
X51943505Y-79279030D01*
X51785970Y-79121495D01*
X51600729Y-78997721D01*
X51394900Y-78912464D01*
X51176394Y-78869000D01*
X50953606Y-78869000D01*
X50735100Y-78912464D01*
X50581000Y-78976294D01*
X50581000Y-78201168D01*
X50583085Y-78180000D01*
X50574763Y-78095509D01*
X50550118Y-78014266D01*
X50510097Y-77939391D01*
X50456237Y-77873763D01*
X50390609Y-77819903D01*
X50315734Y-77779882D01*
X50234491Y-77755237D01*
X50171168Y-77749000D01*
X50150000Y-77746915D01*
X50128832Y-77749000D01*
X44381168Y-77749000D01*
X44360000Y-77746915D01*
X44338832Y-77749000D01*
X44275509Y-77755237D01*
X44194266Y-77779882D01*
X44119391Y-77819903D01*
X44053763Y-77873763D01*
X43999903Y-77939391D01*
X43959882Y-78014266D01*
X43935237Y-78095509D01*
X43926915Y-78180000D01*
X43929001Y-78201179D01*
X43929001Y-78976295D01*
X43774900Y-78912464D01*
X43556394Y-78869000D01*
X43333606Y-78869000D01*
X43115100Y-78912464D01*
X42909271Y-78997721D01*
X42724030Y-79121495D01*
X42566495Y-79279030D01*
X42442721Y-79464271D01*
X42357464Y-79670100D01*
X42314000Y-79888606D01*
X41072000Y-79888606D01*
X41072000Y-77442843D01*
X43700000Y-77442843D01*
X43774689Y-77435487D01*
X43846508Y-77413701D01*
X43912696Y-77378322D01*
X43970711Y-77330711D01*
X44018322Y-77272696D01*
X44053701Y-77206508D01*
X44075487Y-77134689D01*
X44080583Y-77082951D01*
X44151895Y-77154263D01*
X44171657Y-77178343D01*
X44267739Y-77257196D01*
X44377358Y-77315789D01*
X44496302Y-77351870D01*
X44589002Y-77361000D01*
X44589009Y-77361000D01*
X44620000Y-77364052D01*
X44650990Y-77361000D01*
X51668632Y-77361000D01*
X54321899Y-80014268D01*
X54341657Y-80038343D01*
X54437739Y-80117196D01*
X54547358Y-80175789D01*
X54666302Y-80211870D01*
X54759002Y-80221000D01*
X54759009Y-80221000D01*
X54790000Y-80224052D01*
X54820990Y-80221000D01*
X58509010Y-80221000D01*
X58540000Y-80224052D01*
X58570990Y-80221000D01*
X58570998Y-80221000D01*
X58663698Y-80211870D01*
X58782642Y-80175789D01*
X58892261Y-80117196D01*
X58988343Y-80038343D01*
X59008105Y-80014263D01*
X61824269Y-77198100D01*
X61848343Y-77178343D01*
X61868104Y-77154265D01*
X61927196Y-77082261D01*
X61985789Y-76972642D01*
X62021870Y-76853698D01*
X62023495Y-76837196D01*
X62031000Y-76760998D01*
X62031000Y-76760991D01*
X62034052Y-76730000D01*
X62031000Y-76699010D01*
X62031000Y-74316483D01*
X62046189Y-74314987D01*
X62118008Y-74293201D01*
X62184196Y-74257822D01*
X62242211Y-74210211D01*
X62289822Y-74152196D01*
X62325201Y-74086008D01*
X62346987Y-74014189D01*
X62354343Y-73939500D01*
X62354343Y-73304500D01*
X62346987Y-73229811D01*
X62325201Y-73157992D01*
X62289822Y-73091804D01*
X62242211Y-73033789D01*
X62184196Y-72986178D01*
X62118008Y-72950799D01*
X62046189Y-72929013D01*
X61971500Y-72921657D01*
X60828500Y-72921657D01*
X60753811Y-72929013D01*
X60681992Y-72950799D01*
X60615804Y-72986178D01*
X60557789Y-73033789D01*
X60510178Y-73091804D01*
X60474799Y-73157992D01*
X60453013Y-73229811D01*
X60445657Y-73304500D01*
X60445657Y-73939500D01*
X60453013Y-74014189D01*
X60474799Y-74086008D01*
X60510178Y-74152196D01*
X60557789Y-74210211D01*
X60615804Y-74257822D01*
X60681992Y-74293201D01*
X60753811Y-74314987D01*
X60769001Y-74316483D01*
X60769000Y-76468631D01*
X58616452Y-78621180D01*
X58619572Y-78589500D01*
X58616500Y-78557750D01*
X58457750Y-78399000D01*
X57537000Y-78399000D01*
X57537000Y-78419000D01*
X57283000Y-78419000D01*
X57283000Y-78399000D01*
X55907000Y-78399000D01*
X55907000Y-78419000D01*
X55653000Y-78419000D01*
X55653000Y-78399000D01*
X54732250Y-78399000D01*
X54611809Y-78519441D01*
X52398103Y-76305735D01*
X52378343Y-76281657D01*
X52282261Y-76202804D01*
X52172642Y-76144211D01*
X52053698Y-76108130D01*
X51960998Y-76099000D01*
X51960990Y-76099000D01*
X51930000Y-76095948D01*
X51899010Y-76099000D01*
X44881368Y-76099000D01*
X44668105Y-75885737D01*
X44648343Y-75861657D01*
X44552261Y-75782804D01*
X44442642Y-75724211D01*
X44323698Y-75688130D01*
X44230998Y-75679000D01*
X44230990Y-75679000D01*
X44200000Y-75675948D01*
X44169010Y-75679000D01*
X44082843Y-75679000D01*
X44082843Y-75567272D01*
X44151185Y-75511185D01*
X44230537Y-75414494D01*
X44289502Y-75304180D01*
X44325812Y-75184482D01*
X44326105Y-75181500D01*
X44632428Y-75181500D01*
X44644688Y-75305982D01*
X44680998Y-75425680D01*
X44739963Y-75535994D01*
X44819315Y-75632685D01*
X44916006Y-75712037D01*
X45026320Y-75771002D01*
X45146018Y-75807312D01*
X45270500Y-75819572D01*
X45302250Y-75816500D01*
X45461000Y-75657750D01*
X45461000Y-74737000D01*
X44794250Y-74737000D01*
X44635500Y-74895750D01*
X44632428Y-75181500D01*
X44326105Y-75181500D01*
X44338072Y-75060000D01*
X44335000Y-74595750D01*
X44176250Y-74437000D01*
X42327000Y-74437000D01*
X42327000Y-74457000D01*
X42073000Y-74457000D01*
X42073000Y-74437000D01*
X42053000Y-74437000D01*
X42053000Y-74183000D01*
X42073000Y-74183000D01*
X42073000Y-73083750D01*
X42327000Y-73083750D01*
X42327000Y-74183000D01*
X44176250Y-74183000D01*
X44320750Y-74038500D01*
X44632428Y-74038500D01*
X44635500Y-74324250D01*
X44794250Y-74483000D01*
X45461000Y-74483000D01*
X45461000Y-74037750D01*
X45471000Y-74027750D01*
X45471000Y-73107000D01*
X44804250Y-73107000D01*
X44645500Y-73265750D01*
X44642428Y-73551500D01*
X44654688Y-73675982D01*
X44687114Y-73782877D01*
X44680998Y-73794320D01*
X44644688Y-73914018D01*
X44632428Y-74038500D01*
X44320750Y-74038500D01*
X44335000Y-74024250D01*
X44338072Y-73560000D01*
X44325812Y-73435518D01*
X44289502Y-73315820D01*
X44230537Y-73205506D01*
X44151185Y-73108815D01*
X44054494Y-73029463D01*
X43944180Y-72970498D01*
X43824482Y-72934188D01*
X43700000Y-72921928D01*
X42485750Y-72925000D01*
X42327000Y-73083750D01*
X42073000Y-73083750D01*
X41914250Y-72925000D01*
X41072000Y-72922869D01*
X41072000Y-72692843D01*
X43700000Y-72692843D01*
X43774689Y-72685487D01*
X43846508Y-72663701D01*
X43912696Y-72628322D01*
X43970711Y-72580711D01*
X44018322Y-72522696D01*
X44053701Y-72456508D01*
X44075487Y-72384689D01*
X44082843Y-72310000D01*
X44082843Y-72041000D01*
X44266374Y-72041000D01*
X44290000Y-72043327D01*
X44313626Y-72041000D01*
X44384292Y-72034040D01*
X44474961Y-72006536D01*
X44558522Y-71961872D01*
X44631764Y-71901764D01*
X44646830Y-71883406D01*
X46122429Y-70407808D01*
X46126324Y-70427391D01*
X46179920Y-70556785D01*
X46257730Y-70673236D01*
X46356764Y-70772270D01*
X46473215Y-70850080D01*
X46602609Y-70903676D01*
X46739973Y-70931000D01*
X46880027Y-70931000D01*
X47017391Y-70903676D01*
X47146785Y-70850080D01*
X47263236Y-70772270D01*
X47362270Y-70673236D01*
X47440080Y-70556785D01*
X47448689Y-70536000D01*
X48327750Y-70536000D01*
X48398750Y-70607000D01*
X48678539Y-70607000D01*
X48728492Y-70633701D01*
X48800311Y-70655487D01*
X48875000Y-70662843D01*
X49897000Y-70662843D01*
X49897000Y-70747157D01*
X48875000Y-70747157D01*
X48800311Y-70754513D01*
X48728492Y-70776299D01*
X48678539Y-70803000D01*
X48398750Y-70803000D01*
X48240000Y-70961750D01*
X48250901Y-71062801D01*
X48288801Y-71182005D01*
X48349228Y-71291524D01*
X48429861Y-71387151D01*
X48492157Y-71436903D01*
X48492157Y-71524000D01*
X46871012Y-71524000D01*
X46871012Y-71429999D01*
X46843688Y-71292635D01*
X46790092Y-71163241D01*
X46712282Y-71046790D01*
X46613248Y-70947756D01*
X46496797Y-70869946D01*
X46367403Y-70816350D01*
X46230039Y-70789026D01*
X46089985Y-70789026D01*
X45952621Y-70816350D01*
X45823227Y-70869946D01*
X45706776Y-70947756D01*
X45607742Y-71046790D01*
X45529932Y-71163241D01*
X45476336Y-71292635D01*
X45449012Y-71429999D01*
X45449012Y-71570053D01*
X45476336Y-71707417D01*
X45503708Y-71773500D01*
X45470998Y-71773500D01*
X45470998Y-71932248D01*
X45312250Y-71773500D01*
X45280500Y-71770428D01*
X45156018Y-71782688D01*
X45036320Y-71818998D01*
X44926006Y-71877963D01*
X44829315Y-71957315D01*
X44749963Y-72054006D01*
X44690998Y-72164320D01*
X44654688Y-72284018D01*
X44642428Y-72408500D01*
X44645500Y-72694250D01*
X44804250Y-72853000D01*
X45471000Y-72853000D01*
X45471000Y-72833000D01*
X45725000Y-72833000D01*
X45725000Y-72853000D01*
X45745000Y-72853000D01*
X45745000Y-73107000D01*
X45725000Y-73107000D01*
X45725000Y-73552250D01*
X45715000Y-73562250D01*
X45715000Y-74483000D01*
X45735000Y-74483000D01*
X45735000Y-74737000D01*
X45715000Y-74737000D01*
X45715000Y-75657750D01*
X45873750Y-75816500D01*
X45905500Y-75819572D01*
X46029982Y-75807312D01*
X46149680Y-75771002D01*
X46259994Y-75712037D01*
X46356685Y-75632685D01*
X46436037Y-75535994D01*
X46495002Y-75425680D01*
X46496895Y-75419440D01*
X46523789Y-75452211D01*
X46581804Y-75499822D01*
X46647992Y-75535201D01*
X46719811Y-75556987D01*
X46794500Y-75564343D01*
X47429500Y-75564343D01*
X47504189Y-75556987D01*
X47576008Y-75535201D01*
X47642196Y-75499822D01*
X47700211Y-75452211D01*
X47747822Y-75394196D01*
X47783201Y-75328008D01*
X47804987Y-75256189D01*
X47811900Y-75186000D01*
X48736071Y-75186000D01*
X48800311Y-75205487D01*
X48875000Y-75212843D01*
X50625000Y-75212843D01*
X50699689Y-75205487D01*
X50771508Y-75183701D01*
X50837696Y-75148322D01*
X50852305Y-75136333D01*
X50875000Y-75138568D01*
X50901074Y-75136000D01*
X50901084Y-75136000D01*
X50979094Y-75128317D01*
X51079188Y-75097953D01*
X51171435Y-75048646D01*
X51252290Y-74982290D01*
X51268921Y-74962025D01*
X51389946Y-74841000D01*
X51420027Y-74841000D01*
X51557391Y-74813676D01*
X51686785Y-74760080D01*
X51803236Y-74682270D01*
X51902270Y-74583236D01*
X51980080Y-74466785D01*
X52033676Y-74337391D01*
X52061000Y-74200027D01*
X52061000Y-74059973D01*
X52033676Y-73922609D01*
X51980080Y-73793215D01*
X51902270Y-73676764D01*
X51803236Y-73577730D01*
X51686785Y-73499920D01*
X51557391Y-73446324D01*
X51420027Y-73419000D01*
X51279973Y-73419000D01*
X51144248Y-73445998D01*
X51101250Y-73403000D01*
X50821461Y-73403000D01*
X50771508Y-73376299D01*
X50699689Y-73354513D01*
X50625000Y-73347157D01*
X48875000Y-73347157D01*
X48800311Y-73354513D01*
X48728492Y-73376299D01*
X48678539Y-73403000D01*
X48398750Y-73403000D01*
X48240000Y-73561750D01*
X48250901Y-73662801D01*
X48288801Y-73782005D01*
X48349228Y-73891524D01*
X48429861Y-73987151D01*
X48476001Y-74024000D01*
X47810915Y-74024000D01*
X47804987Y-73963811D01*
X47783201Y-73891992D01*
X47747822Y-73825804D01*
X47727542Y-73801093D01*
X47757822Y-73764196D01*
X47793201Y-73698008D01*
X47814987Y-73626189D01*
X47822343Y-73551500D01*
X47822343Y-72486000D01*
X48492157Y-72486000D01*
X48492157Y-72573097D01*
X48429861Y-72622849D01*
X48349228Y-72718476D01*
X48288801Y-72827995D01*
X48250901Y-72947199D01*
X48240000Y-73048250D01*
X48398750Y-73207000D01*
X48678539Y-73207000D01*
X48728492Y-73233701D01*
X48800311Y-73255487D01*
X48875000Y-73262843D01*
X50625000Y-73262843D01*
X50699689Y-73255487D01*
X50771508Y-73233701D01*
X50821461Y-73207000D01*
X51101250Y-73207000D01*
X51260000Y-73048250D01*
X51249099Y-72947199D01*
X51211199Y-72827995D01*
X51150772Y-72718476D01*
X51070139Y-72622849D01*
X51007843Y-72573097D01*
X51007843Y-72430000D01*
X51000487Y-72355311D01*
X50992809Y-72330000D01*
X51000487Y-72304689D01*
X51007843Y-72230000D01*
X51007843Y-71936000D01*
X51195002Y-71936000D01*
X51223542Y-71938811D01*
X51252082Y-71936000D01*
X51337438Y-71927593D01*
X51446957Y-71894371D01*
X51547890Y-71840421D01*
X51636359Y-71767817D01*
X51654559Y-71745640D01*
X52400662Y-70999539D01*
X52422827Y-70981349D01*
X52442660Y-70957183D01*
X52495431Y-70892880D01*
X52549381Y-70791947D01*
X52582603Y-70682428D01*
X52593821Y-70568532D01*
X52591010Y-70539992D01*
X52591010Y-68916516D01*
X52606764Y-68932270D01*
X52723215Y-69010080D01*
X52852609Y-69063676D01*
X52989973Y-69091000D01*
X53130027Y-69091000D01*
X53267391Y-69063676D01*
X53396785Y-69010080D01*
X53513236Y-68932270D01*
X53612270Y-68833236D01*
X53690080Y-68716785D01*
X53743676Y-68587391D01*
X53764834Y-68481026D01*
X53853215Y-68540080D01*
X53920424Y-68567919D01*
X53829360Y-68658983D01*
X53807183Y-68677183D01*
X53743322Y-68755000D01*
X53734579Y-68765653D01*
X53680629Y-68866586D01*
X53647407Y-68976105D01*
X53636189Y-69090000D01*
X53639000Y-69118540D01*
X53639001Y-72019992D01*
X53636189Y-72048542D01*
X53647407Y-72162437D01*
X53680629Y-72271956D01*
X53728665Y-72361824D01*
X53734580Y-72372890D01*
X53807184Y-72461359D01*
X53829355Y-72479554D01*
X55045445Y-73695645D01*
X55063641Y-73717817D01*
X55078408Y-73729935D01*
X54979360Y-73828983D01*
X54957183Y-73847183D01*
X54891691Y-73926987D01*
X54884579Y-73935653D01*
X54830629Y-74036586D01*
X54797407Y-74146105D01*
X54786189Y-74260000D01*
X54789000Y-74288540D01*
X54789001Y-76151450D01*
X54786189Y-76180000D01*
X54797407Y-76293895D01*
X54828889Y-76397679D01*
X54825657Y-76430500D01*
X54825657Y-77065500D01*
X54833013Y-77140189D01*
X54854799Y-77212008D01*
X54890178Y-77278196D01*
X54937789Y-77336211D01*
X54970560Y-77363105D01*
X54964320Y-77364998D01*
X54854006Y-77423963D01*
X54757315Y-77503315D01*
X54677963Y-77600006D01*
X54618998Y-77710320D01*
X54582688Y-77830018D01*
X54570428Y-77954500D01*
X54573500Y-77986250D01*
X54732250Y-78145000D01*
X55653000Y-78145000D01*
X55653000Y-78125000D01*
X55907000Y-78125000D01*
X55907000Y-78145000D01*
X57283000Y-78145000D01*
X57283000Y-78125000D01*
X57537000Y-78125000D01*
X57537000Y-78145000D01*
X58457750Y-78145000D01*
X58616500Y-77986250D01*
X58619572Y-77954500D01*
X58607312Y-77830018D01*
X58571002Y-77710320D01*
X58512037Y-77600006D01*
X58432685Y-77503315D01*
X58335994Y-77423963D01*
X58225680Y-77364998D01*
X58219440Y-77363105D01*
X58252211Y-77336211D01*
X58299822Y-77278196D01*
X58335201Y-77212008D01*
X58356987Y-77140189D01*
X58364343Y-77065500D01*
X58364343Y-76430500D01*
X58356987Y-76355811D01*
X58335201Y-76283992D01*
X58299822Y-76217804D01*
X58252211Y-76159789D01*
X58194196Y-76112178D01*
X58128008Y-76076799D01*
X58056189Y-76055013D01*
X57981500Y-76047657D01*
X56838500Y-76047657D01*
X56763811Y-76055013D01*
X56691992Y-76076799D01*
X56625804Y-76112178D01*
X56595000Y-76137458D01*
X56564196Y-76112178D01*
X56498008Y-76076799D01*
X56426189Y-76055013D01*
X56351500Y-76047657D01*
X56059315Y-76047657D01*
X55951000Y-75939343D01*
X55951000Y-75455143D01*
X55958860Y-75457413D01*
X56083493Y-75468015D01*
X56664250Y-75465000D01*
X56823000Y-75306250D01*
X56823000Y-74703000D01*
X57077000Y-74703000D01*
X57077000Y-75306250D01*
X57235750Y-75465000D01*
X57816507Y-75468015D01*
X57941140Y-75457413D01*
X58061311Y-75422700D01*
X58172400Y-75365209D01*
X58270139Y-75287151D01*
X58350772Y-75191524D01*
X58411199Y-75082005D01*
X58449099Y-74962801D01*
X58460000Y-74861750D01*
X58301250Y-74703000D01*
X57077000Y-74703000D01*
X56823000Y-74703000D01*
X56803000Y-74703000D01*
X56803000Y-74562843D01*
X57825000Y-74562843D01*
X57899689Y-74555487D01*
X57971508Y-74533701D01*
X58021461Y-74507000D01*
X58301250Y-74507000D01*
X58460000Y-74348250D01*
X58449099Y-74247199D01*
X58411199Y-74127995D01*
X58350772Y-74018476D01*
X58270139Y-73922849D01*
X58207843Y-73873097D01*
X58207843Y-73730000D01*
X58200487Y-73655311D01*
X58192809Y-73630000D01*
X58200487Y-73604689D01*
X58207843Y-73530000D01*
X58207843Y-73386903D01*
X58270139Y-73337151D01*
X58350772Y-73241524D01*
X58411199Y-73132005D01*
X58449099Y-73012801D01*
X58460000Y-72911750D01*
X58301250Y-72753000D01*
X58021461Y-72753000D01*
X57971508Y-72726299D01*
X57899689Y-72704513D01*
X57825000Y-72697157D01*
X56803000Y-72697157D01*
X56803000Y-72612843D01*
X57825000Y-72612843D01*
X57899689Y-72605487D01*
X57963929Y-72586000D01*
X58316460Y-72586000D01*
X58345000Y-72588811D01*
X58373540Y-72586000D01*
X58458896Y-72577593D01*
X58568415Y-72544371D01*
X58669348Y-72490421D01*
X58757817Y-72417817D01*
X58776017Y-72395640D01*
X58850640Y-72321017D01*
X58872817Y-72302817D01*
X58945421Y-72214348D01*
X58999371Y-72113414D01*
X59020632Y-72043327D01*
X59032593Y-72003896D01*
X59043811Y-71890000D01*
X59041000Y-71861460D01*
X59041000Y-71618539D01*
X59043811Y-71589999D01*
X59032593Y-71476104D01*
X58999371Y-71366585D01*
X58993705Y-71355985D01*
X58945421Y-71265652D01*
X58921086Y-71236000D01*
X60404554Y-71236000D01*
X60625531Y-71456978D01*
X60615804Y-71462178D01*
X60557789Y-71509789D01*
X60510178Y-71567804D01*
X60474799Y-71633992D01*
X60453013Y-71705811D01*
X60445657Y-71780500D01*
X60445657Y-72415500D01*
X60453013Y-72490189D01*
X60474799Y-72562008D01*
X60510178Y-72628196D01*
X60557789Y-72686211D01*
X60615804Y-72733822D01*
X60681992Y-72769201D01*
X60753811Y-72790987D01*
X60828500Y-72798343D01*
X61971500Y-72798343D01*
X62046189Y-72790987D01*
X62118008Y-72769201D01*
X62184196Y-72733822D01*
X62242211Y-72686211D01*
X62289822Y-72628196D01*
X62325201Y-72562008D01*
X62346987Y-72490189D01*
X62354343Y-72415500D01*
X62354343Y-71780500D01*
X62346987Y-71705811D01*
X62325201Y-71633992D01*
X62289822Y-71567804D01*
X62242211Y-71509789D01*
X62184196Y-71462178D01*
X62118008Y-71426799D01*
X62046189Y-71405013D01*
X61971500Y-71397657D01*
X61925410Y-71397657D01*
X61923317Y-71376406D01*
X61892953Y-71276312D01*
X61877992Y-71248322D01*
X61843646Y-71184064D01*
X61793918Y-71123470D01*
X61793912Y-71123464D01*
X61777290Y-71103210D01*
X61757035Y-71086587D01*
X61018421Y-70347975D01*
X61001790Y-70327710D01*
X60920935Y-70261354D01*
X60828688Y-70212047D01*
X60728594Y-70181683D01*
X60650584Y-70174000D01*
X60650574Y-70174000D01*
X60624500Y-70171432D01*
X60598426Y-70174000D01*
X59043023Y-70174000D01*
X59059371Y-70143414D01*
X59067863Y-70115420D01*
X59092593Y-70033896D01*
X59103811Y-69920000D01*
X59101000Y-69891460D01*
X59101000Y-69658539D01*
X59103811Y-69629999D01*
X59092593Y-69516104D01*
X59059371Y-69406585D01*
X59034796Y-69360609D01*
X59005421Y-69305652D01*
X58932817Y-69217183D01*
X58910641Y-69198984D01*
X58726017Y-69014360D01*
X58707817Y-68992183D01*
X58619348Y-68919579D01*
X58518415Y-68865629D01*
X58408896Y-68832407D01*
X58323540Y-68824000D01*
X58295000Y-68821189D01*
X58266460Y-68824000D01*
X57963929Y-68824000D01*
X57899689Y-68804513D01*
X57825000Y-68797157D01*
X56075000Y-68797157D01*
X56000311Y-68804513D01*
X55928492Y-68826299D01*
X55878539Y-68853000D01*
X55598750Y-68853000D01*
X55440000Y-69011750D01*
X55450901Y-69112801D01*
X55488801Y-69232005D01*
X55549228Y-69341524D01*
X55629861Y-69437151D01*
X55692157Y-69486903D01*
X55692157Y-69630000D01*
X55699513Y-69704689D01*
X55707191Y-69730000D01*
X55699513Y-69755311D01*
X55692157Y-69830000D01*
X55692157Y-69991413D01*
X55680027Y-69989000D01*
X55539973Y-69989000D01*
X55402609Y-70016324D01*
X55273215Y-70069920D01*
X55156764Y-70147730D01*
X55057730Y-70246764D01*
X54979920Y-70363215D01*
X54926324Y-70492609D01*
X54899000Y-70629973D01*
X54899000Y-70770027D01*
X54926324Y-70907391D01*
X54979920Y-71036785D01*
X55057730Y-71153236D01*
X55156764Y-71252270D01*
X55273215Y-71330080D01*
X55402609Y-71383676D01*
X55539973Y-71411000D01*
X55680027Y-71411000D01*
X55692157Y-71408587D01*
X55692157Y-71580000D01*
X55699513Y-71654689D01*
X55707191Y-71680000D01*
X55699513Y-71705311D01*
X55692157Y-71780000D01*
X55692157Y-71923097D01*
X55629861Y-71972849D01*
X55549228Y-72068476D01*
X55488801Y-72177995D01*
X55450901Y-72297199D01*
X55440000Y-72398250D01*
X55569748Y-72527998D01*
X55521114Y-72527998D01*
X54801000Y-71807885D01*
X54801000Y-69330657D01*
X55536704Y-68594954D01*
X55598750Y-68657000D01*
X56823000Y-68657000D01*
X56823000Y-68053750D01*
X57077000Y-68053750D01*
X57077000Y-68657000D01*
X58301250Y-68657000D01*
X58460000Y-68498250D01*
X58449099Y-68397199D01*
X58411199Y-68277995D01*
X58350772Y-68168476D01*
X58270139Y-68072849D01*
X58172400Y-67994791D01*
X58061311Y-67937300D01*
X57941140Y-67902587D01*
X57816507Y-67891985D01*
X57235750Y-67895000D01*
X57077000Y-68053750D01*
X56823000Y-68053750D01*
X56664250Y-67895000D01*
X56238866Y-67892792D01*
X56328645Y-67803013D01*
X56350817Y-67784817D01*
X56423421Y-67696348D01*
X56477371Y-67595415D01*
X56510593Y-67485896D01*
X56519000Y-67400540D01*
X56521401Y-67376158D01*
X56526211Y-67372211D01*
X56553105Y-67339440D01*
X56554998Y-67345680D01*
X56613963Y-67455994D01*
X56693315Y-67552685D01*
X56790006Y-67632037D01*
X56900320Y-67691002D01*
X57020018Y-67727312D01*
X57144500Y-67739572D01*
X57176250Y-67736500D01*
X57335000Y-67577750D01*
X57335000Y-66657000D01*
X57589000Y-66657000D01*
X57589000Y-67577750D01*
X57747750Y-67736500D01*
X57779500Y-67739572D01*
X57903982Y-67727312D01*
X58023680Y-67691002D01*
X58133994Y-67632037D01*
X58230685Y-67552685D01*
X58310037Y-67455994D01*
X58369002Y-67345680D01*
X58405312Y-67225982D01*
X58417572Y-67101500D01*
X58414500Y-66815750D01*
X58255750Y-66657000D01*
X57589000Y-66657000D01*
X57335000Y-66657000D01*
X57315000Y-66657000D01*
X57315000Y-66403000D01*
X57335000Y-66403000D01*
X57335000Y-65482250D01*
X57325000Y-65472250D01*
X57325000Y-65027000D01*
X57579000Y-65027000D01*
X57579000Y-65947750D01*
X57589000Y-65957750D01*
X57589000Y-66403000D01*
X58255750Y-66403000D01*
X58414500Y-66244250D01*
X58417572Y-65958500D01*
X58405312Y-65834018D01*
X58369002Y-65714320D01*
X58362886Y-65702877D01*
X58395312Y-65595982D01*
X58407572Y-65471500D01*
X58404500Y-65185750D01*
X58245750Y-65027000D01*
X57579000Y-65027000D01*
X57325000Y-65027000D01*
X57305000Y-65027000D01*
X57305000Y-64773000D01*
X57325000Y-64773000D01*
X57325000Y-63852250D01*
X57579000Y-63852250D01*
X57579000Y-64773000D01*
X58245750Y-64773000D01*
X58404500Y-64614250D01*
X58407572Y-64328500D01*
X58395312Y-64204018D01*
X58359002Y-64084320D01*
X58300037Y-63974006D01*
X58220685Y-63877315D01*
X58123994Y-63797963D01*
X58013680Y-63738998D01*
X57893982Y-63702688D01*
X57769500Y-63690428D01*
X57737750Y-63693500D01*
X57579000Y-63852250D01*
X57325000Y-63852250D01*
X57252559Y-63779809D01*
X59905770Y-61126599D01*
X59929844Y-61106842D01*
X60008697Y-61010760D01*
X60067290Y-60901141D01*
X60103371Y-60782197D01*
X60112501Y-60689497D01*
X60112501Y-60689488D01*
X60115553Y-60658500D01*
X60112501Y-60627512D01*
X60112501Y-59884404D01*
X60137464Y-60009900D01*
X60222721Y-60215729D01*
X60346495Y-60400970D01*
X60504030Y-60558505D01*
X60689271Y-60682279D01*
X60895100Y-60767536D01*
X61113606Y-60811000D01*
X61336394Y-60811000D01*
X61554900Y-60767536D01*
X61709001Y-60703706D01*
X61709001Y-61196294D01*
X61554900Y-61132464D01*
X61336394Y-61089000D01*
X61113606Y-61089000D01*
X60895100Y-61132464D01*
X60689271Y-61217721D01*
X60504030Y-61341495D01*
X60346495Y-61499030D01*
X60222721Y-61684271D01*
X60137464Y-61890100D01*
X60094000Y-62108606D01*
X60094000Y-62331394D01*
X60137464Y-62549900D01*
X60222721Y-62755729D01*
X60346495Y-62940970D01*
X60504030Y-63098505D01*
X60689271Y-63222279D01*
X60895100Y-63307536D01*
X61113606Y-63351000D01*
X61336394Y-63351000D01*
X61554900Y-63307536D01*
X61709000Y-63243706D01*
X61709000Y-63736294D01*
X61554900Y-63672464D01*
X61336394Y-63629000D01*
X61113606Y-63629000D01*
X60895100Y-63672464D01*
X60689271Y-63757721D01*
X60504030Y-63881495D01*
X60346495Y-64039030D01*
X60222721Y-64224271D01*
X60137464Y-64430100D01*
X60094000Y-64648606D01*
X60094000Y-64871394D01*
X60137464Y-65089900D01*
X60222721Y-65295729D01*
X60346495Y-65480970D01*
X60504030Y-65638505D01*
X60689271Y-65762279D01*
X60895100Y-65847536D01*
X61113606Y-65891000D01*
X61336394Y-65891000D01*
X61554900Y-65847536D01*
X61709000Y-65783706D01*
X61709000Y-66276294D01*
X61554900Y-66212464D01*
X61336394Y-66169000D01*
X61113606Y-66169000D01*
X60895100Y-66212464D01*
X60689271Y-66297721D01*
X60504030Y-66421495D01*
X60346495Y-66579030D01*
X60222721Y-66764271D01*
X60137464Y-66970100D01*
X60094000Y-67188606D01*
X60094000Y-67411394D01*
X60137464Y-67629900D01*
X60222721Y-67835729D01*
X60346495Y-68020970D01*
X60504030Y-68178505D01*
X60689271Y-68302279D01*
X60895100Y-68387536D01*
X61113606Y-68431000D01*
X61336394Y-68431000D01*
X61554900Y-68387536D01*
X61709000Y-68323706D01*
X61709000Y-69098832D01*
X61706915Y-69120000D01*
X61715237Y-69204491D01*
X61739882Y-69285734D01*
X61779903Y-69360609D01*
X61816334Y-69405000D01*
X61833763Y-69426237D01*
X61899391Y-69480097D01*
X61974266Y-69520118D01*
X62055509Y-69544763D01*
X62140000Y-69553085D01*
X62161168Y-69551000D01*
X67908832Y-69551000D01*
X67930000Y-69553085D01*
X67951168Y-69551000D01*
X68014491Y-69544763D01*
X68095734Y-69520118D01*
X68170609Y-69480097D01*
X68236237Y-69426237D01*
X68290097Y-69360609D01*
X68330118Y-69285734D01*
X68354763Y-69204491D01*
X68363085Y-69120000D01*
X68361000Y-69098832D01*
X68361000Y-68323706D01*
X68515100Y-68387536D01*
X68733606Y-68431000D01*
X68956394Y-68431000D01*
X69174900Y-68387536D01*
X69380729Y-68302279D01*
X69565970Y-68178505D01*
X69723505Y-68020970D01*
X69847279Y-67835729D01*
X69932536Y-67629900D01*
X69976000Y-67411394D01*
X69976000Y-67188606D01*
X69932536Y-66970100D01*
X69847279Y-66764271D01*
X69723505Y-66579030D01*
X69565970Y-66421495D01*
X69380729Y-66297721D01*
X69174900Y-66212464D01*
X68956394Y-66169000D01*
X68733606Y-66169000D01*
X68515100Y-66212464D01*
X68361000Y-66276294D01*
X68361000Y-65783706D01*
X68515100Y-65847536D01*
X68733606Y-65891000D01*
X68956394Y-65891000D01*
X69174900Y-65847536D01*
X69380729Y-65762279D01*
X69565970Y-65638505D01*
X69723505Y-65480970D01*
X69847279Y-65295729D01*
X69932536Y-65089900D01*
X69976000Y-64871394D01*
X69976000Y-64648606D01*
X69932536Y-64430100D01*
X69847279Y-64224271D01*
X69723505Y-64039030D01*
X69565970Y-63881495D01*
X69380729Y-63757721D01*
X69174900Y-63672464D01*
X68956394Y-63629000D01*
X68733606Y-63629000D01*
X68515100Y-63672464D01*
X68361000Y-63736294D01*
X68361000Y-63243706D01*
X68515100Y-63307536D01*
X68733606Y-63351000D01*
X68956394Y-63351000D01*
X69174900Y-63307536D01*
X69380729Y-63222279D01*
X69565970Y-63098505D01*
X69723505Y-62940970D01*
X69847279Y-62755729D01*
X69932536Y-62549900D01*
X69976000Y-62331394D01*
X69976000Y-62108606D01*
X69932536Y-61890100D01*
X69847279Y-61684271D01*
X69723505Y-61499030D01*
X69565970Y-61341495D01*
X69380729Y-61217721D01*
X69174900Y-61132464D01*
X68956394Y-61089000D01*
X68733606Y-61089000D01*
X68515100Y-61132464D01*
X68361000Y-61196294D01*
X68361000Y-60703706D01*
X68515100Y-60767536D01*
X68733606Y-60811000D01*
X68956394Y-60811000D01*
X69174900Y-60767536D01*
X69380729Y-60682279D01*
X69565970Y-60558505D01*
X69723505Y-60400970D01*
X69847279Y-60215729D01*
X69932536Y-60009900D01*
X69976000Y-59791394D01*
X69976000Y-59568606D01*
X69932536Y-59350100D01*
X69847279Y-59144271D01*
X69723505Y-58959030D01*
X69565970Y-58801495D01*
X69380729Y-58677721D01*
X69174900Y-58592464D01*
X68956394Y-58549000D01*
X68733606Y-58549000D01*
X68515100Y-58592464D01*
X68361000Y-58656294D01*
X68361000Y-58163706D01*
X68515100Y-58227536D01*
X68733606Y-58271000D01*
X68956394Y-58271000D01*
X69174900Y-58227536D01*
X69380729Y-58142279D01*
X69565970Y-58018505D01*
X69723505Y-57860970D01*
X69847279Y-57675729D01*
X69932536Y-57469900D01*
X69976000Y-57251394D01*
X69976000Y-57028606D01*
X69932536Y-56810100D01*
X69847279Y-56604271D01*
X69723505Y-56419030D01*
X69565970Y-56261495D01*
X69476000Y-56201379D01*
X69476000Y-55165987D01*
X69479052Y-55134999D01*
X69476000Y-55104011D01*
X69476000Y-55104002D01*
X69466870Y-55011302D01*
X69430789Y-54892358D01*
X69372196Y-54782739D01*
X69293343Y-54686657D01*
X69269269Y-54666900D01*
X68788105Y-54185737D01*
X68768343Y-54161657D01*
X68672261Y-54082804D01*
X68562642Y-54024211D01*
X68443698Y-53988130D01*
X68350998Y-53979000D01*
X68350990Y-53979000D01*
X68320000Y-53975948D01*
X68289010Y-53979000D01*
X61610990Y-53979000D01*
X61580000Y-53975948D01*
X61549009Y-53979000D01*
X61549002Y-53979000D01*
X61456302Y-53988130D01*
X61337358Y-54024211D01*
X61227739Y-54082804D01*
X61131657Y-54161657D01*
X61111899Y-54185732D01*
X59057234Y-56240398D01*
X59033159Y-56260156D01*
X59013401Y-56284231D01*
X59013398Y-56284234D01*
X58954305Y-56356239D01*
X58907175Y-56444412D01*
X58876189Y-56435013D01*
X58801500Y-56427657D01*
X58402669Y-56427657D01*
X58365540Y-56424000D01*
X58337000Y-56421189D01*
X58308460Y-56424000D01*
X57576869Y-56424000D01*
X56898605Y-55745737D01*
X56878843Y-55721657D01*
X56782761Y-55642804D01*
X56673142Y-55584211D01*
X56554198Y-55548130D01*
X56461498Y-55539000D01*
X56461490Y-55539000D01*
X56430500Y-55535948D01*
X56399510Y-55539000D01*
X45050987Y-55539000D01*
X45019999Y-55535948D01*
X44989011Y-55539000D01*
X44989002Y-55539000D01*
X44896302Y-55548130D01*
X44777358Y-55584211D01*
X44667739Y-55642804D01*
X44622298Y-55680097D01*
X44571657Y-55721657D01*
X44551899Y-55745732D01*
X44080583Y-56217049D01*
X44075487Y-56165311D01*
X44053701Y-56093492D01*
X44018322Y-56027304D01*
X43970711Y-55969289D01*
X43912696Y-55921678D01*
X43846508Y-55886299D01*
X43774689Y-55864513D01*
X43700000Y-55857157D01*
X41072000Y-55857157D01*
X41072000Y-49064166D01*
X41078237Y-49071766D01*
X41096589Y-49086827D01*
X41479000Y-49469239D01*
X41479000Y-49570029D01*
X41506324Y-49707393D01*
X41559920Y-49836787D01*
X41637730Y-49953238D01*
X41736764Y-50052272D01*
X41853215Y-50130082D01*
X41982609Y-50183678D01*
X42119973Y-50211002D01*
X42260027Y-50211002D01*
X42397391Y-50183678D01*
X42526785Y-50130082D01*
X42643236Y-50052272D01*
X42742270Y-49953238D01*
X42820080Y-49836787D01*
X42873676Y-49707393D01*
X42901000Y-49570029D01*
X42901000Y-49429975D01*
X42873676Y-49292611D01*
X42820080Y-49163217D01*
X42742270Y-49046766D01*
X42735504Y-49040000D01*
X43331794Y-49040000D01*
X43334001Y-49062409D01*
X43334000Y-51977601D01*
X43331794Y-52000000D01*
X43340598Y-52089392D01*
X43366673Y-52175348D01*
X43409016Y-52254566D01*
X43440826Y-52293327D01*
X43465999Y-52324001D01*
X43535434Y-52380984D01*
X43614652Y-52423327D01*
X43700608Y-52449402D01*
X43790000Y-52458206D01*
X43812399Y-52456000D01*
X47567601Y-52456000D01*
X47590000Y-52458206D01*
X47679392Y-52449402D01*
X47765348Y-52423327D01*
X47844566Y-52380984D01*
X47914001Y-52324001D01*
X47970984Y-52254566D01*
X48013327Y-52175348D01*
X48039402Y-52089392D01*
X48046000Y-52022399D01*
X48046000Y-52022398D01*
X48048206Y-52000000D01*
X48046000Y-51977601D01*
X48046000Y-49062399D01*
X48048206Y-49040000D01*
X48045244Y-49009920D01*
X48039402Y-48950608D01*
X48013327Y-48864652D01*
X47970984Y-48785434D01*
X47914001Y-48715999D01*
X47844566Y-48659016D01*
X47765348Y-48616673D01*
X47679392Y-48590598D01*
X47612399Y-48584000D01*
X47590000Y-48581794D01*
X47567601Y-48584000D01*
X43812399Y-48584000D01*
X43790000Y-48581794D01*
X43767601Y-48584000D01*
X43700608Y-48590598D01*
X43614652Y-48616673D01*
X43535434Y-48659016D01*
X43465999Y-48715999D01*
X43409016Y-48785434D01*
X43366673Y-48864652D01*
X43340598Y-48950608D01*
X43331794Y-49040000D01*
X42735504Y-49040000D01*
X42643236Y-48947732D01*
X42580016Y-48905490D01*
X42602270Y-48883236D01*
X42680080Y-48766785D01*
X42733676Y-48637391D01*
X42761000Y-48500027D01*
X42761000Y-48359973D01*
X42733676Y-48222609D01*
X42680080Y-48093215D01*
X42602270Y-47976764D01*
X42531000Y-47905494D01*
X42531000Y-46713294D01*
X42551157Y-46733451D01*
X42667613Y-46616995D01*
X42733137Y-46855860D01*
X42980116Y-46971760D01*
X43244960Y-47037250D01*
X43517492Y-47049812D01*
X43787238Y-47008965D01*
X44043832Y-46916277D01*
X44156863Y-46855860D01*
X44222388Y-46616993D01*
X43445000Y-45839605D01*
X43430858Y-45853748D01*
X43251253Y-45674143D01*
X43265395Y-45660000D01*
X43624605Y-45660000D01*
X44401993Y-46437388D01*
X44640860Y-46371863D01*
X44756760Y-46124884D01*
X44822250Y-45860040D01*
X44834812Y-45587508D01*
X44793965Y-45317762D01*
X44701277Y-45061168D01*
X44640860Y-44948137D01*
X44401993Y-44882612D01*
X43624605Y-45660000D01*
X43265395Y-45660000D01*
X43251253Y-45645858D01*
X43430858Y-45466253D01*
X43445000Y-45480395D01*
X44222388Y-44703007D01*
X44156863Y-44464140D01*
X43909884Y-44348240D01*
X43645040Y-44282750D01*
X43372508Y-44270188D01*
X43102762Y-44311035D01*
X42846168Y-44403723D01*
X42733137Y-44464140D01*
X42667613Y-44703005D01*
X42551157Y-44586549D01*
X42531000Y-44606706D01*
X42531000Y-43787848D01*
X42566495Y-43840970D01*
X42724030Y-43998505D01*
X42909271Y-44122279D01*
X43115100Y-44207536D01*
X43333606Y-44251000D01*
X43556394Y-44251000D01*
X43774900Y-44207536D01*
X43980729Y-44122279D01*
X44165970Y-43998505D01*
X44323505Y-43840970D01*
X44447279Y-43655729D01*
X44532536Y-43449900D01*
X44576000Y-43231394D01*
X44576000Y-43008606D01*
X44532536Y-42790100D01*
X44447279Y-42584271D01*
X44323505Y-42399030D01*
X44165970Y-42241495D01*
X43980729Y-42117721D01*
X43774900Y-42032464D01*
X43556394Y-41989000D01*
X43333606Y-41989000D01*
X43115100Y-42032464D01*
X42909271Y-42117721D01*
X42724030Y-42241495D01*
X42566495Y-42399030D01*
X42531000Y-42452152D01*
X42531000Y-42174236D01*
X43060370Y-41644866D01*
X43115100Y-41667536D01*
X43333606Y-41711000D01*
X43556394Y-41711000D01*
X43774900Y-41667536D01*
X43980729Y-41582279D01*
X44165970Y-41458505D01*
X44323505Y-41300970D01*
X44447279Y-41115729D01*
X44532536Y-40909900D01*
X44576000Y-40691394D01*
X44576000Y-40468606D01*
X44532536Y-40250100D01*
X44447279Y-40044271D01*
X44323505Y-39859030D01*
X44165970Y-39701495D01*
X43980729Y-39577721D01*
X43774900Y-39492464D01*
X43556394Y-39449000D01*
X43333606Y-39449000D01*
X43115100Y-39492464D01*
X42909271Y-39577721D01*
X42724030Y-39701495D01*
X42566495Y-39859030D01*
X42442721Y-40044271D01*
X42357464Y-40250100D01*
X42314000Y-40468606D01*
X42314000Y-40691394D01*
X42357464Y-40909900D01*
X42380134Y-40964630D01*
X41901000Y-41443764D01*
X41901000Y-40264236D01*
X43060370Y-39104866D01*
X43115100Y-39127536D01*
X43333606Y-39171000D01*
X43556394Y-39171000D01*
X43774900Y-39127536D01*
X43980729Y-39042279D01*
X44165970Y-38918505D01*
X44323505Y-38760970D01*
X44447279Y-38575729D01*
X44532536Y-38369900D01*
X44576000Y-38151394D01*
X44576000Y-37928606D01*
X49934000Y-37928606D01*
X49934000Y-38151394D01*
X49977464Y-38369900D01*
X50062721Y-38575729D01*
X50186495Y-38760970D01*
X50344030Y-38918505D01*
X50529271Y-39042279D01*
X50735100Y-39127536D01*
X50953606Y-39171000D01*
X51176394Y-39171000D01*
X51394900Y-39127536D01*
X51449630Y-39104866D01*
X53829000Y-41484237D01*
X53829000Y-42670794D01*
X53781764Y-42613236D01*
X53763412Y-42598175D01*
X52129866Y-40964630D01*
X52152536Y-40909900D01*
X52196000Y-40691394D01*
X52196000Y-40468606D01*
X52152536Y-40250100D01*
X52067279Y-40044271D01*
X51943505Y-39859030D01*
X51785970Y-39701495D01*
X51600729Y-39577721D01*
X51394900Y-39492464D01*
X51176394Y-39449000D01*
X50953606Y-39449000D01*
X50735100Y-39492464D01*
X50529271Y-39577721D01*
X50344030Y-39701495D01*
X50186495Y-39859030D01*
X50062721Y-40044271D01*
X49977464Y-40250100D01*
X49934000Y-40468606D01*
X49934000Y-40691394D01*
X49977464Y-40909900D01*
X50062721Y-41115729D01*
X50186495Y-41300970D01*
X50344030Y-41458505D01*
X50529271Y-41582279D01*
X50735100Y-41667536D01*
X50953606Y-41711000D01*
X51176394Y-41711000D01*
X51394900Y-41667536D01*
X51449630Y-41644866D01*
X52959000Y-43154237D01*
X52959000Y-44434094D01*
X52936536Y-44360039D01*
X52891872Y-44276478D01*
X52831764Y-44203236D01*
X52813412Y-44188175D01*
X52129866Y-43504630D01*
X52152536Y-43449900D01*
X52196000Y-43231394D01*
X52196000Y-43008606D01*
X52152536Y-42790100D01*
X52067279Y-42584271D01*
X51943505Y-42399030D01*
X51785970Y-42241495D01*
X51600729Y-42117721D01*
X51394900Y-42032464D01*
X51176394Y-41989000D01*
X50953606Y-41989000D01*
X50735100Y-42032464D01*
X50529271Y-42117721D01*
X50344030Y-42241495D01*
X50186495Y-42399030D01*
X50062721Y-42584271D01*
X49977464Y-42790100D01*
X49934000Y-43008606D01*
X49934000Y-43231394D01*
X49977464Y-43449900D01*
X50062721Y-43655729D01*
X50186495Y-43840970D01*
X50344030Y-43998505D01*
X50529271Y-44122279D01*
X50735100Y-44207536D01*
X50953606Y-44251000D01*
X51176394Y-44251000D01*
X51394900Y-44207536D01*
X51449630Y-44184866D01*
X52009000Y-44744237D01*
X52009000Y-45037050D01*
X51943505Y-44939030D01*
X51785970Y-44781495D01*
X51600729Y-44657721D01*
X51394900Y-44572464D01*
X51176394Y-44529000D01*
X50953606Y-44529000D01*
X50735100Y-44572464D01*
X50529271Y-44657721D01*
X50344030Y-44781495D01*
X50186495Y-44939030D01*
X50062721Y-45124271D01*
X49977464Y-45330100D01*
X49934000Y-45548606D01*
X49934000Y-45771394D01*
X49977464Y-45989900D01*
X50062721Y-46195729D01*
X50186495Y-46380970D01*
X50344030Y-46538505D01*
X50529271Y-46662279D01*
X50735100Y-46747536D01*
X50739000Y-46748312D01*
X50739001Y-50072163D01*
X50686065Y-50125099D01*
X50608255Y-50241550D01*
X50554659Y-50370944D01*
X50527335Y-50508308D01*
X50527335Y-50648362D01*
X50554659Y-50785726D01*
X50608255Y-50915120D01*
X50686065Y-51031571D01*
X50785099Y-51130605D01*
X50901550Y-51208415D01*
X51030944Y-51262011D01*
X51168308Y-51289335D01*
X51308362Y-51289335D01*
X51445726Y-51262011D01*
X51575120Y-51208415D01*
X51691571Y-51130605D01*
X51790605Y-51031571D01*
X51868415Y-50915120D01*
X51922011Y-50785726D01*
X51949335Y-50648362D01*
X51949335Y-50508308D01*
X51922011Y-50370944D01*
X51868415Y-50241550D01*
X51790605Y-50125099D01*
X51701000Y-50035494D01*
X51701000Y-46595280D01*
X51785970Y-46538505D01*
X51943505Y-46380970D01*
X52009000Y-46282949D01*
X52009001Y-49215493D01*
X51937730Y-49286764D01*
X51859920Y-49403215D01*
X51806324Y-49532609D01*
X51779000Y-49669973D01*
X51779000Y-49810027D01*
X51806324Y-49947391D01*
X51859920Y-50076785D01*
X51937730Y-50193236D01*
X52036764Y-50292270D01*
X52153215Y-50370080D01*
X52282609Y-50423676D01*
X52419973Y-50451000D01*
X52560027Y-50451000D01*
X52697391Y-50423676D01*
X52826785Y-50370080D01*
X52943236Y-50292270D01*
X53042270Y-50193236D01*
X53120080Y-50076785D01*
X53173676Y-49947391D01*
X53201000Y-49810027D01*
X53201000Y-49780581D01*
X53232609Y-49793674D01*
X53369973Y-49820998D01*
X53510027Y-49820998D01*
X53542822Y-49814474D01*
X53489261Y-49850263D01*
X53390227Y-49949297D01*
X53312417Y-50065748D01*
X53258821Y-50195142D01*
X53231497Y-50332506D01*
X53231497Y-50472560D01*
X53258821Y-50609924D01*
X53312417Y-50739318D01*
X53390227Y-50855769D01*
X53489261Y-50954803D01*
X53605712Y-51032613D01*
X53735106Y-51086209D01*
X53872470Y-51113533D01*
X54012524Y-51113533D01*
X54149888Y-51086209D01*
X54279282Y-51032613D01*
X54395733Y-50954803D01*
X54494767Y-50855769D01*
X54572577Y-50739318D01*
X54626173Y-50609924D01*
X54653497Y-50472560D01*
X54653497Y-50446739D01*
X58483243Y-46616993D01*
X60447612Y-46616993D01*
X60513137Y-46855860D01*
X60760116Y-46971760D01*
X61024960Y-47037250D01*
X61297492Y-47049812D01*
X61567238Y-47008965D01*
X61823832Y-46916277D01*
X61936863Y-46855860D01*
X62002388Y-46616993D01*
X61225000Y-45839605D01*
X60447612Y-46616993D01*
X58483243Y-46616993D01*
X59920419Y-45179818D01*
X59913240Y-45195116D01*
X59847750Y-45459960D01*
X59835188Y-45732492D01*
X59876035Y-46002238D01*
X59968723Y-46258832D01*
X60029140Y-46371863D01*
X60268007Y-46437388D01*
X61045395Y-45660000D01*
X61404605Y-45660000D01*
X62181993Y-46437388D01*
X62420860Y-46371863D01*
X62536760Y-46124884D01*
X62602250Y-45860040D01*
X62614812Y-45587508D01*
X62573965Y-45317762D01*
X62481277Y-45061168D01*
X62420860Y-44948137D01*
X62181993Y-44882612D01*
X61404605Y-45660000D01*
X61045395Y-45660000D01*
X61031253Y-45645858D01*
X61210858Y-45466253D01*
X61225000Y-45480395D01*
X62002388Y-44703007D01*
X61936863Y-44464140D01*
X61689884Y-44348240D01*
X61425040Y-44282750D01*
X61152508Y-44270188D01*
X60882762Y-44311035D01*
X60736294Y-44363943D01*
X60893404Y-44206833D01*
X60895100Y-44207536D01*
X61113606Y-44251000D01*
X61336394Y-44251000D01*
X61554900Y-44207536D01*
X61760729Y-44122279D01*
X61945970Y-43998505D01*
X62103505Y-43840970D01*
X62227279Y-43655729D01*
X62312536Y-43449900D01*
X62356000Y-43231394D01*
X62356000Y-43008606D01*
X62312536Y-42790100D01*
X62227279Y-42584271D01*
X62103505Y-42399030D01*
X61945970Y-42241495D01*
X61760729Y-42117721D01*
X61554900Y-42032464D01*
X61336394Y-41989000D01*
X61113606Y-41989000D01*
X60895100Y-42032464D01*
X60689271Y-42117721D01*
X60504030Y-42241495D01*
X60346495Y-42399030D01*
X60222721Y-42584271D01*
X60137464Y-42790100D01*
X60094000Y-43008606D01*
X60094000Y-43231394D01*
X60137464Y-43449900D01*
X60182101Y-43557662D01*
X55913690Y-47826073D01*
X55900080Y-47793215D01*
X55822270Y-47676764D01*
X55751000Y-47605494D01*
X55751000Y-46734236D01*
X60840371Y-41644866D01*
X60895100Y-41667536D01*
X61113606Y-41711000D01*
X61336394Y-41711000D01*
X61554900Y-41667536D01*
X61760729Y-41582279D01*
X61945970Y-41458505D01*
X62103505Y-41300970D01*
X62227279Y-41115729D01*
X62312536Y-40909900D01*
X62356000Y-40691394D01*
X62356000Y-40468606D01*
X62312536Y-40250100D01*
X62227279Y-40044271D01*
X62103505Y-39859030D01*
X61945970Y-39701495D01*
X61760729Y-39577721D01*
X61554900Y-39492464D01*
X61336394Y-39449000D01*
X61113606Y-39449000D01*
X60895100Y-39492464D01*
X60689271Y-39577721D01*
X60504030Y-39701495D01*
X60346495Y-39859030D01*
X60222721Y-40044271D01*
X60137464Y-40250100D01*
X60094000Y-40468606D01*
X60094000Y-40691394D01*
X60137464Y-40909900D01*
X60160134Y-40964629D01*
X54946594Y-46178170D01*
X54928236Y-46193236D01*
X54868128Y-46266478D01*
X54823464Y-46350040D01*
X54815678Y-46375708D01*
X54795960Y-46440708D01*
X54791000Y-46491067D01*
X54791000Y-41308626D01*
X54793327Y-41284999D01*
X54784040Y-41190707D01*
X54756536Y-41100040D01*
X54756536Y-41100039D01*
X54711872Y-41016478D01*
X54651764Y-40943236D01*
X54633412Y-40928175D01*
X52129866Y-38424630D01*
X52152536Y-38369900D01*
X52196000Y-38151394D01*
X52196000Y-37928606D01*
X60094000Y-37928606D01*
X60094000Y-38151394D01*
X60137464Y-38369900D01*
X60222721Y-38575729D01*
X60346495Y-38760970D01*
X60504030Y-38918505D01*
X60689271Y-39042279D01*
X60895100Y-39127536D01*
X61113606Y-39171000D01*
X61336394Y-39171000D01*
X61554900Y-39127536D01*
X61760729Y-39042279D01*
X61945970Y-38918505D01*
X62103505Y-38760970D01*
X62227279Y-38575729D01*
X62312536Y-38369900D01*
X62356000Y-38151394D01*
X62356000Y-37928606D01*
X62312536Y-37710100D01*
X62227279Y-37504271D01*
X62103505Y-37319030D01*
X61945970Y-37161495D01*
X61760729Y-37037721D01*
X61554900Y-36952464D01*
X61336394Y-36909000D01*
X61113606Y-36909000D01*
X60895100Y-36952464D01*
X60689271Y-37037721D01*
X60504030Y-37161495D01*
X60346495Y-37319030D01*
X60222721Y-37504271D01*
X60137464Y-37710100D01*
X60094000Y-37928606D01*
X52196000Y-37928606D01*
X52152536Y-37710100D01*
X52067279Y-37504271D01*
X51943505Y-37319030D01*
X51785970Y-37161495D01*
X51600729Y-37037721D01*
X51394900Y-36952464D01*
X51176394Y-36909000D01*
X50953606Y-36909000D01*
X50735100Y-36952464D01*
X50529271Y-37037721D01*
X50344030Y-37161495D01*
X50186495Y-37319030D01*
X50062721Y-37504271D01*
X49977464Y-37710100D01*
X49934000Y-37928606D01*
X44576000Y-37928606D01*
X44532536Y-37710100D01*
X44447279Y-37504271D01*
X44323505Y-37319030D01*
X44165970Y-37161495D01*
X43980729Y-37037721D01*
X43774900Y-36952464D01*
X43556394Y-36909000D01*
X43333606Y-36909000D01*
X43115100Y-36952464D01*
X42909271Y-37037721D01*
X42724030Y-37161495D01*
X42566495Y-37319030D01*
X42442721Y-37504271D01*
X42357464Y-37710100D01*
X42314000Y-37928606D01*
X42314000Y-38151394D01*
X42357464Y-38369900D01*
X42380134Y-38424630D01*
X41096594Y-39708170D01*
X41078236Y-39723236D01*
X41072000Y-39730835D01*
X41072000Y-35388606D01*
X42314000Y-35388606D01*
X42314000Y-35611394D01*
X42357464Y-35829900D01*
X42442721Y-36035729D01*
X42566495Y-36220970D01*
X42724030Y-36378505D01*
X42909271Y-36502279D01*
X43115100Y-36587536D01*
X43333606Y-36631000D01*
X43556394Y-36631000D01*
X43774900Y-36587536D01*
X43980729Y-36502279D01*
X44165970Y-36378505D01*
X44323505Y-36220970D01*
X44447279Y-36035729D01*
X44532536Y-35829900D01*
X44576000Y-35611394D01*
X44576000Y-35388606D01*
X49934000Y-35388606D01*
X49934000Y-35611394D01*
X49977464Y-35829900D01*
X50062721Y-36035729D01*
X50186495Y-36220970D01*
X50344030Y-36378505D01*
X50529271Y-36502279D01*
X50735100Y-36587536D01*
X50953606Y-36631000D01*
X51176394Y-36631000D01*
X51394900Y-36587536D01*
X51600729Y-36502279D01*
X51785970Y-36378505D01*
X51943505Y-36220970D01*
X52067279Y-36035729D01*
X52152536Y-35829900D01*
X52196000Y-35611394D01*
X52196000Y-35388606D01*
X60094000Y-35388606D01*
X60094000Y-35611394D01*
X60137464Y-35829900D01*
X60222721Y-36035729D01*
X60346495Y-36220970D01*
X60504030Y-36378505D01*
X60689271Y-36502279D01*
X60895100Y-36587536D01*
X61113606Y-36631000D01*
X61336394Y-36631000D01*
X61554900Y-36587536D01*
X61760729Y-36502279D01*
X61945970Y-36378505D01*
X62103505Y-36220970D01*
X62227279Y-36035729D01*
X62312536Y-35829900D01*
X62356000Y-35611394D01*
X62356000Y-35388606D01*
X62312536Y-35170100D01*
X62227279Y-34964271D01*
X62103505Y-34779030D01*
X61945970Y-34621495D01*
X61760729Y-34497721D01*
X61554900Y-34412464D01*
X61336394Y-34369000D01*
X61113606Y-34369000D01*
X60895100Y-34412464D01*
X60689271Y-34497721D01*
X60504030Y-34621495D01*
X60346495Y-34779030D01*
X60222721Y-34964271D01*
X60137464Y-35170100D01*
X60094000Y-35388606D01*
X52196000Y-35388606D01*
X52152536Y-35170100D01*
X52067279Y-34964271D01*
X51943505Y-34779030D01*
X51785970Y-34621495D01*
X51600729Y-34497721D01*
X51394900Y-34412464D01*
X51176394Y-34369000D01*
X50953606Y-34369000D01*
X50735100Y-34412464D01*
X50529271Y-34497721D01*
X50344030Y-34621495D01*
X50186495Y-34779030D01*
X50062721Y-34964271D01*
X49977464Y-35170100D01*
X49934000Y-35388606D01*
X44576000Y-35388606D01*
X44532536Y-35170100D01*
X44447279Y-34964271D01*
X44323505Y-34779030D01*
X44165970Y-34621495D01*
X43980729Y-34497721D01*
X43774900Y-34412464D01*
X43556394Y-34369000D01*
X43333606Y-34369000D01*
X43115100Y-34412464D01*
X42909271Y-34497721D01*
X42724030Y-34621495D01*
X42566495Y-34779030D01*
X42442721Y-34964271D01*
X42357464Y-35170100D01*
X42314000Y-35388606D01*
X41072000Y-35388606D01*
X41072000Y-31516000D01*
X71234000Y-31516000D01*
X71234000Y-37208763D01*
X71234000Y-37208763D01*
G37*
X71234000Y-37208763D02*
X69909866Y-35884630D01*
X69932536Y-35829900D01*
X69976000Y-35611394D01*
X69976000Y-35388606D01*
X69932536Y-35170100D01*
X69847279Y-34964271D01*
X69723505Y-34779030D01*
X69565970Y-34621495D01*
X69380729Y-34497721D01*
X69174900Y-34412464D01*
X68956394Y-34369000D01*
X68733606Y-34369000D01*
X68515100Y-34412464D01*
X68309271Y-34497721D01*
X68124030Y-34621495D01*
X67966495Y-34779030D01*
X67842721Y-34964271D01*
X67757464Y-35170100D01*
X67714000Y-35388606D01*
X67714000Y-35611394D01*
X67757464Y-35829900D01*
X67842721Y-36035729D01*
X67966495Y-36220970D01*
X68124030Y-36378505D01*
X68309271Y-36502279D01*
X68515100Y-36587536D01*
X68733606Y-36631000D01*
X68956394Y-36631000D01*
X69174900Y-36587536D01*
X69229630Y-36564866D01*
X70439000Y-37774237D01*
X70439000Y-38953764D01*
X69909866Y-38424630D01*
X69932536Y-38369900D01*
X69976000Y-38151394D01*
X69976000Y-37928606D01*
X69932536Y-37710100D01*
X69847279Y-37504271D01*
X69723505Y-37319030D01*
X69565970Y-37161495D01*
X69380729Y-37037721D01*
X69174900Y-36952464D01*
X68956394Y-36909000D01*
X68733606Y-36909000D01*
X68515100Y-36952464D01*
X68309271Y-37037721D01*
X68124030Y-37161495D01*
X67966495Y-37319030D01*
X67842721Y-37504271D01*
X67757464Y-37710100D01*
X67714000Y-37928606D01*
X67714000Y-38151394D01*
X67757464Y-38369900D01*
X67842721Y-38575729D01*
X67966495Y-38760970D01*
X68124030Y-38918505D01*
X68309271Y-39042279D01*
X68515100Y-39127536D01*
X68733606Y-39171000D01*
X68956394Y-39171000D01*
X69174900Y-39127536D01*
X69229630Y-39104866D01*
X69659001Y-39534237D01*
X69659001Y-39794526D01*
X69565970Y-39701495D01*
X69380729Y-39577721D01*
X69174900Y-39492464D01*
X68956394Y-39449000D01*
X68733606Y-39449000D01*
X68515100Y-39492464D01*
X68309271Y-39577721D01*
X68124030Y-39701495D01*
X67966495Y-39859030D01*
X67842721Y-40044271D01*
X67757464Y-40250100D01*
X67714000Y-40468606D01*
X67714000Y-40691394D01*
X67757464Y-40909900D01*
X67842721Y-41115729D01*
X67966495Y-41300970D01*
X68124030Y-41458505D01*
X68309271Y-41582279D01*
X68515100Y-41667536D01*
X68733606Y-41711000D01*
X68956394Y-41711000D01*
X69174900Y-41667536D01*
X69380729Y-41582279D01*
X69565970Y-41458505D01*
X69659001Y-41365474D01*
X69659001Y-42334526D01*
X69565970Y-42241495D01*
X69380729Y-42117721D01*
X69174900Y-42032464D01*
X68956394Y-41989000D01*
X68733606Y-41989000D01*
X68515100Y-42032464D01*
X68309271Y-42117721D01*
X68124030Y-42241495D01*
X67966495Y-42399030D01*
X67842721Y-42584271D01*
X67757464Y-42790100D01*
X67714000Y-43008606D01*
X67714000Y-43231394D01*
X67757464Y-43449900D01*
X67842721Y-43655729D01*
X67966495Y-43840970D01*
X68124030Y-43998505D01*
X68309271Y-44122279D01*
X68515100Y-44207536D01*
X68733606Y-44251000D01*
X68956394Y-44251000D01*
X69174900Y-44207536D01*
X69380729Y-44122279D01*
X69565970Y-43998505D01*
X69659000Y-43905475D01*
X69659000Y-44874525D01*
X69565970Y-44781495D01*
X69380729Y-44657721D01*
X69174900Y-44572464D01*
X68956394Y-44529000D01*
X68733606Y-44529000D01*
X68515100Y-44572464D01*
X68309271Y-44657721D01*
X68124030Y-44781495D01*
X67966495Y-44939030D01*
X67842721Y-45124271D01*
X67757464Y-45330100D01*
X67714000Y-45548606D01*
X67714000Y-45771394D01*
X67757464Y-45989900D01*
X67842721Y-46195729D01*
X67966495Y-46380970D01*
X68124030Y-46538505D01*
X68309271Y-46662279D01*
X68515100Y-46747536D01*
X68733606Y-46791000D01*
X68798763Y-46791000D01*
X67888237Y-47701527D01*
X67827391Y-47676324D01*
X67690027Y-47649000D01*
X67549973Y-47649000D01*
X67412609Y-47676324D01*
X67283215Y-47729920D01*
X67166764Y-47807730D01*
X67067730Y-47906764D01*
X66989920Y-48023215D01*
X66936324Y-48152609D01*
X66909000Y-48289973D01*
X66909000Y-48430027D01*
X66936324Y-48567391D01*
X66989920Y-48696785D01*
X67067730Y-48813236D01*
X67166764Y-48912270D01*
X67283215Y-48990080D01*
X67381796Y-49030913D01*
X67296764Y-49087730D01*
X67197730Y-49186764D01*
X67119920Y-49303215D01*
X67066324Y-49432609D01*
X67039000Y-49569973D01*
X67039000Y-49710027D01*
X67066324Y-49847391D01*
X67119920Y-49976785D01*
X67197730Y-50093236D01*
X67296764Y-50192270D01*
X67413215Y-50270080D01*
X67542609Y-50323676D01*
X67679973Y-50351000D01*
X67820027Y-50351000D01*
X67957391Y-50323676D01*
X68086785Y-50270080D01*
X68203236Y-50192270D01*
X68302270Y-50093236D01*
X68380080Y-49976785D01*
X68433676Y-49847391D01*
X68461000Y-49710027D01*
X68461000Y-49609236D01*
X71234000Y-46836237D01*
X71234000Y-47641490D01*
X71197391Y-47626326D01*
X71060027Y-47599002D01*
X70919973Y-47599002D01*
X70782609Y-47626326D01*
X70653215Y-47679922D01*
X70536764Y-47757732D01*
X70437730Y-47856766D01*
X70359920Y-47973217D01*
X70306324Y-48102611D01*
X70279000Y-48239975D01*
X70279000Y-48340766D01*
X69366589Y-49253177D01*
X69348237Y-49268238D01*
X69333176Y-49286590D01*
X69288129Y-49341480D01*
X69243465Y-49425041D01*
X69215960Y-49515710D01*
X69206673Y-49610002D01*
X69209001Y-49633638D01*
X69209000Y-50996373D01*
X69206673Y-51020000D01*
X69209000Y-51043625D01*
X69215960Y-51114291D01*
X69243464Y-51204960D01*
X69288128Y-51288522D01*
X69348236Y-51361764D01*
X69366594Y-51376830D01*
X69999001Y-52009238D01*
X69999000Y-83245763D01*
X69229630Y-84015134D01*
X69174900Y-83992464D01*
X68956394Y-83949000D01*
X68733606Y-83949000D01*
X68515100Y-83992464D01*
X68371000Y-84052152D01*
X68371000Y-83567848D01*
X68515100Y-83627536D01*
X68733606Y-83671000D01*
X68956394Y-83671000D01*
X69174900Y-83627536D01*
X69380729Y-83542279D01*
X69565970Y-83418505D01*
X69723505Y-83260970D01*
X69847279Y-83075729D01*
X69932536Y-82869900D01*
X69976000Y-82651394D01*
X69976000Y-82428606D01*
X69932536Y-82210100D01*
X69847279Y-82004271D01*
X69723505Y-81819030D01*
X69565970Y-81661495D01*
X69380729Y-81537721D01*
X69174900Y-81452464D01*
X68956394Y-81409000D01*
X68733606Y-81409000D01*
X68515100Y-81452464D01*
X68371000Y-81512152D01*
X68371000Y-81027848D01*
X68515100Y-81087536D01*
X68733606Y-81131000D01*
X68956394Y-81131000D01*
X69174900Y-81087536D01*
X69380729Y-81002279D01*
X69565970Y-80878505D01*
X69723505Y-80720970D01*
X69847279Y-80535729D01*
X69932536Y-80329900D01*
X69976000Y-80111394D01*
X69976000Y-79888606D01*
X69932536Y-79670100D01*
X69847279Y-79464271D01*
X69723505Y-79279030D01*
X69565970Y-79121495D01*
X69380729Y-78997721D01*
X69174900Y-78912464D01*
X68956394Y-78869000D01*
X68733606Y-78869000D01*
X68515100Y-78912464D01*
X68371000Y-78972152D01*
X68371000Y-78201168D01*
X68373085Y-78180000D01*
X68364763Y-78095509D01*
X68340118Y-78014266D01*
X68300097Y-77939391D01*
X68246237Y-77873763D01*
X68180609Y-77819903D01*
X68105734Y-77779882D01*
X68024491Y-77755237D01*
X67961168Y-77749000D01*
X67940000Y-77746915D01*
X67918832Y-77749000D01*
X62161168Y-77749000D01*
X62140000Y-77746915D01*
X62118832Y-77749000D01*
X62055509Y-77755237D01*
X61974266Y-77779882D01*
X61899391Y-77819903D01*
X61833763Y-77873763D01*
X61779903Y-77939391D01*
X61739882Y-78014266D01*
X61715237Y-78095509D01*
X61706915Y-78180000D01*
X61709001Y-78201179D01*
X61709001Y-78976295D01*
X61554900Y-78912464D01*
X61336394Y-78869000D01*
X61113606Y-78869000D01*
X60895100Y-78912464D01*
X60689271Y-78997721D01*
X60504030Y-79121495D01*
X60346495Y-79279030D01*
X60222721Y-79464271D01*
X60137464Y-79670100D01*
X60094000Y-79888606D01*
X60094000Y-80111394D01*
X60137464Y-80329900D01*
X60222721Y-80535729D01*
X60346495Y-80720970D01*
X60504030Y-80878505D01*
X60689271Y-81002279D01*
X60895100Y-81087536D01*
X61113606Y-81131000D01*
X61336394Y-81131000D01*
X61554900Y-81087536D01*
X61709001Y-81023705D01*
X61709001Y-81516295D01*
X61554900Y-81452464D01*
X61336394Y-81409000D01*
X61113606Y-81409000D01*
X60895100Y-81452464D01*
X60689271Y-81537721D01*
X60504030Y-81661495D01*
X60346495Y-81819030D01*
X60222721Y-82004271D01*
X60137464Y-82210100D01*
X60094000Y-82428606D01*
X60094000Y-82651394D01*
X60137464Y-82869900D01*
X60222721Y-83075729D01*
X60346495Y-83260970D01*
X60504030Y-83418505D01*
X60689271Y-83542279D01*
X60895100Y-83627536D01*
X61113606Y-83671000D01*
X61336394Y-83671000D01*
X61554900Y-83627536D01*
X61709001Y-83563706D01*
X61709001Y-84056294D01*
X61554900Y-83992464D01*
X61336394Y-83949000D01*
X61113606Y-83949000D01*
X60895100Y-83992464D01*
X60689271Y-84077721D01*
X60504030Y-84201495D01*
X60346495Y-84359030D01*
X60222721Y-84544271D01*
X60137464Y-84750100D01*
X60094000Y-84968606D01*
X60094000Y-85191394D01*
X60137464Y-85409900D01*
X60222721Y-85615729D01*
X60346495Y-85800970D01*
X60504030Y-85958505D01*
X60689271Y-86082279D01*
X60895100Y-86167536D01*
X61113606Y-86211000D01*
X61336394Y-86211000D01*
X61554900Y-86167536D01*
X61709000Y-86103706D01*
X61709000Y-86596294D01*
X61554900Y-86532464D01*
X61336394Y-86489000D01*
X61113606Y-86489000D01*
X60895100Y-86532464D01*
X60689271Y-86617721D01*
X60504030Y-86741495D01*
X60346495Y-86899030D01*
X60222721Y-87084271D01*
X60137464Y-87290100D01*
X60094000Y-87508606D01*
X60094000Y-87731394D01*
X60137464Y-87949900D01*
X60222721Y-88155729D01*
X60346495Y-88340970D01*
X60504030Y-88498505D01*
X60689271Y-88622279D01*
X60895100Y-88707536D01*
X61113606Y-88751000D01*
X61336394Y-88751000D01*
X61554900Y-88707536D01*
X61709000Y-88643706D01*
X61709000Y-88857211D01*
X61689884Y-88848240D01*
X61425040Y-88782750D01*
X61152508Y-88770188D01*
X60882762Y-88811035D01*
X60626168Y-88903723D01*
X60513137Y-88964140D01*
X60447612Y-89203007D01*
X61225000Y-89980395D01*
X61239143Y-89966253D01*
X61418748Y-90145858D01*
X61404605Y-90160000D01*
X61418748Y-90174143D01*
X61239143Y-90353748D01*
X61225000Y-90339605D01*
X60447612Y-91116993D01*
X60513137Y-91355860D01*
X60760116Y-91471760D01*
X61024960Y-91537250D01*
X61297492Y-91549812D01*
X61567238Y-91508965D01*
X61709000Y-91457757D01*
X61709000Y-91958832D01*
X61706915Y-91980000D01*
X61715237Y-92064491D01*
X61739882Y-92145734D01*
X61779903Y-92220609D01*
X61833763Y-92286237D01*
X61899391Y-92340097D01*
X61974266Y-92380118D01*
X62055509Y-92404763D01*
X62140000Y-92413085D01*
X62161168Y-92411000D01*
X67918832Y-92411000D01*
X67940000Y-92413085D01*
X67961168Y-92411000D01*
X68024491Y-92404763D01*
X68105734Y-92380118D01*
X68180609Y-92340097D01*
X68246237Y-92286237D01*
X68300097Y-92220609D01*
X68340118Y-92145734D01*
X68364763Y-92064491D01*
X68373085Y-91980000D01*
X68371000Y-91958832D01*
X68371000Y-91187848D01*
X68515100Y-91247536D01*
X68733606Y-91291000D01*
X68956394Y-91291000D01*
X69174900Y-91247536D01*
X69380729Y-91162279D01*
X69565970Y-91038505D01*
X69723505Y-90880970D01*
X69847279Y-90695729D01*
X69932536Y-90489900D01*
X69976000Y-90271394D01*
X69976000Y-90048606D01*
X69932536Y-89830100D01*
X69909866Y-89775370D01*
X71234001Y-88451236D01*
X71234001Y-94144000D01*
X41072000Y-94144000D01*
X41072000Y-90232492D01*
X42055188Y-90232492D01*
X42096035Y-90502238D01*
X42188723Y-90758832D01*
X42249140Y-90871863D01*
X42488007Y-90937388D01*
X43265395Y-90160000D01*
X42488007Y-89382612D01*
X42249140Y-89448137D01*
X42133240Y-89695116D01*
X42067750Y-89959960D01*
X42055188Y-90232492D01*
X41072000Y-90232492D01*
X41072000Y-79888606D01*
X42314000Y-79888606D01*
X42314000Y-80111394D01*
X42357464Y-80329900D01*
X42442721Y-80535729D01*
X42566495Y-80720970D01*
X42724030Y-80878505D01*
X42909271Y-81002279D01*
X43115100Y-81087536D01*
X43333606Y-81131000D01*
X43556394Y-81131000D01*
X43774900Y-81087536D01*
X43929001Y-81023705D01*
X43929001Y-81516295D01*
X43774900Y-81452464D01*
X43556394Y-81409000D01*
X43333606Y-81409000D01*
X43115100Y-81452464D01*
X42909271Y-81537721D01*
X42724030Y-81661495D01*
X42566495Y-81819030D01*
X42442721Y-82004271D01*
X42357464Y-82210100D01*
X42314000Y-82428606D01*
X42314000Y-82651394D01*
X42357464Y-82869900D01*
X42442721Y-83075729D01*
X42566495Y-83260970D01*
X42724030Y-83418505D01*
X42909271Y-83542279D01*
X43115100Y-83627536D01*
X43333606Y-83671000D01*
X43556394Y-83671000D01*
X43774900Y-83627536D01*
X43929001Y-83563706D01*
X43929001Y-84056294D01*
X43774900Y-83992464D01*
X43556394Y-83949000D01*
X43333606Y-83949000D01*
X43115100Y-83992464D01*
X42909271Y-84077721D01*
X42724030Y-84201495D01*
X42566495Y-84359030D01*
X42442721Y-84544271D01*
X42357464Y-84750100D01*
X42314000Y-84968606D01*
X42314000Y-85191394D01*
X42357464Y-85409900D01*
X42442721Y-85615729D01*
X42566495Y-85800970D01*
X42724030Y-85958505D01*
X42909271Y-86082279D01*
X43115100Y-86167536D01*
X43333606Y-86211000D01*
X43556394Y-86211000D01*
X43774900Y-86167536D01*
X43929000Y-86103706D01*
X43929000Y-86596294D01*
X43774900Y-86532464D01*
X43556394Y-86489000D01*
X43333606Y-86489000D01*
X43115100Y-86532464D01*
X42909271Y-86617721D01*
X42724030Y-86741495D01*
X42566495Y-86899030D01*
X42442721Y-87084271D01*
X42357464Y-87290100D01*
X42314000Y-87508606D01*
X42314000Y-87731394D01*
X42357464Y-87949900D01*
X42442721Y-88155729D01*
X42566495Y-88340970D01*
X42724030Y-88498505D01*
X42909271Y-88622279D01*
X43115100Y-88707536D01*
X43333606Y-88751000D01*
X43556394Y-88751000D01*
X43774900Y-88707536D01*
X43929000Y-88643706D01*
X43929000Y-88857211D01*
X43909884Y-88848240D01*
X43645040Y-88782750D01*
X43372508Y-88770188D01*
X43102762Y-88811035D01*
X42846168Y-88903723D01*
X42733137Y-88964140D01*
X42667612Y-89203007D01*
X43445000Y-89980395D01*
X43459143Y-89966253D01*
X43638748Y-90145858D01*
X43624605Y-90160000D01*
X43638748Y-90174143D01*
X43459143Y-90353748D01*
X43445000Y-90339605D01*
X42667612Y-91116993D01*
X42733137Y-91355860D01*
X42980116Y-91471760D01*
X43244960Y-91537250D01*
X43517492Y-91549812D01*
X43787238Y-91508965D01*
X43929000Y-91457757D01*
X43929000Y-91958832D01*
X43926915Y-91980000D01*
X43935237Y-92064491D01*
X43959882Y-92145734D01*
X43999903Y-92220609D01*
X44053763Y-92286237D01*
X44119391Y-92340097D01*
X44194266Y-92380118D01*
X44275509Y-92404763D01*
X44360000Y-92413085D01*
X44381168Y-92411000D01*
X50128832Y-92411000D01*
X50150000Y-92413085D01*
X50171168Y-92411000D01*
X50234491Y-92404763D01*
X50315734Y-92380118D01*
X50390609Y-92340097D01*
X50456237Y-92286237D01*
X50510097Y-92220609D01*
X50550118Y-92145734D01*
X50574763Y-92064491D01*
X50583085Y-91980000D01*
X50581000Y-91958832D01*
X50581000Y-91183706D01*
X50735100Y-91247536D01*
X50953606Y-91291000D01*
X51176394Y-91291000D01*
X51394900Y-91247536D01*
X51600729Y-91162279D01*
X51785970Y-91038505D01*
X51943505Y-90880970D01*
X52067279Y-90695729D01*
X52152536Y-90489900D01*
X52196000Y-90271394D01*
X52196000Y-90232492D01*
X59835188Y-90232492D01*
X59876035Y-90502238D01*
X59968723Y-90758832D01*
X60029140Y-90871863D01*
X60268007Y-90937388D01*
X61045395Y-90160000D01*
X60268007Y-89382612D01*
X60029140Y-89448137D01*
X59913240Y-89695116D01*
X59847750Y-89959960D01*
X59835188Y-90232492D01*
X52196000Y-90232492D01*
X52196000Y-90048606D01*
X52152536Y-89830100D01*
X52067279Y-89624271D01*
X51943505Y-89439030D01*
X51785970Y-89281495D01*
X51600729Y-89157721D01*
X51394900Y-89072464D01*
X51176394Y-89029000D01*
X50953606Y-89029000D01*
X50735100Y-89072464D01*
X50581000Y-89136294D01*
X50581000Y-88643706D01*
X50735100Y-88707536D01*
X50953606Y-88751000D01*
X51176394Y-88751000D01*
X51394900Y-88707536D01*
X51600729Y-88622279D01*
X51785970Y-88498505D01*
X51943505Y-88340970D01*
X52067279Y-88155729D01*
X52152536Y-87949900D01*
X52196000Y-87731394D01*
X52196000Y-87508606D01*
X52152536Y-87290100D01*
X52067279Y-87084271D01*
X51943505Y-86899030D01*
X51785970Y-86741495D01*
X51600729Y-86617721D01*
X51394900Y-86532464D01*
X51176394Y-86489000D01*
X50953606Y-86489000D01*
X50735100Y-86532464D01*
X50581000Y-86596294D01*
X50581000Y-86103706D01*
X50735100Y-86167536D01*
X50953606Y-86211000D01*
X51176394Y-86211000D01*
X51394900Y-86167536D01*
X51600729Y-86082279D01*
X51785970Y-85958505D01*
X51943505Y-85800970D01*
X52067279Y-85615729D01*
X52152536Y-85409900D01*
X52196000Y-85191394D01*
X52196000Y-84968606D01*
X52152536Y-84750100D01*
X52067279Y-84544271D01*
X51943505Y-84359030D01*
X51785970Y-84201495D01*
X51600729Y-84077721D01*
X51394900Y-83992464D01*
X51176394Y-83949000D01*
X50953606Y-83949000D01*
X50735100Y-83992464D01*
X50581000Y-84056294D01*
X50581000Y-83563706D01*
X50735100Y-83627536D01*
X50953606Y-83671000D01*
X51176394Y-83671000D01*
X51394900Y-83627536D01*
X51600729Y-83542279D01*
X51785970Y-83418505D01*
X51943505Y-83260970D01*
X52067279Y-83075729D01*
X52152536Y-82869900D01*
X52196000Y-82651394D01*
X52196000Y-82428606D01*
X52152536Y-82210100D01*
X52067279Y-82004271D01*
X51943505Y-81819030D01*
X51785970Y-81661495D01*
X51600729Y-81537721D01*
X51394900Y-81452464D01*
X51176394Y-81409000D01*
X50953606Y-81409000D01*
X50735100Y-81452464D01*
X50581000Y-81516294D01*
X50581000Y-81023706D01*
X50735100Y-81087536D01*
X50953606Y-81131000D01*
X51176394Y-81131000D01*
X51394900Y-81087536D01*
X51600729Y-81002279D01*
X51785970Y-80878505D01*
X51943505Y-80720970D01*
X52067279Y-80535729D01*
X52152536Y-80329900D01*
X52196000Y-80111394D01*
X52196000Y-79888606D01*
X52152536Y-79670100D01*
X52067279Y-79464271D01*
X51943505Y-79279030D01*
X51785970Y-79121495D01*
X51600729Y-78997721D01*
X51394900Y-78912464D01*
X51176394Y-78869000D01*
X50953606Y-78869000D01*
X50735100Y-78912464D01*
X50581000Y-78976294D01*
X50581000Y-78201168D01*
X50583085Y-78180000D01*
X50574763Y-78095509D01*
X50550118Y-78014266D01*
X50510097Y-77939391D01*
X50456237Y-77873763D01*
X50390609Y-77819903D01*
X50315734Y-77779882D01*
X50234491Y-77755237D01*
X50171168Y-77749000D01*
X50150000Y-77746915D01*
X50128832Y-77749000D01*
X44381168Y-77749000D01*
X44360000Y-77746915D01*
X44338832Y-77749000D01*
X44275509Y-77755237D01*
X44194266Y-77779882D01*
X44119391Y-77819903D01*
X44053763Y-77873763D01*
X43999903Y-77939391D01*
X43959882Y-78014266D01*
X43935237Y-78095509D01*
X43926915Y-78180000D01*
X43929001Y-78201179D01*
X43929001Y-78976295D01*
X43774900Y-78912464D01*
X43556394Y-78869000D01*
X43333606Y-78869000D01*
X43115100Y-78912464D01*
X42909271Y-78997721D01*
X42724030Y-79121495D01*
X42566495Y-79279030D01*
X42442721Y-79464271D01*
X42357464Y-79670100D01*
X42314000Y-79888606D01*
X41072000Y-79888606D01*
X41072000Y-77442843D01*
X43700000Y-77442843D01*
X43774689Y-77435487D01*
X43846508Y-77413701D01*
X43912696Y-77378322D01*
X43970711Y-77330711D01*
X44018322Y-77272696D01*
X44053701Y-77206508D01*
X44075487Y-77134689D01*
X44080583Y-77082951D01*
X44151895Y-77154263D01*
X44171657Y-77178343D01*
X44267739Y-77257196D01*
X44377358Y-77315789D01*
X44496302Y-77351870D01*
X44589002Y-77361000D01*
X44589009Y-77361000D01*
X44620000Y-77364052D01*
X44650990Y-77361000D01*
X51668632Y-77361000D01*
X54321899Y-80014268D01*
X54341657Y-80038343D01*
X54437739Y-80117196D01*
X54547358Y-80175789D01*
X54666302Y-80211870D01*
X54759002Y-80221000D01*
X54759009Y-80221000D01*
X54790000Y-80224052D01*
X54820990Y-80221000D01*
X58509010Y-80221000D01*
X58540000Y-80224052D01*
X58570990Y-80221000D01*
X58570998Y-80221000D01*
X58663698Y-80211870D01*
X58782642Y-80175789D01*
X58892261Y-80117196D01*
X58988343Y-80038343D01*
X59008105Y-80014263D01*
X61824269Y-77198100D01*
X61848343Y-77178343D01*
X61868104Y-77154265D01*
X61927196Y-77082261D01*
X61985789Y-76972642D01*
X62021870Y-76853698D01*
X62023495Y-76837196D01*
X62031000Y-76760998D01*
X62031000Y-76760991D01*
X62034052Y-76730000D01*
X62031000Y-76699010D01*
X62031000Y-74316483D01*
X62046189Y-74314987D01*
X62118008Y-74293201D01*
X62184196Y-74257822D01*
X62242211Y-74210211D01*
X62289822Y-74152196D01*
X62325201Y-74086008D01*
X62346987Y-74014189D01*
X62354343Y-73939500D01*
X62354343Y-73304500D01*
X62346987Y-73229811D01*
X62325201Y-73157992D01*
X62289822Y-73091804D01*
X62242211Y-73033789D01*
X62184196Y-72986178D01*
X62118008Y-72950799D01*
X62046189Y-72929013D01*
X61971500Y-72921657D01*
X60828500Y-72921657D01*
X60753811Y-72929013D01*
X60681992Y-72950799D01*
X60615804Y-72986178D01*
X60557789Y-73033789D01*
X60510178Y-73091804D01*
X60474799Y-73157992D01*
X60453013Y-73229811D01*
X60445657Y-73304500D01*
X60445657Y-73939500D01*
X60453013Y-74014189D01*
X60474799Y-74086008D01*
X60510178Y-74152196D01*
X60557789Y-74210211D01*
X60615804Y-74257822D01*
X60681992Y-74293201D01*
X60753811Y-74314987D01*
X60769001Y-74316483D01*
X60769000Y-76468631D01*
X58616452Y-78621180D01*
X58619572Y-78589500D01*
X58616500Y-78557750D01*
X58457750Y-78399000D01*
X57537000Y-78399000D01*
X57537000Y-78419000D01*
X57283000Y-78419000D01*
X57283000Y-78399000D01*
X55907000Y-78399000D01*
X55907000Y-78419000D01*
X55653000Y-78419000D01*
X55653000Y-78399000D01*
X54732250Y-78399000D01*
X54611809Y-78519441D01*
X52398103Y-76305735D01*
X52378343Y-76281657D01*
X52282261Y-76202804D01*
X52172642Y-76144211D01*
X52053698Y-76108130D01*
X51960998Y-76099000D01*
X51960990Y-76099000D01*
X51930000Y-76095948D01*
X51899010Y-76099000D01*
X44881368Y-76099000D01*
X44668105Y-75885737D01*
X44648343Y-75861657D01*
X44552261Y-75782804D01*
X44442642Y-75724211D01*
X44323698Y-75688130D01*
X44230998Y-75679000D01*
X44230990Y-75679000D01*
X44200000Y-75675948D01*
X44169010Y-75679000D01*
X44082843Y-75679000D01*
X44082843Y-75567272D01*
X44151185Y-75511185D01*
X44230537Y-75414494D01*
X44289502Y-75304180D01*
X44325812Y-75184482D01*
X44326105Y-75181500D01*
X44632428Y-75181500D01*
X44644688Y-75305982D01*
X44680998Y-75425680D01*
X44739963Y-75535994D01*
X44819315Y-75632685D01*
X44916006Y-75712037D01*
X45026320Y-75771002D01*
X45146018Y-75807312D01*
X45270500Y-75819572D01*
X45302250Y-75816500D01*
X45461000Y-75657750D01*
X45461000Y-74737000D01*
X44794250Y-74737000D01*
X44635500Y-74895750D01*
X44632428Y-75181500D01*
X44326105Y-75181500D01*
X44338072Y-75060000D01*
X44335000Y-74595750D01*
X44176250Y-74437000D01*
X42327000Y-74437000D01*
X42327000Y-74457000D01*
X42073000Y-74457000D01*
X42073000Y-74437000D01*
X42053000Y-74437000D01*
X42053000Y-74183000D01*
X42073000Y-74183000D01*
X42073000Y-73083750D01*
X42327000Y-73083750D01*
X42327000Y-74183000D01*
X44176250Y-74183000D01*
X44320750Y-74038500D01*
X44632428Y-74038500D01*
X44635500Y-74324250D01*
X44794250Y-74483000D01*
X45461000Y-74483000D01*
X45461000Y-74037750D01*
X45471000Y-74027750D01*
X45471000Y-73107000D01*
X44804250Y-73107000D01*
X44645500Y-73265750D01*
X44642428Y-73551500D01*
X44654688Y-73675982D01*
X44687114Y-73782877D01*
X44680998Y-73794320D01*
X44644688Y-73914018D01*
X44632428Y-74038500D01*
X44320750Y-74038500D01*
X44335000Y-74024250D01*
X44338072Y-73560000D01*
X44325812Y-73435518D01*
X44289502Y-73315820D01*
X44230537Y-73205506D01*
X44151185Y-73108815D01*
X44054494Y-73029463D01*
X43944180Y-72970498D01*
X43824482Y-72934188D01*
X43700000Y-72921928D01*
X42485750Y-72925000D01*
X42327000Y-73083750D01*
X42073000Y-73083750D01*
X41914250Y-72925000D01*
X41072000Y-72922869D01*
X41072000Y-72692843D01*
X43700000Y-72692843D01*
X43774689Y-72685487D01*
X43846508Y-72663701D01*
X43912696Y-72628322D01*
X43970711Y-72580711D01*
X44018322Y-72522696D01*
X44053701Y-72456508D01*
X44075487Y-72384689D01*
X44082843Y-72310000D01*
X44082843Y-72041000D01*
X44266374Y-72041000D01*
X44290000Y-72043327D01*
X44313626Y-72041000D01*
X44384292Y-72034040D01*
X44474961Y-72006536D01*
X44558522Y-71961872D01*
X44631764Y-71901764D01*
X44646830Y-71883406D01*
X46122429Y-70407808D01*
X46126324Y-70427391D01*
X46179920Y-70556785D01*
X46257730Y-70673236D01*
X46356764Y-70772270D01*
X46473215Y-70850080D01*
X46602609Y-70903676D01*
X46739973Y-70931000D01*
X46880027Y-70931000D01*
X47017391Y-70903676D01*
X47146785Y-70850080D01*
X47263236Y-70772270D01*
X47362270Y-70673236D01*
X47440080Y-70556785D01*
X47448689Y-70536000D01*
X48327750Y-70536000D01*
X48398750Y-70607000D01*
X48678539Y-70607000D01*
X48728492Y-70633701D01*
X48800311Y-70655487D01*
X48875000Y-70662843D01*
X49897000Y-70662843D01*
X49897000Y-70747157D01*
X48875000Y-70747157D01*
X48800311Y-70754513D01*
X48728492Y-70776299D01*
X48678539Y-70803000D01*
X48398750Y-70803000D01*
X48240000Y-70961750D01*
X48250901Y-71062801D01*
X48288801Y-71182005D01*
X48349228Y-71291524D01*
X48429861Y-71387151D01*
X48492157Y-71436903D01*
X48492157Y-71524000D01*
X46871012Y-71524000D01*
X46871012Y-71429999D01*
X46843688Y-71292635D01*
X46790092Y-71163241D01*
X46712282Y-71046790D01*
X46613248Y-70947756D01*
X46496797Y-70869946D01*
X46367403Y-70816350D01*
X46230039Y-70789026D01*
X46089985Y-70789026D01*
X45952621Y-70816350D01*
X45823227Y-70869946D01*
X45706776Y-70947756D01*
X45607742Y-71046790D01*
X45529932Y-71163241D01*
X45476336Y-71292635D01*
X45449012Y-71429999D01*
X45449012Y-71570053D01*
X45476336Y-71707417D01*
X45503708Y-71773500D01*
X45470998Y-71773500D01*
X45470998Y-71932248D01*
X45312250Y-71773500D01*
X45280500Y-71770428D01*
X45156018Y-71782688D01*
X45036320Y-71818998D01*
X44926006Y-71877963D01*
X44829315Y-71957315D01*
X44749963Y-72054006D01*
X44690998Y-72164320D01*
X44654688Y-72284018D01*
X44642428Y-72408500D01*
X44645500Y-72694250D01*
X44804250Y-72853000D01*
X45471000Y-72853000D01*
X45471000Y-72833000D01*
X45725000Y-72833000D01*
X45725000Y-72853000D01*
X45745000Y-72853000D01*
X45745000Y-73107000D01*
X45725000Y-73107000D01*
X45725000Y-73552250D01*
X45715000Y-73562250D01*
X45715000Y-74483000D01*
X45735000Y-74483000D01*
X45735000Y-74737000D01*
X45715000Y-74737000D01*
X45715000Y-75657750D01*
X45873750Y-75816500D01*
X45905500Y-75819572D01*
X46029982Y-75807312D01*
X46149680Y-75771002D01*
X46259994Y-75712037D01*
X46356685Y-75632685D01*
X46436037Y-75535994D01*
X46495002Y-75425680D01*
X46496895Y-75419440D01*
X46523789Y-75452211D01*
X46581804Y-75499822D01*
X46647992Y-75535201D01*
X46719811Y-75556987D01*
X46794500Y-75564343D01*
X47429500Y-75564343D01*
X47504189Y-75556987D01*
X47576008Y-75535201D01*
X47642196Y-75499822D01*
X47700211Y-75452211D01*
X47747822Y-75394196D01*
X47783201Y-75328008D01*
X47804987Y-75256189D01*
X47811900Y-75186000D01*
X48736071Y-75186000D01*
X48800311Y-75205487D01*
X48875000Y-75212843D01*
X50625000Y-75212843D01*
X50699689Y-75205487D01*
X50771508Y-75183701D01*
X50837696Y-75148322D01*
X50852305Y-75136333D01*
X50875000Y-75138568D01*
X50901074Y-75136000D01*
X50901084Y-75136000D01*
X50979094Y-75128317D01*
X51079188Y-75097953D01*
X51171435Y-75048646D01*
X51252290Y-74982290D01*
X51268921Y-74962025D01*
X51389946Y-74841000D01*
X51420027Y-74841000D01*
X51557391Y-74813676D01*
X51686785Y-74760080D01*
X51803236Y-74682270D01*
X51902270Y-74583236D01*
X51980080Y-74466785D01*
X52033676Y-74337391D01*
X52061000Y-74200027D01*
X52061000Y-74059973D01*
X52033676Y-73922609D01*
X51980080Y-73793215D01*
X51902270Y-73676764D01*
X51803236Y-73577730D01*
X51686785Y-73499920D01*
X51557391Y-73446324D01*
X51420027Y-73419000D01*
X51279973Y-73419000D01*
X51144248Y-73445998D01*
X51101250Y-73403000D01*
X50821461Y-73403000D01*
X50771508Y-73376299D01*
X50699689Y-73354513D01*
X50625000Y-73347157D01*
X48875000Y-73347157D01*
X48800311Y-73354513D01*
X48728492Y-73376299D01*
X48678539Y-73403000D01*
X48398750Y-73403000D01*
X48240000Y-73561750D01*
X48250901Y-73662801D01*
X48288801Y-73782005D01*
X48349228Y-73891524D01*
X48429861Y-73987151D01*
X48476001Y-74024000D01*
X47810915Y-74024000D01*
X47804987Y-73963811D01*
X47783201Y-73891992D01*
X47747822Y-73825804D01*
X47727542Y-73801093D01*
X47757822Y-73764196D01*
X47793201Y-73698008D01*
X47814987Y-73626189D01*
X47822343Y-73551500D01*
X47822343Y-72486000D01*
X48492157Y-72486000D01*
X48492157Y-72573097D01*
X48429861Y-72622849D01*
X48349228Y-72718476D01*
X48288801Y-72827995D01*
X48250901Y-72947199D01*
X48240000Y-73048250D01*
X48398750Y-73207000D01*
X48678539Y-73207000D01*
X48728492Y-73233701D01*
X48800311Y-73255487D01*
X48875000Y-73262843D01*
X50625000Y-73262843D01*
X50699689Y-73255487D01*
X50771508Y-73233701D01*
X50821461Y-73207000D01*
X51101250Y-73207000D01*
X51260000Y-73048250D01*
X51249099Y-72947199D01*
X51211199Y-72827995D01*
X51150772Y-72718476D01*
X51070139Y-72622849D01*
X51007843Y-72573097D01*
X51007843Y-72430000D01*
X51000487Y-72355311D01*
X50992809Y-72330000D01*
X51000487Y-72304689D01*
X51007843Y-72230000D01*
X51007843Y-71936000D01*
X51195002Y-71936000D01*
X51223542Y-71938811D01*
X51252082Y-71936000D01*
X51337438Y-71927593D01*
X51446957Y-71894371D01*
X51547890Y-71840421D01*
X51636359Y-71767817D01*
X51654559Y-71745640D01*
X52400662Y-70999539D01*
X52422827Y-70981349D01*
X52442660Y-70957183D01*
X52495431Y-70892880D01*
X52549381Y-70791947D01*
X52582603Y-70682428D01*
X52593821Y-70568532D01*
X52591010Y-70539992D01*
X52591010Y-68916516D01*
X52606764Y-68932270D01*
X52723215Y-69010080D01*
X52852609Y-69063676D01*
X52989973Y-69091000D01*
X53130027Y-69091000D01*
X53267391Y-69063676D01*
X53396785Y-69010080D01*
X53513236Y-68932270D01*
X53612270Y-68833236D01*
X53690080Y-68716785D01*
X53743676Y-68587391D01*
X53764834Y-68481026D01*
X53853215Y-68540080D01*
X53920424Y-68567919D01*
X53829360Y-68658983D01*
X53807183Y-68677183D01*
X53743322Y-68755000D01*
X53734579Y-68765653D01*
X53680629Y-68866586D01*
X53647407Y-68976105D01*
X53636189Y-69090000D01*
X53639000Y-69118540D01*
X53639001Y-72019992D01*
X53636189Y-72048542D01*
X53647407Y-72162437D01*
X53680629Y-72271956D01*
X53728665Y-72361824D01*
X53734580Y-72372890D01*
X53807184Y-72461359D01*
X53829355Y-72479554D01*
X55045445Y-73695645D01*
X55063641Y-73717817D01*
X55078408Y-73729935D01*
X54979360Y-73828983D01*
X54957183Y-73847183D01*
X54891691Y-73926987D01*
X54884579Y-73935653D01*
X54830629Y-74036586D01*
X54797407Y-74146105D01*
X54786189Y-74260000D01*
X54789000Y-74288540D01*
X54789001Y-76151450D01*
X54786189Y-76180000D01*
X54797407Y-76293895D01*
X54828889Y-76397679D01*
X54825657Y-76430500D01*
X54825657Y-77065500D01*
X54833013Y-77140189D01*
X54854799Y-77212008D01*
X54890178Y-77278196D01*
X54937789Y-77336211D01*
X54970560Y-77363105D01*
X54964320Y-77364998D01*
X54854006Y-77423963D01*
X54757315Y-77503315D01*
X54677963Y-77600006D01*
X54618998Y-77710320D01*
X54582688Y-77830018D01*
X54570428Y-77954500D01*
X54573500Y-77986250D01*
X54732250Y-78145000D01*
X55653000Y-78145000D01*
X55653000Y-78125000D01*
X55907000Y-78125000D01*
X55907000Y-78145000D01*
X57283000Y-78145000D01*
X57283000Y-78125000D01*
X57537000Y-78125000D01*
X57537000Y-78145000D01*
X58457750Y-78145000D01*
X58616500Y-77986250D01*
X58619572Y-77954500D01*
X58607312Y-77830018D01*
X58571002Y-77710320D01*
X58512037Y-77600006D01*
X58432685Y-77503315D01*
X58335994Y-77423963D01*
X58225680Y-77364998D01*
X58219440Y-77363105D01*
X58252211Y-77336211D01*
X58299822Y-77278196D01*
X58335201Y-77212008D01*
X58356987Y-77140189D01*
X58364343Y-77065500D01*
X58364343Y-76430500D01*
X58356987Y-76355811D01*
X58335201Y-76283992D01*
X58299822Y-76217804D01*
X58252211Y-76159789D01*
X58194196Y-76112178D01*
X58128008Y-76076799D01*
X58056189Y-76055013D01*
X57981500Y-76047657D01*
X56838500Y-76047657D01*
X56763811Y-76055013D01*
X56691992Y-76076799D01*
X56625804Y-76112178D01*
X56595000Y-76137458D01*
X56564196Y-76112178D01*
X56498008Y-76076799D01*
X56426189Y-76055013D01*
X56351500Y-76047657D01*
X56059315Y-76047657D01*
X55951000Y-75939343D01*
X55951000Y-75455143D01*
X55958860Y-75457413D01*
X56083493Y-75468015D01*
X56664250Y-75465000D01*
X56823000Y-75306250D01*
X56823000Y-74703000D01*
X57077000Y-74703000D01*
X57077000Y-75306250D01*
X57235750Y-75465000D01*
X57816507Y-75468015D01*
X57941140Y-75457413D01*
X58061311Y-75422700D01*
X58172400Y-75365209D01*
X58270139Y-75287151D01*
X58350772Y-75191524D01*
X58411199Y-75082005D01*
X58449099Y-74962801D01*
X58460000Y-74861750D01*
X58301250Y-74703000D01*
X57077000Y-74703000D01*
X56823000Y-74703000D01*
X56803000Y-74703000D01*
X56803000Y-74562843D01*
X57825000Y-74562843D01*
X57899689Y-74555487D01*
X57971508Y-74533701D01*
X58021461Y-74507000D01*
X58301250Y-74507000D01*
X58460000Y-74348250D01*
X58449099Y-74247199D01*
X58411199Y-74127995D01*
X58350772Y-74018476D01*
X58270139Y-73922849D01*
X58207843Y-73873097D01*
X58207843Y-73730000D01*
X58200487Y-73655311D01*
X58192809Y-73630000D01*
X58200487Y-73604689D01*
X58207843Y-73530000D01*
X58207843Y-73386903D01*
X58270139Y-73337151D01*
X58350772Y-73241524D01*
X58411199Y-73132005D01*
X58449099Y-73012801D01*
X58460000Y-72911750D01*
X58301250Y-72753000D01*
X58021461Y-72753000D01*
X57971508Y-72726299D01*
X57899689Y-72704513D01*
X57825000Y-72697157D01*
X56803000Y-72697157D01*
X56803000Y-72612843D01*
X57825000Y-72612843D01*
X57899689Y-72605487D01*
X57963929Y-72586000D01*
X58316460Y-72586000D01*
X58345000Y-72588811D01*
X58373540Y-72586000D01*
X58458896Y-72577593D01*
X58568415Y-72544371D01*
X58669348Y-72490421D01*
X58757817Y-72417817D01*
X58776017Y-72395640D01*
X58850640Y-72321017D01*
X58872817Y-72302817D01*
X58945421Y-72214348D01*
X58999371Y-72113414D01*
X59020632Y-72043327D01*
X59032593Y-72003896D01*
X59043811Y-71890000D01*
X59041000Y-71861460D01*
X59041000Y-71618539D01*
X59043811Y-71589999D01*
X59032593Y-71476104D01*
X58999371Y-71366585D01*
X58993705Y-71355985D01*
X58945421Y-71265652D01*
X58921086Y-71236000D01*
X60404554Y-71236000D01*
X60625531Y-71456978D01*
X60615804Y-71462178D01*
X60557789Y-71509789D01*
X60510178Y-71567804D01*
X60474799Y-71633992D01*
X60453013Y-71705811D01*
X60445657Y-71780500D01*
X60445657Y-72415500D01*
X60453013Y-72490189D01*
X60474799Y-72562008D01*
X60510178Y-72628196D01*
X60557789Y-72686211D01*
X60615804Y-72733822D01*
X60681992Y-72769201D01*
X60753811Y-72790987D01*
X60828500Y-72798343D01*
X61971500Y-72798343D01*
X62046189Y-72790987D01*
X62118008Y-72769201D01*
X62184196Y-72733822D01*
X62242211Y-72686211D01*
X62289822Y-72628196D01*
X62325201Y-72562008D01*
X62346987Y-72490189D01*
X62354343Y-72415500D01*
X62354343Y-71780500D01*
X62346987Y-71705811D01*
X62325201Y-71633992D01*
X62289822Y-71567804D01*
X62242211Y-71509789D01*
X62184196Y-71462178D01*
X62118008Y-71426799D01*
X62046189Y-71405013D01*
X61971500Y-71397657D01*
X61925410Y-71397657D01*
X61923317Y-71376406D01*
X61892953Y-71276312D01*
X61877992Y-71248322D01*
X61843646Y-71184064D01*
X61793918Y-71123470D01*
X61793912Y-71123464D01*
X61777290Y-71103210D01*
X61757035Y-71086587D01*
X61018421Y-70347975D01*
X61001790Y-70327710D01*
X60920935Y-70261354D01*
X60828688Y-70212047D01*
X60728594Y-70181683D01*
X60650584Y-70174000D01*
X60650574Y-70174000D01*
X60624500Y-70171432D01*
X60598426Y-70174000D01*
X59043023Y-70174000D01*
X59059371Y-70143414D01*
X59067863Y-70115420D01*
X59092593Y-70033896D01*
X59103811Y-69920000D01*
X59101000Y-69891460D01*
X59101000Y-69658539D01*
X59103811Y-69629999D01*
X59092593Y-69516104D01*
X59059371Y-69406585D01*
X59034796Y-69360609D01*
X59005421Y-69305652D01*
X58932817Y-69217183D01*
X58910641Y-69198984D01*
X58726017Y-69014360D01*
X58707817Y-68992183D01*
X58619348Y-68919579D01*
X58518415Y-68865629D01*
X58408896Y-68832407D01*
X58323540Y-68824000D01*
X58295000Y-68821189D01*
X58266460Y-68824000D01*
X57963929Y-68824000D01*
X57899689Y-68804513D01*
X57825000Y-68797157D01*
X56075000Y-68797157D01*
X56000311Y-68804513D01*
X55928492Y-68826299D01*
X55878539Y-68853000D01*
X55598750Y-68853000D01*
X55440000Y-69011750D01*
X55450901Y-69112801D01*
X55488801Y-69232005D01*
X55549228Y-69341524D01*
X55629861Y-69437151D01*
X55692157Y-69486903D01*
X55692157Y-69630000D01*
X55699513Y-69704689D01*
X55707191Y-69730000D01*
X55699513Y-69755311D01*
X55692157Y-69830000D01*
X55692157Y-69991413D01*
X55680027Y-69989000D01*
X55539973Y-69989000D01*
X55402609Y-70016324D01*
X55273215Y-70069920D01*
X55156764Y-70147730D01*
X55057730Y-70246764D01*
X54979920Y-70363215D01*
X54926324Y-70492609D01*
X54899000Y-70629973D01*
X54899000Y-70770027D01*
X54926324Y-70907391D01*
X54979920Y-71036785D01*
X55057730Y-71153236D01*
X55156764Y-71252270D01*
X55273215Y-71330080D01*
X55402609Y-71383676D01*
X55539973Y-71411000D01*
X55680027Y-71411000D01*
X55692157Y-71408587D01*
X55692157Y-71580000D01*
X55699513Y-71654689D01*
X55707191Y-71680000D01*
X55699513Y-71705311D01*
X55692157Y-71780000D01*
X55692157Y-71923097D01*
X55629861Y-71972849D01*
X55549228Y-72068476D01*
X55488801Y-72177995D01*
X55450901Y-72297199D01*
X55440000Y-72398250D01*
X55569748Y-72527998D01*
X55521114Y-72527998D01*
X54801000Y-71807885D01*
X54801000Y-69330657D01*
X55536704Y-68594954D01*
X55598750Y-68657000D01*
X56823000Y-68657000D01*
X56823000Y-68053750D01*
X57077000Y-68053750D01*
X57077000Y-68657000D01*
X58301250Y-68657000D01*
X58460000Y-68498250D01*
X58449099Y-68397199D01*
X58411199Y-68277995D01*
X58350772Y-68168476D01*
X58270139Y-68072849D01*
X58172400Y-67994791D01*
X58061311Y-67937300D01*
X57941140Y-67902587D01*
X57816507Y-67891985D01*
X57235750Y-67895000D01*
X57077000Y-68053750D01*
X56823000Y-68053750D01*
X56664250Y-67895000D01*
X56238866Y-67892792D01*
X56328645Y-67803013D01*
X56350817Y-67784817D01*
X56423421Y-67696348D01*
X56477371Y-67595415D01*
X56510593Y-67485896D01*
X56519000Y-67400540D01*
X56521401Y-67376158D01*
X56526211Y-67372211D01*
X56553105Y-67339440D01*
X56554998Y-67345680D01*
X56613963Y-67455994D01*
X56693315Y-67552685D01*
X56790006Y-67632037D01*
X56900320Y-67691002D01*
X57020018Y-67727312D01*
X57144500Y-67739572D01*
X57176250Y-67736500D01*
X57335000Y-67577750D01*
X57335000Y-66657000D01*
X57589000Y-66657000D01*
X57589000Y-67577750D01*
X57747750Y-67736500D01*
X57779500Y-67739572D01*
X57903982Y-67727312D01*
X58023680Y-67691002D01*
X58133994Y-67632037D01*
X58230685Y-67552685D01*
X58310037Y-67455994D01*
X58369002Y-67345680D01*
X58405312Y-67225982D01*
X58417572Y-67101500D01*
X58414500Y-66815750D01*
X58255750Y-66657000D01*
X57589000Y-66657000D01*
X57335000Y-66657000D01*
X57315000Y-66657000D01*
X57315000Y-66403000D01*
X57335000Y-66403000D01*
X57335000Y-65482250D01*
X57325000Y-65472250D01*
X57325000Y-65027000D01*
X57579000Y-65027000D01*
X57579000Y-65947750D01*
X57589000Y-65957750D01*
X57589000Y-66403000D01*
X58255750Y-66403000D01*
X58414500Y-66244250D01*
X58417572Y-65958500D01*
X58405312Y-65834018D01*
X58369002Y-65714320D01*
X58362886Y-65702877D01*
X58395312Y-65595982D01*
X58407572Y-65471500D01*
X58404500Y-65185750D01*
X58245750Y-65027000D01*
X57579000Y-65027000D01*
X57325000Y-65027000D01*
X57305000Y-65027000D01*
X57305000Y-64773000D01*
X57325000Y-64773000D01*
X57325000Y-63852250D01*
X57579000Y-63852250D01*
X57579000Y-64773000D01*
X58245750Y-64773000D01*
X58404500Y-64614250D01*
X58407572Y-64328500D01*
X58395312Y-64204018D01*
X58359002Y-64084320D01*
X58300037Y-63974006D01*
X58220685Y-63877315D01*
X58123994Y-63797963D01*
X58013680Y-63738998D01*
X57893982Y-63702688D01*
X57769500Y-63690428D01*
X57737750Y-63693500D01*
X57579000Y-63852250D01*
X57325000Y-63852250D01*
X57252559Y-63779809D01*
X59905770Y-61126599D01*
X59929844Y-61106842D01*
X60008697Y-61010760D01*
X60067290Y-60901141D01*
X60103371Y-60782197D01*
X60112501Y-60689497D01*
X60112501Y-60689488D01*
X60115553Y-60658500D01*
X60112501Y-60627512D01*
X60112501Y-59884404D01*
X60137464Y-60009900D01*
X60222721Y-60215729D01*
X60346495Y-60400970D01*
X60504030Y-60558505D01*
X60689271Y-60682279D01*
X60895100Y-60767536D01*
X61113606Y-60811000D01*
X61336394Y-60811000D01*
X61554900Y-60767536D01*
X61709001Y-60703706D01*
X61709001Y-61196294D01*
X61554900Y-61132464D01*
X61336394Y-61089000D01*
X61113606Y-61089000D01*
X60895100Y-61132464D01*
X60689271Y-61217721D01*
X60504030Y-61341495D01*
X60346495Y-61499030D01*
X60222721Y-61684271D01*
X60137464Y-61890100D01*
X60094000Y-62108606D01*
X60094000Y-62331394D01*
X60137464Y-62549900D01*
X60222721Y-62755729D01*
X60346495Y-62940970D01*
X60504030Y-63098505D01*
X60689271Y-63222279D01*
X60895100Y-63307536D01*
X61113606Y-63351000D01*
X61336394Y-63351000D01*
X61554900Y-63307536D01*
X61709000Y-63243706D01*
X61709000Y-63736294D01*
X61554900Y-63672464D01*
X61336394Y-63629000D01*
X61113606Y-63629000D01*
X60895100Y-63672464D01*
X60689271Y-63757721D01*
X60504030Y-63881495D01*
X60346495Y-64039030D01*
X60222721Y-64224271D01*
X60137464Y-64430100D01*
X60094000Y-64648606D01*
X60094000Y-64871394D01*
X60137464Y-65089900D01*
X60222721Y-65295729D01*
X60346495Y-65480970D01*
X60504030Y-65638505D01*
X60689271Y-65762279D01*
X60895100Y-65847536D01*
X61113606Y-65891000D01*
X61336394Y-65891000D01*
X61554900Y-65847536D01*
X61709000Y-65783706D01*
X61709000Y-66276294D01*
X61554900Y-66212464D01*
X61336394Y-66169000D01*
X61113606Y-66169000D01*
X60895100Y-66212464D01*
X60689271Y-66297721D01*
X60504030Y-66421495D01*
X60346495Y-66579030D01*
X60222721Y-66764271D01*
X60137464Y-66970100D01*
X60094000Y-67188606D01*
X60094000Y-67411394D01*
X60137464Y-67629900D01*
X60222721Y-67835729D01*
X60346495Y-68020970D01*
X60504030Y-68178505D01*
X60689271Y-68302279D01*
X60895100Y-68387536D01*
X61113606Y-68431000D01*
X61336394Y-68431000D01*
X61554900Y-68387536D01*
X61709000Y-68323706D01*
X61709000Y-69098832D01*
X61706915Y-69120000D01*
X61715237Y-69204491D01*
X61739882Y-69285734D01*
X61779903Y-69360609D01*
X61816334Y-69405000D01*
X61833763Y-69426237D01*
X61899391Y-69480097D01*
X61974266Y-69520118D01*
X62055509Y-69544763D01*
X62140000Y-69553085D01*
X62161168Y-69551000D01*
X67908832Y-69551000D01*
X67930000Y-69553085D01*
X67951168Y-69551000D01*
X68014491Y-69544763D01*
X68095734Y-69520118D01*
X68170609Y-69480097D01*
X68236237Y-69426237D01*
X68290097Y-69360609D01*
X68330118Y-69285734D01*
X68354763Y-69204491D01*
X68363085Y-69120000D01*
X68361000Y-69098832D01*
X68361000Y-68323706D01*
X68515100Y-68387536D01*
X68733606Y-68431000D01*
X68956394Y-68431000D01*
X69174900Y-68387536D01*
X69380729Y-68302279D01*
X69565970Y-68178505D01*
X69723505Y-68020970D01*
X69847279Y-67835729D01*
X69932536Y-67629900D01*
X69976000Y-67411394D01*
X69976000Y-67188606D01*
X69932536Y-66970100D01*
X69847279Y-66764271D01*
X69723505Y-66579030D01*
X69565970Y-66421495D01*
X69380729Y-66297721D01*
X69174900Y-66212464D01*
X68956394Y-66169000D01*
X68733606Y-66169000D01*
X68515100Y-66212464D01*
X68361000Y-66276294D01*
X68361000Y-65783706D01*
X68515100Y-65847536D01*
X68733606Y-65891000D01*
X68956394Y-65891000D01*
X69174900Y-65847536D01*
X69380729Y-65762279D01*
X69565970Y-65638505D01*
X69723505Y-65480970D01*
X69847279Y-65295729D01*
X69932536Y-65089900D01*
X69976000Y-64871394D01*
X69976000Y-64648606D01*
X69932536Y-64430100D01*
X69847279Y-64224271D01*
X69723505Y-64039030D01*
X69565970Y-63881495D01*
X69380729Y-63757721D01*
X69174900Y-63672464D01*
X68956394Y-63629000D01*
X68733606Y-63629000D01*
X68515100Y-63672464D01*
X68361000Y-63736294D01*
X68361000Y-63243706D01*
X68515100Y-63307536D01*
X68733606Y-63351000D01*
X68956394Y-63351000D01*
X69174900Y-63307536D01*
X69380729Y-63222279D01*
X69565970Y-63098505D01*
X69723505Y-62940970D01*
X69847279Y-62755729D01*
X69932536Y-62549900D01*
X69976000Y-62331394D01*
X69976000Y-62108606D01*
X69932536Y-61890100D01*
X69847279Y-61684271D01*
X69723505Y-61499030D01*
X69565970Y-61341495D01*
X69380729Y-61217721D01*
X69174900Y-61132464D01*
X68956394Y-61089000D01*
X68733606Y-61089000D01*
X68515100Y-61132464D01*
X68361000Y-61196294D01*
X68361000Y-60703706D01*
X68515100Y-60767536D01*
X68733606Y-60811000D01*
X68956394Y-60811000D01*
X69174900Y-60767536D01*
X69380729Y-60682279D01*
X69565970Y-60558505D01*
X69723505Y-60400970D01*
X69847279Y-60215729D01*
X69932536Y-60009900D01*
X69976000Y-59791394D01*
X69976000Y-59568606D01*
X69932536Y-59350100D01*
X69847279Y-59144271D01*
X69723505Y-58959030D01*
X69565970Y-58801495D01*
X69380729Y-58677721D01*
X69174900Y-58592464D01*
X68956394Y-58549000D01*
X68733606Y-58549000D01*
X68515100Y-58592464D01*
X68361000Y-58656294D01*
X68361000Y-58163706D01*
X68515100Y-58227536D01*
X68733606Y-58271000D01*
X68956394Y-58271000D01*
X69174900Y-58227536D01*
X69380729Y-58142279D01*
X69565970Y-58018505D01*
X69723505Y-57860970D01*
X69847279Y-57675729D01*
X69932536Y-57469900D01*
X69976000Y-57251394D01*
X69976000Y-57028606D01*
X69932536Y-56810100D01*
X69847279Y-56604271D01*
X69723505Y-56419030D01*
X69565970Y-56261495D01*
X69476000Y-56201379D01*
X69476000Y-55165987D01*
X69479052Y-55134999D01*
X69476000Y-55104011D01*
X69476000Y-55104002D01*
X69466870Y-55011302D01*
X69430789Y-54892358D01*
X69372196Y-54782739D01*
X69293343Y-54686657D01*
X69269269Y-54666900D01*
X68788105Y-54185737D01*
X68768343Y-54161657D01*
X68672261Y-54082804D01*
X68562642Y-54024211D01*
X68443698Y-53988130D01*
X68350998Y-53979000D01*
X68350990Y-53979000D01*
X68320000Y-53975948D01*
X68289010Y-53979000D01*
X61610990Y-53979000D01*
X61580000Y-53975948D01*
X61549009Y-53979000D01*
X61549002Y-53979000D01*
X61456302Y-53988130D01*
X61337358Y-54024211D01*
X61227739Y-54082804D01*
X61131657Y-54161657D01*
X61111899Y-54185732D01*
X59057234Y-56240398D01*
X59033159Y-56260156D01*
X59013401Y-56284231D01*
X59013398Y-56284234D01*
X58954305Y-56356239D01*
X58907175Y-56444412D01*
X58876189Y-56435013D01*
X58801500Y-56427657D01*
X58402669Y-56427657D01*
X58365540Y-56424000D01*
X58337000Y-56421189D01*
X58308460Y-56424000D01*
X57576869Y-56424000D01*
X56898605Y-55745737D01*
X56878843Y-55721657D01*
X56782761Y-55642804D01*
X56673142Y-55584211D01*
X56554198Y-55548130D01*
X56461498Y-55539000D01*
X56461490Y-55539000D01*
X56430500Y-55535948D01*
X56399510Y-55539000D01*
X45050987Y-55539000D01*
X45019999Y-55535948D01*
X44989011Y-55539000D01*
X44989002Y-55539000D01*
X44896302Y-55548130D01*
X44777358Y-55584211D01*
X44667739Y-55642804D01*
X44622298Y-55680097D01*
X44571657Y-55721657D01*
X44551899Y-55745732D01*
X44080583Y-56217049D01*
X44075487Y-56165311D01*
X44053701Y-56093492D01*
X44018322Y-56027304D01*
X43970711Y-55969289D01*
X43912696Y-55921678D01*
X43846508Y-55886299D01*
X43774689Y-55864513D01*
X43700000Y-55857157D01*
X41072000Y-55857157D01*
X41072000Y-49064166D01*
X41078237Y-49071766D01*
X41096589Y-49086827D01*
X41479000Y-49469239D01*
X41479000Y-49570029D01*
X41506324Y-49707393D01*
X41559920Y-49836787D01*
X41637730Y-49953238D01*
X41736764Y-50052272D01*
X41853215Y-50130082D01*
X41982609Y-50183678D01*
X42119973Y-50211002D01*
X42260027Y-50211002D01*
X42397391Y-50183678D01*
X42526785Y-50130082D01*
X42643236Y-50052272D01*
X42742270Y-49953238D01*
X42820080Y-49836787D01*
X42873676Y-49707393D01*
X42901000Y-49570029D01*
X42901000Y-49429975D01*
X42873676Y-49292611D01*
X42820080Y-49163217D01*
X42742270Y-49046766D01*
X42735504Y-49040000D01*
X43331794Y-49040000D01*
X43334001Y-49062409D01*
X43334000Y-51977601D01*
X43331794Y-52000000D01*
X43340598Y-52089392D01*
X43366673Y-52175348D01*
X43409016Y-52254566D01*
X43440826Y-52293327D01*
X43465999Y-52324001D01*
X43535434Y-52380984D01*
X43614652Y-52423327D01*
X43700608Y-52449402D01*
X43790000Y-52458206D01*
X43812399Y-52456000D01*
X47567601Y-52456000D01*
X47590000Y-52458206D01*
X47679392Y-52449402D01*
X47765348Y-52423327D01*
X47844566Y-52380984D01*
X47914001Y-52324001D01*
X47970984Y-52254566D01*
X48013327Y-52175348D01*
X48039402Y-52089392D01*
X48046000Y-52022399D01*
X48046000Y-52022398D01*
X48048206Y-52000000D01*
X48046000Y-51977601D01*
X48046000Y-49062399D01*
X48048206Y-49040000D01*
X48045244Y-49009920D01*
X48039402Y-48950608D01*
X48013327Y-48864652D01*
X47970984Y-48785434D01*
X47914001Y-48715999D01*
X47844566Y-48659016D01*
X47765348Y-48616673D01*
X47679392Y-48590598D01*
X47612399Y-48584000D01*
X47590000Y-48581794D01*
X47567601Y-48584000D01*
X43812399Y-48584000D01*
X43790000Y-48581794D01*
X43767601Y-48584000D01*
X43700608Y-48590598D01*
X43614652Y-48616673D01*
X43535434Y-48659016D01*
X43465999Y-48715999D01*
X43409016Y-48785434D01*
X43366673Y-48864652D01*
X43340598Y-48950608D01*
X43331794Y-49040000D01*
X42735504Y-49040000D01*
X42643236Y-48947732D01*
X42580016Y-48905490D01*
X42602270Y-48883236D01*
X42680080Y-48766785D01*
X42733676Y-48637391D01*
X42761000Y-48500027D01*
X42761000Y-48359973D01*
X42733676Y-48222609D01*
X42680080Y-48093215D01*
X42602270Y-47976764D01*
X42531000Y-47905494D01*
X42531000Y-46713294D01*
X42551157Y-46733451D01*
X42667613Y-46616995D01*
X42733137Y-46855860D01*
X42980116Y-46971760D01*
X43244960Y-47037250D01*
X43517492Y-47049812D01*
X43787238Y-47008965D01*
X44043832Y-46916277D01*
X44156863Y-46855860D01*
X44222388Y-46616993D01*
X43445000Y-45839605D01*
X43430858Y-45853748D01*
X43251253Y-45674143D01*
X43265395Y-45660000D01*
X43624605Y-45660000D01*
X44401993Y-46437388D01*
X44640860Y-46371863D01*
X44756760Y-46124884D01*
X44822250Y-45860040D01*
X44834812Y-45587508D01*
X44793965Y-45317762D01*
X44701277Y-45061168D01*
X44640860Y-44948137D01*
X44401993Y-44882612D01*
X43624605Y-45660000D01*
X43265395Y-45660000D01*
X43251253Y-45645858D01*
X43430858Y-45466253D01*
X43445000Y-45480395D01*
X44222388Y-44703007D01*
X44156863Y-44464140D01*
X43909884Y-44348240D01*
X43645040Y-44282750D01*
X43372508Y-44270188D01*
X43102762Y-44311035D01*
X42846168Y-44403723D01*
X42733137Y-44464140D01*
X42667613Y-44703005D01*
X42551157Y-44586549D01*
X42531000Y-44606706D01*
X42531000Y-43787848D01*
X42566495Y-43840970D01*
X42724030Y-43998505D01*
X42909271Y-44122279D01*
X43115100Y-44207536D01*
X43333606Y-44251000D01*
X43556394Y-44251000D01*
X43774900Y-44207536D01*
X43980729Y-44122279D01*
X44165970Y-43998505D01*
X44323505Y-43840970D01*
X44447279Y-43655729D01*
X44532536Y-43449900D01*
X44576000Y-43231394D01*
X44576000Y-43008606D01*
X44532536Y-42790100D01*
X44447279Y-42584271D01*
X44323505Y-42399030D01*
X44165970Y-42241495D01*
X43980729Y-42117721D01*
X43774900Y-42032464D01*
X43556394Y-41989000D01*
X43333606Y-41989000D01*
X43115100Y-42032464D01*
X42909271Y-42117721D01*
X42724030Y-42241495D01*
X42566495Y-42399030D01*
X42531000Y-42452152D01*
X42531000Y-42174236D01*
X43060370Y-41644866D01*
X43115100Y-41667536D01*
X43333606Y-41711000D01*
X43556394Y-41711000D01*
X43774900Y-41667536D01*
X43980729Y-41582279D01*
X44165970Y-41458505D01*
X44323505Y-41300970D01*
X44447279Y-41115729D01*
X44532536Y-40909900D01*
X44576000Y-40691394D01*
X44576000Y-40468606D01*
X44532536Y-40250100D01*
X44447279Y-40044271D01*
X44323505Y-39859030D01*
X44165970Y-39701495D01*
X43980729Y-39577721D01*
X43774900Y-39492464D01*
X43556394Y-39449000D01*
X43333606Y-39449000D01*
X43115100Y-39492464D01*
X42909271Y-39577721D01*
X42724030Y-39701495D01*
X42566495Y-39859030D01*
X42442721Y-40044271D01*
X42357464Y-40250100D01*
X42314000Y-40468606D01*
X42314000Y-40691394D01*
X42357464Y-40909900D01*
X42380134Y-40964630D01*
X41901000Y-41443764D01*
X41901000Y-40264236D01*
X43060370Y-39104866D01*
X43115100Y-39127536D01*
X43333606Y-39171000D01*
X43556394Y-39171000D01*
X43774900Y-39127536D01*
X43980729Y-39042279D01*
X44165970Y-38918505D01*
X44323505Y-38760970D01*
X44447279Y-38575729D01*
X44532536Y-38369900D01*
X44576000Y-38151394D01*
X44576000Y-37928606D01*
X49934000Y-37928606D01*
X49934000Y-38151394D01*
X49977464Y-38369900D01*
X50062721Y-38575729D01*
X50186495Y-38760970D01*
X50344030Y-38918505D01*
X50529271Y-39042279D01*
X50735100Y-39127536D01*
X50953606Y-39171000D01*
X51176394Y-39171000D01*
X51394900Y-39127536D01*
X51449630Y-39104866D01*
X53829000Y-41484237D01*
X53829000Y-42670794D01*
X53781764Y-42613236D01*
X53763412Y-42598175D01*
X52129866Y-40964630D01*
X52152536Y-40909900D01*
X52196000Y-40691394D01*
X52196000Y-40468606D01*
X52152536Y-40250100D01*
X52067279Y-40044271D01*
X51943505Y-39859030D01*
X51785970Y-39701495D01*
X51600729Y-39577721D01*
X51394900Y-39492464D01*
X51176394Y-39449000D01*
X50953606Y-39449000D01*
X50735100Y-39492464D01*
X50529271Y-39577721D01*
X50344030Y-39701495D01*
X50186495Y-39859030D01*
X50062721Y-40044271D01*
X49977464Y-40250100D01*
X49934000Y-40468606D01*
X49934000Y-40691394D01*
X49977464Y-40909900D01*
X50062721Y-41115729D01*
X50186495Y-41300970D01*
X50344030Y-41458505D01*
X50529271Y-41582279D01*
X50735100Y-41667536D01*
X50953606Y-41711000D01*
X51176394Y-41711000D01*
X51394900Y-41667536D01*
X51449630Y-41644866D01*
X52959000Y-43154237D01*
X52959000Y-44434094D01*
X52936536Y-44360039D01*
X52891872Y-44276478D01*
X52831764Y-44203236D01*
X52813412Y-44188175D01*
X52129866Y-43504630D01*
X52152536Y-43449900D01*
X52196000Y-43231394D01*
X52196000Y-43008606D01*
X52152536Y-42790100D01*
X52067279Y-42584271D01*
X51943505Y-42399030D01*
X51785970Y-42241495D01*
X51600729Y-42117721D01*
X51394900Y-42032464D01*
X51176394Y-41989000D01*
X50953606Y-41989000D01*
X50735100Y-42032464D01*
X50529271Y-42117721D01*
X50344030Y-42241495D01*
X50186495Y-42399030D01*
X50062721Y-42584271D01*
X49977464Y-42790100D01*
X49934000Y-43008606D01*
X49934000Y-43231394D01*
X49977464Y-43449900D01*
X50062721Y-43655729D01*
X50186495Y-43840970D01*
X50344030Y-43998505D01*
X50529271Y-44122279D01*
X50735100Y-44207536D01*
X50953606Y-44251000D01*
X51176394Y-44251000D01*
X51394900Y-44207536D01*
X51449630Y-44184866D01*
X52009000Y-44744237D01*
X52009000Y-45037050D01*
X51943505Y-44939030D01*
X51785970Y-44781495D01*
X51600729Y-44657721D01*
X51394900Y-44572464D01*
X51176394Y-44529000D01*
X50953606Y-44529000D01*
X50735100Y-44572464D01*
X50529271Y-44657721D01*
X50344030Y-44781495D01*
X50186495Y-44939030D01*
X50062721Y-45124271D01*
X49977464Y-45330100D01*
X49934000Y-45548606D01*
X49934000Y-45771394D01*
X49977464Y-45989900D01*
X50062721Y-46195729D01*
X50186495Y-46380970D01*
X50344030Y-46538505D01*
X50529271Y-46662279D01*
X50735100Y-46747536D01*
X50739000Y-46748312D01*
X50739001Y-50072163D01*
X50686065Y-50125099D01*
X50608255Y-50241550D01*
X50554659Y-50370944D01*
X50527335Y-50508308D01*
X50527335Y-50648362D01*
X50554659Y-50785726D01*
X50608255Y-50915120D01*
X50686065Y-51031571D01*
X50785099Y-51130605D01*
X50901550Y-51208415D01*
X51030944Y-51262011D01*
X51168308Y-51289335D01*
X51308362Y-51289335D01*
X51445726Y-51262011D01*
X51575120Y-51208415D01*
X51691571Y-51130605D01*
X51790605Y-51031571D01*
X51868415Y-50915120D01*
X51922011Y-50785726D01*
X51949335Y-50648362D01*
X51949335Y-50508308D01*
X51922011Y-50370944D01*
X51868415Y-50241550D01*
X51790605Y-50125099D01*
X51701000Y-50035494D01*
X51701000Y-46595280D01*
X51785970Y-46538505D01*
X51943505Y-46380970D01*
X52009000Y-46282949D01*
X52009001Y-49215493D01*
X51937730Y-49286764D01*
X51859920Y-49403215D01*
X51806324Y-49532609D01*
X51779000Y-49669973D01*
X51779000Y-49810027D01*
X51806324Y-49947391D01*
X51859920Y-50076785D01*
X51937730Y-50193236D01*
X52036764Y-50292270D01*
X52153215Y-50370080D01*
X52282609Y-50423676D01*
X52419973Y-50451000D01*
X52560027Y-50451000D01*
X52697391Y-50423676D01*
X52826785Y-50370080D01*
X52943236Y-50292270D01*
X53042270Y-50193236D01*
X53120080Y-50076785D01*
X53173676Y-49947391D01*
X53201000Y-49810027D01*
X53201000Y-49780581D01*
X53232609Y-49793674D01*
X53369973Y-49820998D01*
X53510027Y-49820998D01*
X53542822Y-49814474D01*
X53489261Y-49850263D01*
X53390227Y-49949297D01*
X53312417Y-50065748D01*
X53258821Y-50195142D01*
X53231497Y-50332506D01*
X53231497Y-50472560D01*
X53258821Y-50609924D01*
X53312417Y-50739318D01*
X53390227Y-50855769D01*
X53489261Y-50954803D01*
X53605712Y-51032613D01*
X53735106Y-51086209D01*
X53872470Y-51113533D01*
X54012524Y-51113533D01*
X54149888Y-51086209D01*
X54279282Y-51032613D01*
X54395733Y-50954803D01*
X54494767Y-50855769D01*
X54572577Y-50739318D01*
X54626173Y-50609924D01*
X54653497Y-50472560D01*
X54653497Y-50446739D01*
X58483243Y-46616993D01*
X60447612Y-46616993D01*
X60513137Y-46855860D01*
X60760116Y-46971760D01*
X61024960Y-47037250D01*
X61297492Y-47049812D01*
X61567238Y-47008965D01*
X61823832Y-46916277D01*
X61936863Y-46855860D01*
X62002388Y-46616993D01*
X61225000Y-45839605D01*
X60447612Y-46616993D01*
X58483243Y-46616993D01*
X59920419Y-45179818D01*
X59913240Y-45195116D01*
X59847750Y-45459960D01*
X59835188Y-45732492D01*
X59876035Y-46002238D01*
X59968723Y-46258832D01*
X60029140Y-46371863D01*
X60268007Y-46437388D01*
X61045395Y-45660000D01*
X61404605Y-45660000D01*
X62181993Y-46437388D01*
X62420860Y-46371863D01*
X62536760Y-46124884D01*
X62602250Y-45860040D01*
X62614812Y-45587508D01*
X62573965Y-45317762D01*
X62481277Y-45061168D01*
X62420860Y-44948137D01*
X62181993Y-44882612D01*
X61404605Y-45660000D01*
X61045395Y-45660000D01*
X61031253Y-45645858D01*
X61210858Y-45466253D01*
X61225000Y-45480395D01*
X62002388Y-44703007D01*
X61936863Y-44464140D01*
X61689884Y-44348240D01*
X61425040Y-44282750D01*
X61152508Y-44270188D01*
X60882762Y-44311035D01*
X60736294Y-44363943D01*
X60893404Y-44206833D01*
X60895100Y-44207536D01*
X61113606Y-44251000D01*
X61336394Y-44251000D01*
X61554900Y-44207536D01*
X61760729Y-44122279D01*
X61945970Y-43998505D01*
X62103505Y-43840970D01*
X62227279Y-43655729D01*
X62312536Y-43449900D01*
X62356000Y-43231394D01*
X62356000Y-43008606D01*
X62312536Y-42790100D01*
X62227279Y-42584271D01*
X62103505Y-42399030D01*
X61945970Y-42241495D01*
X61760729Y-42117721D01*
X61554900Y-42032464D01*
X61336394Y-41989000D01*
X61113606Y-41989000D01*
X60895100Y-42032464D01*
X60689271Y-42117721D01*
X60504030Y-42241495D01*
X60346495Y-42399030D01*
X60222721Y-42584271D01*
X60137464Y-42790100D01*
X60094000Y-43008606D01*
X60094000Y-43231394D01*
X60137464Y-43449900D01*
X60182101Y-43557662D01*
X55913690Y-47826073D01*
X55900080Y-47793215D01*
X55822270Y-47676764D01*
X55751000Y-47605494D01*
X55751000Y-46734236D01*
X60840371Y-41644866D01*
X60895100Y-41667536D01*
X61113606Y-41711000D01*
X61336394Y-41711000D01*
X61554900Y-41667536D01*
X61760729Y-41582279D01*
X61945970Y-41458505D01*
X62103505Y-41300970D01*
X62227279Y-41115729D01*
X62312536Y-40909900D01*
X62356000Y-40691394D01*
X62356000Y-40468606D01*
X62312536Y-40250100D01*
X62227279Y-40044271D01*
X62103505Y-39859030D01*
X61945970Y-39701495D01*
X61760729Y-39577721D01*
X61554900Y-39492464D01*
X61336394Y-39449000D01*
X61113606Y-39449000D01*
X60895100Y-39492464D01*
X60689271Y-39577721D01*
X60504030Y-39701495D01*
X60346495Y-39859030D01*
X60222721Y-40044271D01*
X60137464Y-40250100D01*
X60094000Y-40468606D01*
X60094000Y-40691394D01*
X60137464Y-40909900D01*
X60160134Y-40964629D01*
X54946594Y-46178170D01*
X54928236Y-46193236D01*
X54868128Y-46266478D01*
X54823464Y-46350040D01*
X54815678Y-46375708D01*
X54795960Y-46440708D01*
X54791000Y-46491067D01*
X54791000Y-41308626D01*
X54793327Y-41284999D01*
X54784040Y-41190707D01*
X54756536Y-41100040D01*
X54756536Y-41100039D01*
X54711872Y-41016478D01*
X54651764Y-40943236D01*
X54633412Y-40928175D01*
X52129866Y-38424630D01*
X52152536Y-38369900D01*
X52196000Y-38151394D01*
X52196000Y-37928606D01*
X60094000Y-37928606D01*
X60094000Y-38151394D01*
X60137464Y-38369900D01*
X60222721Y-38575729D01*
X60346495Y-38760970D01*
X60504030Y-38918505D01*
X60689271Y-39042279D01*
X60895100Y-39127536D01*
X61113606Y-39171000D01*
X61336394Y-39171000D01*
X61554900Y-39127536D01*
X61760729Y-39042279D01*
X61945970Y-38918505D01*
X62103505Y-38760970D01*
X62227279Y-38575729D01*
X62312536Y-38369900D01*
X62356000Y-38151394D01*
X62356000Y-37928606D01*
X62312536Y-37710100D01*
X62227279Y-37504271D01*
X62103505Y-37319030D01*
X61945970Y-37161495D01*
X61760729Y-37037721D01*
X61554900Y-36952464D01*
X61336394Y-36909000D01*
X61113606Y-36909000D01*
X60895100Y-36952464D01*
X60689271Y-37037721D01*
X60504030Y-37161495D01*
X60346495Y-37319030D01*
X60222721Y-37504271D01*
X60137464Y-37710100D01*
X60094000Y-37928606D01*
X52196000Y-37928606D01*
X52152536Y-37710100D01*
X52067279Y-37504271D01*
X51943505Y-37319030D01*
X51785970Y-37161495D01*
X51600729Y-37037721D01*
X51394900Y-36952464D01*
X51176394Y-36909000D01*
X50953606Y-36909000D01*
X50735100Y-36952464D01*
X50529271Y-37037721D01*
X50344030Y-37161495D01*
X50186495Y-37319030D01*
X50062721Y-37504271D01*
X49977464Y-37710100D01*
X49934000Y-37928606D01*
X44576000Y-37928606D01*
X44532536Y-37710100D01*
X44447279Y-37504271D01*
X44323505Y-37319030D01*
X44165970Y-37161495D01*
X43980729Y-37037721D01*
X43774900Y-36952464D01*
X43556394Y-36909000D01*
X43333606Y-36909000D01*
X43115100Y-36952464D01*
X42909271Y-37037721D01*
X42724030Y-37161495D01*
X42566495Y-37319030D01*
X42442721Y-37504271D01*
X42357464Y-37710100D01*
X42314000Y-37928606D01*
X42314000Y-38151394D01*
X42357464Y-38369900D01*
X42380134Y-38424630D01*
X41096594Y-39708170D01*
X41078236Y-39723236D01*
X41072000Y-39730835D01*
X41072000Y-35388606D01*
X42314000Y-35388606D01*
X42314000Y-35611394D01*
X42357464Y-35829900D01*
X42442721Y-36035729D01*
X42566495Y-36220970D01*
X42724030Y-36378505D01*
X42909271Y-36502279D01*
X43115100Y-36587536D01*
X43333606Y-36631000D01*
X43556394Y-36631000D01*
X43774900Y-36587536D01*
X43980729Y-36502279D01*
X44165970Y-36378505D01*
X44323505Y-36220970D01*
X44447279Y-36035729D01*
X44532536Y-35829900D01*
X44576000Y-35611394D01*
X44576000Y-35388606D01*
X49934000Y-35388606D01*
X49934000Y-35611394D01*
X49977464Y-35829900D01*
X50062721Y-36035729D01*
X50186495Y-36220970D01*
X50344030Y-36378505D01*
X50529271Y-36502279D01*
X50735100Y-36587536D01*
X50953606Y-36631000D01*
X51176394Y-36631000D01*
X51394900Y-36587536D01*
X51600729Y-36502279D01*
X51785970Y-36378505D01*
X51943505Y-36220970D01*
X52067279Y-36035729D01*
X52152536Y-35829900D01*
X52196000Y-35611394D01*
X52196000Y-35388606D01*
X60094000Y-35388606D01*
X60094000Y-35611394D01*
X60137464Y-35829900D01*
X60222721Y-36035729D01*
X60346495Y-36220970D01*
X60504030Y-36378505D01*
X60689271Y-36502279D01*
X60895100Y-36587536D01*
X61113606Y-36631000D01*
X61336394Y-36631000D01*
X61554900Y-36587536D01*
X61760729Y-36502279D01*
X61945970Y-36378505D01*
X62103505Y-36220970D01*
X62227279Y-36035729D01*
X62312536Y-35829900D01*
X62356000Y-35611394D01*
X62356000Y-35388606D01*
X62312536Y-35170100D01*
X62227279Y-34964271D01*
X62103505Y-34779030D01*
X61945970Y-34621495D01*
X61760729Y-34497721D01*
X61554900Y-34412464D01*
X61336394Y-34369000D01*
X61113606Y-34369000D01*
X60895100Y-34412464D01*
X60689271Y-34497721D01*
X60504030Y-34621495D01*
X60346495Y-34779030D01*
X60222721Y-34964271D01*
X60137464Y-35170100D01*
X60094000Y-35388606D01*
X52196000Y-35388606D01*
X52152536Y-35170100D01*
X52067279Y-34964271D01*
X51943505Y-34779030D01*
X51785970Y-34621495D01*
X51600729Y-34497721D01*
X51394900Y-34412464D01*
X51176394Y-34369000D01*
X50953606Y-34369000D01*
X50735100Y-34412464D01*
X50529271Y-34497721D01*
X50344030Y-34621495D01*
X50186495Y-34779030D01*
X50062721Y-34964271D01*
X49977464Y-35170100D01*
X49934000Y-35388606D01*
X44576000Y-35388606D01*
X44532536Y-35170100D01*
X44447279Y-34964271D01*
X44323505Y-34779030D01*
X44165970Y-34621495D01*
X43980729Y-34497721D01*
X43774900Y-34412464D01*
X43556394Y-34369000D01*
X43333606Y-34369000D01*
X43115100Y-34412464D01*
X42909271Y-34497721D01*
X42724030Y-34621495D01*
X42566495Y-34779030D01*
X42442721Y-34964271D01*
X42357464Y-35170100D01*
X42314000Y-35388606D01*
X41072000Y-35388606D01*
X41072000Y-31516000D01*
X71234000Y-31516000D01*
X71234000Y-37208763D01*
G36*
X44800178Y-67248196D02*
G01*
X44847789Y-67306211D01*
X44905804Y-67353822D01*
X44971992Y-67389201D01*
X45043811Y-67410987D01*
X45118500Y-67418343D01*
X46231228Y-67418343D01*
X46287315Y-67486685D01*
X46379137Y-67562041D01*
X46336189Y-67549013D01*
X46261500Y-67541657D01*
X45118500Y-67541657D01*
X45043811Y-67549013D01*
X44971992Y-67570799D01*
X44905804Y-67606178D01*
X44847789Y-67653789D01*
X44800178Y-67711804D01*
X44764799Y-67777992D01*
X44743013Y-67849811D01*
X44735657Y-67924500D01*
X44735657Y-68559500D01*
X44743013Y-68634189D01*
X44764799Y-68706008D01*
X44800178Y-68772196D01*
X44847789Y-68830211D01*
X44905804Y-68877822D01*
X44971992Y-68913201D01*
X45043811Y-68934987D01*
X45118500Y-68942343D01*
X46261500Y-68942343D01*
X46336189Y-68934987D01*
X46408008Y-68913201D01*
X46474196Y-68877822D01*
X46500000Y-68856646D01*
X46525804Y-68877822D01*
X46591992Y-68913201D01*
X46627592Y-68924000D01*
X46468623Y-68924000D01*
X46444999Y-68921673D01*
X46421375Y-68924000D01*
X46421374Y-68924000D01*
X46350708Y-68930960D01*
X46260039Y-68958464D01*
X46176478Y-69003128D01*
X46103236Y-69063236D01*
X46088175Y-69081588D01*
X44090764Y-71079000D01*
X44082843Y-71079000D01*
X44082843Y-70810000D01*
X44075487Y-70735311D01*
X44053701Y-70663492D01*
X44018322Y-70597304D01*
X43970711Y-70539289D01*
X43912696Y-70491678D01*
X43846508Y-70456299D01*
X43774689Y-70434513D01*
X43700000Y-70427157D01*
X41072000Y-70427157D01*
X41072000Y-70177131D01*
X41914250Y-70175000D01*
X42073000Y-70016250D01*
X42073000Y-68917000D01*
X42327000Y-68917000D01*
X42327000Y-70016250D01*
X42485750Y-70175000D01*
X43700000Y-70178072D01*
X43824482Y-70165812D01*
X43944180Y-70129502D01*
X44054494Y-70070537D01*
X44151185Y-69991185D01*
X44230537Y-69894494D01*
X44289502Y-69784180D01*
X44325812Y-69664482D01*
X44338072Y-69540000D01*
X44335000Y-69075750D01*
X44176250Y-68917000D01*
X42327000Y-68917000D01*
X42073000Y-68917000D01*
X42053000Y-68917000D01*
X42053000Y-68663000D01*
X42073000Y-68663000D01*
X42073000Y-68643000D01*
X42327000Y-68643000D01*
X42327000Y-68663000D01*
X44176250Y-68663000D01*
X44335000Y-68504250D01*
X44338072Y-68040000D01*
X44325812Y-67915518D01*
X44289502Y-67795820D01*
X44230537Y-67685506D01*
X44151185Y-67588815D01*
X44082594Y-67532524D01*
X44082843Y-67530000D01*
X44082843Y-67199000D01*
X44773882Y-67199000D01*
X44800178Y-67248196D01*
X44800178Y-67248196D01*
G37*
X44800178Y-67248196D02*
X44847789Y-67306211D01*
X44905804Y-67353822D01*
X44971992Y-67389201D01*
X45043811Y-67410987D01*
X45118500Y-67418343D01*
X46231228Y-67418343D01*
X46287315Y-67486685D01*
X46379137Y-67562041D01*
X46336189Y-67549013D01*
X46261500Y-67541657D01*
X45118500Y-67541657D01*
X45043811Y-67549013D01*
X44971992Y-67570799D01*
X44905804Y-67606178D01*
X44847789Y-67653789D01*
X44800178Y-67711804D01*
X44764799Y-67777992D01*
X44743013Y-67849811D01*
X44735657Y-67924500D01*
X44735657Y-68559500D01*
X44743013Y-68634189D01*
X44764799Y-68706008D01*
X44800178Y-68772196D01*
X44847789Y-68830211D01*
X44905804Y-68877822D01*
X44971992Y-68913201D01*
X45043811Y-68934987D01*
X45118500Y-68942343D01*
X46261500Y-68942343D01*
X46336189Y-68934987D01*
X46408008Y-68913201D01*
X46474196Y-68877822D01*
X46500000Y-68856646D01*
X46525804Y-68877822D01*
X46591992Y-68913201D01*
X46627592Y-68924000D01*
X46468623Y-68924000D01*
X46444999Y-68921673D01*
X46421375Y-68924000D01*
X46421374Y-68924000D01*
X46350708Y-68930960D01*
X46260039Y-68958464D01*
X46176478Y-69003128D01*
X46103236Y-69063236D01*
X46088175Y-69081588D01*
X44090764Y-71079000D01*
X44082843Y-71079000D01*
X44082843Y-70810000D01*
X44075487Y-70735311D01*
X44053701Y-70663492D01*
X44018322Y-70597304D01*
X43970711Y-70539289D01*
X43912696Y-70491678D01*
X43846508Y-70456299D01*
X43774689Y-70434513D01*
X43700000Y-70427157D01*
X41072000Y-70427157D01*
X41072000Y-70177131D01*
X41914250Y-70175000D01*
X42073000Y-70016250D01*
X42073000Y-68917000D01*
X42327000Y-68917000D01*
X42327000Y-70016250D01*
X42485750Y-70175000D01*
X43700000Y-70178072D01*
X43824482Y-70165812D01*
X43944180Y-70129502D01*
X44054494Y-70070537D01*
X44151185Y-69991185D01*
X44230537Y-69894494D01*
X44289502Y-69784180D01*
X44325812Y-69664482D01*
X44338072Y-69540000D01*
X44335000Y-69075750D01*
X44176250Y-68917000D01*
X42327000Y-68917000D01*
X42073000Y-68917000D01*
X42053000Y-68917000D01*
X42053000Y-68663000D01*
X42073000Y-68663000D01*
X42073000Y-68643000D01*
X42327000Y-68643000D01*
X42327000Y-68663000D01*
X44176250Y-68663000D01*
X44335000Y-68504250D01*
X44338072Y-68040000D01*
X44325812Y-67915518D01*
X44289502Y-67795820D01*
X44230537Y-67685506D01*
X44151185Y-67588815D01*
X44082594Y-67532524D01*
X44082843Y-67530000D01*
X44082843Y-67199000D01*
X44773882Y-67199000D01*
X44800178Y-67248196D01*
G36*
X48307157Y-57880000D02*
G01*
X48314513Y-57954689D01*
X48322191Y-57980000D01*
X48314513Y-58005311D01*
X48307157Y-58080000D01*
X48307157Y-58530000D01*
X48314513Y-58604689D01*
X48322191Y-58630000D01*
X48314513Y-58655311D01*
X48307157Y-58730000D01*
X48307157Y-59124000D01*
X48218615Y-59124000D01*
X48194999Y-59121674D01*
X48171383Y-59124000D01*
X48171374Y-59124000D01*
X48100708Y-59130960D01*
X48010039Y-59158464D01*
X47926478Y-59203128D01*
X47853236Y-59263236D01*
X47838174Y-59281589D01*
X47530763Y-59589000D01*
X47429973Y-59589000D01*
X47292609Y-59616324D01*
X47163215Y-59669920D01*
X47046764Y-59747730D01*
X46947730Y-59846764D01*
X46869920Y-59963215D01*
X46816324Y-60092609D01*
X46789000Y-60229973D01*
X46789000Y-60370027D01*
X46816324Y-60507391D01*
X46869920Y-60636785D01*
X46947730Y-60753236D01*
X47046764Y-60852270D01*
X47163215Y-60930080D01*
X47292609Y-60983676D01*
X47429973Y-61011000D01*
X47570027Y-61011000D01*
X47707391Y-60983676D01*
X47836785Y-60930080D01*
X47953236Y-60852270D01*
X48052270Y-60753236D01*
X48130080Y-60636785D01*
X48183676Y-60507391D01*
X48211000Y-60370027D01*
X48211000Y-60269237D01*
X48307157Y-60173080D01*
X48307157Y-60480000D01*
X48314513Y-60554689D01*
X48322191Y-60580000D01*
X48314513Y-60605311D01*
X48307157Y-60680000D01*
X48307157Y-60823130D01*
X48245574Y-60872156D01*
X48164792Y-60967657D01*
X48104194Y-61077082D01*
X48066109Y-61196227D01*
X48055000Y-61298250D01*
X48213750Y-61457000D01*
X48493539Y-61457000D01*
X48543492Y-61483701D01*
X48615311Y-61505487D01*
X48690000Y-61512843D01*
X50190000Y-61512843D01*
X50264689Y-61505487D01*
X50336508Y-61483701D01*
X50386461Y-61457000D01*
X50666250Y-61457000D01*
X50825000Y-61298250D01*
X50813891Y-61196227D01*
X50775806Y-61077082D01*
X50715208Y-60967657D01*
X50634426Y-60872156D01*
X50572843Y-60823130D01*
X50572843Y-60680000D01*
X50565487Y-60605311D01*
X50557809Y-60580000D01*
X50565487Y-60554689D01*
X50572843Y-60480000D01*
X50572843Y-60030000D01*
X50565487Y-59955311D01*
X50557809Y-59930000D01*
X50565487Y-59904689D01*
X50572843Y-59830000D01*
X50572843Y-59537121D01*
X50590000Y-59538811D01*
X50618540Y-59536000D01*
X50703896Y-59527593D01*
X50813415Y-59494371D01*
X50914348Y-59440421D01*
X51002817Y-59367817D01*
X51021017Y-59345640D01*
X51300641Y-59066016D01*
X51322817Y-59047817D01*
X51395421Y-58959348D01*
X51429011Y-58896506D01*
X51429010Y-62801450D01*
X51426199Y-62829990D01*
X51429011Y-62858540D01*
X51429011Y-63962356D01*
X51387992Y-63974799D01*
X51321804Y-64010178D01*
X51263789Y-64057789D01*
X51236895Y-64090560D01*
X51235002Y-64084320D01*
X51176037Y-63974006D01*
X51096685Y-63877315D01*
X50999994Y-63797963D01*
X50889680Y-63738998D01*
X50769982Y-63702688D01*
X50645500Y-63690428D01*
X50613750Y-63693500D01*
X50455000Y-63852250D01*
X50455000Y-64773000D01*
X50475000Y-64773000D01*
X50475000Y-65027000D01*
X50455000Y-65027000D01*
X50455000Y-66403000D01*
X50475000Y-66403000D01*
X50475000Y-66657000D01*
X50455000Y-66657000D01*
X50455000Y-67577750D01*
X50613750Y-67736500D01*
X50645500Y-67739572D01*
X50769982Y-67727312D01*
X50889680Y-67691002D01*
X50999994Y-67632037D01*
X51096685Y-67552685D01*
X51176037Y-67455994D01*
X51235002Y-67345680D01*
X51236895Y-67339440D01*
X51263789Y-67372211D01*
X51321804Y-67419822D01*
X51387992Y-67455201D01*
X51429010Y-67467644D01*
X51429010Y-70327873D01*
X51178886Y-70577998D01*
X51130252Y-70577998D01*
X51260000Y-70448250D01*
X51249099Y-70347199D01*
X51211199Y-70227995D01*
X51150772Y-70118476D01*
X51070139Y-70022849D01*
X51007843Y-69973097D01*
X51007843Y-69830000D01*
X51000487Y-69755311D01*
X50992809Y-69730000D01*
X51000487Y-69704689D01*
X51007843Y-69630000D01*
X51007843Y-69180000D01*
X51000487Y-69105311D01*
X50992809Y-69080000D01*
X51000487Y-69054689D01*
X51007843Y-68980000D01*
X51007843Y-68530000D01*
X51000487Y-68455311D01*
X50978701Y-68383492D01*
X50943322Y-68317304D01*
X50895711Y-68259289D01*
X50837696Y-68211678D01*
X50771508Y-68176299D01*
X50699689Y-68154513D01*
X50625000Y-68147157D01*
X48875000Y-68147157D01*
X48800311Y-68154513D01*
X48728492Y-68176299D01*
X48662304Y-68211678D01*
X48604289Y-68259289D01*
X48592216Y-68274000D01*
X48264343Y-68274000D01*
X48264343Y-67924500D01*
X48256987Y-67849811D01*
X48235201Y-67777992D01*
X48199822Y-67711804D01*
X48152211Y-67653789D01*
X48119440Y-67626895D01*
X48125680Y-67625002D01*
X48235994Y-67566037D01*
X48332685Y-67486685D01*
X48412037Y-67389994D01*
X48471002Y-67279680D01*
X48507312Y-67159982D01*
X48513071Y-67101500D01*
X49372428Y-67101500D01*
X49384688Y-67225982D01*
X49420998Y-67345680D01*
X49479963Y-67455994D01*
X49559315Y-67552685D01*
X49656006Y-67632037D01*
X49766320Y-67691002D01*
X49886018Y-67727312D01*
X50010500Y-67739572D01*
X50042250Y-67736500D01*
X50201000Y-67577750D01*
X50201000Y-66657000D01*
X49534250Y-66657000D01*
X49375500Y-66815750D01*
X49372428Y-67101500D01*
X48513071Y-67101500D01*
X48519572Y-67035500D01*
X48516500Y-67003750D01*
X48357750Y-66845000D01*
X47437000Y-66845000D01*
X47437000Y-66865000D01*
X47183000Y-66865000D01*
X47183000Y-66845000D01*
X47163000Y-66845000D01*
X47163000Y-66591000D01*
X47183000Y-66591000D01*
X47183000Y-65924250D01*
X47437000Y-65924250D01*
X47437000Y-66591000D01*
X48357750Y-66591000D01*
X48516500Y-66432250D01*
X48519572Y-66400500D01*
X48507312Y-66276018D01*
X48471002Y-66156320D01*
X48412037Y-66046006D01*
X48332685Y-65949315D01*
X48235994Y-65869963D01*
X48125680Y-65810998D01*
X48005982Y-65774688D01*
X47881500Y-65762428D01*
X47595750Y-65765500D01*
X47437000Y-65924250D01*
X47183000Y-65924250D01*
X47024250Y-65765500D01*
X46738500Y-65762428D01*
X46614018Y-65774688D01*
X46494320Y-65810998D01*
X46384006Y-65869963D01*
X46287315Y-65949315D01*
X46231228Y-66017657D01*
X45118500Y-66017657D01*
X45043811Y-66025013D01*
X44971992Y-66046799D01*
X44905804Y-66082178D01*
X44847789Y-66129789D01*
X44800178Y-66187804D01*
X44773882Y-66237000D01*
X44082843Y-66237000D01*
X44082843Y-66030000D01*
X44075487Y-65955311D01*
X44053701Y-65883492D01*
X44018322Y-65817304D01*
X43970711Y-65759289D01*
X43912696Y-65711678D01*
X43846508Y-65676299D01*
X43774689Y-65654513D01*
X43700000Y-65647157D01*
X41072000Y-65647157D01*
X41072000Y-65471500D01*
X49372428Y-65471500D01*
X49384688Y-65595982D01*
X49420792Y-65715000D01*
X49384688Y-65834018D01*
X49372428Y-65958500D01*
X49375500Y-66244250D01*
X49534250Y-66403000D01*
X50201000Y-66403000D01*
X50201000Y-65027000D01*
X49534250Y-65027000D01*
X49375500Y-65185750D01*
X49372428Y-65471500D01*
X41072000Y-65471500D01*
X41072000Y-65407131D01*
X41914250Y-65405000D01*
X42073000Y-65246250D01*
X42073000Y-64147000D01*
X42327000Y-64147000D01*
X42327000Y-65246250D01*
X42485750Y-65405000D01*
X43700000Y-65408072D01*
X43824482Y-65395812D01*
X43944180Y-65359502D01*
X44054494Y-65300537D01*
X44151185Y-65221185D01*
X44230537Y-65124494D01*
X44289502Y-65014180D01*
X44325812Y-64894482D01*
X44338072Y-64770000D01*
X44335151Y-64328500D01*
X49372428Y-64328500D01*
X49375500Y-64614250D01*
X49534250Y-64773000D01*
X50201000Y-64773000D01*
X50201000Y-63852250D01*
X50042250Y-63693500D01*
X50010500Y-63690428D01*
X49886018Y-63702688D01*
X49766320Y-63738998D01*
X49656006Y-63797963D01*
X49559315Y-63877315D01*
X49479963Y-63974006D01*
X49420998Y-64084320D01*
X49384688Y-64204018D01*
X49372428Y-64328500D01*
X44335151Y-64328500D01*
X44335000Y-64305750D01*
X44176250Y-64147000D01*
X42327000Y-64147000D01*
X42073000Y-64147000D01*
X42053000Y-64147000D01*
X42053000Y-63893000D01*
X42073000Y-63893000D01*
X42073000Y-63873000D01*
X42327000Y-63873000D01*
X42327000Y-63893000D01*
X44176250Y-63893000D01*
X44335000Y-63734250D01*
X44338072Y-63270000D01*
X44325812Y-63145518D01*
X44289502Y-63025820D01*
X44230537Y-62915506D01*
X44151185Y-62818815D01*
X44078949Y-62759533D01*
X44082843Y-62720000D01*
X44082843Y-62451000D01*
X45040764Y-62451000D01*
X45089000Y-62499236D01*
X45089000Y-62600027D01*
X45116324Y-62737391D01*
X45169920Y-62866785D01*
X45247730Y-62983236D01*
X45346764Y-63082270D01*
X45463215Y-63160080D01*
X45592609Y-63213676D01*
X45729973Y-63241000D01*
X45870027Y-63241000D01*
X46007391Y-63213676D01*
X46136785Y-63160080D01*
X46253236Y-63082270D01*
X46352270Y-62983236D01*
X46430080Y-62866785D01*
X46483676Y-62737391D01*
X46511000Y-62600027D01*
X46511000Y-62459973D01*
X46483676Y-62322609D01*
X46430080Y-62193215D01*
X46352270Y-62076764D01*
X46253236Y-61977730D01*
X46136785Y-61899920D01*
X46007391Y-61846324D01*
X45870027Y-61819000D01*
X45769236Y-61819000D01*
X45761986Y-61811750D01*
X48055000Y-61811750D01*
X48066109Y-61913773D01*
X48104194Y-62032918D01*
X48164792Y-62142343D01*
X48245574Y-62237844D01*
X48343434Y-62315750D01*
X48454613Y-62373067D01*
X48574838Y-62407593D01*
X48699488Y-62418001D01*
X49154250Y-62415000D01*
X49313000Y-62256250D01*
X49313000Y-61653000D01*
X49567000Y-61653000D01*
X49567000Y-62256250D01*
X49725750Y-62415000D01*
X50180512Y-62418001D01*
X50305162Y-62407593D01*
X50425387Y-62373067D01*
X50536566Y-62315750D01*
X50634426Y-62237844D01*
X50715208Y-62142343D01*
X50775806Y-62032918D01*
X50813891Y-61913773D01*
X50825000Y-61811750D01*
X50666250Y-61653000D01*
X49567000Y-61653000D01*
X49313000Y-61653000D01*
X48213750Y-61653000D01*
X48055000Y-61811750D01*
X45761986Y-61811750D01*
X45596830Y-61646594D01*
X45581764Y-61628236D01*
X45508522Y-61568128D01*
X45424961Y-61523464D01*
X45334292Y-61495960D01*
X45263626Y-61489000D01*
X45240000Y-61486673D01*
X45216374Y-61489000D01*
X44082843Y-61489000D01*
X44082843Y-61220000D01*
X44075487Y-61145311D01*
X44053701Y-61073492D01*
X44018322Y-61007304D01*
X43970711Y-60949289D01*
X43959392Y-60940000D01*
X43970711Y-60930711D01*
X44018322Y-60872696D01*
X44053701Y-60806508D01*
X44075487Y-60734689D01*
X44082843Y-60660000D01*
X44082843Y-60391000D01*
X44946374Y-60391000D01*
X44970000Y-60393327D01*
X44993626Y-60391000D01*
X45064292Y-60384040D01*
X45154961Y-60356536D01*
X45238522Y-60311872D01*
X45311764Y-60251764D01*
X45326830Y-60233406D01*
X48074237Y-57486000D01*
X48307157Y-57486000D01*
X48307157Y-57880000D01*
X48307157Y-57880000D01*
G37*
X48307157Y-57880000D02*
X48314513Y-57954689D01*
X48322191Y-57980000D01*
X48314513Y-58005311D01*
X48307157Y-58080000D01*
X48307157Y-58530000D01*
X48314513Y-58604689D01*
X48322191Y-58630000D01*
X48314513Y-58655311D01*
X48307157Y-58730000D01*
X48307157Y-59124000D01*
X48218615Y-59124000D01*
X48194999Y-59121674D01*
X48171383Y-59124000D01*
X48171374Y-59124000D01*
X48100708Y-59130960D01*
X48010039Y-59158464D01*
X47926478Y-59203128D01*
X47853236Y-59263236D01*
X47838174Y-59281589D01*
X47530763Y-59589000D01*
X47429973Y-59589000D01*
X47292609Y-59616324D01*
X47163215Y-59669920D01*
X47046764Y-59747730D01*
X46947730Y-59846764D01*
X46869920Y-59963215D01*
X46816324Y-60092609D01*
X46789000Y-60229973D01*
X46789000Y-60370027D01*
X46816324Y-60507391D01*
X46869920Y-60636785D01*
X46947730Y-60753236D01*
X47046764Y-60852270D01*
X47163215Y-60930080D01*
X47292609Y-60983676D01*
X47429973Y-61011000D01*
X47570027Y-61011000D01*
X47707391Y-60983676D01*
X47836785Y-60930080D01*
X47953236Y-60852270D01*
X48052270Y-60753236D01*
X48130080Y-60636785D01*
X48183676Y-60507391D01*
X48211000Y-60370027D01*
X48211000Y-60269237D01*
X48307157Y-60173080D01*
X48307157Y-60480000D01*
X48314513Y-60554689D01*
X48322191Y-60580000D01*
X48314513Y-60605311D01*
X48307157Y-60680000D01*
X48307157Y-60823130D01*
X48245574Y-60872156D01*
X48164792Y-60967657D01*
X48104194Y-61077082D01*
X48066109Y-61196227D01*
X48055000Y-61298250D01*
X48213750Y-61457000D01*
X48493539Y-61457000D01*
X48543492Y-61483701D01*
X48615311Y-61505487D01*
X48690000Y-61512843D01*
X50190000Y-61512843D01*
X50264689Y-61505487D01*
X50336508Y-61483701D01*
X50386461Y-61457000D01*
X50666250Y-61457000D01*
X50825000Y-61298250D01*
X50813891Y-61196227D01*
X50775806Y-61077082D01*
X50715208Y-60967657D01*
X50634426Y-60872156D01*
X50572843Y-60823130D01*
X50572843Y-60680000D01*
X50565487Y-60605311D01*
X50557809Y-60580000D01*
X50565487Y-60554689D01*
X50572843Y-60480000D01*
X50572843Y-60030000D01*
X50565487Y-59955311D01*
X50557809Y-59930000D01*
X50565487Y-59904689D01*
X50572843Y-59830000D01*
X50572843Y-59537121D01*
X50590000Y-59538811D01*
X50618540Y-59536000D01*
X50703896Y-59527593D01*
X50813415Y-59494371D01*
X50914348Y-59440421D01*
X51002817Y-59367817D01*
X51021017Y-59345640D01*
X51300641Y-59066016D01*
X51322817Y-59047817D01*
X51395421Y-58959348D01*
X51429011Y-58896506D01*
X51429010Y-62801450D01*
X51426199Y-62829990D01*
X51429011Y-62858540D01*
X51429011Y-63962356D01*
X51387992Y-63974799D01*
X51321804Y-64010178D01*
X51263789Y-64057789D01*
X51236895Y-64090560D01*
X51235002Y-64084320D01*
X51176037Y-63974006D01*
X51096685Y-63877315D01*
X50999994Y-63797963D01*
X50889680Y-63738998D01*
X50769982Y-63702688D01*
X50645500Y-63690428D01*
X50613750Y-63693500D01*
X50455000Y-63852250D01*
X50455000Y-64773000D01*
X50475000Y-64773000D01*
X50475000Y-65027000D01*
X50455000Y-65027000D01*
X50455000Y-66403000D01*
X50475000Y-66403000D01*
X50475000Y-66657000D01*
X50455000Y-66657000D01*
X50455000Y-67577750D01*
X50613750Y-67736500D01*
X50645500Y-67739572D01*
X50769982Y-67727312D01*
X50889680Y-67691002D01*
X50999994Y-67632037D01*
X51096685Y-67552685D01*
X51176037Y-67455994D01*
X51235002Y-67345680D01*
X51236895Y-67339440D01*
X51263789Y-67372211D01*
X51321804Y-67419822D01*
X51387992Y-67455201D01*
X51429010Y-67467644D01*
X51429010Y-70327873D01*
X51178886Y-70577998D01*
X51130252Y-70577998D01*
X51260000Y-70448250D01*
X51249099Y-70347199D01*
X51211199Y-70227995D01*
X51150772Y-70118476D01*
X51070139Y-70022849D01*
X51007843Y-69973097D01*
X51007843Y-69830000D01*
X51000487Y-69755311D01*
X50992809Y-69730000D01*
X51000487Y-69704689D01*
X51007843Y-69630000D01*
X51007843Y-69180000D01*
X51000487Y-69105311D01*
X50992809Y-69080000D01*
X51000487Y-69054689D01*
X51007843Y-68980000D01*
X51007843Y-68530000D01*
X51000487Y-68455311D01*
X50978701Y-68383492D01*
X50943322Y-68317304D01*
X50895711Y-68259289D01*
X50837696Y-68211678D01*
X50771508Y-68176299D01*
X50699689Y-68154513D01*
X50625000Y-68147157D01*
X48875000Y-68147157D01*
X48800311Y-68154513D01*
X48728492Y-68176299D01*
X48662304Y-68211678D01*
X48604289Y-68259289D01*
X48592216Y-68274000D01*
X48264343Y-68274000D01*
X48264343Y-67924500D01*
X48256987Y-67849811D01*
X48235201Y-67777992D01*
X48199822Y-67711804D01*
X48152211Y-67653789D01*
X48119440Y-67626895D01*
X48125680Y-67625002D01*
X48235994Y-67566037D01*
X48332685Y-67486685D01*
X48412037Y-67389994D01*
X48471002Y-67279680D01*
X48507312Y-67159982D01*
X48513071Y-67101500D01*
X49372428Y-67101500D01*
X49384688Y-67225982D01*
X49420998Y-67345680D01*
X49479963Y-67455994D01*
X49559315Y-67552685D01*
X49656006Y-67632037D01*
X49766320Y-67691002D01*
X49886018Y-67727312D01*
X50010500Y-67739572D01*
X50042250Y-67736500D01*
X50201000Y-67577750D01*
X50201000Y-66657000D01*
X49534250Y-66657000D01*
X49375500Y-66815750D01*
X49372428Y-67101500D01*
X48513071Y-67101500D01*
X48519572Y-67035500D01*
X48516500Y-67003750D01*
X48357750Y-66845000D01*
X47437000Y-66845000D01*
X47437000Y-66865000D01*
X47183000Y-66865000D01*
X47183000Y-66845000D01*
X47163000Y-66845000D01*
X47163000Y-66591000D01*
X47183000Y-66591000D01*
X47183000Y-65924250D01*
X47437000Y-65924250D01*
X47437000Y-66591000D01*
X48357750Y-66591000D01*
X48516500Y-66432250D01*
X48519572Y-66400500D01*
X48507312Y-66276018D01*
X48471002Y-66156320D01*
X48412037Y-66046006D01*
X48332685Y-65949315D01*
X48235994Y-65869963D01*
X48125680Y-65810998D01*
X48005982Y-65774688D01*
X47881500Y-65762428D01*
X47595750Y-65765500D01*
X47437000Y-65924250D01*
X47183000Y-65924250D01*
X47024250Y-65765500D01*
X46738500Y-65762428D01*
X46614018Y-65774688D01*
X46494320Y-65810998D01*
X46384006Y-65869963D01*
X46287315Y-65949315D01*
X46231228Y-66017657D01*
X45118500Y-66017657D01*
X45043811Y-66025013D01*
X44971992Y-66046799D01*
X44905804Y-66082178D01*
X44847789Y-66129789D01*
X44800178Y-66187804D01*
X44773882Y-66237000D01*
X44082843Y-66237000D01*
X44082843Y-66030000D01*
X44075487Y-65955311D01*
X44053701Y-65883492D01*
X44018322Y-65817304D01*
X43970711Y-65759289D01*
X43912696Y-65711678D01*
X43846508Y-65676299D01*
X43774689Y-65654513D01*
X43700000Y-65647157D01*
X41072000Y-65647157D01*
X41072000Y-65471500D01*
X49372428Y-65471500D01*
X49384688Y-65595982D01*
X49420792Y-65715000D01*
X49384688Y-65834018D01*
X49372428Y-65958500D01*
X49375500Y-66244250D01*
X49534250Y-66403000D01*
X50201000Y-66403000D01*
X50201000Y-65027000D01*
X49534250Y-65027000D01*
X49375500Y-65185750D01*
X49372428Y-65471500D01*
X41072000Y-65471500D01*
X41072000Y-65407131D01*
X41914250Y-65405000D01*
X42073000Y-65246250D01*
X42073000Y-64147000D01*
X42327000Y-64147000D01*
X42327000Y-65246250D01*
X42485750Y-65405000D01*
X43700000Y-65408072D01*
X43824482Y-65395812D01*
X43944180Y-65359502D01*
X44054494Y-65300537D01*
X44151185Y-65221185D01*
X44230537Y-65124494D01*
X44289502Y-65014180D01*
X44325812Y-64894482D01*
X44338072Y-64770000D01*
X44335151Y-64328500D01*
X49372428Y-64328500D01*
X49375500Y-64614250D01*
X49534250Y-64773000D01*
X50201000Y-64773000D01*
X50201000Y-63852250D01*
X50042250Y-63693500D01*
X50010500Y-63690428D01*
X49886018Y-63702688D01*
X49766320Y-63738998D01*
X49656006Y-63797963D01*
X49559315Y-63877315D01*
X49479963Y-63974006D01*
X49420998Y-64084320D01*
X49384688Y-64204018D01*
X49372428Y-64328500D01*
X44335151Y-64328500D01*
X44335000Y-64305750D01*
X44176250Y-64147000D01*
X42327000Y-64147000D01*
X42073000Y-64147000D01*
X42053000Y-64147000D01*
X42053000Y-63893000D01*
X42073000Y-63893000D01*
X42073000Y-63873000D01*
X42327000Y-63873000D01*
X42327000Y-63893000D01*
X44176250Y-63893000D01*
X44335000Y-63734250D01*
X44338072Y-63270000D01*
X44325812Y-63145518D01*
X44289502Y-63025820D01*
X44230537Y-62915506D01*
X44151185Y-62818815D01*
X44078949Y-62759533D01*
X44082843Y-62720000D01*
X44082843Y-62451000D01*
X45040764Y-62451000D01*
X45089000Y-62499236D01*
X45089000Y-62600027D01*
X45116324Y-62737391D01*
X45169920Y-62866785D01*
X45247730Y-62983236D01*
X45346764Y-63082270D01*
X45463215Y-63160080D01*
X45592609Y-63213676D01*
X45729973Y-63241000D01*
X45870027Y-63241000D01*
X46007391Y-63213676D01*
X46136785Y-63160080D01*
X46253236Y-63082270D01*
X46352270Y-62983236D01*
X46430080Y-62866785D01*
X46483676Y-62737391D01*
X46511000Y-62600027D01*
X46511000Y-62459973D01*
X46483676Y-62322609D01*
X46430080Y-62193215D01*
X46352270Y-62076764D01*
X46253236Y-61977730D01*
X46136785Y-61899920D01*
X46007391Y-61846324D01*
X45870027Y-61819000D01*
X45769236Y-61819000D01*
X45761986Y-61811750D01*
X48055000Y-61811750D01*
X48066109Y-61913773D01*
X48104194Y-62032918D01*
X48164792Y-62142343D01*
X48245574Y-62237844D01*
X48343434Y-62315750D01*
X48454613Y-62373067D01*
X48574838Y-62407593D01*
X48699488Y-62418001D01*
X49154250Y-62415000D01*
X49313000Y-62256250D01*
X49313000Y-61653000D01*
X49567000Y-61653000D01*
X49567000Y-62256250D01*
X49725750Y-62415000D01*
X50180512Y-62418001D01*
X50305162Y-62407593D01*
X50425387Y-62373067D01*
X50536566Y-62315750D01*
X50634426Y-62237844D01*
X50715208Y-62142343D01*
X50775806Y-62032918D01*
X50813891Y-61913773D01*
X50825000Y-61811750D01*
X50666250Y-61653000D01*
X49567000Y-61653000D01*
X49313000Y-61653000D01*
X48213750Y-61653000D01*
X48055000Y-61811750D01*
X45761986Y-61811750D01*
X45596830Y-61646594D01*
X45581764Y-61628236D01*
X45508522Y-61568128D01*
X45424961Y-61523464D01*
X45334292Y-61495960D01*
X45263626Y-61489000D01*
X45240000Y-61486673D01*
X45216374Y-61489000D01*
X44082843Y-61489000D01*
X44082843Y-61220000D01*
X44075487Y-61145311D01*
X44053701Y-61073492D01*
X44018322Y-61007304D01*
X43970711Y-60949289D01*
X43959392Y-60940000D01*
X43970711Y-60930711D01*
X44018322Y-60872696D01*
X44053701Y-60806508D01*
X44075487Y-60734689D01*
X44082843Y-60660000D01*
X44082843Y-60391000D01*
X44946374Y-60391000D01*
X44970000Y-60393327D01*
X44993626Y-60391000D01*
X45064292Y-60384040D01*
X45154961Y-60356536D01*
X45238522Y-60311872D01*
X45311764Y-60251764D01*
X45326830Y-60233406D01*
X48074237Y-57486000D01*
X48307157Y-57486000D01*
X48307157Y-57880000D01*
G36*
X57032688Y-58210018D02*
G01*
X57020428Y-58334500D01*
X57023500Y-58366250D01*
X57182250Y-58525000D01*
X58103000Y-58525000D01*
X58103000Y-58505000D01*
X58357000Y-58505000D01*
X58357000Y-58525000D01*
X58377000Y-58525000D01*
X58377000Y-58779000D01*
X58357000Y-58779000D01*
X58357000Y-59445750D01*
X58515750Y-59604500D01*
X58801500Y-59607572D01*
X58850501Y-59602746D01*
X58850501Y-60397130D01*
X55503733Y-63743899D01*
X55479658Y-63763657D01*
X55459900Y-63787732D01*
X55459897Y-63787735D01*
X55406951Y-63852250D01*
X55400805Y-63859739D01*
X55342211Y-63969358D01*
X55306130Y-64088302D01*
X55304955Y-64100235D01*
X55292178Y-64115804D01*
X55256799Y-64181992D01*
X55235013Y-64253811D01*
X55227657Y-64328500D01*
X55227657Y-65471500D01*
X55235013Y-65546189D01*
X55256799Y-65618008D01*
X55292178Y-65684196D01*
X55307001Y-65702258D01*
X55307000Y-65739928D01*
X55302178Y-65745804D01*
X55297223Y-65755074D01*
X55250211Y-65697789D01*
X55192196Y-65650178D01*
X55126008Y-65614799D01*
X55054189Y-65593013D01*
X54979500Y-65585657D01*
X54344500Y-65585657D01*
X54269811Y-65593013D01*
X54197992Y-65614799D01*
X54131804Y-65650178D01*
X54073789Y-65697789D01*
X54026178Y-65755804D01*
X53990799Y-65821992D01*
X53969013Y-65893811D01*
X53961657Y-65968500D01*
X53961657Y-67111500D01*
X53969013Y-67186189D01*
X53981346Y-67226847D01*
X53853215Y-67279920D01*
X53757882Y-67343620D01*
X53773822Y-67324196D01*
X53809201Y-67258008D01*
X53830987Y-67186189D01*
X53838343Y-67111500D01*
X53838343Y-65968500D01*
X53830987Y-65893811D01*
X53809201Y-65821992D01*
X53773822Y-65755804D01*
X53726211Y-65697789D01*
X53668196Y-65650178D01*
X53602008Y-65614799D01*
X53530189Y-65593013D01*
X53455500Y-65585657D01*
X52820500Y-65585657D01*
X52745811Y-65593013D01*
X52673992Y-65614799D01*
X52607804Y-65650178D01*
X52591010Y-65663960D01*
X52591010Y-63070647D01*
X54175658Y-61486000D01*
X54207157Y-61486000D01*
X54207157Y-61780000D01*
X54214513Y-61854689D01*
X54236299Y-61926508D01*
X54271678Y-61992696D01*
X54319289Y-62050711D01*
X54377304Y-62098322D01*
X54443492Y-62133701D01*
X54515311Y-62155487D01*
X54590000Y-62162843D01*
X56090000Y-62162843D01*
X56164689Y-62155487D01*
X56236508Y-62133701D01*
X56302696Y-62098322D01*
X56360711Y-62050711D01*
X56408322Y-61992696D01*
X56443701Y-61926508D01*
X56465487Y-61854689D01*
X56472843Y-61780000D01*
X56472843Y-61330000D01*
X56465487Y-61255311D01*
X56457809Y-61230000D01*
X56465487Y-61204689D01*
X56472843Y-61130000D01*
X56472843Y-60986870D01*
X56534426Y-60937844D01*
X56615208Y-60842343D01*
X56675806Y-60732918D01*
X56713891Y-60613773D01*
X56725000Y-60511750D01*
X56566250Y-60353000D01*
X56452582Y-60353000D01*
X56534426Y-60287844D01*
X56615208Y-60192343D01*
X56675806Y-60082918D01*
X56692473Y-60030777D01*
X56725000Y-59998250D01*
X56717568Y-59930000D01*
X56725000Y-59861750D01*
X56692473Y-59829223D01*
X56675806Y-59777082D01*
X56615208Y-59667657D01*
X56562208Y-59605000D01*
X56615208Y-59542343D01*
X56675806Y-59432918D01*
X56692473Y-59380777D01*
X56725000Y-59348250D01*
X56717568Y-59280000D01*
X56725000Y-59211750D01*
X56692473Y-59179223D01*
X56675806Y-59127082D01*
X56615208Y-59017657D01*
X56574474Y-58969500D01*
X57020428Y-58969500D01*
X57032688Y-59093982D01*
X57068998Y-59213680D01*
X57127963Y-59323994D01*
X57207315Y-59420685D01*
X57304006Y-59500037D01*
X57414320Y-59559002D01*
X57534018Y-59595312D01*
X57658500Y-59607572D01*
X57944250Y-59604500D01*
X58103000Y-59445750D01*
X58103000Y-58779000D01*
X57182250Y-58779000D01*
X57023500Y-58937750D01*
X57020428Y-58969500D01*
X56574474Y-58969500D01*
X56562208Y-58955000D01*
X56615208Y-58892343D01*
X56675806Y-58782918D01*
X56692473Y-58730777D01*
X56725000Y-58698250D01*
X56717568Y-58630000D01*
X56725000Y-58561750D01*
X56692473Y-58529223D01*
X56675806Y-58477082D01*
X56615208Y-58367657D01*
X56534426Y-58272156D01*
X56489009Y-58236000D01*
X56691460Y-58236000D01*
X56720000Y-58238811D01*
X56748540Y-58236000D01*
X56833896Y-58227593D01*
X56943415Y-58194371D01*
X57044348Y-58140421D01*
X57056933Y-58130093D01*
X57032688Y-58210018D01*
X57032688Y-58210018D01*
G37*
X57032688Y-58210018D02*
X57020428Y-58334500D01*
X57023500Y-58366250D01*
X57182250Y-58525000D01*
X58103000Y-58525000D01*
X58103000Y-58505000D01*
X58357000Y-58505000D01*
X58357000Y-58525000D01*
X58377000Y-58525000D01*
X58377000Y-58779000D01*
X58357000Y-58779000D01*
X58357000Y-59445750D01*
X58515750Y-59604500D01*
X58801500Y-59607572D01*
X58850501Y-59602746D01*
X58850501Y-60397130D01*
X55503733Y-63743899D01*
X55479658Y-63763657D01*
X55459900Y-63787732D01*
X55459897Y-63787735D01*
X55406951Y-63852250D01*
X55400805Y-63859739D01*
X55342211Y-63969358D01*
X55306130Y-64088302D01*
X55304955Y-64100235D01*
X55292178Y-64115804D01*
X55256799Y-64181992D01*
X55235013Y-64253811D01*
X55227657Y-64328500D01*
X55227657Y-65471500D01*
X55235013Y-65546189D01*
X55256799Y-65618008D01*
X55292178Y-65684196D01*
X55307001Y-65702258D01*
X55307000Y-65739928D01*
X55302178Y-65745804D01*
X55297223Y-65755074D01*
X55250211Y-65697789D01*
X55192196Y-65650178D01*
X55126008Y-65614799D01*
X55054189Y-65593013D01*
X54979500Y-65585657D01*
X54344500Y-65585657D01*
X54269811Y-65593013D01*
X54197992Y-65614799D01*
X54131804Y-65650178D01*
X54073789Y-65697789D01*
X54026178Y-65755804D01*
X53990799Y-65821992D01*
X53969013Y-65893811D01*
X53961657Y-65968500D01*
X53961657Y-67111500D01*
X53969013Y-67186189D01*
X53981346Y-67226847D01*
X53853215Y-67279920D01*
X53757882Y-67343620D01*
X53773822Y-67324196D01*
X53809201Y-67258008D01*
X53830987Y-67186189D01*
X53838343Y-67111500D01*
X53838343Y-65968500D01*
X53830987Y-65893811D01*
X53809201Y-65821992D01*
X53773822Y-65755804D01*
X53726211Y-65697789D01*
X53668196Y-65650178D01*
X53602008Y-65614799D01*
X53530189Y-65593013D01*
X53455500Y-65585657D01*
X52820500Y-65585657D01*
X52745811Y-65593013D01*
X52673992Y-65614799D01*
X52607804Y-65650178D01*
X52591010Y-65663960D01*
X52591010Y-63070647D01*
X54175658Y-61486000D01*
X54207157Y-61486000D01*
X54207157Y-61780000D01*
X54214513Y-61854689D01*
X54236299Y-61926508D01*
X54271678Y-61992696D01*
X54319289Y-62050711D01*
X54377304Y-62098322D01*
X54443492Y-62133701D01*
X54515311Y-62155487D01*
X54590000Y-62162843D01*
X56090000Y-62162843D01*
X56164689Y-62155487D01*
X56236508Y-62133701D01*
X56302696Y-62098322D01*
X56360711Y-62050711D01*
X56408322Y-61992696D01*
X56443701Y-61926508D01*
X56465487Y-61854689D01*
X56472843Y-61780000D01*
X56472843Y-61330000D01*
X56465487Y-61255311D01*
X56457809Y-61230000D01*
X56465487Y-61204689D01*
X56472843Y-61130000D01*
X56472843Y-60986870D01*
X56534426Y-60937844D01*
X56615208Y-60842343D01*
X56675806Y-60732918D01*
X56713891Y-60613773D01*
X56725000Y-60511750D01*
X56566250Y-60353000D01*
X56452582Y-60353000D01*
X56534426Y-60287844D01*
X56615208Y-60192343D01*
X56675806Y-60082918D01*
X56692473Y-60030777D01*
X56725000Y-59998250D01*
X56717568Y-59930000D01*
X56725000Y-59861750D01*
X56692473Y-59829223D01*
X56675806Y-59777082D01*
X56615208Y-59667657D01*
X56562208Y-59605000D01*
X56615208Y-59542343D01*
X56675806Y-59432918D01*
X56692473Y-59380777D01*
X56725000Y-59348250D01*
X56717568Y-59280000D01*
X56725000Y-59211750D01*
X56692473Y-59179223D01*
X56675806Y-59127082D01*
X56615208Y-59017657D01*
X56574474Y-58969500D01*
X57020428Y-58969500D01*
X57032688Y-59093982D01*
X57068998Y-59213680D01*
X57127963Y-59323994D01*
X57207315Y-59420685D01*
X57304006Y-59500037D01*
X57414320Y-59559002D01*
X57534018Y-59595312D01*
X57658500Y-59607572D01*
X57944250Y-59604500D01*
X58103000Y-59445750D01*
X58103000Y-58779000D01*
X57182250Y-58779000D01*
X57023500Y-58937750D01*
X57020428Y-58969500D01*
X56574474Y-58969500D01*
X56562208Y-58955000D01*
X56615208Y-58892343D01*
X56675806Y-58782918D01*
X56692473Y-58730777D01*
X56725000Y-58698250D01*
X56717568Y-58630000D01*
X56725000Y-58561750D01*
X56692473Y-58529223D01*
X56675806Y-58477082D01*
X56615208Y-58367657D01*
X56534426Y-58272156D01*
X56489009Y-58236000D01*
X56691460Y-58236000D01*
X56720000Y-58238811D01*
X56748540Y-58236000D01*
X56833896Y-58227593D01*
X56943415Y-58194371D01*
X57044348Y-58140421D01*
X57056933Y-58130093D01*
X57032688Y-58210018D01*
G36*
X53955000Y-58561750D02*
G01*
X53962432Y-58630000D01*
X53955000Y-58698250D01*
X53987527Y-58730777D01*
X54004194Y-58782918D01*
X54064792Y-58892343D01*
X54117792Y-58955000D01*
X54064792Y-59017657D01*
X54004194Y-59127082D01*
X53987527Y-59179223D01*
X53955000Y-59211750D01*
X53962432Y-59280000D01*
X53955000Y-59348250D01*
X53987527Y-59380777D01*
X54004194Y-59432918D01*
X54064792Y-59542343D01*
X54117792Y-59605000D01*
X54064792Y-59667657D01*
X54004194Y-59777082D01*
X53987527Y-59829223D01*
X53955000Y-59861750D01*
X53962432Y-59930000D01*
X53955000Y-59998250D01*
X53987527Y-60030777D01*
X54004194Y-60082918D01*
X54064792Y-60192343D01*
X54145574Y-60287844D01*
X54190991Y-60324000D01*
X54085629Y-60324000D01*
X54063895Y-60317407D01*
X53950000Y-60306189D01*
X53949999Y-60306189D01*
X53836104Y-60317407D01*
X53726585Y-60350629D01*
X53690295Y-60370027D01*
X53625653Y-60404579D01*
X53625651Y-60404580D01*
X53625652Y-60404580D01*
X53559351Y-60458991D01*
X53559346Y-60458996D01*
X53537184Y-60477184D01*
X53518996Y-60499346D01*
X52591010Y-61427332D01*
X52591010Y-58645647D01*
X52670658Y-58566000D01*
X53831460Y-58566000D01*
X53860000Y-58568811D01*
X53888540Y-58566000D01*
X53957547Y-58559203D01*
X53955000Y-58561750D01*
X53955000Y-58561750D01*
G37*
X53955000Y-58561750D02*
X53962432Y-58630000D01*
X53955000Y-58698250D01*
X53987527Y-58730777D01*
X54004194Y-58782918D01*
X54064792Y-58892343D01*
X54117792Y-58955000D01*
X54064792Y-59017657D01*
X54004194Y-59127082D01*
X53987527Y-59179223D01*
X53955000Y-59211750D01*
X53962432Y-59280000D01*
X53955000Y-59348250D01*
X53987527Y-59380777D01*
X54004194Y-59432918D01*
X54064792Y-59542343D01*
X54117792Y-59605000D01*
X54064792Y-59667657D01*
X54004194Y-59777082D01*
X53987527Y-59829223D01*
X53955000Y-59861750D01*
X53962432Y-59930000D01*
X53955000Y-59998250D01*
X53987527Y-60030777D01*
X54004194Y-60082918D01*
X54064792Y-60192343D01*
X54145574Y-60287844D01*
X54190991Y-60324000D01*
X54085629Y-60324000D01*
X54063895Y-60317407D01*
X53950000Y-60306189D01*
X53949999Y-60306189D01*
X53836104Y-60317407D01*
X53726585Y-60350629D01*
X53690295Y-60370027D01*
X53625653Y-60404579D01*
X53625651Y-60404580D01*
X53625652Y-60404580D01*
X53559351Y-60458991D01*
X53559346Y-60458996D01*
X53537184Y-60477184D01*
X53518996Y-60499346D01*
X52591010Y-61427332D01*
X52591010Y-58645647D01*
X52670658Y-58566000D01*
X53831460Y-58566000D01*
X53860000Y-58568811D01*
X53888540Y-58566000D01*
X53957547Y-58559203D01*
X53955000Y-58561750D01*
G36*
X44770764Y-59429000D02*
G01*
X44082843Y-59429000D01*
X44082843Y-59160000D01*
X44075487Y-59085311D01*
X44053701Y-59013492D01*
X44018322Y-58947304D01*
X43970711Y-58889289D01*
X43912696Y-58841678D01*
X43846508Y-58806299D01*
X43774689Y-58784513D01*
X43700000Y-58777157D01*
X41072000Y-58777157D01*
X41072000Y-58122843D01*
X43700000Y-58122843D01*
X43774689Y-58115487D01*
X43846508Y-58093701D01*
X43912696Y-58058322D01*
X43970711Y-58010711D01*
X44018322Y-57952696D01*
X44053701Y-57886508D01*
X44075487Y-57814689D01*
X44082843Y-57740000D01*
X44082843Y-57621000D01*
X44169010Y-57621000D01*
X44200000Y-57624052D01*
X44230990Y-57621000D01*
X44230998Y-57621000D01*
X44323698Y-57611870D01*
X44442642Y-57575789D01*
X44552261Y-57517196D01*
X44648343Y-57438343D01*
X44668105Y-57414263D01*
X45281369Y-56801000D01*
X47398763Y-56801000D01*
X44770764Y-59429000D01*
X44770764Y-59429000D01*
G37*
X44770764Y-59429000D02*
X44082843Y-59429000D01*
X44082843Y-59160000D01*
X44075487Y-59085311D01*
X44053701Y-59013492D01*
X44018322Y-58947304D01*
X43970711Y-58889289D01*
X43912696Y-58841678D01*
X43846508Y-58806299D01*
X43774689Y-58784513D01*
X43700000Y-58777157D01*
X41072000Y-58777157D01*
X41072000Y-58122843D01*
X43700000Y-58122843D01*
X43774689Y-58115487D01*
X43846508Y-58093701D01*
X43912696Y-58058322D01*
X43970711Y-58010711D01*
X44018322Y-57952696D01*
X44053701Y-57886508D01*
X44075487Y-57814689D01*
X44082843Y-57740000D01*
X44082843Y-57621000D01*
X44169010Y-57621000D01*
X44200000Y-57624052D01*
X44230990Y-57621000D01*
X44230998Y-57621000D01*
X44323698Y-57611870D01*
X44442642Y-57575789D01*
X44552261Y-57517196D01*
X44648343Y-57438343D01*
X44668105Y-57414263D01*
X45281369Y-56801000D01*
X47398763Y-56801000D01*
X44770764Y-59429000D01*
G36*
X54207157Y-57072879D02*
G01*
X54189999Y-57071189D01*
X54161462Y-57074000D01*
X54161460Y-57074000D01*
X54076104Y-57082407D01*
X53966585Y-57115629D01*
X53865652Y-57169579D01*
X53777183Y-57242183D01*
X53758983Y-57264360D01*
X53619343Y-57404000D01*
X52458540Y-57404000D01*
X52430000Y-57401189D01*
X52401460Y-57404000D01*
X51160657Y-57404000D01*
X51021017Y-57264360D01*
X51002817Y-57242183D01*
X50914348Y-57169579D01*
X50813415Y-57115629D01*
X50703896Y-57082407D01*
X50618540Y-57074000D01*
X50590000Y-57071189D01*
X50572843Y-57072879D01*
X50572843Y-56801000D01*
X54207157Y-56801000D01*
X54207157Y-57072879D01*
X54207157Y-57072879D01*
G37*
X54207157Y-57072879D02*
X54189999Y-57071189D01*
X54161462Y-57074000D01*
X54161460Y-57074000D01*
X54076104Y-57082407D01*
X53966585Y-57115629D01*
X53865652Y-57169579D01*
X53777183Y-57242183D01*
X53758983Y-57264360D01*
X53619343Y-57404000D01*
X52458540Y-57404000D01*
X52430000Y-57401189D01*
X52401460Y-57404000D01*
X51160657Y-57404000D01*
X51021017Y-57264360D01*
X51002817Y-57242183D01*
X50914348Y-57169579D01*
X50813415Y-57115629D01*
X50703896Y-57082407D01*
X50618540Y-57074000D01*
X50590000Y-57071189D01*
X50572843Y-57072879D01*
X50572843Y-56801000D01*
X54207157Y-56801000D01*
X54207157Y-57072879D01*
M02*
