G04 #@! TF.GenerationSoftware,KiCad,Pcbnew,5.0.2+dfsg1-1*
G04 #@! TF.CreationDate,2019-05-06T01:44:38+03:00*
G04 #@! TF.ProjectId,cps1_adapter,63707331-5f61-4646-9170-7465722e6b69,rev?*
G04 #@! TF.SameCoordinates,Original*
G04 #@! TF.FileFunction,Paste,Top*
G04 #@! TF.FilePolarity,Positive*
%FSLAX46Y46*%
G04 Gerber Fmt 4.6, Leading zero omitted, Abs format (unit mm)*
G04 Created by KiCad (PCBNEW 5.0.2+dfsg1-1) date 2019-05-06T01:44:38 EEST*
%MOMM*%
%LPD*%
G01*
G04 APERTURE LIST*
%ADD10R,1.143000X0.635000*%
%ADD11R,1.750000X0.450000*%
%ADD12R,1.500000X0.450000*%
%ADD13R,0.635000X1.143000*%
G04 APERTURE END LIST*
D10*
G04 #@! TO.C,R7*
X61970000Y-74982000D03*
X61970000Y-73458000D03*
G04 #@! TD*
D11*
G04 #@! TO.C,U2*
X49750000Y-68755000D03*
X49750000Y-69405000D03*
X49750000Y-70055000D03*
X49750000Y-70705000D03*
X49750000Y-71355000D03*
X49750000Y-72005000D03*
X49750000Y-72655000D03*
X49750000Y-73305000D03*
X49750000Y-73955000D03*
X49750000Y-74605000D03*
X56950000Y-74605000D03*
X56950000Y-73955000D03*
X56950000Y-73305000D03*
X56950000Y-72655000D03*
X56950000Y-72005000D03*
X56950000Y-71355000D03*
X56950000Y-70705000D03*
X56950000Y-70055000D03*
X56950000Y-69405000D03*
X56950000Y-68755000D03*
G04 #@! TD*
D12*
G04 #@! TO.C,U1*
X49440000Y-57005000D03*
X49440000Y-57655000D03*
X49440000Y-58305000D03*
X49440000Y-58955000D03*
X49440000Y-59605000D03*
X49440000Y-60255000D03*
X49440000Y-60905000D03*
X49440000Y-61555000D03*
X55340000Y-61555000D03*
X55340000Y-60905000D03*
X55340000Y-60255000D03*
X55340000Y-59605000D03*
X55340000Y-58955000D03*
X55340000Y-58305000D03*
X55340000Y-57655000D03*
X55340000Y-57005000D03*
G04 #@! TD*
D13*
G04 #@! TO.C,C2*
X51852000Y-64900000D03*
X50328000Y-64900000D03*
G04 #@! TD*
G04 #@! TO.C,C3*
X45588000Y-74610000D03*
X47112000Y-74610000D03*
G04 #@! TD*
G04 #@! TO.C,C4*
X47122000Y-72980000D03*
X45598000Y-72980000D03*
G04 #@! TD*
D10*
G04 #@! TO.C,C5*
X57410000Y-76748000D03*
X57410000Y-78272000D03*
G04 #@! TD*
D13*
G04 #@! TO.C,C11*
X55938000Y-66530000D03*
X57462000Y-66530000D03*
G04 #@! TD*
G04 #@! TO.C,C10*
X57452000Y-64900000D03*
X55928000Y-64900000D03*
G04 #@! TD*
D10*
G04 #@! TO.C,C9*
X63610000Y-73458000D03*
X63610000Y-74982000D03*
G04 #@! TD*
G04 #@! TO.C,C8*
X63600000Y-72142000D03*
X63600000Y-70618000D03*
G04 #@! TD*
G04 #@! TO.C,C7*
X55780000Y-76748000D03*
X55780000Y-78272000D03*
G04 #@! TD*
G04 #@! TO.C,C6*
X58230000Y-58652000D03*
X58230000Y-57128000D03*
G04 #@! TD*
D13*
G04 #@! TO.C,C1*
X51852000Y-66530000D03*
X50328000Y-66530000D03*
G04 #@! TD*
D10*
G04 #@! TO.C,R6*
X61970000Y-70618000D03*
X61970000Y-72142000D03*
G04 #@! TD*
D13*
G04 #@! TO.C,R4*
X53138000Y-66540000D03*
X54662000Y-66540000D03*
G04 #@! TD*
D10*
G04 #@! TO.C,R3*
X60320000Y-72142000D03*
X60320000Y-70618000D03*
G04 #@! TD*
G04 #@! TO.C,R2*
X47310000Y-68242000D03*
X47310000Y-66718000D03*
G04 #@! TD*
G04 #@! TO.C,R1*
X45690000Y-68242000D03*
X45690000Y-66718000D03*
G04 #@! TD*
G04 #@! TO.C,R5*
X60330000Y-73458000D03*
X60330000Y-74982000D03*
G04 #@! TD*
M02*
